<?xml version="1.0" encoding="utf-8"?>
<!-- Generator: Adobe Illustrator 16.0.3, SVG Export Plug-In . SVG Version: 6.00 Build 0)  -->
<!DOCTYPE svg PUBLIC "-//W3C//DTD SVG 1.1//EN" "http://www.w3.org/Graphics/SVG/1.1/DTD/svg11.dtd">
<svg version="1.1" id="Layer_1" xmlns="http://www.w3.org/2000/svg" xmlns:xlink="http://www.w3.org/1999/xlink" x="0px" y="0px"
	 width="386.156px" height="82.712px" viewBox="173.725 -293.033 386.156 82.712"
	 enable-background="new 173.725 -293.033 386.156 82.712" xml:space="preserve">
<g>
	<g>
		<path fill="#FFFFFF" d="M175.746-265.776c0.114,0.016,0.228,0.033,0.341,0.051c0-0.514-0.02-0.562,0.553-0.533
			c0.652,0.032,1.293,0.045,1.945,0.036c1.087-0.014,2.175-0.029,3.263-0.039c0.392-0.002,0.979,0.124,1.346-0.045
			c0.396-0.182,0.236-0.977,0.236-1.3c0-1.159,0-2.319-0.002-3.479c-0.004-2.313-0.026-4.625-0.085-6.938
			c-0.028-1.107,0.048-2.268-0.295-3.335c-0.212-0.66-0.872-1.566-1.575-0.728c-0.132-0.43,0.021-0.774-0.51-0.845
			c-0.818-0.106-1.063-1.006-1.644-1.479c-0.36-0.293-1.279-0.601-1.377-1.1c-0.082-0.416-0.492-0.283-0.914-0.308
			c-0.404-0.023-0.809-0.086-1.155-0.312c0.323,0.062,0.852,0.315,1.008-0.123c-0.242-0.046-0.484-0.091-0.726-0.135
			c0.557-0.293,1.2-0.117,1.787-0.288c-0.188-0.058-0.376-0.115-0.564-0.173c0-0.327,0.259-0.658,0.409-0.944
			c0.033,0.176,0.066,0.352,0.101,0.528c0.448-0.195,0.023-0.737,0.399-0.954c0.212,0.376,0.454,0.945,0.991,0.868
			c0.646-0.089,1.088,0.476,1.607,0.297c0.378-0.13,1.018-0.39,1.213,0.193c0.12,0.36,0.162,0.263,0.574,0.283
			c0.465,0.022,0.933,0.003,1.398,0c1.515-0.01,3.029-0.021,4.543-0.028c0.494,0,0.811,0.343,1.361,0.331
			c0.847-0.022,1.692-0.068,2.539-0.085c3.077-0.065,6.262,0.037,9.329,0.283c3.07,0.246,6.033,0.794,8.971,1.741
			c1.336,0.431,2.598,1.067,3.771,1.831c0.61,0.396,1.207,0.814,1.818,1.208c0.535,0.345,0.93,0.796,1.477,1.085
			c0.408,0.214,0.582,0.824,0.912,1.144c0.453,0.439,0.977,0.81,1.457,1.217c0.105,0.092,1.121,0.693,1.121,0.691
			c0.021,0.247-0.219,0.515-0.201,0.798c0.021,0.39,0.188,0.813,0.326,1.174c0.225,0.586,0.723,0.964,0.818,1.582
			c0.09,0.588,0.259,1.056,0.43,1.635c0.354,1.21,0.771,2.424,1.049,3.637c0.123,0.548,0.027,1.117,0.086,1.671
			c0.049,0.467,0.563,0.358,0.92,0.367c1.563,0.037,3.125,0.04,4.688,0.036c0.477-0.001,1.346,0.176,1.701-0.247
			c0.459-0.542,0.677-1.54,0.928-2.199c0.609-1.6,1.016-3.267,1.48-4.912c0.424-1.491,0.805-2.976,1.145-4.487
			c0.273-1.219,0.578-2.913-0.184-4.022c0.283,0.031,0.342-0.396,0.635-0.134c0.111,0.096,0.752-0.521,0.83-0.586
			c-1.137-0.135-2.273-0.271-3.412-0.407c0.115-0.041,0.23-0.082,0.346-0.122c-0.24-0.16-0.479-0.321-0.723-0.481
			c0.328-0.267,0.438-0.133,0.805,0.096c0.373,0.232,0.521,0.029,0.896,0.163c0.379,0.135,0.459,0.153,0.9,0.173
			c0.262,0.012,1.008-0.179,1.188-0.054c0.295,0.202,0.822-0.219,1.132-0.367c0.504-0.242,0.444-0.781,0.474-1.306
			c0.021-0.38-0.082-3.076,0.291-3.035c-0.039,0.518-0.055,1.01-0.012,1.529c0.035,0.435,0.285,0.898,0.1,1.329
			c-0.154,0.367-0.203,1.226,0.4,1.007c0.447-0.162,0.744-0.535,1.084-0.848c0.785-0.72,1.244-1.491,1.764-2.409
			c0.104-0.182,0.1-0.586,0.401-0.551c0.336,0.04,0.347-0.064,0.673-0.237c0.09,0.988,0.674,1.798,1,2.709
			c0.359,1.008,0.727,2.015,1.098,3.021c0.85,2.292,1.582,4.592,2.338,6.915c0.711,2.192,1.482,4.365,2.211,6.552
			c0.269,0.807,0.428,2.001,0.943,2.688c0.371,0.495,1.936,0.201,2.461,0.201c-0.037,0.483-0.07,0.593-0.586,0.71
			c-0.492,0.112-1.006,0.065-1.502,0.158c0.618,2.641,1.729,5.23,2.584,7.804c0.907,2.722,1.778,5.461,2.766,8.156
			c0.744,2.028,3.426,4.155,5.691,3.75c2.043-0.364,3.27-2.706,2.502-4.581c0.135,0.076,0.268,0.151,0.4,0.226
			c0.482-3,0.076-6.109,0.184-9.13c0.057-1.577-0.061-3.149-0.041-4.726c0.004-0.367,0.014-0.735-0.004-1.102
			c-0.023-0.493-0.227-0.447-0.688-0.487c-0.338-0.029-0.678-0.01-1.016-0.002c-0.394,0.009-1.113,0.183-0.92-0.336
			c-0.219,0.083-0.334,0.414-0.605,0.222c-0.086-0.078-0.375,0.577-0.412,0.617c-0.25-0.612-0.41-0.522-1.051-0.574
			c0.07-0.104,0.146-0.209,0.222-0.313c-0.087-0.067-0.185-0.072-0.29-0.013c-0.383,0.27,0.197,0.374-0.486,0.375
			c-0.58,0.001-1.158,0.004-1.738-0.006c-0.104-0.031-0.203-0.075-0.295-0.132c-0.398-0.131-0.269-0.016-0.635,0.027
			c-0.408,0.048-0.941,0.24-0.85-0.341c0.705-0.531,2.121-0.282,3.004-0.282c0.535,0,1.033,0.066,1.563,0.113
			c0.646,0.062,0.465-0.76,0.5-1.234c0.425,0.372,0,1.009,0.437,1.351c0.492-0.422,1.935-0.263,2.595-0.286
			c1.062-0.035,0.676-1.209,0.67-2.011c-0.021-2.544,0.104-5.061,0.149-7.604c0.033-1.91,0.216-5.983-2.058-6.724
			c-0.469-0.153-1.021-0.183-1.461-0.403c-0.424-0.211-0.676-0.706-0.946-1.069c-0.285-0.377-0.5-0.48-0.88-0.721
			c-0.149-0.095-0.155-0.327-0.297-0.454c-0.188-0.169-0.448-0.248-0.688-0.313c0.749-0.251,1.781-0.294,2.568-0.146
			c0.967,0.179,1.961-0.178,2.934-0.24c2.264-0.145,4.539-0.111,6.805-0.164c2.348-0.055,4.693-0.054,7.041,0.043
			c2.277,0.094,4.479,0.449,6.734,0.698c1.848,0.202,3.563,1.621,4.775,2.955c1.371,1.508,2.599,3.224,3.125,5.21
			c0.523,1.968,0.611,4.153,0.078,6.133c-0.51,1.896-1.769,3.256-2.963,4.736c3.334,0.346,6.764-0.069,10.057,0.354
			c-0.268,0.469-1.174,0.608-1.684,0.368c-0.771-0.366-1.922-0.006-2.725,0.101c-1.926,0.256-3.939-0.064-5.881,0.061
			c-0.879,0.057-1.229,0.289-1.938,0.809c-0.375,0.275-0.75,0.552-1.123,0.828c-0.527,0.389-0.525,0.351-0.279,0.965
			c0.695,1.73,1.828,3.409,2.824,4.98c2.022,3.189,3.881,6.563,6.385,9.413c0.58,0.66,1.193,1.295,1.836,1.895
			c0.621,0.579,1.359,0.951,2.015,1.479c1.327,1.066,2.624,1.517,4.192,2.109c-1.1,0.316-2.482,0.042-3.625,0.021
			c-0.586-0.01-1.17-0.021-1.756-0.034c-0.463-0.015-0.717-0.228-1.145-0.296c-1.439-0.235-2.885-0.469-4.326-0.705
			c-1.009-0.159-2.174-0.811-3.064-1.301c-2.072-1.146-3.672-3.418-5.079-5.266c-0.776-1.02-1.39-2.139-2.095-3.205
			c-0.355-0.538-0.782-1.076-1.063-1.66c-0.27-0.567-0.368-1.116-0.743-1.646c-0.688-0.974-1.384-1.984-2.127-2.912
			c-0.696-0.867-1.557-2.076-2.627-2.485c-0.479-0.184-2.336-0.609-2.481,0.169c-0.252,1.322,0.021,2.937,0.047,4.282
			c0.022,1.37-0.029,2.736,0.021,4.11c0.021,0.639,0.038,1.277,0.012,1.916c-0.024,0.503-0.25,1.394-0.062,1.867
			c0.213,0.515,0.179,1.08,0.261,1.621c0.096,0.64,0.355,1,0.771,1.479c0.896,1.041,1.769,1.896,3.217,1.921
			c-0.282,0.058-0.479,0.068-0.768,0.068c0.242,0.311,0.563,0.599,0.75,0.944c0.219,0.4,0.18,0.58,0.5,0.928
			c-0.424,0.289-1.559,0.052-2.076,0.039c-0.781-0.02-1.563-0.039-2.346-0.059c-1.688-0.042-3.377-0.08-5.064-0.104
			c-3.209-0.047-6.395-0.245-9.604-0.178c-3.275,0.068-6.553,0.104-9.826,0.135c-0.643,0.006-4.063,0.385-4.312-0.196
			c-0.104-0.252,0.624-1.282,0.778-1.51c0.351-0.526,1.221-0.532,1.656-0.972c0.771-0.773,0.025-2.533-0.227-3.388
			c-0.189-0.645-0.449-1.279-0.59-1.938c-0.133-0.618-0.549-1.066-0.631-1.686c-0.068-0.516-0.391-0.92-0.572-1.416
			c-0.217-0.594-0.422-1.18-0.695-1.752c-0.49-1.019-0.742-2.447-2.094-2.485c-2.712-0.077-5.473-0.291-8.207-0.105
			c-1.461,0.099-1.712,1.157-2.186,2.345c-0.575,1.446-1.012,2.936-1.551,4.394c-0.313,0.844-0.563,1.684-0.811,2.547
			c-0.248,0.872-0.917,1.789-0.621,2.723c0.333,1.054,1.167,1.185,2.167,1.333c0.761,0.117,1.207,1.573,1.536,2.169
			c-0.564,0.288-1.157-0.094-1.73,0.033c-0.097,0.021-0.334,0.276-0.474,0.144c-0.19-0.184-0.438-0.242-0.696-0.237
			c-1.457,0.02-2.918,0.268-4.375,0.241c-1.509-0.028-3.017,0-4.521,0.004c-0.67,0.008-1.258-0.209-1.95-0.146
			c-0.569,0.054-1.131,0.122-1.698,0.198c0.303-0.374,0.592-0.753,0.877-1.143c0.285-0.391,0.727-1.379,1.227-1.504
			c0.521-0.131,1.07,0.041,1.601-0.14c0.517-0.176,1.021-0.396,1.478-0.696c0.979-0.648,1.289-1.58,1.808-2.578
			c0.267-0.512,0.547-1.021,0.729-1.569c0.166-0.497,0.602-0.852,0.838-1.329c1.082-2.174,1.781-4.485,2.613-6.777
			c0.799-2.192,2.168-4.303,2.649-6.612c-1.478-0.141-2.938-0.126-4.421-0.109c-0.916,0.01-2.528-0.381-2.553,0.866
			c-0.047,2.75-0.381,5.412-1.662,7.89c-0.611,1.183-1.157,2.396-2.021,3.421c-0.857,1.021-1.678,2.056-2.555,3.063
			c-0.359,0.414-0.898,0.606-1.232,1.023c-0.365,0.456-0.582,0.908-1.111,1.217c-1.27,0.733-2.533,1.485-3.819,2.194
			c-4.979,2.742-10.901,2.884-16.476,2.897c-6.048,0.014-12.203,0.291-18.229-0.236c0.367-0.345,1.281-0.93,1.248-1.51
			c-0.028-0.48,0.054-0.354,0.533-0.538c0.041-0.484,0.083-0.968,0.124-1.451c0.234,0.056,0.239,0.246,0.284,0.438
			c0.085,0.358,0.52,0.076,0.771,0.016c0.535-0.131,0.997-0.191,1.524-0.292c0.573-0.108,1.071-0.429,1.593-0.669
			c0.714-0.33,0.794-0.723,0.902-1.489c0.205-1.443,0.042-3.007,0.042-4.463c0-1.608,0.022-3.215-0.005-4.824
			c-0.023-1.38,0.141-2.915-0.044-4.274c-0.142-1.04,0.043-2.146-0.232-3.185c-1.503-0.181-3.024-0.163-4.538-0.165
			c-0.761,0-1.522,0.014-2.283,0.039c-0.546,0.017-1.625,0.267-2.051-0.209 M199.495-246.985c-0.043,0.039-0.379,0.406-0.42,0.452
			c1.549-0.223,3.028-0.741,4.53-1.16c0.69-0.191,1.397-0.189,1.974-0.609c0.687-0.5,1.563-0.595,2.283-1.042
			c0.629-0.391,1.266-0.792,1.788-1.32c0.259-0.261,0.381-0.592,0.606-0.873c0.234-0.288,0.589-0.436,0.875-0.662
			c0.541-0.425,0.966-0.979,1.257-1.602c0.202-0.43,0.358-0.884,0.524-1.329c0.178-0.473,0.356-0.606-0.011-0.96
			c0.378-0.262,0.507-2.29,0.949-1.813c-0.244-1.347,0.272-2.587,0.31-3.916c0.016-0.604,0.03-1.209,0.043-1.813
			c0.008-0.47,0.149-1.168-0.041-1.617c-0.238-0.552-2.486-0.241-2.981-0.246c-1.326-0.012-2.649,0.021-3.966-0.15
			c-0.045-0.151,0.043-0.219,0.261-0.206c-0.074-0.102-0.149-0.203-0.226-0.304c1.278-0.367,3.015-0.11,4.349-0.135
			c0.647-0.012,1.549,0.125,2.166-0.089c0.549-0.191-0.062-1.104-0.132-1.442c-0.053-0.259-0.096-1.521-0.366-1.603
			c-0.201-0.061-0.591-0.385-0.541-0.677c0.252-1.559-0.488-2.747-1.073-4.119c-0.57-1.337-1.415-2.415-2.275-3.574
			c-0.394-0.53-0.76-1.161-1.266-1.593c-0.587-0.501-1.332-0.86-1.982-1.274c-2.625-1.677-5.385-2.028-8.467-2.025
			c-1.574,0.002-2.797,0.416-4.273,0.919c-0.62,0.211-0.752,0.325-1.088,0.855c-0.375,0.595-0.896,0.691-0.982,1.498
			c-0.341,3.099-0.467,6.226-0.439,9.343c0.03,3.278,0.211,6.549,0.213,9.831c0.001,1.579-0.001,3.157-0.001,4.736
			c0,0.718,0.012,1.384,0.115,2.089c0.107,0.73-0.111,1.472-0.052,2.208c0.141,1.767,1.517,3.345,3.015,4.191
			c0.904,0.51,1.676,0.433,2.697,0.445c0.426,0.006,0.85,0.043,1.273-0.003C198.633-246.622,199.025-246.921,199.495-246.985z
			 M272.848-266.395c1.84,0.12,4.051,0.344,5.842-0.167c0.963-0.274,1.943-0.687,2.814-1.177c0.498-0.28,0.016-0.317,0.412-0.749
			c0.36-0.394,0.604-0.8,0.86-1.264c1.028-1.853,1.229-3.475,1.043-5.59c-0.177-2.004-1.125-4.211-2.8-5.426
			c-0.789-0.572-1.688-0.964-2.629-1.209c-1.057-0.276-2.127-0.1-3.182-0.325c-0.252-0.055-0.476,0.235-0.711,0.166
			c-0.332-0.097-0.688-0.133-1.018-0.002c-0.795,0.314-0.648,1.34-0.65,2.029c0,0.475,0.018,0.951,0.002,1.426
			c-0.02,0.544-0.215,1.112-0.174,1.645c0.096,1.089,0.121,2.164,0.133,3.257C272.822-271.319,272.848-268.857,272.848-266.395
			C273.133-266.375,272.848-267.054,272.848-266.395z M238.182-266.368c0.838,0.053,1.693,0.234,2.523,0.012
			c0.032-0.726-0.348-1.171-0.557-1.831c-0.547-1.716-1.09-3.431-1.67-5.136c-0.143,1.612,0.197,3.47-0.309,5.022
			c-0.367-0.825-0.184-2.082-0.199-2.971c-0.021-1.036,0.02-2.09-0.09-3.121c-0.326-0.033-1.182,2.88-1.342,3.316
			c-0.436,1.182-0.855,2.368-1.33,3.534c-0.433,1.064-0.34,1.2,0.77,1.244c0.512,0.021,0.625,0.449,1.207,0.363
			C237.551-265.989,238.025-266.022,238.182-266.368C239.036-266.314,238.159-266.314,238.182-266.368z M237.982-265.447
			c-0.987,0-1.976-0.003-2.963,0.005c-1.011,0.008-0.914,1.055-1.054,1.829c-0.041,0.225-0.256,0.55,0.035,0.704
			c0.403,0.216,1.021,0.196,1.467,0.204c1.058,0.02,2.125-0.017,3.166,0.201c0.322,0.062,0.753-0.101,1.095-0.081
			c0.431,0.024,0.864,0.053,1.291-0.022c0.586-0.104,0.694-0.243,0.627-0.833c-0.06-0.508-0.26-0.983-0.424-1.463
			c-0.31-0.903-1.66-0.631-2.476-0.587c-0.719,0.038-0.106,0.868-0.721,1.063C238.014-264.767,237.999-265.107,237.982-265.447
			C236.831-265.447,237.999-265.084,237.982-265.447z M177.555-286.218c-0.051-0.068-0.102-0.068-0.152,0
			C177.454-286.155,177.504-286.155,177.555-286.218C177.531-286.236,177.531-286.201,177.555-286.218z"/>
		<path fill="#FFFFFF" d="M465.137-266.783c0.219,0.408,0.156,0.558,0.66,0.557c0.373,0,0.746-0.002,1.121,0
			c0.141,0,1.381,0.199,1.455,0.116c0.273-0.329,1.258-0.152,1.635-0.132c0.27,0.014,0.473,0.046,0.723,0.146
			c0.451,0.181,0.51-0.336,0.809,0.135c0.158-0.264,0.4-0.306,0.664-0.163c-0.152,0.117-0.305,0.185-0.355,0.385
			c-0.098,0.391-0.471,0.223-0.82,0.223c-0.771,0-1.539,0-2.311,0c-0.77,0-1.537,0-2.307,0c-0.383,0-0.768,0-1.148,0
			c-0.201,0.375-0.061,0.814-0.299,1.182c-0.02-0.396-0.043-0.791-0.064-1.186c-0.5,0-1.004,0-1.506,0c-1.104,0-2.209,0-3.313,0
			c-0.668,0-6.141-0.231-6.191,0.162c-0.27,2.047-0.252,4.412-0.008,6.462c0.705-1.16,0.359-2.928,1.605-3.812
			c-0.076,0.642-0.553,1.33-0.73,1.984c-0.25,0.909-0.342,1.767-0.475,2.696c-0.102,0.694-0.023,1.581,0.133,2.266
			c0.18,0.778,0.893,1.344,1.324,1.988c-0.477-0.064-0.451-0.123-0.648,0.295c-0.182,0.388,0.197,0.937,0.379,1.259
			c0.475,0.829,0.953,1.67,1.652,2.33c1.527,1.441,3.43,2.645,5.449,3.216c1.926,0.547,4.35,0.594,6.25-0.092
			c0.883-0.317,1.672-0.938,2.479-1.414c0.85-0.5,1.625-1.049,2.271-1.798c1.109-1.286,2.186-2.823,2.555-4.466
			c0.439-1.959,0.582-3.924,0.893-5.9c0.174-1.082,0.146-2.18,0.16-3.271c0.008-0.484,0.027-0.97,0.078-1.452
			c0.066-0.588-0.715-0.417-1.121-0.443c-0.496-0.031-0.986-0.039-1.48-0.034c-0.297,0.003-1.281,0.197-1.494-0.073
			c-0.262-0.331,0.436-0.337,0.596-0.42c0.404-0.21,0.559-0.3,0.809,0.257c0.209-0.44,0.607-0.435,1.031-0.415
			c0.596,0.028,1.188-0.101,1.777-0.163c-0.055-1.163-0.23-2.392-0.135-3.55c0.195-2.483,0.215-5.033,0.066-7.521
			c-0.063-1.143-0.072-2.474-0.627-3.497c-0.492-0.892-0.879-1.412-1.723-2.051c-0.811-0.614-1.84-0.343-2.58-1.16
			c-0.563-0.623-1.037-1.205-1.592-1.828c1.18-0.084,2.408,0.15,3.596,0.192c1.43,0.05,2.861,0.039,4.291,0.005
			c2.666-0.063,5.324-0.23,7.988-0.333c-0.293,0.615-0.992,0.944-1.223,1.591c-0.225,0.628-1.434,0.846-2.049,1.026
			c-0.693,0.203-1.52,0.671-1.91,1.292c-0.518,0.821-0.188,1.567-0.258,2.442c-0.113-0.157-0.227-0.313-0.342-0.469
			c-0.451,3.792-0.391,7.638-0.389,11.455c0,0.68-0.168,1.597,0.045,2.25c0.158,0.484,1.707,0.221,2.086,0.243
			c0.52,0.031,2.057-0.202,2.439,0.172c0.488,0.471-0.945,0.728-1.35,0.208c-0.365,0.576-1.457,0.327-2.027,0.364
			c-0.381,0.025-0.762,0.057-1.143,0.078c-0.029,0.366-0.053,0.723-0.055,1.091c-0.006,1.871,0.018,3.739-0.113,5.607
			c-0.131,1.871-0.395,3.739-0.902,5.548c-0.234,0.845-0.527,1.676-0.834,2.499c-0.262,0.71-1.041,1.483-0.729,2.248
			c-0.244,0.138-0.531,0.292-0.797,0.389c-0.291,0.106-0.68,0.704-0.93,0.937c-0.863,0.805-1.77,1.574-2.77,2.211
			c-2.119,1.356-4.557,1.767-6.977,2.271c0.266,0.077,0.525,0.155,0.789,0.232c-1.107,0.515-2.85,0.131-4.051,0.057
			c-1.654-0.103-3.305-0.278-4.943-0.532c-2.883-0.447-5.16-2.217-7.313-4.07c-2.146-1.851-3.135-4.688-4.035-7.271
			c-0.229-0.66-0.145-1.364-0.197-2.048c-0.045-0.683-0.16-1.359-0.195-2.047c-0.084-1.624-0.084-3.194-0.094-4.815
			c-0.004-0.726,0.041-1.474-0.051-2.194c-0.563-0.333-0.908-0.149-1.586-0.152c-0.615-0.003-1.051-0.047-1.6-0.221
			c-0.18-0.057-0.447,0.149-0.609,0.186c-0.674,0.151-0.705,0.091-0.729,0.839c-0.061,1.48-0.059,2.906-0.365,4.364
			c-0.332,1.561-0.893,3.029-1.488,4.504c-2.199,5.444-6.789,9.777-12.311,11.777c-0.496,0.18-1.84,0.347-1.904,1.008
			c0.166,0.019,0.332,0.036,0.498,0.054c-0.074,0.125-0.598,0.115-0.766,0.121c-0.176,0.012-0.326-0.04-0.457-0.154
			c-0.146,0.193-0.297,0.146-0.477,0.045c-0.586-0.33-2.172,0.299-2.834,0.39c-2.436,0.33-5.037,0.055-7.422-0.478
			c-0.52-0.117-0.959-0.412-1.471-0.53c-0.518-0.118-1.023-0.218-1.533-0.361c-0.209-0.06-1.307-0.541-1.48-0.411
			c-0.416,0.315-0.791-0.001-1.217-0.084c-0.395-0.08-0.918-0.016-1.232-0.326c-0.332-0.324-0.467-0.236-0.564-0.693
			c-0.057-0.273-0.389-0.182-0.588-0.16c-0.26-0.404-0.578-0.768-1.004-1.001c-0.932-0.507-1.594-1.237-2.311-1.997
			c-0.16-0.169-0.32-0.339-0.479-0.508c-0.275-0.292-0.322-0.587-0.67-0.342c-0.461,0.325-0.656,0.229-0.555-0.282
			c0.221-1.118-0.846-2.185-1.32-3.109c-0.574-1.109-0.941-2.294-1.4-3.451c-0.189-0.484-0.518-0.896-0.684-1.395
			c-0.176-0.533-0.168-1.09-0.275-1.636c-0.227-1.17-0.641-2.247-0.736-3.448c-0.051-0.598,0.201-2.614-0.609-2.684
			c-0.316-0.029-1.301-0.271-1.531-0.143c-0.381,0.21-0.973,0.093-1.393,0.093c0.088-0.129,0.176-0.258,0.264-0.386
			c-0.322-0.115-0.424,0.141-0.465,0.409c-0.584,0-1.168,0.003-1.75,0c-0.129-0.001-0.895-0.265-0.959-0.221
			c-0.404,0.277-0.938,0.21-1.398,0.313c0.668,0.7,1.229,1.5,2.135,1.867c0.044,0.944,1.113,1.771,1.477,2.623
			c0.188,0.438,0.121,0.979,0.367,1.382c0.281,0.46,0.366,0.994,0.436,1.521c0.152,1.164,0.34,2.354,0.363,3.529
			c0.096,4.909-3.613,8.418-7.564,10.684c-0.414,0.238-0.891,0.332-1.303,0.555c-0.109,0.064-0.143,0.158-0.094,0.285
			c-0.285,0.104-0.564,0.226-0.855,0.308c-0.514,0.142-1.15,0.224-1.682,0.263c-0.51,0.039-1.07-0.097-1.545,0.153
			c-0.347,0.183-0.922,0.075-1.258-0.092c-0.352-0.173-1.158,0.024-1.566,0c-1.17-0.069-2.354-0.101-3.516-0.251
			c-1.214-0.156-2.406-0.395-3.604-0.639c-1.144-0.234-1.548-0.998-2.185-1.899c-0.718-1.015-1.404-2.081-2.199-3.036
			c-0.19-0.23-0.662-0.943-1.021-0.885c-0.282,0.046-0.728,0.986-0.896,1.195c-0.414-1.037,0.984-2.452,1.478-3.281
			c0.365-0.61,0.642-1.27,0.863-1.943c0.225-0.679,0.278-1.651,0.713-2.23c0.582-0.783,0.181-2.359,0.051-3.225
			c-0.077-0.531-0.073-1.171-0.063-1.709c0.009-0.229,0.188-0.238,0.365-0.191c0.082,0.464,0.153,0.929,0.242,1.392
			c0.521,2.738,1.991,5.285,3.643,7.494c1.629,2.182,3.793,4.378,6.316,5.5c2.621,1.167,5.219-0.103,7.295-1.71
			c0.389-0.301,0.586-1.225,0.766-1.676c0.216-0.552,0.146-1.266,0.123-1.845c-0.061-1.484-0.409-2.945-0.996-4.309
			c-0.27-0.625-0.581-1.226-0.997-1.768c-0.15-0.197-0.308-0.426-0.521-0.559c-0.199-0.123-0.435-0.042-0.623-0.203
			c-0.175-0.147-0.767-0.695-0.813-0.9c-0.069-0.323-0.375,0.008-0.336-0.443c0.026-0.295-0.431-0.448-0.619-0.561
			c-1.312-0.776-2.612-1.582-3.985-2.247c-1.351-0.654-2.701-1.345-3.888-2.278c-0.383-0.303-0.733-0.785-1.2-0.96
			c-0.414-0.155-1.009-0.228-1.449-0.28c-0.135-0.016-1.369,0.047-0.627-0.338c0.403-0.211,0.889-0.139,1.321-0.248
			c-2.12-2.904-3.983-6.731-3.235-10.4c0.371-1.814,0.774-3.637,1.832-5.193c0.979-1.444,2.428-2.464,3.896-3.369
			c1.687-1.041,3.42-1.334,5.351-1.555c2.002-0.229,3.836-0.242,5.836,0.068c1.948,0.303,3.812,1.043,5.754,1.325
			c0.728,0.111,0.963,1.193,1.306,1.729c0.131,0.157,0.28,0.293,0.45,0.409c-0.049,0.211-0.062,0.425-0.034,0.641
			c0.063,0.537,0.338,1.02,0.575,1.494c0.308-0.348,0.615-0.694,0.922-1.042c0.375,0.227-2.17,4.702-2.366,5.332
			c-0.228,0.732-0.313,1.444-0.756,2.098c-0.222,0.327-0.294,0.509-0.332,0.903c-0.033,0.358,0.133,1.064-0.224,1.289
			c-0.127-0.605,0.019-1.314,0.112-1.922c0.099-0.648-0.223-1.045-0.438-1.624c-0.528-1.413-1.157-2.797-2.088-3.997
			c-0.41-0.529-0.869-1.019-1.301-1.528c-0.38-0.441-1.109-0.655-1.619-0.908c-1.278-0.635-2.733-0.609-4.129-0.529
			c-2.388,0.136-4.377,1.881-4.933,4.206c-0.597,2.506,0.842,5.544,2.733,7.161c0.459,0.392,0.785,0.904,1.272,1.269
			c0.591,0.439,1.269,0.788,1.899,1.162c1.302,0.77,2.683,1.383,3.988,2.138c0.567,0.328,1.058,0.713,1.713,0.85
			c0.42,0.087,1.246,0.294,1.651,0.229c1.517-0.279,3.431-0.304,4.951-0.036c0.664,0.117,1.142-0.049,1.812-0.137
			c0.533-0.069,0.496-0.407,0.566-0.887c0.223-1.556,0.529-3.071,0.861-4.606c0.617-2.84,2.039-5.504,3.926-7.705
			c0.602-0.701,1.338-1.32,2.008-1.957c0.273-0.263,0.545-0.554,0.844-0.792c0.27-0.216,0.545-0.069,0.805-0.227
			c0.813-0.492,1.627-0.991,2.475-1.421c0.504-0.257,1.404-0.406,1.582-1.035c0.504,0.325,0.9-0.048,1.363-0.226
			c0.691-0.267,1.395-0.513,2.105-0.724c1.527-0.453,3.092-0.71,4.686-0.754c3.066-0.084,6.092,0.453,9.045,1.245
			c2.719,0.729,5.316,2.137,7.357,4.072c2.121,2.008,4.352,3.969,5.744,6.582c0.686,1.286,1.145,2.766,1.504,4.173
			c0.188,0.739,0.34,1.487,0.475,2.237c0.068,0.375,0.131,0.751,0.193,1.127c0.084,0.504,0.002,0.964,0.574,0.953
			c0.68-0.013,1.357-0.026,2.043-0.033c0.596-0.006,1.385,0.118,1.959-0.074c0.52-0.174,0.182-3.371,0.18-3.908
			c-0.01-3.11,0.115-6.266-0.205-9.364c-0.055-0.542-0.037-1.35-0.352-1.823c-0.236-0.354-0.26-0.865-0.584-1.146
			c-0.393-0.343-0.254-0.467-0.871-0.638c-0.68-0.189-1.541-0.212-2.107-0.671c-0.758-0.613-1.473-1.419-2.119-2.151
			c1.549,0,3.154,0.045,4.689,0.261c1.668,0.234,3.355,0.114,5.041,0.113c1.666,0,3.34,0.057,5.006-0.025
			c1.59-0.078,3.305-0.204,4.877,0.065c-0.385,0.536-0.889,0.964-1.381,1.397c-0.238,0.208-0.473,0.42-0.688,0.652
			c-0.354-0.104-0.598-0.079-0.965-0.024c-0.963,0.143-1.809,0.68-2.176,1.582c-0.137,0.334-0.188,0.05-0.217,0.466
			c-0.016,0.245-0.158,0.455-0.189,0.697c-0.098,0.762-0.068,1.533-0.164,2.289c-0.203,1.677-0.184,3.368-0.186,5.06
			c0,1.67,0.076,3.337,0.09,5.007c0.006,0.628-0.234,1.365-0.088,1.98c0.109,0.442,1.336,0.284,1.646,0.284
			c1.832-0.005,3.666,0.023,5.498,0.033c0.922,0.005,1.844,0.009,2.766,0.012c0.848,0.007,0.918-0.384,1.268-1.08
			c0.115,0.332,0.328,0.487-0.061,0.586c0.041,0.106,0.082,0.213,0.121,0.319C465.067-266.521,465.102-266.652,465.137-266.783
			C465.225-266.616,465.116-266.695,465.137-266.783z M423.338-246.626c0.203,0.465,2.502-0.817,2.875-1.09
			c0.455-0.33,0.967-0.457,1.367-0.879c0.451-0.474,0.914-1.015,1.258-1.571c1.566-2.532,2.787-5.292,3.385-8.227
			c0.271-1.327,0.832-3.031,0.494-4.372c-0.123-0.484,0.75-2.605-0.168-2.698c-3.166-0.32-6.484-0.106-9.668-0.115
			c-3.234-0.01-6.473,0.059-9.709,0.07c-1.592,0.005-3.186,0.01-4.777,0.017c-0.758,0.003-1.521-0.028-2.277,0.02
			c-0.428,0.026-0.602-0.112-0.613,0.383c-0.014,0.431,0.01,0.861,0.064,1.288c0.09,0.674,0.24,1.324,0.246,2.008
			c0.002,0.345-0.021,0.689-0.068,1.031c0.182,0.302,0.301,0.516,0.396,0.861c0.199,0.694,0.416,1.398,0.557,2.107
			c0.139,0.708,0.525,1.233,0.799,1.902c0.502,1.241,1.195,2.363,1.797,3.557c0.658,1.312,1.369,2.576,2.357,3.672
			c1.457,1.615,3.375,2.316,5.49,2.588c1.018,0.13,2.043,0.211,3.066,0.154c0.57-0.031,1.137-0.107,1.689-0.244
			C422.358-246.279,422.881-246.601,423.338-246.626z M411.963-281.791c-1.07,0.306-1.729,1.521-2.438,2.317
			c-0.969,1.092-1.793,2.153-2.377,3.514c-1.188,2.764-1.059,5.796-1.762,8.664c-0.313,1.253,1.02,0.981,1.887,0.991
			c1.645,0.019,3.289,0.026,4.934,0.044c0.695,0.008,1.391-0.022,2.084-0.014c0.215,0.002,1.381,0.293,1.463,0.163
			c0.221-0.347,1.188-0.11,1.512-0.093c0.883,0.044,1.768,0.001,2.646-0.017c3.248-0.069,6.518-0.135,9.766-0.027
			c0.66,0.022,3.186,0.382,3.133-0.635c-0.014-0.273-0.117-0.48-0.215-0.729c-0.111-0.288,0.018-0.514-0.021-0.806
			c-0.102-0.762-0.152-1.444-0.357-2.196c-0.775-2.841-2.436-5.579-4.209-7.918c-0.754-0.998-1.408-2.03-2.402-2.816
			c-1.08-0.853-2.459-1.592-3.777-1.989c-0.605-0.181-1.23-0.151-1.834-0.304c-0.65-0.163-1.18-0.337-1.867-0.346
			c-1.287-0.016-2.939,0.563-4.09,1.123c-2.289,1.118-3.527,3.313-4.412,5.575C408.719-277.727,411.502-281.326,411.963-281.791
			C411.417-281.635,410.7-280.512,411.963-281.791z"/>
		<path fill="#FFFFFF" d="M330.902-285.897c2.679,0.086,5.359,0.101,8.041,0.126c2.326,0.022,4.841-0.342,7.159,0.018
			c-0.82,0.77-1.643,1.537-2.467,2.304c-0.893,0.833-1.965,0.899-3.064,1.381c-0.494,0.217-0.974,0.474-1.425,0.773
			c-0.269,0.178-0.797,0.804-1.114,0.828c-0.992,0.07-2.117,1.571-2.763,2.227c-1.793,1.824-3.521,3.877-5.112,5.881
			c-0.857,1.079-1.804,2.084-2.728,3.107c-0.351,0.387-0.587,0.667-0.759,1.158c-0.553,0,0.09,0.53-0.146,0.874
			c-0.371-0.182-0.504-0.361-0.803-0.017c-0.141,0.16-0.137,0.359-0.125,0.56c0.027,0.626,2.275,0.392,2.836,0.448
			c-0.057,0.128-0.107,0.256-0.162,0.385c0.341-0.066,0.563-0.335,0.936-0.388c0.439-0.063,0.902-0.003,1.35-0.008
			c0.938-0.012,1.918-0.089,2.85,0.026c0.213,0.022,0.41,0.09,0.594,0.203c0.139-0.121,0.295-0.161,0.477-0.12
			c0.377,0.011,0.719-0.102,1.111-0.069c0.703,0.059,2.084,0.048,2.58,0.585c-0.813,0.21-1.723,0.039-2.553,0.052
			c-0.383,0.006-0.844,0.077-1.213-0.036c-0.219-0.067-0.566,0.096-0.693,0.019c0.023-0.108,0.145-0.345,0.021-0.405
			c-0.342,0.507-0.534,0.421-1.131,0.421c0.082-0.117,0.164-0.233,0.246-0.349c-0.129-0.061-0.248-0.048-0.354,0.039
			c-0.301,0.306,0.144,0.352-0.471,0.352c-0.563,0-1.304,0.128-1.851-0.01c-1.127-0.293-2.678,0.033-3.836,0.104
			c0.228,0.538,0.676,0.916,1.074,1.322c0.586,0.595,1.135,1.226,1.688,1.851c1.104,1.239,2.199,2.48,3.313,3.707
			c1.011,1.114,1.972,2.261,2.933,3.417c0.955,1.148,2.097,2.161,3.084,3.289c1.056,1.204,2.027,2.395,3.197,3.496
			c0.243,0.229,0.479,0.478,0.735,0.69c0.194,0.162,0.381,0.089,0.588,0.188c0.586,0.283,1.067,0.941,1.646,1.289
			c1.219,0.734,2.613,1.258,3.77,2.08c0.305,0.217,0.336,0.34,0.688,0.231c0.225-0.069,0.473-0.065,0.688,0.032
			c0.227,0.102,0.313,0.283,0.475,0.451c0.146,0.148,0.395,0.16,0.584,0.33c-0.679,0-1.049,0.187-1.301-0.472
			c-0.043,0.37,0.077,0.528-0.337,0.54c-0.425,0.012-0.823-0.208-1.247-0.055c-0.207,0.076-0.453-0.084-0.656-0.109
			c-0.431-0.049-0.863-0.063-1.293-0.105c-1.815-0.18-3.668-0.131-5.49-0.158c-3.377-0.051-6.79,0.392-10.155,0.054
			c0.153-0.25,0.375-0.304,0.599-0.497c0.351-0.3,0.592-0.693,0.885-1.043c0.609-0.723,0.209-1.863-0.196-2.568
			c-1.144-1.979-2.604-3.829-4.072-5.574c-1.387-1.655-2.696-3.368-4.094-5.015c-0.729-0.857-1.457-1.712-2.203-2.553
			c-0.754-0.852-1.353-1.833-2.103-2.677c-0.703-0.79-1.465-0.531-1.387,0.521c0.071,0.978-0.088,1.932-0.063,2.92
			c0.055,2.177-0.156,4.362-0.125,6.546c0.004,0.323,0.008,0.659-0.123,0.962c-0.104,0.236,0.193,1.136,0.182,1.474
			c-0.055,1.177,0.131,2.287,0.492,3.407c0.133,0.401,0.268,0.851,0.498,1.208c0.271,0.416,0.55,0.158,0.879,0.355
			c0.365,0.217,0.682,0.957,0.916,1.31c0.266,0.391,0.543,0.76,0.723,1.196c-5.543,0-11.086,0-16.629,0
			c0.318-0.771,1.314-1.234,1.536-1.988c0.165-0.582,0.511-0.458,0.981-0.485c0.42-0.024,0.762-0.31,1.172-0.364
			c0.561-0.084,0.979-1.882,0.996-2.336c0.045-1.257,0.053-2.514,0.043-3.771c-0.02-2.423,0.082-4.84,0.043-7.262
			c-0.021-1.163-0.051-2.326-0.033-3.488c0.012-0.617,0.021-1.233,0.014-1.85c-0.012-0.206-0.025-0.412-0.051-0.617
			c-0.273,0-0.637,0.115-0.793-0.142c0.111-0.03,0.225-0.059,0.334-0.088c-0.336-0.103-0.766,0.146-1.033-0.16
			c0.041-0.44,0.426-0.246,0.715-0.241c0.836,0.016,0.854-0.265,0.781-1.021c-0.213-2.195,0.053-4.481,0.049-6.688
			c-0.002-2.097,0.133-4.229-0.041-6.321c-0.078-0.929-0.258-1.69-0.902-2.399c-0.164-0.181-0.502-0.331-0.623-0.539
			c-0.221-0.375-0.588-0.373-1.002-0.576c-0.508-0.247-1.584-0.541-1.807-1.09c-0.256-0.624-1.246-1.659,0.15-1.334
			c1.857,0.432,3.98,0.092,5.896,0.056c1.029-0.02,2.059-0.031,3.086-0.024c0.508,0.004,1.012,0.005,1.516,0.012
			c0.561,0.008,1.127,0.231,1.678,0.181c0.383-0.035,0.734-0.215,1.021-0.466c0.288,0.28,0.665,0.293,1.043,0.258
			c0.838-0.08,1.825-0.162,2.663-0.104c-0.487,1.055-1.112,2.074-1.215,3.259c-1.271-0.753-2.631,0.88-2.959,2.035
			c-0.526,1.865-0.399,4.068-0.414,5.993c-0.014,1.777-0.278,3.846,0.101,5.587c0.246,1.134,0.888,1.034,1.922,1.024
			c0.343-0.006,0.306-0.283,0.402-0.519c0.127-0.307,0.383-0.087,0.596-0.222c0.302-0.188,0.089-0.108,0.431-0.033
			c0.25,0.056,0.387-0.229,0.594-0.301c0.677-0.234,1.382-1.591,1.828-2.134c1.229-1.5,2.58-2.94,3.685-4.538
			c1.144-1.653,2.489-3.161,3.694-4.768c0.552-0.737,1.195-1.324,1.054-2.316C331.499-284.106,331.227-285.017,330.902-285.897
			C331.42-285.881,331.004-285.617,330.902-285.897z"/>
		<path fill="#FFFFFF" d="M559.604-265.535c-4.334,0.003-6.707-0.164-11.033,0.116c0.717,0.688,1.52,1.281,2.184,2.024
			c0.738,0.825,1.049,1.981,1.465,2.989c0.896,2.172,1.584,4.779,1.469,7.148c-0.059,1.156-0.498,2.341-0.891,3.42
			c-0.389,1.075-0.83,2.144-1.652,2.961c-1.561,1.549-3.717,3.371-5.977,3.674c-0.492,0.066-0.994,0.085-1.479,0.191
			c-0.439,0.097-0.654,0.485-1.102,0.556c-1.164,0.183-2.258,0.168-3.43,0.1c-2.572-0.149-5.041-0.34-7.488-1.194
			c-0.197-0.065-0.396-0.135-0.596-0.207c-0.5-0.188-0.168,0.102-0.559,0.177c-0.334,0.063-0.861-0.777-1.037-0.991
			c-0.863-1.059-1.625-2.208-2.445-3.301c-0.297-0.391-0.779-0.684-1.006-1.125c-0.092-0.172-0.83-0.529-0.811-0.623
			c0.098-0.461-0.27-0.733-0.504-1.069c0.227-0.495,0.662-0.251,1.068-0.298c-0.131-0.637,0.41-0.465,0.596-0.944
			c0.256-0.667,0.51-1.334,0.77-2c0.215-0.543,0.582-0.99,0.771-1.548c0.113-0.332,0.119-1.258,0.439-1.467
			c0.559-0.363,1.33,2.8,1.508,3.203c0.281,0.647,0.689,1.233,1.086,1.814c0.396,0.58,0.66,1.22,1.053,1.789
			c0.783,1.133,1.912,2.047,2.986,2.89c1.035,0.811,2.623,1.637,3.941,1.762c1.402,0.133,2.555,0.188,3.871-0.394
			c1.063-0.467,2.004-1.174,2.703-2.101c0.693-0.916,1.201-2.055,1.355-3.196c0.092-0.688,0.031-1.39-0.209-2.043
			c-0.197-0.534-0.131-1.217-0.529-1.595c-0.35-0.332-0.395-0.852-0.688-1.221c-0.381-0.473-0.676-0.887-0.984-1.413
			c-0.287-0.483-0.686-0.674-1.07-1.042c-0.186-0.178-0.209-0.445-0.402-0.631c-0.215-0.201-0.539-0.313-0.729-0.531
			c-0.799-0.929-2.135-1.208-3.217-1.673c-1.412-0.607-2.639-1.401-3.818-2.381c-0.541-0.448-1.084-0.895-1.592-1.379
			c-0.49-0.469-1.119-0.392-1.746-0.396c-1.648-0.01-3.301-0.034-4.953-0.041c-1.635-0.007-3.648,0.373-5.076-0.495
			c0.178-0.401,1.678-0.099,2.043-0.106c1.041-0.021,2.082-0.053,3.123-0.078c0.709-0.018,1.639,0.175,2.26-0.015
			c0.797-0.243,1.783-0.021,2.625-0.141c-0.205-0.666-0.896-1.199-1.271-1.776c-0.482-0.75-0.814-1.584-1.17-2.401
			c-0.803-1.852-1.229-3.739-1.02-5.766c0.051-0.471-0.064-0.89,0.188-1.267c0.209-0.316,0.266-0.71,0.262-1.082
			c-0.016-0.915,0.566-1.624,1.078-2.323c0.492-0.67,1.039-1.697,1.709-2.19c0.848-0.623,1.785-1.18,2.693-1.706
			c0.742-0.431,1.578-0.69,2.297-1.148c0.682-0.435,1.508-0.429,2.275-0.568c1.025-0.188,2.014-0.152,3.049-0.11
			c1.041,0.043,2.09-0.137,3.113,0.103c1.955,0.452,3.846,1.032,5.754,1.645c0.891,0.285,0.648,1.021,1.354,1.454
			c0.6,0.365,1.004,1.8,1.314,2.405c0.584-0.541,0.818-0.642,0.619,0.291c-0.176,0.818-0.879,1.625-1.303,2.339
			c-0.461,0.774-1.004,1.49-1.393,2.306c-0.357,0.75-0.693,1.487-1.121,2.2c0-0.78,0.227-1.306-0.119-2.087
			c-0.334-0.748-0.635-1.508-0.979-2.251c-0.674-1.468-1.57-2.528-2.758-3.601c-0.084-0.105,0.02,0.018,0,0
			c-0.273-0.344-0.324-0.435-0.742-0.518c-0.521-0.104-0.949-0.58-1.439-0.787c-1.162-0.491-2.434-0.622-3.664-0.349
			c-2.191,0.486-4.539,2.329-5.131,4.556c-0.373,1.394-0.063,2.523,0.447,3.814c0.479,1.212,0.988,2.282,2.043,3.105
			c0.326,0.253,0.42,0.692,0.801,0.954c0.461,0.316,0.895,0.691,1.395,0.947c1.148,0.588,2.299,1.151,3.439,1.762
			c0.992,0.531,2.098,0.826,3.021,1.487c0.645,0.46,0.922,0.563,1.73,0.584c0.711,0.019,1.428,0.033,2.139,0.038
			c3.047,0.02,1.311,0.015,4.354,0.017c0.662,0,4.355,0.009,5.018-0.001 M550.79-266.018c-0.006,0.106-0.014,0.212-0.02,0.318
			c0.143-0.074,0.281-0.149,0.422-0.224C551.057-265.954,550.922-265.986,550.79-266.018
			C550.784-265.922,550.938-265.984,550.79-266.018z"/>
		<path fill="#FFFFFF" d="M502.36-247.714c0.359,0.738,1.039,1.125,1.832,1.229c0.461,0.059,0.869,0.27,1.32,0.33
			c0.604,0.081,1.254,0.003,1.863,0.006c2.361,0.01,4.715-0.07,7.072-0.17c0.742-0.033,1.729-0.629,2.309-1.059
			c0.809-0.604,1.297-1.215,1.777-2.093c0.869-1.604,1.832-3.553,2.166-5.354c0.391,0.652,0.68,1.33,1.039,1.999
			c0.406,0.756,0.979,1.333,1.457,2.033c0.594,0.876,0.354,1.233,0.033,2.175c-0.355,1.037-0.605,2.107-0.781,3.189
			c-0.102,0.586-0.023,1.582-0.588,1.97c-0.678,0.463-1.992,0.178-2.762,0.168c-1.025-0.013-2.059-0.023-3.088-0.04
			c-0.984-0.016-2.229,0.203-3.184-0.074c-0.748-0.217-1.473,0.014-2.273-0.02c-1.037-0.043-2.082,0.006-3.113,0.01
			c-2.258,0.009-4.512,0.021-6.768,0.006c-2.227-0.016-4.455-0.014-6.682,0.02c-2.15,0.032-4.371,0.258-6.514,0.101
			c0.291-0.421,0.666-0.897,0.551-1.442c-0.119-0.564,1.588-0.808,2.031-0.928c0.705-0.191,1.406-0.71,2.057-1.048
			c0.682-0.354,1.301-0.624,1.365-1.476c0.145-1.87,0.156-3.752,0.213-5.625c0.039-1.377,0.359-2.908-0.402-4.12
			c0.139,0.011,0.279,0.021,0.418,0.033c0.008-0.214,0.199-2.019-0.205-1.667c-0.479-0.032,0.285-1.627,0.285-2.051
			c0.002-0.568-0.064-1.126-0.039-1.695c0.021-0.488,0.299-1.566,0.094-2c-0.227-0.484-3.217-0.213-3.787-0.224
			c-0.512-0.011-0.979-0.235-1.48-0.262c-0.689-0.037-0.854,0.452-1.324-0.164c-0.33,0.35-0.277,0.302-0.699,0.274
			c-0.221-0.015-0.387-0.087-0.479-0.262c0.158,0.025,0.313,0.049,0.475,0.072c0-0.523,1.992-0.382,2.414-0.389
			c1.115-0.018,2.234-0.051,3.352-0.021c1.047,0.028,1.629,0.313,1.594-0.887c-0.037-1.249-0.053-2.5-0.072-3.749
			c-0.043-2.428-0.15-4.85-0.295-7.275c-0.066-1.105-0.08-2.239-0.27-3.331c-0.178-1.028-0.746-1.458-1.668-1.835
			c-0.734-0.301-1.756-0.322-2.357-0.846c-0.393-0.342-1.479-1.005-1.555-1.53c-0.09-0.604,2.104-0.12,2.434-0.075
			c1.061,0.146,2.223,0.075,3.297,0.106c2.281,0.067,4.564-0.052,6.848-0.068c2.326-0.017,4.729-0.311,7.037-0.095
			c-0.211,0.948-1.172,1.837-1.75,2.613c-0.477,0.648-0.947,1.49-1.307,2.185c-0.043-0.563,0.295-1.093,0.512-1.608
			c0.232-0.547,0.367-0.971-0.42-0.744c-1.346,0.358-2.713,0.235-2.914,1.944c-0.178,1.534-0.438,3.094-0.365,4.641
			c0.031,0.656-0.168,1.292,0.424,1.706c0.535,0.381-0.191,1.004,0.482,1.413c-0.342,0.313-0.604,0.405-0.561,0.896
			c0.041,0.489-0.168,0.879-0.197,1.359c-0.047,0.785-0.082,1.735,0.119,2.445c-0.254,0.551-0.482,2.074-0.063,2.599
			c0.244,0.305,1.389,0.278,1.721,0.218c0.924-0.167,1.918-0.055,2.852-0.065c0.492-0.005,1.48,0.3,1.773-0.169
			c0.686,0.581-0.695,0.871-1.02,0.839c0.076-0.104,0.152-0.208,0.227-0.313c-0.125-0.053-0.238-0.039-0.342,0.04
			c-0.305,0.312,0.207,0.348-0.453,0.349c-0.545,0.001-1.363,0.152-1.879-0.038c-0.799-0.295-1.328,0.312-2.045-0.441
			c-0.334,0.503-0.947,0.49-0.951,1.122c-0.004,0.41,0.164,0.68,0.229,1.065c0.072,0.431-0.014,0.931-0.031,1.364
			c-0.078,2.074-0.049,4.124-0.041,6.197c0.012,1.726-0.367,3.709,0.264,5.346c0.109,0.29,0.316,0.541,0.242,0.874
			c-0.104,0.475,0.348,0.375-0.176,0.703C501.719-248.728,501.813-247.994,502.36-247.714z M505.094-265.692
			c0.168-0.065,0.146-0.151-0.078-0.257C504.893-265.88,504.92-265.793,505.094-265.692
			C505.127-265.714,505.045-265.757,505.094-265.692z"/>
		<path fill="#FFFFFF" d="M350.711-272.01c-1.405,0.43-2.812,0.9-4.116,1.579c-1.49,0.772-2.772,1.855-4.091,2.878
			c0.074-0.283,0.248-0.409,0.451-0.623c0.254-0.268,0.371-0.67,0.645-0.905c0.736-0.637,1.566-1.195,2.417-1.669
			c0.76-0.424,1.558-0.78,2.381-1.061C348.995-272.014,350.209-272.634,350.711-272.01
			C349.151-271.533,350.454-272.33,350.711-272.01z"/>
		<path fill="#FFFFFF" d="M513.473-265.803c-0.857-0.104-2.02,0.486-2.779,0.021c-0.223-0.144-0.801-0.003-1.086-0.056
			c-0.576-0.104-0.816,0.033-1.27-0.368c0.596-0.416,1.965-0.151,2.672-0.145c0.518,0.005,1.033,0.012,1.549,0.019
			C513.247-266.321,513.282-266.385,513.473-265.803z"/>
		<path fill="#FFFFFF" d="M242.314-288.452c-0.215,0-0.433,0-0.647,0c-0.101-0.291-0.039-0.569,0.146-0.81
			c0.261-0.344-0.17-0.55,0.146-1.071c0.271-0.439-0.281-0.807-0.315-1.256c-0.039-0.456-0.565-1.018-0.304-1.444
			c0.234,0.39,0.533,0.751,0.699,1.18c0.201,0.518-0.051,1.03,0.11,1.533c0.115,0.359-0.035,0.451,0.172,0.703
			C242.549-289.339,242.366-288.755,242.314-288.452C242.075-288.452,242.479-289.418,242.314-288.452z"/>
		<path fill="#FFFFFF" d="M339.372-260.47c-0.229,0.022-0.457,0.046-0.687,0.07c-0.08-0.309,0.137-0.463,0.412-0.506
			c-0.287-0.867-0.063-1.686,0.571-2.329C340.279-262.824,339.51-261.053,339.372-260.47
			C339.127-260.445,339.547-261.216,339.372-260.47z"/>
		<path fill="#FFFFFF" d="M255.612-265.979c-0.343,0-0.402-0.073-0.593,0.202c-0.119,0.172-0.31,0.247-0.513,0.257
			c-0.293,0.015-0.592-0.04-0.885-0.046c-0.67-0.014-0.646-0.043-0.896-0.667C253.28-266.245,255.409-266.569,255.612-265.979z"/>
		<path fill="#FFFFFF" d="M353.086-265.963c0.983-0.328,2.357-0.109,3.295,0.267C355.25-265.363,354.111-265.285,353.086-265.963
			C353.667-266.156,354.213-265.217,353.086-265.963z"/>
		<path fill="#FFFFFF" d="M338.977-259.622c-0.176-0.045-0.352-0.091-0.523-0.138c0.309-0.235,0.521-0.437,0.867-0.437
			c-0.133,0.429-0.021,2.672-0.676,2.396C337.999-258.074,338.325-259.415,338.977-259.622
			C338.827-259.661,338.454-259.456,338.977-259.622z"/>
		<path fill="#FFFFFF" d="M521.495-266.045c-0.596,0.449-0.48,0.035-1.107,0.124c-0.793,0.11-1.281,0.031-2.066-0.109
			C518.733-266.133,521.426-266.401,521.495-266.045C521.377-265.957,521.485-266.088,521.495-266.045z"/>
		<path fill="#FFFFFF" d="M260.76-267.513c-0.242-1.301-0.129-2.504,0.039-3.707C260.963-270.548,260.959-268.089,260.76-267.513z"
			/>
		<path fill="#FFFFFF" d="M260.768-261.648c-0.316-0.863,0.047-1.741-0.074-2.609C260.948-263.391,261.002-262.521,260.768-261.648z
			"/>
		<path fill="#FFFFFF" d="M349.954-265.845c-0.563-0.032-0.904-0.021-1.41,0.088c-0.162,0.035-0.295-0.154-0.492-0.139
			c-0.299,0.023-0.627,0.174-0.881-0.073C347.551-266.094,349.935-266.249,349.954-265.845
			C349.729-265.858,349.954-265.885,349.954-265.845z"/>
		<path fill="#FFFFFF" d="M516.043-265.765c-0.363,0.328-0.785,0.216-1.23,0.035c0.107-0.043,0.219-0.086,0.326-0.129
			c-0.08-0.091-0.158-0.181-0.238-0.271C515.247-266.116,516.157-266.267,516.043-265.765z"/>
		<path fill="#FFFFFF" d="M178.536-281.616c-0.048-0.661-0.301-1.534,0.065-2.102C178.865-283.43,179.008-281.616,178.536-281.616
			C178.493-282.217,178.585-281.616,178.536-281.616z"/>
		<path fill="#FFFFFF" d="M352.622-265.971c-0.475,0.358-1.273,0.129-1.838,0.023C351.036-266.133,352.519-266.238,352.622-265.971
			C352.536-265.906,352.606-266.008,352.622-265.971z"/>
		<path fill="#FFFFFF" d="M338.53-255.702c0.688-0.36,0.715,0.237,0.778,0.786C338.883-255.161,338.633-255.212,338.53-255.702
			C338.979-255.936,338.568-255.517,338.53-255.702z"/>
		<path fill="#FFFFFF" d="M173.725-286.388c0.756-0.228,1.439-0.184,2.241-0.105C175.536-286.263,174.593-286.236,173.725-286.388z"
			/>
		<path fill="#FFFFFF" d="M230.887-284.886c0.4,0.311,0.938,0.362,1.226,0.896C231.467-284.135,231.18-284.349,230.887-284.886z"/>
		<path fill="#FFFFFF" d="M504.239-281.083c0.01,0.535-0.26,1.005-0.436,1.493C503.674-280.128,503.917-280.705,504.239-281.083z"/>
		<path fill="#FFFFFF" d="M351.101-243.125c0.291-0.274,0.608-0.32,0.985-0.247C352.211-242.724,351.513-243.148,351.101-243.125
			C351.456-243.46,351.521-243.148,351.101-243.125z"/>
		<path fill="#FFFFFF" d="M501.321-269.006c0.326,0,0.451-0.126,0.471,0.261c0.014,0.269-0.1,0.375-0.301,0.534
			C501.44-268.461,501.383-268.81,501.321-269.006z"/>
		<path fill="#FFFFFF" d="M486.094-265.963c-0.131,0.127-0.299-0.154-0.293,0.189c0.006,0.248-0.389,0.149-0.496,0.121
			C485.407-265.958,485.969-266.479,486.094-265.963z"/>
		<path fill="#FFFFFF" d="M356.947-243.452c0.069-0.519,0.44-0.569,0.958-0.586C357.584-243.845,357.267-243.648,356.947-243.452
			C356.974-243.65,357.329-243.687,356.947-243.452z"/>
		<path fill="#FFFFFF" d="M360.172-245.13c0.359-0.215,0.722-0.43,1.082-0.646C361.026-245.335,360.625-245.037,360.172-245.13z"/>
		<path fill="#FFFFFF" d="M239.426-289.663c0.094-0.246,0.346-1.248,0.586-1.162C239.924-290.597,239.652-289.599,239.426-289.663
			C239.581-290.069,239.491-289.645,239.426-289.663z"/>
		<path fill="#FFFFFF" d="M488.071-245.224c0.049-0.233,0.1-1.098,0.357-1.037C488.204-245.864,488.678-245.462,488.071-245.224
			C488.155-245.616,488.721-245.48,488.071-245.224z"/>
		<path fill="#FFFFFF" d="M238.614-287.005c-0.087,0.236-0.218,0.989-0.486,0.886C238.217-286.363,238.338-287.102,238.614-287.005
			C238.499-286.693,238.566-287.022,238.614-287.005z"/>
		<path fill="#FFFFFF" d="M516.057-265.753c0.268-0.106,0.295-0.46,0.654-0.28C516.524-265.571,516.485-265.677,516.057-265.753z"/>
		<path fill="#FFFFFF" d="M524.635-250.831c-0.227-0.195-0.396-0.343-0.646-0.561C524.608-251.323,524.719-251.229,524.635-250.831z
			"/>
		<path fill="#FFFFFF" d="M231.155-283.282c0.145,0,1.057-0.051,1.057,0.056C232.068-283.226,231.155-283.175,231.155-283.282
			C231.508-283.282,231.155-283.263,231.155-283.282z"/>
		<path fill="#FFFFFF" d="M472.745-265.611c-0.154,0.022-0.307,0.047-0.5,0.076C472.401-265.834,472.401-265.834,472.745-265.611z"
			/>
		<path fill="#FFFFFF" d="M359.31-244.361c-0.063-0.393,0.108-0.457,0.394-0.339C359.565-244.583,359.437-244.472,359.31-244.361z"
			/>
		<path fill="#FFFFFF" d="M340.07-252.238c-0.059,0.216-0.1,0.37-0.141,0.53C339.602-252.122,339.602-252.124,340.07-252.238z"/>
		<path fill="#FFFFFF" d="M299.359-266.025c0.281,0.049,0.562,0.102,0.843,0.15C299.913-265.696,299.566-265.838,299.359-266.025z"
			/>
		<path fill="#FFFFFF" d="M180.415-287.584c-0.22-0.119-0.321-0.175-0.448-0.242C180.246-287.968,180.246-287.968,180.415-287.584z"
			/>
		<path fill="#FFFFFF" d="M502.272-248.181c-0.281-0.134-0.297-0.437-0.299-0.711C502.178-248.695,502.293-248.412,502.272-248.181z
			"/>
		<path fill="#FFFFFF" d="M178.032-288.411c0-0.286,0-0.455,0-0.623C178.166-288.866,178.382-288.712,178.032-288.411z"/>
		<path fill="#FFFFFF" d="M238.98-288.06c-0.291,0.859-0.416,0.816-0.127-0.043C238.895-288.089,238.938-288.075,238.98-288.06
			C238.9-287.824,238.939-288.075,238.98-288.06z"/>
		<path fill="#FFFFFF" d="M365.653-248.574c0.195,0.184,0.254,0.177,0.105,0.393C365.493-248.394,365.53-248.334,365.653-248.574
			C365.75-248.481,365.604-248.476,365.653-248.574z"/>
		<path fill="#FFFFFF" d="M367.702-260.619c-0.104-0.034-0.207-0.067-0.309-0.101c0.092-0.137,0.148-0.373,0.33-0.316
			C367.715-260.898,367.708-260.759,367.702-260.619C367.583-260.658,367.708-260.776,367.702-260.619z"/>
		<path fill="#FFFFFF" d="M339.163-253.611c-0.213-0.393,0.058-0.368,0.313-0.444C339.357-253.887,339.278-253.773,339.163-253.611z
			"/>
		<path fill="#FFFFFF" d="M514.077-265.539c0.084-0.259,0.137-0.417,0.203-0.619C514.379-265.911,514.338-265.75,514.077-265.539z"
			/>
		<path fill="#FFFFFF" d="M502.26-248.167c0.068,0.071,0.545,0.571,0.104,0.452C502.411-247.714,502.262-248.166,502.26-248.167z"/>
		<path fill="#FFFFFF" d="M351.547-272.124c-0.264,0.043-0.403,0.065-0.547,0.088C351.108-272.244,351.241-272.316,351.547-272.124z
			"/>
		<path fill="#FFFFFF" d="M362.306-246.158c-0.13,0.041-0.261,0.082-0.39,0.123c-0.069-0.199,0.188-0.191,0.344-0.251
			C362.276-246.243,362.29-246.2,362.306-246.158C362.174-246.117,362.29-246.2,362.306-246.158z"/>
		<path fill="#FFFFFF" d="M304.643-265.599c-0.291,0.038-0.4-0.033-0.33-0.212C304.65-265.878,304.76-265.807,304.643-265.599
			C304.525-265.636,304.657-265.648,304.643-265.599z"/>
		<path fill="#FFFFFF" d="M368.909-265.665c-0.039-0.073-0.076-0.145-0.115-0.218C369.097-266.01,369.112-265.884,368.909-265.665
			C368.854-265.77,368.987-265.749,368.909-265.665z"/>
		<path fill="#FFFFFF" d="M260.686-261.093c0.031,0.09,0.193,0.364,0.084,0.436C260.661-260.833,260.686-260.88,260.686-261.093
			C260.766-260.866,260.686-260.901,260.686-261.093z"/>
		<path fill="#FFFFFF" d="M362.524-246.693c0.123,0.277-0.137,0.219-0.131,0.206C362.429-246.56,362.474-246.628,362.524-246.693
			C362.563-246.603,362.442-246.572,362.524-246.693z"/>
		<path fill="#FFFFFF" d="M177.202-287.26c0.013,0.162-0.033,0.221-0.14,0.175C177.012-287.286,177.058-287.345,177.202-287.26
			C177.179-287.197,177.163-287.273,177.202-287.26z"/>
		<path fill="#FFFFFF" d="M492.991-257.97c-0.021,0.073-0.041,0.146-0.064,0.22C492.813-257.86,492.834-257.933,492.991-257.97
			C492.961-257.869,492.911-257.92,492.991-257.97z"/>
		<path fill="#FFFFFF" d="M513.465-265.788c0.115-0.076,0.23-0.152,0.344-0.228c-0.012,0.146-0.023,0.291-0.037,0.436
			C513.836-265.528,513.409-265.848,513.465-265.788z"/>
		<path fill="#FFFFFF" d="M357.797-265.677c0.195-0.036,0.267,0.01,0.213,0.138C357.806-265.492,357.735-265.538,357.797-265.677
			C357.874-265.661,357.792-265.642,357.797-265.677z"/>
		<path fill="#FFFFFF" d="M508.338-266.203c0.186,0.136,0.203,0.243,0.053,0.319c-0.123-0.102-0.248-0.205-0.369-0.307
			C507.813-266.191,508.479-266.186,508.338-266.203z"/>
		<path fill="#FFFFFF" d="M492.917-259.472c0.02-0.064,0.037-0.129,0.057-0.193C492.971-259.665,493.182-259.459,492.917-259.472
			C492.934-259.536,492.959-259.47,492.917-259.472z"/>
		<path fill="#FFFFFF" d="M360.157-245.144c0.012,0.111,0.021,0.225,0.033,0.336C360.004-244.927,359.978-245.015,360.157-245.144z"
			/>
		<path fill="#FFFFFF" d="M503.713-279.262c-0.018,0.097-0.037,0.195-0.055,0.292C503.471-279.012,503.518-279.305,503.713-279.262
			C503.696-279.166,503.684-279.269,503.713-279.262z"/>
		<path fill="#FFFFFF" d="M493.258-259.065c-0.119-0.016-0.133-0.077-0.045-0.183C493.35-259.232,493.366-259.17,493.258-259.065
			C493.217-259.082,493.282-259.109,493.258-259.065z"/>
		<path fill="#FFFFFF" d="M354.872-243.284c0.068-0.022,0.135-0.045,0.203-0.067c0.021,0.027,0.036,0.059,0.047,0.092
			C354.95-243.089,354.868-243.097,354.872-243.284C354.94-243.308,354.879-243.241,354.872-243.284z"/>
		<path fill="#FFFFFF" d="M339.068-254.367c-0.092,0.024-0.183,0.048-0.272,0.072c-0.022-0.211-0.069-0.137,0.24-0.218
			C339.045-254.465,339.059-254.416,339.068-254.367C338.979-254.343,339.059-254.415,339.068-254.367z"/>
		<path fill="#FFFFFF" d="M177.465-288.44c0.036-0.055,0.073-0.11,0.109-0.165C177.785-288.436,177.743-288.297,177.465-288.44
			C177.516-288.516,177.541-288.401,177.465-288.44z"/>
		<path fill="#FFFFFF" d="M493.51-259.565c0.037,0.185,0.074,0.369,0.111,0.553C493.325-258.987,493.504-259.39,493.51-259.565z"/>
		<path fill="#FFFFFF" d="M363.157-246.888c-0.182,0.129-0.271,0.114-0.271-0.043C363.065-247.052,363.157-247.037,363.157-246.888
			C363.073-246.867,363.149-246.917,363.157-246.888z"/>
		<path fill="#FFFFFF" d="M177.555-286.218c-0.051,0.063-0.102,0.063-0.152,0C177.454-286.286,177.504-286.286,177.555-286.218
			C177.531-286.201,177.531-286.236,177.555-286.218z"/>
		<path fill="#FFFFFF" d="M465.137-266.783c-0.035,0.131-0.068,0.262-0.104,0.393c-0.041-0.106-0.082-0.212-0.121-0.319
			C465.133-266.688,465.208-266.712,465.137-266.783z"/>
		<path fill="#FFFFFF" d="M550.79-266.018c0.133,0.032,0.268,0.064,0.402,0.095c-0.141,0.075-0.281,0.149-0.422,0.224
			C550.776-265.806,550.784-265.912,550.79-266.018C550.938-265.984,550.784-265.922,550.79-266.018z"/>
		<path fill="#FFFFFF" d="M505.094-265.692c-0.174-0.103-0.201-0.188-0.078-0.257C505.239-265.843,505.264-265.757,505.094-265.692
			C505.045-265.757,505.127-265.714,505.094-265.692z"/>
		<path fill="#FFFFFF" d="M200.189-265.945c0.454-0.248,1.004-0.133,1.464-0.378c0.023-0.594,0.023-1.188,0.023-1.783
			c0.003-1.203-0.25-2.725,0.093-3.883c0.146,1.006,0.153,2.024,0.151,3.038c-0.002,0.511-0.008,1.023,0,1.535
			c0.006,0.513-0.198,1.141,0.394,1.187c1.492,0.116,3.19,0.222,4.662-0.009c-0.103,0.229-0.203,0.458-0.304,0.687
			c-0.396,0.005-0.793,0.005-1.19,0.009c-0.724,0.005-1.44,0.033-2.164-0.002c-0.334-0.016-0.668-0.024-1,0.018
			c-0.502,0.063-0.407,0.334-0.426,0.78c-0.037,0.855,0.101,1.724-0.134,2.563c-0.161-0.722-0.082-1.517-0.084-2.255
			c-0.002-0.345,0.011-0.682-0.043-1.024c-0.269-0.049-0.651,0.041-0.582-0.292c-0.307,0.08-0.611,0.16-0.916,0.24
			C200.133-265.676,200.101-265.814,200.189-265.945C200.625-266.183,200.172-265.92,200.189-265.945z"/>
		<path fill="#FFFFFF" d="M200.189-265.945c-0.299,0.449-0.659,0.4-1.147,0.352c0.063-0.106,0.125-0.211,0.188-0.316
			c-0.321-0.105-0.362,0.147-0.437,0.38c-0.559,0-1.115,0-1.672-0.001c-0.898-0.002-1.764-0.047-2.668,0.001
			c0.789-0.627,1.313-0.656,2.313-0.685C197.534-266.236,199.674-266.566,200.189-265.945
			C200.172-265.92,200.142-266.001,200.189-265.945z"/>
		<path fill="#FFFFFF" d="M191.246-265.648c0.136-0.097,0.272-0.193,0.409-0.288C191.802-265.611,191.558-265.479,191.246-265.648
			C191.404-265.762,191.492-265.515,191.246-265.648z"/>
		<path fill="#FFFFFF" d="M199.495-246.985c0.094-0.104,0.188-0.209,0.283-0.313C199.792-247.097,199.629-246.992,199.495-246.985z"
			/>
		<path fill="#FFFFFF" d="M213.584-260.891c0.041-0.075,0.08-0.149,0.119-0.224C213.872-261.033,213.754-260.792,213.584-260.891
			C213.624-260.965,213.614-260.874,213.584-260.891z"/>
		<path fill="#FFFFFF" d="M423.338-246.626c-0.088-0.232,0.367-0.922,0.553-0.639C424.135-246.892,423.592-246.613,423.338-246.626z
			"/>
	</g>
	<g enable-background="new    ">
		<path fill="#FFFFFF" d="M350.53-215.223c-0.047,0.344-0.096,0.699-0.143,1.066c0,0.048-0.033,0.072-0.098,0.072l-0.023,0.023
			c-0.127,0.048-0.23,0.072-0.311,0.072c-0.369,0-0.74-0.004-1.115-0.013c-0.375-0.008-0.748-0.012-1.114-0.012
			c-0.319,0-0.632-0.004-0.935-0.012c-0.306-0.008-0.615-0.012-0.937-0.012c-0.433,0-0.867,0.004-1.306,0.012
			c-0.44,0.008-0.875,0.021-1.307,0.036v-0.192c0.238,0,0.434-0.052,0.586-0.155s0.269-0.235,0.348-0.396
			c0.08-0.161,0.134-0.34,0.156-0.539c0.023-0.2,0.035-0.403,0.035-0.611v-9.972c0-0.319-0.074-0.527-0.227-0.623
			s-0.316-0.176-0.492-0.239c-0.096-0.032-0.203-0.068-0.322-0.108c-0.121-0.039-0.244-0.1-0.373-0.18
			c-0.031-0.031-0.043-0.067-0.035-0.107c0.008-0.04,0.035-0.061,0.084-0.061h6.832c0.063-0.031,0.131-0.06,0.203-0.084
			c0.071-0.023,0.14-0.052,0.203-0.083c0.08-0.032,0.12,0,0.12,0.096c-0.048,0.415-0.108,0.803-0.181,1.162
			c-0.071,0.359-0.146,0.724-0.227,1.091c-0.018,0.048-0.054,0.068-0.108,0.06c-0.056-0.008-0.084-0.036-0.084-0.084
			c-0.032-0.559-0.224-0.926-0.575-1.103c-0.352-0.176-0.783-0.264-1.295-0.264H346v4.914h2.779c0.079,0,0.184-0.024,0.313-0.072
			c0.127-0.048,0.256-0.096,0.383-0.144c0.176-0.096,0.352-0.168,0.527-0.216c0.08-0.032,0.121,0,0.121,0.096
			c-0.018,0.192-0.037,0.399-0.062,0.623c-0.022,0.225-0.054,0.432-0.084,0.624c-0.032,0.191-0.058,0.392-0.071,0.599
			c-0.017,0.208-0.039,0.407-0.072,0.6c0,0.048-0.021,0.08-0.06,0.096c-0.041,0.016-0.075,0.008-0.108-0.024
			c-0.08-0.079-0.131-0.159-0.154-0.239c-0.024-0.08-0.053-0.168-0.084-0.264c-0.033-0.096-0.064-0.191-0.096-0.288
			c-0.033-0.096-0.09-0.183-0.168-0.264c-0.08-0.079-0.229-0.14-0.443-0.18c-0.217-0.039-0.448-0.071-0.695-0.096
			c-0.248-0.023-0.492-0.036-0.73-0.036c-0.239,0-0.424,0-0.553,0h-0.719v4.938c0.24,0.352,0.579,0.619,1.02,0.803
			c0.438,0.184,0.867,0.275,1.281,0.275c0.561,0,1.035-0.147,1.428-0.443c0.392-0.296,0.65-0.715,0.777-1.259l0.192,0.048
			C350.642-215.922,350.579-215.566,350.53-215.223z"/>
		<path fill="#FFFFFF" d="M374.62-210.657c-0.814,0.224-1.646,0.336-2.492,0.336c-0.719,0-1.438-0.068-2.158-0.204
			c-0.719-0.136-1.43-0.319-2.133-0.551c-0.703-0.232-1.395-0.496-2.073-0.791c-0.679-0.296-1.33-0.604-1.953-0.923
			c-0.048-0.032-0.11-0.072-0.19-0.12c-0.08-0.048-0.177-0.104-0.287-0.168v0.024c-0.178-0.096-0.369-0.199-0.576-0.313
			c-0.207-0.111-0.412-0.216-0.611-0.312c-0.199-0.096-0.383-0.18-0.551-0.252c-0.168-0.072-0.293-0.107-0.371-0.107
			c-0.368,0.176-0.783,0.312-1.247,0.407c-0.464,0.095-0.903,0.144-1.317,0.144c-1.023,0-1.953-0.168-2.793-0.503
			c-0.84-0.336-1.563-0.812-2.17-1.427c-0.607-0.614-1.078-1.346-1.414-2.192c-0.335-0.848-0.503-1.782-0.503-2.805
			c0-0.975,0.185-1.882,0.552-2.721c0.367-0.839,0.866-1.57,1.498-2.193c0.631-0.623,1.369-1.11,2.217-1.462
			s1.759-0.527,2.732-0.527c0.926,0,1.807,0.156,2.637,0.468s1.555,0.755,2.17,1.33c0.615,0.575,1.103,1.263,1.461,2.062
			c0.359,0.799,0.539,1.678,0.539,2.637c0,1.15-0.25,2.253-0.754,3.308c-0.504,1.055-1.227,1.926-2.17,2.612
			c0.783,0.464,1.594,0.927,2.434,1.391c0.839,0.463,1.693,0.874,2.564,1.234c0.871,0.359,1.762,0.65,2.672,0.875
			c0.912,0.223,1.838,0.335,2.781,0.335c0.639,0,1.273-0.06,1.904-0.18c0.632-0.12,1.242-0.315,1.834-0.587l0.096,0.168
			C376.209-211.217,375.434-210.881,374.62-210.657z M363.415-222.905c-0.231-0.703-0.563-1.322-0.996-1.856
			c-0.431-0.535-0.963-0.963-1.594-1.282s-1.354-0.479-2.168-0.479c-0.768,0-1.471,0.12-2.109,0.359
			c-0.641,0.24-1.188,0.584-1.643,1.031c-0.455,0.447-0.811,0.986-1.066,1.617c-0.256,0.632-0.383,1.331-0.383,2.098
			c0,0.847,0.158,1.662,0.479,2.444c0.318,0.783,0.755,1.495,1.307,2.134c0.551,0.64,1.189,1.179,1.918,1.618
			c0.727,0.439,1.506,0.739,2.336,0.898c0.655-0.255,1.246-0.6,1.773-1.03c0.527-0.432,0.975-0.927,1.343-1.486
			c0.367-0.56,0.651-1.166,0.851-1.821c0.201-0.655,0.301-1.334,0.301-2.038C363.76-221.467,363.645-222.202,363.415-222.905z"/>
		<path fill="#FFFFFF" d="M378.934-226.345c-0.225,0.264-0.336,0.563-0.336,0.899v6.423c0,0.735-0.12,1.431-0.359,2.086
			c-0.24,0.655-0.576,1.227-1.007,1.714c-0.433,0.487-0.955,0.871-1.569,1.15c-0.615,0.279-1.307,0.419-2.074,0.419
			c-0.56,0-1.105-0.092-1.642-0.275c-0.536-0.184-1.034-0.443-1.497-0.779c-0.465-0.335-0.875-0.727-1.236-1.174
			c-0.358-0.447-0.627-0.936-0.803-1.462c-0.047-0.112-0.084-0.284-0.106-0.516s-0.04-0.495-0.048-0.791
			c-0.01-0.296-0.018-0.619-0.024-0.971s-0.012-0.703-0.012-1.055c0-0.415,0.004-0.823,0.012-1.223
			c0.009-0.4,0.013-0.767,0.013-1.103v-2.421c0-0.463-0.123-0.791-0.371-0.982c-0.248-0.192-0.588-0.344-1.02-0.456
			c-0.048-0.016-0.066-0.052-0.061-0.107c0.008-0.055,0.035-0.084,0.084-0.084c0.91,0.048,1.813,0.072,2.709,0.072
			c0.254,0,0.502,0,0.742,0s0.487-0.008,0.744-0.024c0.047,0,0.078,0.024,0.096,0.072c0.016,0.048,0,0.088-0.049,0.119
			c-0.256,0.129-0.516,0.316-0.779,0.563c-0.264,0.248-0.395,0.516-0.395,0.804l-0.049,7.334c0,0.544,0.092,1.035,0.275,1.475
			c0.183,0.44,0.443,0.813,0.779,1.126c0.336,0.312,0.73,0.556,1.187,0.731c0.456,0.176,0.946,0.264,1.474,0.264
			c0.543,0,1.047-0.088,1.512-0.264c0.463-0.176,0.861-0.424,1.197-0.743s0.596-0.703,0.779-1.15
			c0.184-0.447,0.275-0.951,0.275-1.511l-0.049-7.238c0-0.463-0.119-0.803-0.359-1.019c-0.238-0.216-0.582-0.363-1.029-0.443
			c-0.049-0.016-0.068-0.052-0.061-0.108c0.008-0.056,0.035-0.084,0.084-0.084c0.447,0.049,0.887,0.072,1.317,0.072
			c0.128,0,0.261-0.004,0.396-0.012c0.137-0.008,0.268-0.012,0.396-0.012c0.271,0,0.551-0.004,0.84-0.013
			c0.287-0.008,0.574-0.004,0.861,0.013l0.023,0.191C379.445-226.771,379.157-226.608,378.934-226.345z"/>
		<path fill="#FFFFFF" d="M384.482-213.977c-0.296-0.008-0.597-0.012-0.899-0.012c-0.432,0-0.854,0.004-1.27,0.012
			c-0.416,0.008-0.84,0.021-1.271,0.036c-0.047,0-0.076-0.028-0.084-0.084s0.013-0.092,0.061-0.108
			c0.398-0.144,0.691-0.363,0.875-0.659c0.184-0.295,0.275-0.65,0.275-1.066v-9.947c0-0.367-0.123-0.623-0.371-0.767
			c-0.248-0.144-0.539-0.24-0.875-0.288c-0.049-0.016-0.068-0.052-0.062-0.107c0.009-0.056,0.037-0.084,0.084-0.084
			c0.337,0.032,0.673,0.057,1.009,0.072c0.334,0.016,0.678,0.023,1.029,0.023c0.335,0,0.671-0.008,1.008-0.023
			c0.336-0.015,0.661-0.048,0.981-0.097c0.048-0.016,0.079,0.009,0.096,0.072c0.017,0.064,0,0.104-0.048,0.12
			c-0.352,0.08-0.635,0.176-0.852,0.287c-0.215,0.112-0.324,0.376-0.324,0.791v9.876c0,0.607,0.117,1.042,0.349,1.306
			c0.231,0.264,0.636,0.42,1.211,0.468v0.191C385.084-213.965,384.778-213.969,384.482-213.977z"/>
		<path fill="#FFFFFF" d="M394.717-222.474c-0.186,0.495-0.443,0.938-0.779,1.33s-0.734,0.707-1.199,0.947
			c-0.463,0.239-0.967,0.359-1.51,0.359c-0.318,0-0.663-0.04-1.029-0.12c-0.049-0.016-0.068-0.052-0.061-0.107
			c0.008-0.056,0.035-0.084,0.084-0.084h0.406c0.912,0,1.631-0.283,2.158-0.852c0.526-0.566,0.791-1.298,0.791-2.192
			c0-0.399-0.064-0.795-0.191-1.187c-0.129-0.392-0.313-0.747-0.553-1.066c-0.238-0.32-0.531-0.579-0.875-0.779
			c-0.344-0.2-0.73-0.3-1.162-0.3c-0.447,0-0.862,0.096-1.246,0.288v10.57c0,0.527,0.119,0.902,0.359,1.126
			c0.239,0.225,0.631,0.352,1.174,0.384c0.049,0,0.072,0.032,0.072,0.096s-0.023,0.096-0.072,0.096h-2.731c-0.272,0-0.544,0-0.815,0
			c-0.256,0-0.52-0.008-0.791-0.023c-0.047,0-0.076-0.028-0.084-0.084c-0.008-0.056,0.014-0.092,0.062-0.108
			c0.286-0.048,0.512-0.111,0.671-0.191s0.275-0.184,0.348-0.312s0.112-0.291,0.12-0.491c0.009-0.2,0.013-0.436,0.013-0.707v-9.827
			c0-0.336-0.145-0.611-0.433-0.827c-0.287-0.216-0.592-0.363-0.909-0.443c-0.05-0.016-0.068-0.052-0.062-0.108
			c0.008-0.056,0.036-0.084,0.084-0.084c0.495,0.048,0.975,0.076,1.438,0.084c0.463,0.009,0.926,0.012,1.389,0.012h2.109
			c0.543,0,1.031,0.049,1.463,0.146c0.433,0.096,0.799,0.26,1.103,0.491s0.534,0.548,0.694,0.946c0.16,0.4,0.24,0.903,0.24,1.511
			C394.993-223.472,394.901-222.969,394.717-222.474z"/>
		<path fill="#FFFFFF" d="M412.633-214.013c-0.639,0-1.287,0-1.941,0c-0.641,0-1.271-0.016-1.895-0.048
			c-0.096,0-0.127-0.04-0.096-0.12c0.016-0.031,0.027-0.063,0.037-0.096c0.008-0.031,0.02-0.063,0.035-0.096
			c0.049-0.144,0.096-0.288,0.145-0.432c0.047-0.144,0.07-0.279,0.07-0.407c0-0.911-0.043-1.81-0.131-2.696
			c-0.09-0.886-0.189-1.777-0.301-2.673c-0.063-0.543-0.125-1.026-0.18-1.45c-0.057-0.423-0.1-0.914-0.133-1.474
			c-0.607,1.166-1.189,2.333-1.75,3.499c-0.559,1.167-1.117,2.349-1.678,3.548c-0.191,0.399-0.379,0.795-0.563,1.187
			s-0.373,0.787-0.563,1.187c-0.018,0.032-0.041,0.048-0.072,0.048c-0.033,0-0.064-0.016-0.096-0.048
			c-0.736-1.022-1.371-2.065-1.906-3.128s-1.043-2.13-1.521-3.2c-0.256-0.56-0.482-1.066-0.684-1.522
			c-0.199-0.455-0.436-0.954-0.707-1.498c-0.049,0.399-0.096,0.787-0.145,1.163c-0.047,0.375-0.096,0.747-0.145,1.114
			c-0.127,0.991-0.238,1.974-0.334,2.948s-0.145,1.966-0.145,2.972c0,0.288,0.07,0.484,0.215,0.588s0.318,0.195,0.527,0.275
			c0.063,0.032,0.15,0.068,0.264,0.107c0.111,0.04,0.184,0.068,0.217,0.084c0.047,0.032,0.063,0.072,0.047,0.12
			s-0.047,0.072-0.096,0.072c-0.225,0-0.443-0.004-0.658-0.013c-0.217-0.008-0.438-0.02-0.66-0.035
			c-0.223-0.015-0.447-0.028-0.67-0.036c-0.225-0.008-0.447-0.012-0.672-0.012c-0.16,0-0.32,0-0.479,0
			c-0.146,0-0.306,0.016-0.479,0.048c-0.048,0.016-0.08-0.008-0.097-0.072c-0.017-0.063,0-0.104,0.049-0.12
			c0.128-0.031,0.224-0.048,0.287-0.048c0.177-0.031,0.327-0.067,0.456-0.107s0.246-0.147,0.357-0.324
			c0.033-0.048,0.076-0.255,0.133-0.623c0.057-0.367,0.119-0.835,0.191-1.402c0.072-0.566,0.152-1.21,0.24-1.929
			c0.088-0.72,0.172-1.454,0.252-2.206c0.08-0.75,0.158-1.489,0.238-2.217c0.08-0.727,0.152-1.394,0.217-2.001
			c0.063-0.527,0.111-0.995,0.145-1.402c0.033-0.407,0.063-0.699,0.096-0.875c0-0.048,0.021-0.076,0.061-0.084
			c0.039-0.008,0.076,0.004,0.107,0.036c0.191,0.208,0.463,0.619,0.814,1.234c0.352,0.615,0.73,1.33,1.139,2.146
			c0.406,0.814,0.83,1.678,1.271,2.588c0.438,0.911,0.842,1.759,1.211,2.541c0.27,0.56,0.494,1.039,0.67,1.438
			c0.176,0.399,0.336,0.735,0.48,1.007c0.254-0.512,0.516-1.067,0.777-1.666c0.266-0.6,0.523-1.194,0.779-1.786
			c0.559-1.294,1.15-2.604,1.773-3.931c0.623-1.326,1.285-2.509,1.988-3.548c0.031-0.031,0.064-0.043,0.096-0.035
			c0.031,0.008,0.049,0.035,0.049,0.084c0.031,0.191,0.061,0.459,0.084,0.803c0.023,0.344,0.061,0.739,0.107,1.187
			c0.047,0.591,0.107,1.238,0.18,1.941c0.072,0.703,0.146,1.422,0.229,2.157c0.08,0.735,0.158,1.45,0.24,2.145
			c0.078,0.695,0.162,1.331,0.25,1.906c0.088,0.575,0.172,1.059,0.252,1.45s0.16,0.635,0.24,0.73
			c0.176,0.256,0.344,0.42,0.504,0.491c0.158,0.072,0.352,0.124,0.574,0.156c0.111,0.032,0.229,0.052,0.348,0.06
			c0.119,0.009,0.244,0.045,0.371,0.108L412.633-214.013z"/>
		<path fill="#FFFFFF" d="M421.334-215.223c-0.049,0.344-0.096,0.699-0.145,1.066c0,0.048-0.031,0.072-0.098,0.072l-0.021,0.023
			c-0.129,0.048-0.232,0.072-0.314,0.072c-0.367,0-0.738-0.004-1.113-0.013c-0.377-0.008-0.746-0.012-1.113-0.012
			c-0.32,0-0.631-0.004-0.938-0.012c-0.303-0.008-0.615-0.012-0.934-0.012c-0.432,0-0.867,0.004-1.307,0.012
			c-0.439,0.008-0.875,0.021-1.307,0.036v-0.192c0.24,0,0.436-0.052,0.588-0.155c0.15-0.104,0.268-0.235,0.348-0.396
			c0.078-0.16,0.131-0.34,0.154-0.539c0.025-0.2,0.037-0.403,0.037-0.611v-9.972c0-0.319-0.076-0.527-0.229-0.623
			s-0.316-0.176-0.49-0.239c-0.098-0.032-0.205-0.068-0.324-0.108c-0.119-0.039-0.244-0.1-0.371-0.18
			c-0.033-0.031-0.045-0.067-0.037-0.107c0.01-0.04,0.037-0.061,0.084-0.061h6.832c0.063-0.031,0.131-0.06,0.203-0.084
			c0.072-0.023,0.141-0.052,0.203-0.083c0.08-0.032,0.121,0,0.121,0.096c-0.049,0.415-0.107,0.803-0.18,1.162
			c-0.074,0.359-0.148,0.724-0.23,1.091c-0.016,0.048-0.051,0.068-0.105,0.06c-0.059-0.008-0.084-0.036-0.084-0.084
			c-0.033-0.559-0.225-0.926-0.576-1.103c-0.352-0.176-0.783-0.264-1.293-0.264h-1.896v4.914h2.781c0.08,0,0.184-0.024,0.313-0.072
			s0.256-0.096,0.385-0.144c0.176-0.096,0.352-0.168,0.525-0.216c0.08-0.032,0.119,0,0.119,0.096
			c-0.016,0.192-0.035,0.399-0.059,0.623c-0.025,0.225-0.053,0.432-0.084,0.624c-0.033,0.191-0.057,0.392-0.072,0.599
			c-0.016,0.208-0.041,0.407-0.072,0.6c0,0.048-0.02,0.08-0.061,0.096c-0.039,0.016-0.076,0.008-0.107-0.024
			c-0.08-0.079-0.131-0.159-0.154-0.239s-0.053-0.168-0.086-0.264c-0.029-0.096-0.063-0.191-0.096-0.288
			c-0.031-0.096-0.088-0.183-0.168-0.264c-0.08-0.079-0.227-0.14-0.441-0.18c-0.217-0.039-0.447-0.071-0.695-0.096
			c-0.248-0.023-0.49-0.036-0.73-0.036s-0.424,0-0.551,0h-0.721v4.938c0.24,0.352,0.58,0.619,1.02,0.803s0.867,0.275,1.283,0.275
			c0.559,0,1.033-0.147,1.426-0.443c0.391-0.296,0.65-0.715,0.779-1.259l0.191,0.048
			C421.446-215.922,421.381-215.566,421.334-215.223z"/>
		<path fill="#FFFFFF" d="M436.59-226.872c-0.008-0.008-0.027-0.004-0.061,0.012c-0.225,0.064-0.459,0.145-0.707,0.24
			c-0.248,0.096-0.371,0.264-0.371,0.503l0.023,5.776v0.983c0,0.927-0.018,1.842-0.049,2.744c-0.031,0.903-0.088,1.811-0.168,2.721
			c0,0.032-0.02,0.06-0.061,0.084c-0.039,0.023-0.076,0.021-0.107-0.012c-0.768-0.655-1.533-1.362-2.301-2.122
			c-0.768-0.759-1.521-1.533-2.266-2.324c-0.742-0.791-1.475-1.59-2.193-2.397s-1.406-1.594-2.061-2.361
			c-0.225-0.239-0.424-0.467-0.6-0.683s-0.375-0.443-0.6-0.684c-0.047,0.432-0.072,0.848-0.072,1.247
			c0,0.607,0.008,1.214,0.025,1.821c0.016,0.607,0.037,1.215,0.07,1.822c0.031,0.607,0.057,1.214,0.072,1.821
			s0.023,1.223,0.023,1.846c0,0.271,0.023,0.491,0.07,0.659c0.049,0.168,0.109,0.3,0.182,0.396c0.07,0.096,0.158,0.164,0.264,0.203
			c0.104,0.04,0.211,0.068,0.322,0.084c0.129,0.032,0.256,0.068,0.385,0.108c0.127,0.04,0.279,0.124,0.455,0.251
			c0.031,0.032,0.043,0.068,0.035,0.108s-0.035,0.06-0.084,0.06c-0.16-0.016-0.314-0.031-0.467-0.048
			c-0.152-0.016-0.309-0.031-0.469-0.048c-0.223-0.032-0.451-0.056-0.682-0.072c-0.232-0.016-0.461-0.023-0.686-0.023
			c-0.287,0-0.584,0.021-0.887,0.06c-0.303,0.04-0.605,0.084-0.91,0.132c-0.049,0.017-0.084,0-0.107-0.048
			c-0.023-0.048-0.021-0.088,0.012-0.12c0.129-0.111,0.244-0.199,0.348-0.264c0.105-0.063,0.205-0.119,0.301-0.167
			c0.191-0.097,0.363-0.229,0.516-0.396c0.15-0.168,0.227-0.436,0.227-0.804v-11.217l0.193-0.384
			c0.016-0.032,0.039-0.056,0.07-0.072s0.057-0.008,0.072,0.024c1.742,1.806,3.428,3.583,5.059,5.333
			c1.629,1.75,3.283,3.56,4.961,5.429v-0.071c0-0.735-0.004-1.463-0.012-2.182c-0.01-0.719-0.021-1.454-0.037-2.205
			c-0.016-0.687-0.031-1.418-0.047-2.193c-0.018-0.774-0.023-1.506-0.023-2.193c0-0.271-0.029-0.491-0.084-0.659
			c-0.057-0.167-0.133-0.295-0.229-0.383s-0.199-0.147-0.313-0.18c-0.111-0.032-0.223-0.056-0.334-0.072
			c-0.129-0.016-0.244-0.036-0.348-0.06c-0.105-0.024-0.197-0.076-0.277-0.156c-0.031-0.031-0.035-0.072-0.012-0.12
			s0.053-0.063,0.084-0.048c0.367,0.048,0.711,0.072,1.029,0.072c0.336,0,0.674,0,1.008,0c0.209,0,0.42-0.004,0.637-0.012
			c0.215-0.008,0.434-0.004,0.658,0.012c0.08,0,0.168,0.004,0.264,0.012c0.096,0.009,0.184,0.012,0.264,0.012l0.049,0.192
			C436.618-226.868,436.598-226.863,436.59-226.872z"/>
		<path fill="#FFFFFF" d="M448.635-225.997c-0.016,0.416-0.072,0.799-0.168,1.15c-0.016,0.048-0.049,0.072-0.096,0.072
			c-0.033,0-0.057-0.024-0.072-0.072c-0.129-0.559-0.379-0.931-0.756-1.114c-0.375-0.184-0.818-0.275-1.33-0.275h-2.109v10.282
			c0,0.464,0.145,0.855,0.432,1.175c0.289,0.319,0.656,0.52,1.104,0.599c0.049,0.017,0.068,0.053,0.063,0.108
			c-0.01,0.056-0.037,0.084-0.084,0.084c-0.416-0.032-0.824-0.061-1.225-0.084c-0.398-0.024-0.809-0.036-1.223-0.036
			c-0.32,0-0.631,0.008-0.936,0.024c-0.303,0.016-0.615,0.04-0.936,0.071c-0.047,0.017-0.074-0.008-0.084-0.071
			c-0.008-0.064,0.014-0.104,0.061-0.12c0.271-0.063,0.484-0.132,0.637-0.204c0.15-0.071,0.268-0.163,0.348-0.275
			c0.078-0.111,0.127-0.26,0.145-0.443c0.016-0.183,0.021-0.411,0.021-0.684v-10.402h-2.875c-0.385,0-0.719,0.128-1.008,0.384
			c-0.287,0.256-0.494,0.551-0.623,0.887c-0.016,0.048-0.047,0.064-0.096,0.048c-0.047-0.016-0.072-0.048-0.072-0.096l-0.047-0.312
			c0-0.256,0.031-0.499,0.096-0.731c0.064-0.23,0.127-0.459,0.191-0.683c0.031-0.112,0.063-0.22,0.096-0.324
			s0.064-0.211,0.098-0.323c0.031-0.08,0.078-0.096,0.145-0.048c0.238,0.16,0.482,0.26,0.73,0.3c0.246,0.04,0.516,0.06,0.803,0.06
			h7.67c0.176,0,0.398-0.04,0.672-0.12c0.064-0.016,0.119-0.031,0.168-0.048c0.047-0.016,0.104-0.031,0.168-0.048l0.119,0.096
			C448.659-226.804,448.651-226.412,448.635-225.997z"/>
	</g>
	<g enable-background="new    ">
		<path fill="#FFFFFF" d="M476.68-217.644c-0.367,0.871-0.879,1.59-1.533,2.157c-0.656,0.567-1.447,0.99-2.373,1.271
			c-0.928,0.279-1.949,0.419-3.068,0.419c-0.416,0-0.844-0.016-1.281-0.048c-0.439-0.032-0.867-0.063-1.283-0.096
			c-0.463-0.032-0.932-0.063-1.4-0.096c-0.473-0.032-0.939-0.04-1.402-0.024c-0.049,0-0.076-0.027-0.084-0.084
			c-0.008-0.056,0.012-0.092,0.061-0.107c0.527-0.112,0.852-0.296,0.971-0.552c0.119-0.255,0.18-0.639,0.18-1.15v-9.899
			c0-0.367-0.096-0.603-0.287-0.707s-0.385-0.171-0.576-0.203c-0.109-0.017-0.215-0.04-0.311-0.072
			c-0.098-0.032-0.168-0.088-0.217-0.168c-0.064-0.096-0.039-0.144,0.072-0.144c0.207,0,0.406,0.004,0.6,0.012
			c0.191,0.009,0.391,0.021,0.6,0.036c0.238,0.016,0.502,0.032,0.791,0.048c0.287,0.017,0.561,0.024,0.814,0.024
			c0.318,0,0.639-0.008,0.959-0.024c0.318-0.016,0.639-0.04,0.959-0.072c0.303-0.031,0.619-0.052,0.945-0.06
			c0.328-0.008,0.645-0.012,0.947-0.012c0.926,0,1.785,0.168,2.576,0.503c0.791,0.336,1.475,0.795,2.049,1.379
			c0.576,0.583,1.027,1.27,1.355,2.061c0.326,0.791,0.49,1.635,0.49,2.529C477.233-219.541,477.047-218.515,476.68-217.644z
			 M475.11-222.689c-0.326-0.782-0.777-1.45-1.354-2.001c-0.576-0.552-1.268-0.975-2.074-1.271s-1.689-0.443-2.648-0.443
			c-0.318,0-0.639,0.016-0.957,0.048c-0.32,0.032-0.633,0.104-0.936,0.216v9.516c0,0.464,0.051,0.831,0.154,1.103
			c0.105,0.272,0.26,0.479,0.469,0.623c0.207,0.144,0.467,0.236,0.779,0.275c0.311,0.04,0.682,0.061,1.113,0.061
			c0.879,0,1.682-0.116,2.41-0.348c0.727-0.231,1.354-0.575,1.881-1.031c0.525-0.455,0.936-1.026,1.223-1.714
			c0.287-0.687,0.432-1.485,0.432-2.396C475.602-221.027,475.438-221.906,475.11-222.689z"/>
		<path fill="#FFFFFF" d="M489.252-214.036c-0.201-0.016-0.412-0.032-0.635-0.048c-0.129-0.017-0.26-0.028-0.396-0.036
			c-0.135-0.008-0.275-0.013-0.42-0.013c-0.367,0-0.734,0.017-1.102,0.049c-0.369,0.032-0.736,0.063-1.104,0.096
			c-0.049,0-0.08-0.024-0.098-0.072c-0.016-0.048,0-0.088,0.049-0.12l0.936-0.455c-0.271-0.751-0.557-1.49-0.852-2.217
			c-0.297-0.728-0.58-1.475-0.852-2.241h-3.715c-0.08,0.208-0.195,0.515-0.348,0.923c-0.152,0.407-0.299,0.831-0.443,1.271
			c-0.145,0.439-0.271,0.854-0.383,1.246c-0.113,0.392-0.168,0.675-0.168,0.851c0,0.24,0.104,0.396,0.311,0.468
			c0.209,0.071,0.408,0.124,0.6,0.155v0.192c-0.303-0.032-0.613-0.061-0.934-0.084c-0.32-0.024-0.641-0.036-0.959-0.036
			c-0.32,0-0.641,0.012-0.959,0.036c-0.32,0.023-0.641,0.052-0.959,0.084c-0.049,0.016-0.076-0.008-0.084-0.072
			c-0.008-0.063,0.012-0.104,0.061-0.12c0.879-0.111,1.494-0.575,1.846-1.39v0.023c0.465-1.166,0.91-2.333,1.344-3.499
			c0.432-1.166,0.854-2.341,1.27-3.523c0.287-0.799,0.566-1.594,0.84-2.385c0.271-0.791,0.559-1.586,0.861-2.385
			c0.016-0.049,0.049-0.072,0.096-0.072c0.049,0,0.08,0.023,0.098,0.072c0.08,0.224,0.164,0.443,0.252,0.658
			c0.088,0.216,0.17,0.436,0.252,0.659c0.654,1.79,1.338,3.588,2.049,5.394s1.521,3.571,2.432,5.297
			c0.193,0.368,0.438,0.632,0.732,0.791c0.295,0.16,0.635,0.256,1.018,0.288v0.191C489.665-214.028,489.452-214.021,489.252-214.036
			z M482.936-224.87c-0.271,0.847-0.531,1.674-0.777,2.48c-0.248,0.807-0.525,1.642-0.828,2.505h3.092L482.936-224.87z"/>
		<path fill="#FFFFFF" d="M499.956-225.997c-0.018,0.416-0.072,0.799-0.168,1.15c-0.016,0.048-0.049,0.072-0.096,0.072
			c-0.033,0-0.057-0.024-0.072-0.072c-0.129-0.559-0.381-0.931-0.756-1.114s-0.818-0.275-1.33-0.275h-2.109v10.282
			c0,0.464,0.146,0.855,0.434,1.175c0.285,0.32,0.654,0.52,1.102,0.599c0.049,0.017,0.068,0.053,0.061,0.108
			c-0.008,0.055-0.035,0.084-0.084,0.084c-0.416-0.032-0.822-0.061-1.223-0.084c-0.398-0.024-0.807-0.036-1.223-0.036
			c-0.318,0-0.631,0.008-0.936,0.024c-0.303,0.016-0.613,0.04-0.936,0.071c-0.047,0.017-0.074-0.008-0.084-0.071
			c-0.008-0.064,0.014-0.104,0.061-0.12c0.271-0.063,0.484-0.132,0.637-0.204c0.15-0.071,0.268-0.163,0.348-0.275
			c0.08-0.111,0.127-0.26,0.145-0.443c0.016-0.184,0.023-0.411,0.023-0.684v-10.402h-2.877c-0.383,0-0.719,0.128-1.006,0.384
			c-0.287,0.256-0.496,0.551-0.623,0.887c-0.018,0.048-0.049,0.064-0.096,0.048c-0.051-0.016-0.072-0.048-0.072-0.096l-0.049-0.312
			c0-0.256,0.031-0.499,0.096-0.731c0.063-0.23,0.129-0.459,0.193-0.683c0.029-0.112,0.063-0.22,0.096-0.324
			c0.031-0.104,0.063-0.211,0.096-0.323c0.031-0.08,0.08-0.096,0.145-0.048c0.238,0.16,0.482,0.26,0.73,0.3
			c0.246,0.04,0.516,0.06,0.803,0.06h7.67c0.176,0,0.398-0.04,0.672-0.12c0.063-0.016,0.119-0.031,0.168-0.048
			c0.047-0.016,0.104-0.031,0.168-0.048l0.119,0.096C499.979-226.804,499.971-226.412,499.956-225.997z"/>
		<path fill="#FFFFFF" d="M512.192-214.036c-0.201-0.016-0.412-0.032-0.637-0.048c-0.127-0.017-0.26-0.028-0.395-0.036
			c-0.137-0.008-0.277-0.013-0.42-0.013c-0.367,0-0.736,0.017-1.104,0.049c-0.369,0.032-0.734,0.063-1.104,0.096
			c-0.047,0-0.08-0.024-0.096-0.072c-0.018-0.048,0-0.088,0.049-0.12l0.934-0.455c-0.27-0.751-0.555-1.49-0.852-2.217
			c-0.295-0.728-0.578-1.475-0.85-2.241h-3.717c-0.08,0.208-0.195,0.515-0.348,0.923c-0.15,0.407-0.299,0.831-0.443,1.271
			c-0.143,0.44-0.271,0.854-0.383,1.246c-0.113,0.392-0.168,0.675-0.168,0.851c0,0.24,0.104,0.396,0.313,0.468
			c0.207,0.071,0.406,0.124,0.6,0.155v0.192c-0.305-0.032-0.615-0.061-0.936-0.084c-0.32-0.024-0.639-0.036-0.959-0.036
			s-0.639,0.012-0.959,0.036c-0.318,0.023-0.639,0.052-0.959,0.084c-0.047,0.016-0.076-0.008-0.084-0.072
			c-0.008-0.063,0.012-0.104,0.061-0.12c0.879-0.111,1.494-0.575,1.846-1.39v0.023c0.463-1.166,0.91-2.333,1.342-3.499
			c0.434-1.166,0.855-2.341,1.271-3.523c0.287-0.799,0.566-1.594,0.838-2.385s0.561-1.586,0.863-2.385
			c0.016-0.049,0.049-0.072,0.096-0.072c0.049,0,0.08,0.023,0.096,0.072c0.08,0.224,0.164,0.443,0.252,0.658
			c0.088,0.216,0.172,0.436,0.252,0.659c0.654,1.79,1.338,3.588,2.049,5.394c0.713,1.806,1.523,3.571,2.436,5.297
			c0.189,0.368,0.434,0.632,0.729,0.791c0.297,0.16,0.637,0.256,1.021,0.288v0.191C512.602-214.028,512.391-214.021,512.192-214.036
			z M505.875-224.87c-0.273,0.847-0.531,1.674-0.779,2.48c-0.248,0.806-0.523,1.642-0.828,2.505h3.094L505.875-224.87z"/>
		<path fill="#FFFFFF" d="M522.569-216.193c-0.23,0.479-0.539,0.887-0.922,1.222c-0.385,0.336-0.828,0.596-1.33,0.779
			c-0.504,0.183-1.035,0.275-1.596,0.275c-0.383,0-0.766,0-1.148,0c-0.369,0-0.744-0.008-1.127-0.023
			c-0.385-0.015-0.768-0.024-1.15-0.024c-0.369,0-0.744,0-1.127,0c-0.049,0-0.076-0.027-0.084-0.084
			c-0.008-0.056,0.012-0.092,0.061-0.107c0.271-0.096,0.486-0.184,0.646-0.264s0.275-0.18,0.348-0.3
			c0.072-0.12,0.115-0.271,0.131-0.455c0.018-0.184,0.025-0.411,0.025-0.684v-9.995c0-0.207-0.021-0.367-0.061-0.479
			c-0.041-0.111-0.088-0.191-0.145-0.239c-0.057-0.048-0.123-0.08-0.203-0.096s-0.168-0.032-0.264-0.048
			c-0.129-0.016-0.26-0.04-0.396-0.072c-0.137-0.032-0.244-0.111-0.322-0.239c-0.033-0.032-0.037-0.068-0.014-0.108
			s0.061-0.052,0.107-0.036c0.176,0.048,0.348,0.08,0.516,0.096c0.168,0.017,0.34,0.024,0.516,0.024c0.238,0,0.482-0.008,0.73-0.024
			c0.248-0.016,0.5-0.039,0.756-0.071c0.238-0.032,0.479-0.056,0.719-0.072c0.238-0.016,0.479-0.023,0.721-0.023
			c0.414,0,0.838,0.06,1.27,0.18c0.432,0.119,0.826,0.296,1.188,0.527c0.359,0.231,0.654,0.523,0.887,0.875
			c0.23,0.352,0.35,0.767,0.35,1.246c0,0.591-0.164,1.139-0.492,1.642c-0.328,0.504-0.699,0.947-1.115,1.33
			c0.832,0.272,1.518,0.72,2.063,1.343c0.543,0.623,0.814,1.39,0.814,2.301C522.917-217.208,522.801-216.673,522.569-216.193z
			 M520.975-218.926c-0.24-0.464-0.563-0.839-0.971-1.127c-0.408-0.288-0.871-0.499-1.391-0.635
			c-0.521-0.136-1.066-0.212-1.643-0.229v5.01c0,0.208,0.063,0.396,0.191,0.563c0.127,0.168,0.287,0.312,0.479,0.432
			c0.193,0.119,0.396,0.212,0.611,0.275c0.217,0.063,0.42,0.096,0.611,0.096c0.367,0,0.703-0.075,1.008-0.228
			c0.303-0.151,0.563-0.355,0.779-0.611c0.215-0.255,0.383-0.547,0.502-0.875c0.121-0.327,0.18-0.667,0.18-1.019
			C521.334-217.911,521.215-218.463,520.975-218.926z M519.993-225.074c-0.096-0.296-0.236-0.56-0.42-0.791
			c-0.184-0.231-0.41-0.415-0.684-0.552c-0.271-0.135-0.584-0.203-0.934-0.203c-0.16,0-0.32,0.016-0.48,0.048
			c-0.158,0.032-0.318,0.072-0.479,0.12v4.794h0.072c0.463,0,0.883-0.032,1.258-0.097c0.375-0.063,0.699-0.188,0.971-0.371
			s0.479-0.436,0.623-0.755c0.145-0.319,0.215-0.743,0.215-1.271C520.135-224.471,520.088-224.778,519.993-225.074z"/>
		<path fill="#FFFFFF" d="M536.495-214.036c-0.199-0.016-0.41-0.032-0.635-0.048c-0.127-0.017-0.26-0.028-0.396-0.036
			c-0.135-0.008-0.275-0.013-0.418-0.013c-0.369,0-0.736,0.017-1.104,0.049c-0.369,0.032-0.734,0.063-1.104,0.096
			c-0.049,0-0.08-0.024-0.096-0.072c-0.018-0.048,0-0.088,0.047-0.12l0.936-0.455c-0.271-0.751-0.555-1.49-0.852-2.217
			c-0.295-0.728-0.578-1.475-0.85-2.241h-3.717c-0.08,0.208-0.195,0.515-0.348,0.923c-0.152,0.407-0.299,0.831-0.443,1.271
			c-0.143,0.439-0.271,0.854-0.383,1.246c-0.113,0.392-0.168,0.675-0.168,0.851c0,0.24,0.104,0.396,0.313,0.468
			c0.207,0.071,0.406,0.124,0.598,0.155v0.192c-0.303-0.032-0.615-0.061-0.934-0.084c-0.32-0.024-0.641-0.036-0.959-0.036
			c-0.32,0-0.641,0.012-0.959,0.036c-0.32,0.023-0.639,0.052-0.959,0.084c-0.049,0.016-0.076-0.008-0.084-0.072
			c-0.008-0.063,0.012-0.104,0.061-0.12c0.879-0.111,1.494-0.575,1.846-1.39v0.023c0.463-1.166,0.91-2.333,1.342-3.499
			c0.434-1.166,0.855-2.341,1.271-3.523c0.289-0.799,0.568-1.594,0.84-2.385s0.559-1.586,0.863-2.385
			c0.016-0.049,0.047-0.072,0.096-0.072c0.047,0,0.08,0.023,0.096,0.072c0.08,0.224,0.164,0.443,0.252,0.658
			c0.088,0.216,0.172,0.436,0.252,0.659c0.654,1.79,1.338,3.588,2.049,5.394s1.521,3.571,2.434,5.297
			c0.191,0.368,0.436,0.632,0.73,0.791c0.295,0.16,0.635,0.256,1.02,0.288v0.191C536.907-214.028,536.696-214.021,536.495-214.036z
			 M530.178-224.87c-0.271,0.847-0.529,1.674-0.777,2.48c-0.248,0.807-0.523,1.642-0.828,2.505h3.092L530.178-224.87z"/>
		<path fill="#FFFFFF" d="M544.596-215.93c-0.297,0.463-0.672,0.858-1.127,1.187c-0.455,0.327-0.959,0.583-1.51,0.767
			s-1.074,0.275-1.57,0.275c-0.238,0-0.49-0.027-0.754-0.084c-0.264-0.056-0.504-0.147-0.721-0.275
			c-0.215-0.128-0.391-0.291-0.527-0.491c-0.135-0.199-0.203-0.451-0.203-0.755c0-0.192,0.021-0.384,0.061-0.575
			c0.039-0.192,0.076-0.376,0.107-0.552l0.119-0.575c0-0.048,0.033-0.072,0.098-0.072c0.063,0,0.096,0.024,0.096,0.072v0.359
			c0,0.336,0.072,0.632,0.215,0.887c0.146,0.256,0.328,0.476,0.553,0.659c0.225,0.185,0.482,0.32,0.777,0.408
			c0.297,0.088,0.596,0.132,0.9,0.132c0.287,0,0.582-0.048,0.887-0.145c0.303-0.096,0.578-0.235,0.826-0.419
			s0.451-0.407,0.611-0.671c0.158-0.264,0.238-0.556,0.238-0.875c0-0.304-0.07-0.604-0.215-0.899
			c-0.145-0.295-0.336-0.595-0.576-0.898c-0.238-0.303-0.51-0.607-0.814-0.911c-0.303-0.303-0.615-0.606-0.934-0.91
			c-0.336-0.32-0.672-0.644-1.008-0.971c-0.336-0.328-0.631-0.663-0.887-1.007s-0.463-0.691-0.623-1.043s-0.24-0.711-0.24-1.079
			c0-0.543,0.152-1.01,0.455-1.401c0.305-0.391,0.68-0.711,1.127-0.959s0.936-0.432,1.463-0.552c0.527-0.119,1.016-0.18,1.461-0.18
			c0.641,0,1.225,0.08,1.75,0.24c0.049,0.032,0.072,0.063,0.072,0.096c-0.064,0.783-0.16,1.59-0.287,2.421
			c-0.016,0.048-0.049,0.071-0.096,0.071c-0.049,0-0.08-0.022-0.098-0.071c-0.129-0.56-0.371-1.039-0.73-1.438
			s-0.834-0.599-1.426-0.599c-0.607,0-1.113,0.195-1.521,0.587c-0.408,0.392-0.611,0.891-0.611,1.498
			c0,0.319,0.068,0.615,0.203,0.887c0.137,0.272,0.313,0.535,0.527,0.791s0.469,0.508,0.756,0.755
			c0.287,0.248,0.582,0.5,0.887,0.755c0.336,0.272,0.666,0.556,0.994,0.852c0.328,0.296,0.619,0.607,0.875,0.935
			s0.463,0.675,0.623,1.043c0.16,0.367,0.24,0.767,0.24,1.198C545.04-216.904,544.891-216.394,544.596-215.93z"/>
		<path fill="#FFFFFF" d="M553.715-215.223c-0.047,0.344-0.096,0.699-0.143,1.066c0,0.048-0.033,0.072-0.098,0.072l-0.023,0.023
			c-0.127,0.048-0.23,0.072-0.313,0.072c-0.365,0-0.738-0.004-1.113-0.013c-0.375-0.008-0.746-0.012-1.113-0.012
			c-0.32,0-0.633-0.004-0.936-0.012c-0.305-0.008-0.615-0.012-0.936-0.012c-0.432,0-0.867,0.004-1.307,0.012
			c-0.439,0.008-0.875,0.021-1.307,0.036v-0.192c0.238,0,0.436-0.052,0.586-0.155c0.152-0.104,0.27-0.235,0.35-0.396
			c0.078-0.16,0.131-0.34,0.154-0.539c0.023-0.2,0.035-0.403,0.035-0.611v-9.972c0-0.319-0.074-0.527-0.227-0.623
			c-0.154-0.096-0.316-0.176-0.492-0.239c-0.096-0.032-0.203-0.068-0.322-0.108c-0.121-0.039-0.244-0.1-0.373-0.18
			c-0.031-0.031-0.043-0.067-0.035-0.107c0.008-0.04,0.035-0.061,0.084-0.061h6.832c0.063-0.031,0.131-0.06,0.203-0.084
			c0.072-0.023,0.141-0.052,0.203-0.083c0.08-0.032,0.121,0,0.121,0.096c-0.049,0.415-0.107,0.803-0.182,1.162
			c-0.07,0.359-0.146,0.724-0.229,1.091c-0.016,0.048-0.053,0.068-0.105,0.06c-0.059-0.008-0.084-0.036-0.084-0.084
			c-0.033-0.559-0.227-0.926-0.576-1.103c-0.354-0.176-0.783-0.264-1.295-0.264h-1.895v4.914h2.781c0.08,0,0.186-0.024,0.313-0.072
			s0.256-0.096,0.383-0.144c0.176-0.096,0.352-0.168,0.527-0.216c0.08-0.032,0.119,0,0.119,0.096
			c-0.016,0.192-0.035,0.399-0.061,0.623c-0.023,0.225-0.051,0.432-0.084,0.624c-0.031,0.191-0.057,0.392-0.07,0.599
			c-0.018,0.208-0.041,0.407-0.072,0.6c0,0.048-0.02,0.08-0.061,0.096c-0.039,0.016-0.076,0.008-0.107-0.024
			c-0.08-0.079-0.133-0.159-0.154-0.239c-0.023-0.08-0.055-0.168-0.084-0.264c-0.033-0.096-0.064-0.191-0.098-0.288
			c-0.031-0.096-0.088-0.183-0.168-0.264c-0.08-0.079-0.227-0.14-0.441-0.18c-0.217-0.039-0.447-0.071-0.695-0.096
			c-0.248-0.023-0.492-0.036-0.73-0.036c-0.24,0-0.424,0-0.553,0h-0.719v4.938c0.24,0.352,0.58,0.619,1.02,0.803
			s0.867,0.275,1.281,0.275c0.561,0,1.035-0.147,1.428-0.443c0.391-0.296,0.65-0.715,0.777-1.259l0.193,0.048
			C553.829-215.922,553.764-215.566,553.715-215.223z"/>
	</g>
</g>
</svg>
