<?xml version="1.0" encoding="utf-8"?>
<!-- Generator: Adobe Illustrator 16.0.3, SVG Export Plug-In . SVG Version: 6.00 Build 0)  -->
<!DOCTYPE svg PUBLIC "-//W3C//DTD SVG 1.1//EN" "http://www.w3.org/Graphics/SVG/1.1/DTD/svg11.dtd">
<svg version="1.1" id="Layer_1" xmlns="http://www.w3.org/2000/svg" xmlns:xlink="http://www.w3.org/1999/xlink" x="0px" y="0px"
	 width="184.725px" height="593.563px" viewBox="0 0 184.725 593.563" enable-background="new 0 0 184.725 593.563"
	 xml:space="preserve">
<g enable-background="new    ">
	<path fill="#FF3C00" d="M141.935,100.39c0.054-0.057,0.025-0.193-0.084-0.414c-0.441-1.546-0.992-3.173-1.654-4.883
		c-0.662-1.712-1.821-2.565-3.477-2.565l-39.891,0.166h-6.786c-6.401,0-12.72-0.111-18.952-0.331
		c-6.236-0.223-12.497-0.608-18.787-1.159c-0.223,0-0.414-0.14-0.58-0.414c-0.165-0.276-0.14-0.525,0.083-0.745
		c4.523-5.297,9.406-10.594,14.649-15.89c5.239-5.297,10.593-10.511,16.056-15.642c5.462-5.131,10.978-10.18,16.552-15.146
		c5.57-4.966,11.008-9.711,16.305-14.235c1.654-1.547,3.227-2.925,4.717-4.138c1.49-1.216,3.063-2.594,4.717-4.138
		c-2.979-0.331-5.85-0.497-8.607-0.497c-4.194,0-8.387,0.054-12.579,0.166c-4.194,0.109-8.388,0.274-12.58,0.497
		c-4.195,0.22-8.387,0.385-12.58,0.497c-4.195,0.108-8.441,0.166-12.745,0.166c-1.878,0-3.394,0.166-4.552,0.497
		c-1.159,0.331-2.069,0.745-2.731,1.241s-1.133,1.102-1.407,1.821c-0.276,0.717-0.471,1.461-0.579,2.235
		c-0.223,0.882-0.471,1.764-0.745,2.648c-0.276,0.882-0.855,1.929-1.737,3.145c-0.223,0.22-0.471,0.303-0.745,0.249
		c-0.276-0.057-0.414-0.249-0.414-0.58c0.108-1.104,0.22-2.18,0.331-3.228c0.108-1.05,0.22-2.126,0.331-3.228
		c0.22-1.547,0.386-3.119,0.497-4.718c0.108-1.601,0.165-3.173,0.165-4.717c0-1.986-0.14-4.029-0.414-6.125
		c-0.276-2.097-0.579-4.195-0.91-6.29c-0.111-0.331,0-0.58,0.331-0.745s0.605-0.14,0.828,0.083c0.771,0.882,1.378,1.681,1.82,2.4
		c0.439,0.716,0.828,1.407,1.159,2.069c0.662,1.324,1.572,2.508,2.73,3.559c1.159,1.047,3.006,1.572,5.545,1.572h77.465l2.648,1.324
		c0.22,0.109,0.385,0.274,0.496,0.497c0.109,0.22,0.055,0.386-0.165,0.497c-12.472,12.026-24.745,23.67-36.829,34.926
		c-12.083,11.255-24.58,22.677-37.49,34.263h0.496c5.074,0,10.098-0.028,15.063-0.083c4.966-0.057,10.04-0.14,15.229-0.249
		c4.742-0.111,9.791-0.222,15.145-0.331c5.352-0.111,10.4-0.166,15.146-0.166c1.875,0,3.393-0.194,4.551-0.579
		c1.159-0.388,2.041-0.911,2.648-1.573c0.605-0.662,1.02-1.381,1.242-2.152c0.22-0.773,0.385-1.546,0.496-2.317
		c0.109-0.884,0.248-1.684,0.414-2.4c0.166-0.719,0.522-1.353,1.076-1.903c0.219-0.223,0.496-0.249,0.827-0.083
		s0.44,0.357,0.331,0.58c-0.331,2.537-0.496,4.909-0.496,7.117c0,2.317,0,4.635,0,6.952c0,1.433,0.025,2.896,0.082,4.386
		c0.055,1.49,0.026,3.005-0.082,4.552c0,0.551-0.029,1.158-0.083,1.82c-0.058,0.662-0.083,1.268-0.083,1.821l-1.324,0.331
		C141.906,100.581,141.877,100.444,141.935,100.39z"/>
	<path fill="#FF3C00" d="M77.711,198.877c-5.462-2.595-10.18-6.042-14.152-10.346c-3.972-4.304-7.063-9.298-9.269-14.979
		c-2.209-5.685-3.311-11.67-3.311-17.96c0-5.188,1.267-10.567,3.807-16.139c2.537-5.573,5.848-10.676,9.932-15.311
		c4.081-4.635,8.716-8.47,13.904-11.504c5.186-3.036,10.428-4.552,15.725-4.552c8.053,0,14.979,0.745,20.772,2.234
		c5.794,1.49,10.702,3.89,14.731,7.2c4.027,3.311,7.338,7.669,9.932,13.076c2.592,5.406,4.717,12.026,6.373,19.863l0.165,2.151
		c0.551,7.061-0.471,13.628-3.062,19.697c-2.595,6.068-6.236,11.364-10.926,15.891c-4.691,4.523-10.236,8.082-16.635,10.677
		c-6.4,2.591-13.133,3.89-20.193,3.89C89.104,202.767,83.174,201.468,77.711,198.877z M111.892,189.276
		c5.405-1.602,10.262-3.973,14.566-7.118c4.303-3.145,7.779-7.009,10.428-11.586c2.648-4.581,3.973-9.849,3.973-15.808
		c0-5.628-1.021-10.622-3.063-14.98c-2.043-4.36-4.857-8.027-8.441-11.007c-3.588-2.979-7.726-5.271-12.414-6.869
		c-4.691-1.602-9.684-2.4-14.98-2.4c-5.52,0-10.981,0.828-16.387,2.483c-5.407,1.655-10.29,4.109-14.648,7.365
		c-4.36,3.254-7.891,7.2-10.594,11.835c-2.705,4.635-4.055,9.932-4.055,15.891c0,5.628,1.075,10.594,3.228,14.896
		c2.151,4.304,5.02,7.917,8.607,10.842c3.584,2.923,7.751,5.132,12.497,6.621c4.743,1.49,9.766,2.234,15.062,2.234
		C101.075,191.676,106.484,190.874,111.892,189.276z"/>
	<path fill="#FF3C00" d="M51.394,294.88c-0.497-2.044-0.745-4.056-0.745-6.042c0-3.311,0.604-6.29,1.82-8.938
		c1.213-2.648,2.757-5.022,4.635-7.117c1.875-2.098,4.027-4.056,6.455-5.876c2.427-1.821,4.909-3.559,7.449-5.214
		c2.317-1.547,4.606-3.174,6.869-4.883c2.261-1.713,4.304-3.588,6.124-5.628c1.821-2.044,3.282-4.25,4.387-6.621
		c1.102-2.374,1.655-5.049,1.655-8.028c0-0.884,0-1.767,0-2.648c0-0.773-0.111-1.601-0.331-2.482H66.207
		c-3.201,0-5.933,0.965-8.193,2.896c-2.263,1.93-3.559,4.495-3.89,7.697H52.8c0.22-2.54,0.414-5.049,0.579-7.531
		c0.166-2.483,0.249-4.994,0.249-7.531c0-2.54-0.111-4.994-0.331-7.366c-0.223-2.374-0.497-4.829-0.828-7.366
		c-0.111-0.331,0.026-0.579,0.414-0.744c0.386-0.166,0.688-0.083,0.91,0.248c1.102,2.317,2.757,4.247,4.966,5.793
		c2.206,1.544,4.578,2.317,7.117,2.317h66.044c2.537,0,4.771-0.91,6.704-2.73c1.929-1.821,3.227-4.002,3.889-6.539
		c0.109-0.331,0.357-0.471,0.746-0.413c0.385,0.054,0.578,0.248,0.578,0.579v32.608c0,3.419-0.413,6.786-1.24,10.097
		c-0.828,3.311-2.127,6.233-3.891,8.772c-1.766,2.537-4.084,4.578-6.951,6.125c-2.871,1.544-6.291,2.317-10.264,2.317
		c-5.297,0-10.318-1.464-15.063-4.387c-4.746-2.925-8.829-6.207-12.248-9.849c-1.324,1.213-3.008,2.537-5.048,3.973
		c-2.044,1.433-4.167,2.979-6.373,4.635c-3.311,2.426-6.704,4.991-10.18,7.696c-3.476,2.703-6.621,5.545-9.435,8.524
		c-2.814,2.979-5.022,6.067-6.621,9.27c-1.601,3.199-2.181,6.455-1.738,9.766l-1.324,0.497
		C52.577,298.878,51.89,296.92,51.394,294.88z M123.975,257.637c2.868-0.827,5.462-2.069,7.78-3.725
		c2.316-1.655,4.221-3.698,5.71-6.124c1.489-2.429,2.234-5.242,2.234-8.441c0-1.324-0.083-2.648-0.248-3.973
		s-0.524-2.594-1.076-3.808H97.159c-0.33,1.875-0.553,3.696-0.662,5.463c-0.11,1.764-0.165,3.584-0.165,5.462
		c0,6.179,1.681,10.454,5.049,12.828c3.364,2.372,8.028,3.559,13.987,3.559C118.236,258.878,121.105,258.465,123.975,257.637z"/>
	<path fill="#FF3C00" d="M53.131,427.215c0-4.415,0-8.884,0-13.407c0-4.415,0.108-8.772,0.331-13.076
		c0-0.662,0.274-0.885,0.828-0.662c0.22,0.108,0.439,0.191,0.662,0.248c0.22,0.055,0.439,0.137,0.662,0.248
		c0.993,0.331,1.986,0.662,2.979,0.993s1.929,0.497,2.813,0.497c6.29,0,12.497-0.306,18.621-0.91
		c6.125-0.608,12.274-1.299,18.455-2.069c3.751-0.442,7.09-0.856,10.015-1.241c2.923-0.389,6.315-0.691,10.18-0.911
		c-8.056-4.194-16.112-8.222-24.166-12.083c-8.056-3.864-16.221-7.726-24.497-11.587c-2.76-1.324-5.491-2.622-8.193-3.89
		c-2.705-1.27-5.437-2.565-8.193-3.89c-0.223-0.111-0.331-0.276-0.331-0.496c0-0.223,0.108-0.442,0.331-0.662
		c7.061-5.077,14.261-9.464,21.601-13.159c7.337-3.699,14.703-7.2,22.097-10.511c3.861-1.767,7.366-3.339,10.511-4.718
		c3.146-1.381,6.593-3.008,10.345-4.883c-2.759-0.331-5.436-0.662-8.027-0.993c-2.594-0.331-5.16-0.662-7.697-0.993
		c-6.843-0.885-13.629-1.655-20.358-2.317c-6.732-0.662-13.573-0.993-20.524-0.993c-1.986,0-3.34,0.496-4.056,1.489
		c-0.719,0.993-1.353,2.207-1.903,3.642c-0.223,0.44-0.471,1.048-0.745,1.821c-0.276,0.771-0.471,1.268-0.579,1.489
		c-0.223,0.331-0.497,0.44-0.828,0.331c-0.331-0.111-0.496-0.331-0.496-0.662c0-1.546,0.025-3.062,0.082-4.552
		c0.055-1.489,0.138-3.008,0.249-4.552c0.108-1.547,0.191-3.091,0.248-4.635c0.055-1.547,0.083-3.091,0.083-4.635
		c0-1.104,0-2.208,0-3.311c0-0.993-0.111-2.098-0.331-3.311c-0.111-0.331,0.054-0.553,0.496-0.662c0.439-0.11,0.717,0,0.828,0.331
		c0.22,0.883,0.331,1.544,0.331,1.986c0.22,1.213,0.468,2.261,0.744,3.146c0.274,0.882,1.02,1.709,2.235,2.482
		c0.331,0.22,1.764,0.522,4.304,0.91c2.537,0.386,5.765,0.828,9.683,1.324c3.916,0.497,8.359,1.048,13.324,1.655
		c4.966,0.605,10.04,1.185,15.228,1.738c5.186,0.551,10.289,1.102,15.312,1.655c5.021,0.551,9.626,1.048,13.821,1.49
		c3.642,0.439,6.869,0.771,9.684,0.993c2.813,0.22,4.826,0.439,6.041,0.661c0.331,0,0.522,0.138,0.58,0.414
		c0.054,0.274-0.029,0.522-0.249,0.745c-1.436,1.324-4.278,3.199-8.524,5.628c-4.25,2.426-9.187,5.048-14.814,7.862
		c-5.628,2.813-11.586,5.736-17.877,8.772c-6.289,3.034-12.14,5.819-17.545,8.359c-3.863,1.875-7.174,3.419-9.931,4.635
		c-2.76,1.213-5.077,2.317-6.952,3.311c3.53,1.764,7.365,3.559,11.504,5.379c4.138,1.821,8.247,3.613,12.331,5.38
		c8.938,3.861,17.985,7.945,27.146,12.249c9.158,4.303,17.323,8.881,24.498,13.738c0.219,0.22,0.303,0.439,0.248,0.662
		c-0.057,0.22-0.248,0.331-0.58,0.331c-1.324,0.22-3.173,0.413-5.545,0.579c-2.373,0.165-5.105,0.414-8.193,0.745
		c-4.084,0.331-8.553,0.744-13.407,1.241c-4.856,0.496-9.823,1.019-14.897,1.572c-5.076,0.551-10.014,1.102-14.813,1.655
		c-4.8,0.551-9.187,1.13-13.159,1.738c-3.973,0.604-7.312,1.185-10.014,1.737c-2.706,0.552-4.387,1.103-5.049,1.655
		c-1.767,1.214-2.896,2.372-3.394,3.477c-0.496,1.102-0.855,2.426-1.075,3.973c-0.223,0.771-0.359,1.572-0.414,2.399
		c-0.057,0.828-0.306,1.682-0.745,2.566L53.131,427.215z"/>
	<path fill="#FF3C00" d="M53.297,521.149c0.108-1.382,0.22-2.843,0.331-4.387c0.108-0.885,0.191-1.795,0.248-2.731
		c0.055-0.938,0.083-1.903,0.083-2.896c0-2.54-0.111-5.077-0.331-7.614c-0.223-2.539-0.442-5.076-0.662-7.614
		c0-0.33,0.165-0.553,0.496-0.661c0.331-0.111,0.605,0,0.828,0.331l3.145,6.455c5.186-1.878,10.288-3.836,15.312-5.876
		c5.02-2.043,10.18-4.001,15.476-5.876v-25.656c-1.435-0.554-3.559-1.353-6.372-2.4c-2.814-1.05-5.739-2.069-8.773-3.063
		c-3.036-0.993-5.904-1.877-8.606-2.648c-2.706-0.772-4.663-1.158-5.876-1.158c-1.655,0-2.731,0.717-3.229,2.151
		c-0.496,1.434-0.855,2.814-1.075,4.139h-1.324c0.22-2.098,0.413-4.249,0.579-6.456c0.165-2.208,0.248-4.414,0.248-6.62
		c0-2.209-0.083-4.415-0.248-6.621c-0.166-2.209-0.359-4.415-0.579-6.621c-0.111-0.331,0.054-0.525,0.496-0.579
		c0.439-0.058,0.717,0.082,0.828,0.413c0.771,6.067,3.973,10.317,9.6,12.746h-0.165c8.054,3.199,16.11,6.289,24.166,9.269
		c8.054,2.979,16.165,5.902,24.332,8.773c5.517,1.986,11.007,3.915,16.47,5.793c5.462,1.875,10.95,3.861,16.469,5.959
		c0.332,0.108,0.497,0.331,0.497,0.662s-0.165,0.551-0.497,0.662c-1.546,0.551-3.062,1.13-4.551,1.738
		c-1.49,0.604-3.008,1.185-4.553,1.737c-12.359,4.523-24.773,9.241-37.242,14.152c-12.471,4.909-24.663,10.511-36.58,16.801
		c-2.54,1.324-4.361,3.006-5.463,5.049c-1.104,2.04-1.767,4.386-1.986,7.034h-1.324C53.24,523.989,53.186,522.527,53.297,521.149z
		 M128.113,477.533c-5.85-1.877-11.561-3.67-17.131-5.379c-5.574-1.712-11.339-3.616-17.297-5.711v21.353L128.113,477.533z"/>
	<path fill="#FF3C00" d="M69.022,589.839c-0.331-0.057-0.662-0.082-0.993-0.082c-2.429-0.223-4.774-0.471-7.035-0.745
		c-2.263-0.277-4.497-0.968-6.703-2.069c-0.111,0.108-0.331,0.166-0.662,0.166s-0.662-0.331-0.993-0.993
		c0.439-4.415,0.744-8.802,0.91-13.159c0.165-4.36,0.248-8.802,0.248-13.325c0-3.642-0.057-7.283-0.165-10.924
		c-0.111-3.642-0.223-7.283-0.331-10.925c0-0.554-0.028-1.133-0.083-1.738c-0.057-0.607-0.083-1.188-0.083-1.738
		c0-0.331,0.22-0.496,0.662-0.496c0.439,0,0.662,0.165,0.662,0.496c0.108,1.213,0.551,2.317,1.324,3.311
		c0.771,0.993,1.738,1.821,2.896,2.483c1.159,0.662,2.4,1.158,3.725,1.489s2.482,0.497,3.476,0.497h67.368
		c2.648,0,4.743-0.885,6.29-2.648c1.544-1.767,2.371-3.973,2.482-6.621h1.324c-0.111,2.095-0.166,4.138-0.166,6.124s0,4.027,0,6.125
		c0,5.736,0.166,11.586,0.497,17.545c0,0.331-0.194,0.522-0.579,0.579c-0.389,0.055-0.637-0.082-0.745-0.413
		c-0.442-2.317-1.464-4.415-3.062-6.29c-1.602-1.878-3.559-2.814-5.877-2.814H71.835c-4.635,0-8.193,1.462-10.676,4.387
		c-2.483,2.923-3.725,6.538-3.725,10.842c0,4.192,1.185,8.054,3.559,11.587c2.372,3.53,5.488,6.232,9.353,8.11l-0.331,1.324
		C69.684,589.922,69.353,589.894,69.022,589.839z"/>
</g>
</svg>
