<?xml version="1.0" encoding="utf-8"?>
<!-- Generator: Adobe Illustrator 16.0.3, SVG Export Plug-In . SVG Version: 6.00 Build 0)  -->
<!DOCTYPE svg PUBLIC "-//W3C//DTD SVG 1.1//EN" "http://www.w3.org/Graphics/SVG/1.1/DTD/svg11.dtd">
<svg version="1.1" id="Layer_1" xmlns="http://www.w3.org/2000/svg" xmlns:xlink="http://www.w3.org/1999/xlink" x="0px" y="0px"
	 width="184.725px" height="354.877px" viewBox="0 0 184.725 354.877" enable-background="new 0 0 184.725 354.877"
	 xml:space="preserve">
<g enable-background="new    ">
	<path fill="#FF3C00" d="M68.194,63.644c-3.311-1.601-6.124-3.725-8.441-6.373s-4.112-5.71-5.38-9.187
		c-1.27-3.476-1.903-7.146-1.903-11.007c0-2.648,0-5.296,0-7.945c0-2.54,0.055-5.131,0.166-7.78
		c0.108-2.648,0.165-5.297,0.165-7.945c0-2.54,0-5.131,0-7.779c0-0.331,0.191-0.525,0.579-0.58c0.386-0.057,0.634,0.083,0.745,0.414
		c0.662,1.875,1.268,3.365,1.821,4.469c0.551,1.102,1.241,1.903,2.068,2.4c0.828,0.497,1.875,0.799,3.146,0.91
		c1.267,0.109,2.84,0.166,4.717,0.166H134.9c1.433,0,2.537-0.14,3.311-0.414c0.771-0.277,1.324-0.608,1.654-0.993
		c0.332-0.388,0.552-0.856,0.662-1.407c0.109-0.554,0.221-1.159,0.332-1.821c0.108-0.885,0.273-1.795,0.496-2.731
		c0.221-0.939,0.771-1.684,1.655-2.234c0.22-0.223,0.468-0.249,0.745-0.083c0.273,0.166,0.357,0.414,0.248,0.745
		c-0.331,1.213-0.553,2.4-0.662,3.559c-0.111,1.159-0.166,2.343-0.166,3.559c0,1.655,0.055,3.336,0.166,5.049
		c0.109,1.709,0.274,3.447,0.496,5.214c0.221,1.655,0.386,3.311,0.497,4.966c0.108,1.655,0.165,3.311,0.165,4.966
		c0,2.868-0.413,5.793-1.24,8.772c-0.828,2.979-2.044,5.71-3.643,8.193c-1.601,2.483-3.615,4.523-6.041,6.125
		c-2.429,1.598-5.297,2.4-8.607,2.4c-4.084,0-7.862-1.133-11.338-3.393c-3.477-2.263-6.539-4.829-9.188-7.697
		c-1.877,5.736-4.965,10.482-9.27,14.235c-4.303,3.75-9.6,5.628-15.889,5.628C75.2,66.043,71.504,65.242,68.194,63.644z
		 M87.064,52.636c3.199-1.655,5.793-3.89,7.779-6.704c1.986-2.813,3.447-6.016,4.387-9.6c0.936-3.587,1.461-7.366,1.572-11.338
		H66.207c-1.435,0-2.73,0.439-3.89,1.324c-1.158,0.882-2.151,1.986-2.979,3.311c-0.827,1.324-1.464,2.731-1.903,4.221
		c-0.442,1.49-0.662,2.896-0.662,4.221c0,2.537,0.522,4.854,1.572,6.952c1.048,2.095,2.455,3.89,4.221,5.379
		c1.765,1.49,3.779,2.648,6.042,3.476c2.261,0.828,4.606,1.241,7.035,1.241C80.055,55.119,83.862,54.291,87.064,52.636z
		 M129.52,45.85c2.041-0.662,3.861-1.629,5.462-2.896c1.6-1.27,2.869-2.843,3.808-4.718c0.937-1.877,1.407-4.029,1.407-6.455
		c0-1.104-0.111-2.209-0.332-3.311c-0.222-1.104-0.496-2.209-0.827-3.311h-33.104v0.497c0,3.199,0.22,6.096,0.662,8.69
		c0.439,2.591,1.296,4.826,2.565,6.704c1.268,1.875,3.005,3.311,5.214,4.304c2.207,0.993,5.131,1.49,8.773,1.49
		C125.353,46.843,127.477,46.512,129.52,45.85z"/>
	<path fill="#FF3C00" d="M69.022,130.348c-0.331-0.057-0.662-0.082-0.993-0.082c-2.429-0.223-4.774-0.471-7.035-0.745
		c-2.263-0.277-4.497-0.968-6.703-2.069c-0.111,0.108-0.331,0.166-0.662,0.166s-0.662-0.331-0.993-0.993
		c0.439-4.415,0.744-8.802,0.91-13.159c0.165-4.36,0.248-8.802,0.248-13.324c0-3.643-0.057-7.284-0.165-10.926
		c-0.111-3.642-0.223-7.283-0.331-10.924c0-0.554-0.028-1.133-0.083-1.738c-0.057-0.608-0.083-1.187-0.083-1.738
		c0-0.331,0.22-0.497,0.662-0.497c0.439,0,0.662,0.166,0.662,0.497c0.108,1.213,0.551,2.317,1.324,3.311
		c0.771,0.993,1.738,1.821,2.896,2.482c1.159,0.662,2.4,1.159,3.725,1.49s2.482,0.497,3.476,0.497h67.368
		c2.648,0,4.743-0.884,6.29-2.648c1.544-1.767,2.371-3.973,2.482-6.621h1.324c-0.111,2.095-0.166,4.138-0.166,6.125
		c0,1.986,0,4.027,0,6.124c0,5.736,0.166,11.587,0.497,17.546c0,0.331-0.194,0.522-0.579,0.579
		c-0.389,0.055-0.637-0.082-0.745-0.413c-0.442-2.317-1.464-4.416-3.062-6.291c-1.602-1.878-3.559-2.814-5.877-2.814H71.835
		c-4.635,0-8.193,1.461-10.676,4.386c-2.483,2.923-3.725,6.539-3.725,10.842c0,4.192,1.185,8.054,3.559,11.587
		c2.372,3.53,5.488,6.232,9.353,8.11l-0.331,1.324C69.684,130.431,69.353,130.402,69.022,130.348z"/>
	<path fill="#FF3C00" d="M61.49,190.35c-2.374-0.331-4.829-0.662-7.366-0.993c-0.331,0-0.496-0.223-0.496-0.662l-0.166-0.166
		c-0.331-0.885-0.496-1.601-0.496-2.151c0-2.54,0.025-5.105,0.082-7.697c0.055-2.594,0.083-5.159,0.083-7.696
		c0-2.209,0.026-4.361,0.083-6.456c0.055-2.098,0.083-4.249,0.083-6.455c0-2.979-0.028-5.987-0.083-9.021
		c-0.057-3.036-0.14-6.041-0.248-9.021h1.324c0,1.655,0.356,3.005,1.075,4.056c0.717,1.047,1.627,1.846,2.731,2.399
		c1.102,0.551,2.344,0.91,3.725,1.076c1.378,0.165,2.785,0.248,4.221,0.248H134.9c2.206,0,3.641-0.524,4.303-1.572
		c0.662-1.05,1.214-2.181,1.656-3.394c0.22-0.662,0.468-1.406,0.744-2.234c0.274-0.827,0.688-1.684,1.242-2.565
		c0.219-0.223,0.468-0.306,0.744-0.248c0.274,0.054,0.414,0.248,0.414,0.579v47.174c0.22,0.44,0.414,0.911,0.58,1.407
		c0.165,0.497,0.356,0.965,0.578,1.407c0.221,0.551,0,0.827-0.662,0.827c-2.87-0.331-5.545-0.745-8.027-1.241
		s-4.994-1.021-7.531-1.572c-0.331-0.111-0.471-0.359-0.414-0.745c0.055-0.388,0.248-0.579,0.58-0.579
		c3.861-0.223,6.398-1.547,7.613-3.973c1.213-2.429,1.82-5.408,1.82-8.938v-13.076h-33.932v19.2c0,0.552,0.166,1.268,0.496,2.152
		c0.332,0.882,0.662,1.764,0.994,2.648c0.662,1.213,1.158,2.426,1.489,3.642c0.22,0.551,0,0.827-0.662,0.827
		c-1.324-0.111-2.76-0.248-4.304-0.413c-1.547-0.166-2.979-0.36-4.304-0.58c-1.324-0.222-2.705-0.388-4.138-0.496
		c-1.436-0.111-2.814-0.277-4.138-0.497c-0.331,0-0.554-0.14-0.662-0.413c-0.111-0.277-0.057-0.525,0.165-0.745
		c0.551-0.554,1.103-0.91,1.655-1.076c0.551-0.165,1.159-0.359,1.821-0.579c0.662-0.223,1.324-0.442,1.985-0.662
		c0.662-0.223,1.268-0.607,1.821-1.159c0.551-0.553,0.965-1.572,1.241-3.062c0.274-1.49,0.497-3.091,0.662-4.801
		c0.165-1.712,0.248-3.393,0.248-5.048s0-2.926,0-3.808v-4.966H64.883c-2.428,1.655-4.277,3.999-5.545,7.035
		c-1.27,3.034-1.903,5.984-1.903,8.855c0,3.861,1.02,7.144,3.063,9.849c2.04,2.703,4.938,4.495,8.689,5.38l-0.331,1.324
		C66.317,191.12,63.862,190.681,61.49,190.35z"/>
	<path fill="#FF3C00" d="M61.49,251.593c-2.374-0.331-4.829-0.662-7.366-0.993c-0.331,0-0.496-0.223-0.496-0.662l-0.166-0.166
		c-0.331-0.885-0.496-1.601-0.496-2.151c0-2.54,0.025-5.105,0.082-7.697c0.055-2.594,0.083-5.159,0.083-7.696
		c0-2.209,0.026-4.361,0.083-6.456c0.055-2.098,0.083-4.249,0.083-6.455c0-2.979-0.028-5.987-0.083-9.021
		c-0.057-3.036-0.14-6.041-0.248-9.021h1.324c0,1.655,0.356,3.005,1.075,4.056c0.717,1.047,1.627,1.846,2.731,2.399
		c1.102,0.551,2.344,0.91,3.725,1.076c1.378,0.165,2.785,0.248,4.221,0.248H134.9c2.206,0,3.641-0.524,4.303-1.572
		c0.662-1.05,1.214-2.181,1.656-3.394c0.22-0.662,0.468-1.406,0.744-2.234c0.274-0.827,0.688-1.684,1.242-2.565
		c0.219-0.223,0.468-0.306,0.744-0.248c0.274,0.054,0.414,0.248,0.414,0.579v47.174c0.22,0.44,0.414,0.911,0.58,1.407
		c0.165,0.497,0.356,0.965,0.578,1.407c0.221,0.551,0,0.827-0.662,0.827c-2.87-0.331-5.545-0.745-8.027-1.241
		s-4.994-1.021-7.531-1.572c-0.331-0.111-0.471-0.359-0.414-0.745c0.055-0.388,0.248-0.579,0.58-0.579
		c3.861-0.223,6.398-1.547,7.613-3.973c1.213-2.429,1.82-5.408,1.82-8.938v-13.076h-33.932v19.2c0,0.552,0.166,1.268,0.496,2.152
		c0.332,0.882,0.662,1.764,0.994,2.648c0.662,1.213,1.158,2.426,1.489,3.642c0.22,0.551,0,0.827-0.662,0.827
		c-1.324-0.111-2.76-0.248-4.304-0.413c-1.547-0.166-2.979-0.36-4.304-0.58c-1.324-0.222-2.705-0.388-4.138-0.496
		c-1.436-0.111-2.814-0.277-4.138-0.497c-0.331,0-0.554-0.14-0.662-0.413c-0.111-0.277-0.057-0.525,0.165-0.745
		c0.551-0.554,1.103-0.91,1.655-1.076c0.551-0.165,1.159-0.359,1.821-0.579c0.662-0.223,1.324-0.442,1.985-0.662
		c0.662-0.223,1.268-0.607,1.821-1.159c0.551-0.553,0.965-1.572,1.241-3.062c0.274-1.49,0.497-3.091,0.662-4.801
		c0.165-1.712,0.248-3.393,0.248-5.048s0-2.926,0-3.808v-4.966H64.883c-2.428,1.655-4.277,3.999-5.545,7.035
		c-1.27,3.034-1.903,5.984-1.903,8.855c0,3.861,1.02,7.144,3.063,9.849c2.04,2.703,4.938,4.495,8.689,5.38l-0.331,1.324
		C66.317,252.363,63.862,251.924,61.49,251.593z"/>
	<path fill="#FF3C00" d="M78.208,347.429c-6.016-2.539-10.981-6.069-14.897-10.593c-3.918-4.526-6.843-9.988-8.772-16.387
		c-1.932-6.401-2.896-13.465-2.896-21.188c0-2.871,0.108-5.821,0.331-8.855c0.22-3.036,0.439-5.987,0.662-8.855
		c0.22-3.202,0.439-6.43,0.662-9.684c0.22-3.256,0.273-6.483,0.165-9.683c0-0.331,0.191-0.525,0.579-0.579
		c0.386-0.058,0.634,0.082,0.745,0.413c0.771,3.642,2.041,5.876,3.808,6.704c1.764,0.827,4.412,1.241,7.944,1.241H134.9
		c2.537,0,4.164-0.662,4.883-1.986c0.717-1.324,1.185-2.648,1.406-3.973c0.109-0.773,0.275-1.489,0.497-2.151
		c0.22-0.662,0.605-1.159,1.159-1.49c0.662-0.441,0.992-0.276,0.992,0.497c0,1.433-0.027,2.813-0.082,4.138
		c-0.057,1.324-0.14,2.703-0.248,4.139c-0.111,1.655-0.223,3.476-0.332,5.462c-0.111,1.986-0.165,3.861-0.165,5.628
		c0,2.206,0.054,4.412,0.165,6.621c0.109,2.206,0.275,4.412,0.497,6.621c0.22,2.095,0.356,4.274,0.414,6.538
		c0.054,2.26,0.083,4.44,0.083,6.538c0,6.398-1.159,12.331-3.477,17.794c-2.317,5.462-5.49,10.18-9.518,14.152
		c-4.029,3.973-8.772,7.089-14.234,9.352c-5.463,2.261-11.285,3.394-17.463,3.394C91.31,351.236,84.221,349.966,78.208,347.429z
		 M113.05,336.587c5.406-2.263,10.015-5.379,13.822-9.352c3.807-3.973,6.729-8.747,8.771-14.318
		c2.041-5.573,3.063-11.669,3.063-18.29c0-2.209-0.111-4.415-0.331-6.621c-0.222-2.208-0.719-4.36-1.489-6.455H71.173
		c-3.201,0-5.738,0.356-7.614,1.076c-1.877,0.716-3.31,1.792-4.303,3.228c-0.993,1.433-1.63,3.228-1.904,5.379
		c-0.276,2.152-0.413,4.718-0.413,7.697c0,6.067,0.799,11.612,2.399,16.635c1.599,5.021,3.973,9.353,7.118,12.994
		c3.145,3.642,7.089,6.455,11.835,8.441c4.743,1.986,10.262,2.979,16.552,2.979C101.573,339.98,107.642,338.848,113.05,336.587z"/>
</g>
</svg>
