<?xml version="1.0" encoding="utf-8"?>
<!-- Generator: Adobe Illustrator 16.0.3, SVG Export Plug-In . SVG Version: 6.00 Build 0)  -->
<!DOCTYPE svg PUBLIC "-//W3C//DTD SVG 1.1//EN" "http://www.w3.org/Graphics/SVG/1.1/DTD/svg11.dtd">
<svg version="1.1" id="Layer_1" xmlns="http://www.w3.org/2000/svg" xmlns:xlink="http://www.w3.org/1999/xlink" x="0px" y="0px"
	 width="184.725px" height="400.066px" viewBox="0 0 184.725 400.066" enable-background="new 0 0 184.725 400.066"
	 xml:space="preserve">
<g enable-background="new    ">
	<path fill="#FF3C00" d="M62.732,84.417c-2.648-0.662-5.131-1.601-7.448-2.814c-0.223,0-0.331-0.166-0.331-0.497
		c-0.885-5.297-1.602-10.539-2.152-15.725c-0.554-5.188-0.827-10.428-0.827-15.725c0-6.621,1.102-12.746,3.311-18.373
		c2.206-5.628,5.297-10.485,9.269-14.566c3.973-4.083,8.716-7.283,14.235-9.6C84.304,4.8,90.374,3.641,96.994,3.641
		c7.834,0,14.786,1.185,20.856,3.559c6.067,2.372,11.172,5.736,15.311,10.097c4.139,4.358,7.283,9.6,9.436,15.725
		c2.151,6.125,3.227,12.994,3.227,20.608c0,3.088-0.165,6.096-0.496,9.021c-0.331,2.922-0.719,5.819-1.158,8.69
		c-0.332,2.206-0.637,4.358-0.91,6.455c-0.277,2.095-0.525,4.192-0.746,6.29c0,0.44-0.222,0.662-0.662,0.662
		c-3.863-0.222-7.696-0.553-11.504-0.993c-3.807-0.442-7.531-0.939-11.172-1.49c-0.332-0.111-0.497-0.331-0.497-0.662
		s0.165-0.553,0.497-0.662c3.641-0.553,6.84-1.684,9.6-3.393c2.758-1.712,5.049-3.807,6.869-6.29
		c1.821-2.483,3.199-5.297,4.139-8.441c0.936-3.145,1.406-6.43,1.406-9.849c0-5.739-0.91-10.953-2.73-15.642
		c-1.82-4.692-4.387-8.719-7.697-12.083c-3.311-3.367-7.311-5.958-12-7.779c-4.691-1.821-9.906-2.731-15.643-2.731
		c-6.069,0-11.891,1.076-17.462,3.228c-5.573,2.152-10.511,5.157-14.814,9.021c-4.304,3.861-7.754,8.441-10.345,13.738
		c-2.595,5.297-3.89,11.09-3.89,17.38c0,3.53,0.385,6.593,1.158,9.187c0.771,2.592,1.903,4.883,3.394,6.87
		c1.489,1.986,3.393,3.724,5.71,5.214s5.075,2.951,8.276,4.386c0.331,0.22,0.439,0.468,0.331,0.745
		c-0.111,0.274-0.331,0.468-0.662,0.579c-0.662,0.109-1.324,0.191-1.986,0.249c-0.662,0.054-1.381,0.083-2.151,0.083
		C68.029,85.41,65.38,85.079,62.732,84.417z"/>
	<path fill="#FF3C00" d="M138.292,176.612c-1.82-1.546-3.889-2.316-6.207-2.316H87.726c-5.077,0-9.877-0.828-14.4-2.483
		c-4.526-1.655-8.471-3.973-11.835-6.952c-3.367-2.979-6.016-6.595-7.945-10.842c-1.932-4.249-2.896-9.021-2.896-14.317
		c0-3.864,0.634-7.643,1.903-11.339c1.268-3.698,3.063-7.146,5.38-10.345c2.317-3.202,5.02-6.042,8.11-8.524
		c3.088-2.483,6.455-4.332,10.097-5.545c0.771-0.331,1.958-0.58,3.559-0.745c1.599-0.166,3.42-0.276,5.463-0.331
		c2.04-0.057,4.274-0.111,6.703-0.166c2.426-0.057,4.854-0.082,7.282-0.082c2.869,0,5.683,0.025,8.442,0.082
		c2.757,0.055,5.297,0.083,7.614,0.083h16.718c3.199,0,5.462-0.855,6.786-2.565c1.324-1.712,2.372-4.056,3.145-7.035
		c0.109-0.331,0.357-0.471,0.746-0.414c0.385,0.055,0.578,0.249,0.578,0.58c-0.33,6.29-0.496,12.523-0.496,18.705
		c0,1.764,0,3.476,0,5.131s0.055,3.365,0.166,5.132c0,0.331-0.166,0.551-0.497,0.662c-0.331,0.108-0.607,0-0.827-0.331
		c-0.885-1.767-2.181-3.559-3.891-5.38c-1.711-1.82-3.559-2.731-5.545-2.731l-50.649-0.331c-3.753,0-7.146,0.634-10.18,1.904
		c-3.036,1.267-5.628,3.062-7.779,5.379c-2.152,2.317-3.836,5.049-5.049,8.193c-1.216,3.146-1.82,6.538-1.82,10.18
		c0,3.75,0.604,7.227,1.82,10.429c1.213,3.199,2.923,5.958,5.131,8.275c2.207,2.317,4.854,4.11,7.945,5.38
		c3.088,1.268,6.564,1.903,10.429,1.903l49.987-0.331c3.199,0,5.545-0.827,7.034-2.482c1.49-1.655,2.51-4.029,3.063-7.118
		c0.109-0.331,0.357-0.471,0.745-0.413c0.386,0.054,0.579,0.248,0.579,0.579c-0.331,3.088-0.496,6.124-0.496,9.104
		c0,0.882,0.025,1.793,0.082,2.731c0.055,0.937,0.083,1.847,0.083,2.731c0,1.875,0.026,3.807,0.083,5.793
		c0.055,1.986,0.025,3.973-0.083,5.959l-1.324,0.165C141.243,180.144,140.114,178.157,138.292,176.612z"/>
	<path fill="#FF3C00" d="M51.394,274.685c-0.497-2.044-0.745-4.056-0.745-6.042c0-3.311,0.604-6.29,1.82-8.938
		c1.213-2.648,2.757-5.022,4.635-7.117c1.875-2.098,4.027-4.056,6.455-5.876c2.427-1.821,4.909-3.559,7.449-5.214
		c2.317-1.547,4.606-3.174,6.869-4.883c2.261-1.713,4.304-3.588,6.124-5.628c1.821-2.044,3.282-4.25,4.387-6.621
		c1.102-2.374,1.655-5.049,1.655-8.028c0-0.884,0-1.767,0-2.648c0-0.773-0.111-1.601-0.331-2.482H66.207
		c-3.201,0-5.933,0.965-8.193,2.896c-2.263,1.93-3.559,4.495-3.89,7.697H52.8c0.22-2.54,0.414-5.049,0.579-7.531
		c0.166-2.483,0.249-4.994,0.249-7.531c0-2.54-0.111-4.994-0.331-7.366c-0.223-2.374-0.497-4.829-0.828-7.366
		c-0.111-0.331,0.026-0.579,0.414-0.744c0.386-0.166,0.688-0.083,0.91,0.248c1.102,2.317,2.757,4.247,4.966,5.793
		c2.206,1.544,4.578,2.317,7.117,2.317h66.044c2.537,0,4.771-0.91,6.704-2.73c1.929-1.821,3.227-4.002,3.889-6.539
		c0.109-0.331,0.357-0.471,0.746-0.413c0.385,0.054,0.578,0.248,0.578,0.579v32.608c0,3.419-0.413,6.786-1.24,10.097
		c-0.828,3.311-2.127,6.233-3.891,8.772c-1.766,2.537-4.084,4.578-6.951,6.125c-2.871,1.544-6.291,2.317-10.264,2.317
		c-5.297,0-10.318-1.464-15.063-4.387c-4.746-2.925-8.829-6.207-12.248-9.849c-1.324,1.213-3.008,2.537-5.048,3.973
		c-2.044,1.433-4.167,2.979-6.373,4.635c-3.311,2.426-6.704,4.991-10.18,7.696c-3.476,2.703-6.621,5.545-9.435,8.524
		c-2.814,2.979-5.022,6.067-6.621,9.27c-1.601,3.199-2.181,6.455-1.738,9.766l-1.324,0.497
		C52.577,278.683,51.89,276.725,51.394,274.685z M123.975,237.441c2.868-0.827,5.462-2.069,7.78-3.725
		c2.316-1.655,4.221-3.698,5.71-6.124c1.489-2.429,2.234-5.242,2.234-8.441c0-1.324-0.083-2.648-0.248-3.973
		s-0.524-2.594-1.076-3.808H97.159c-0.33,1.875-0.553,3.696-0.662,5.463c-0.11,1.764-0.165,3.584-0.165,5.462
		c0,6.179,1.681,10.454,5.049,12.828c3.364,2.372,8.028,3.559,13.987,3.559C118.236,238.683,121.105,238.27,123.975,237.441z"/>
	<path fill="#FF3C00" d="M66.373,332.12c-3.202-2.043-5.933-4.635-8.193-7.779c-2.263-3.146-4.029-6.621-5.297-10.428
		c-1.27-3.808-1.903-7.423-1.903-10.842c0-1.655,0.191-3.394,0.579-5.215c0.386-1.82,1.019-3.476,1.903-4.965
		c0.882-1.49,2.013-2.706,3.394-3.642c1.378-0.939,3.116-1.407,5.214-1.407c1.324,0,2.648,0.137,3.973,0.414
		c1.324,0.273,2.592,0.522,3.807,0.744l3.973,0.828c0.331,0,0.497,0.22,0.497,0.662c0,0.439-0.166,0.662-0.497,0.662h-2.482
		c-2.317,0-4.36,0.496-6.125,1.489c-1.766,0.993-3.284,2.261-4.552,3.808c-1.27,1.544-2.208,3.336-2.813,5.379
		c-0.608,2.041-0.91,4.11-0.91,6.207c0,1.986,0.331,4.027,0.993,6.125c0.662,2.095,1.626,3.998,2.896,5.71
		c1.267,1.71,2.813,3.117,4.635,4.222c1.82,1.102,3.833,1.655,6.041,1.655c2.095,0,4.164-0.497,6.207-1.49
		c2.041-0.993,4.11-2.317,6.207-3.973c2.096-1.655,4.193-3.533,6.29-5.628c2.095-2.098,4.192-4.249,6.289-6.455
		c2.207-2.317,4.441-4.635,6.705-6.952c2.26-2.317,4.577-4.36,6.951-6.124c2.371-1.767,4.771-3.202,7.2-4.304
		c2.427-1.104,4.909-1.655,7.448-1.655c3.75,0,6.979,1.047,9.684,3.145c2.703,2.095,4.908,4.689,6.621,7.78
		c1.709,3.088,2.979,6.455,3.807,10.097c0.828,3.642,1.242,7.006,1.242,10.097c0,4.412-0.554,8.441-1.656,12.083
		c-0.222,0.331-0.441,0.497-0.662,0.497c-5.407-0.442-10.98-1.104-16.717-1.986c-0.332-0.111-0.497-0.331-0.497-0.662
		s0.165-0.554,0.497-0.662c3.861-0.885,7.172-2.565,9.932-5.049c2.756-2.482,4.137-5.768,4.137-9.849
		c0-4.194-1.352-7.696-4.055-10.511c-2.705-2.813-6.152-4.221-10.346-4.221c-2.208,0-4.249,0.468-6.124,1.407
		c-1.878,0.937-3.698,2.151-5.462,3.642c-1.767,1.489-3.505,3.228-5.215,5.214c-1.711,1.986-3.449,4.026-5.213,6.124
		c-1.878,2.317-3.836,4.606-5.877,6.869c-2.043,2.261-4.195,4.275-6.455,6.042c-2.263,1.764-4.662,3.199-7.2,4.304
		c-2.539,1.102-5.296,1.655-8.275,1.655C73.103,335.183,69.573,334.161,66.373,332.12z"/>
	<path fill="#FF3C00" d="M61.49,395.1c-2.374-0.331-4.829-0.662-7.366-0.993c-0.331,0-0.496-0.223-0.496-0.662l-0.166-0.166
		c-0.331-0.885-0.496-1.601-0.496-2.151c0-2.54,0.025-5.105,0.082-7.697c0.055-2.594,0.083-5.159,0.083-7.696
		c0-2.209,0.026-4.361,0.083-6.456c0.055-2.098,0.083-4.249,0.083-6.455c0-2.979-0.028-5.987-0.083-9.021
		c-0.057-3.036-0.14-6.041-0.248-9.021h1.324c0,1.655,0.356,3.005,1.075,4.056c0.717,1.047,1.627,1.846,2.731,2.399
		c1.102,0.551,2.344,0.91,3.725,1.076c1.378,0.165,2.785,0.248,4.221,0.248H134.9c2.206,0,3.641-0.524,4.303-1.572
		c0.662-1.05,1.214-2.181,1.656-3.394c0.22-0.662,0.468-1.406,0.744-2.234c0.274-0.827,0.688-1.684,1.242-2.565
		c0.219-0.223,0.468-0.306,0.744-0.248c0.274,0.054,0.414,0.248,0.414,0.579v47.174c0.22,0.44,0.414,0.911,0.58,1.407
		c0.165,0.497,0.356,0.965,0.578,1.407c0.221,0.551,0,0.827-0.662,0.827c-2.87-0.331-5.545-0.745-8.027-1.241
		s-4.994-1.021-7.531-1.572c-0.331-0.111-0.471-0.359-0.414-0.745c0.055-0.388,0.248-0.579,0.58-0.579
		c3.861-0.223,6.398-1.547,7.613-3.973c1.213-2.429,1.82-5.408,1.82-8.938v-13.076h-33.932v19.2c0,0.552,0.166,1.268,0.496,2.152
		c0.332,0.882,0.662,1.764,0.994,2.648c0.662,1.213,1.158,2.426,1.489,3.642c0.22,0.551,0,0.827-0.662,0.827
		c-1.324-0.111-2.76-0.248-4.304-0.413c-1.547-0.166-2.979-0.36-4.304-0.58c-1.324-0.222-2.705-0.388-4.138-0.496
		c-1.436-0.111-2.814-0.277-4.138-0.497c-0.331,0-0.554-0.14-0.662-0.413c-0.111-0.277-0.057-0.525,0.165-0.745
		c0.551-0.554,1.103-0.91,1.655-1.076c0.551-0.165,1.159-0.359,1.821-0.579c0.662-0.223,1.324-0.442,1.985-0.662
		c0.662-0.223,1.268-0.607,1.821-1.159c0.551-0.553,0.965-1.572,1.241-3.062c0.274-1.49,0.497-3.091,0.662-4.801
		c0.165-1.712,0.248-3.393,0.248-5.048s0-2.926,0-3.808v-4.966H64.883c-2.428,1.655-4.277,3.999-5.545,7.035
		c-1.27,3.034-1.903,5.984-1.903,8.855c0,3.861,1.02,7.144,3.063,9.849c2.04,2.703,4.938,4.495,8.689,5.38l-0.331,1.324
		C66.317,395.87,63.862,395.431,61.49,395.1z"/>
</g>
</svg>
