<?xml version="1.0" encoding="utf-8"?>
<!-- Generator: Adobe Illustrator 16.0.3, SVG Export Plug-In . SVG Version: 6.00 Build 0)  -->
<!DOCTYPE svg PUBLIC "-//W3C//DTD SVG 1.1//EN" "http://www.w3.org/Graphics/SVG/1.1/DTD/svg11.dtd">
<svg version="1.1" id="Layer_1" xmlns="http://www.w3.org/2000/svg" xmlns:xlink="http://www.w3.org/1999/xlink" x="0px" y="0px"
	 width="184.725px" height="371.264px" viewBox="0 0 184.725 371.264" enable-background="new 0 0 184.725 371.264"
	 xml:space="preserve">
<g enable-background="new    ">
	<path fill="#FF3C00" d="M128.279,53.795c-0.331-0.111-0.471-0.36-0.414-0.745c0.055-0.388,0.248-0.579,0.58-0.579
		c3.641,0,6.207-0.993,7.696-2.979s2.234-4.746,2.234-8.276c0-1.546-0.083-3.008-0.248-4.386c-0.165-1.381-0.359-2.842-0.579-4.387
		c-0.223-1.104-0.389-2.317-0.496-3.641c-0.111-1.324-0.166-2.54-0.166-3.642h-32.443v22.346c0,0.771,0.332,1.655,0.994,2.648
		s1.324,1.764,1.986,2.317c0.219,0.22,0.273,0.468,0.165,0.745c-0.111,0.274-0.331,0.414-0.662,0.414
		c-3.091-0.223-6.099-0.525-9.021-0.911c-2.926-0.388-5.822-0.856-8.69-1.407c-0.331-0.111-0.471-0.36-0.413-0.745
		c0.054-0.388,0.248-0.579,0.579-0.579c3.642,0.108,6.149-0.802,7.53-2.731c1.379-1.932,2.069-4.663,2.069-8.193V25.159H65.876
		c-1.324,0-2.705,0.274-4.138,0.828c-1.436,0.551-2.705,1.324-3.807,2.317c-1.104,0.993-1.986,2.152-2.648,3.476
		c-0.662,1.324-0.993,2.757-0.993,4.303h-1.324v-1.159c0-1.215,0.054-2.374,0.165-3.476c0.108-1.104,0.22-2.263,0.331-3.476
		c0.108-1.216,0.191-2.375,0.248-3.476c0.055-1.104,0.083-2.209,0.083-3.311c0-1.104-0.057-2.208-0.165-3.311
		c-0.111-1.104-0.223-2.208-0.331-3.311c-0.111-1.324-0.194-2.623-0.249-3.89c-0.057-1.27-0.082-2.511-0.082-3.724V5.958
		c0-0.331,0.191-0.525,0.579-0.58c0.386-0.057,0.634,0.083,0.745,0.414c0.331,1.986,0.744,3.53,1.241,4.635
		c0.496,1.102,1.158,1.903,1.986,2.4c0.827,0.497,1.875,0.771,3.145,0.828c1.268,0.054,2.896,0.083,4.883,0.083h69.188
		c2.537,0,4.109-0.497,4.718-1.49c0.604-0.993,1.075-2.151,1.407-3.476c0.22-0.554,0.468-1.242,0.744-2.069
		c0.274-0.828,0.688-1.684,1.242-2.565c0.219-0.331,0.468-0.442,0.744-0.331c0.274,0.108,0.414,0.331,0.414,0.662
		c-0.331,6.952-0.496,13.958-0.496,21.021v11.752c0,0.551-0.029,1.13-0.083,1.738c-0.058,0.605-0.083,1.241-0.083,1.903
		c-0.111,2.537-0.111,5.157,0,7.862c0.109,2.703,0.717,5.049,1.82,7.035c0.221,0.22,0.221,0.468,0,0.745
		c-0.222,0.274-0.496,0.357-0.827,0.248L128.279,53.795z"/>
	<path fill="#FF3C00" d="M53.297,140.778c0.108-1.382,0.22-2.843,0.331-4.387c0.108-0.885,0.191-1.795,0.248-2.731
		c0.055-0.938,0.083-1.903,0.083-2.896c0-2.54-0.111-5.077-0.331-7.614c-0.223-2.539-0.442-5.076-0.662-7.614
		c0-0.33,0.165-0.553,0.496-0.661c0.331-0.111,0.605,0,0.828,0.331l3.145,6.455c5.186-1.878,10.288-3.836,15.312-5.876
		c5.02-2.043,10.18-4.001,15.476-5.876V84.251c-1.435-0.553-3.559-1.353-6.372-2.4c-2.814-1.05-5.739-2.069-8.773-3.062
		c-3.036-0.993-5.904-1.878-8.606-2.648c-2.706-0.773-4.663-1.159-5.876-1.159c-1.655,0-2.731,0.716-3.229,2.152
		c-0.496,1.433-0.855,2.814-1.075,4.138h-1.324c0.22-2.098,0.413-4.25,0.579-6.456c0.165-2.209,0.248-4.415,0.248-6.621
		c0-2.208-0.083-4.415-0.248-6.621c-0.166-2.208-0.359-4.415-0.579-6.621c-0.111-0.331,0.054-0.525,0.496-0.58
		c0.439-0.057,0.717,0.083,0.828,0.414c0.771,6.067,3.973,10.317,9.6,12.745h-0.165c8.054,3.199,16.11,6.29,24.166,9.27
		c8.054,2.979,16.165,5.902,24.332,8.772c5.517,1.986,11.007,3.916,16.47,5.793c5.462,1.875,10.95,3.861,16.469,5.959
		c0.332,0.108,0.497,0.331,0.497,0.662s-0.165,0.551-0.497,0.662c-1.546,0.551-3.062,1.13-4.551,1.739
		c-1.49,0.604-3.008,1.185-4.553,1.737c-12.359,4.523-24.773,9.241-37.242,14.152c-12.471,4.909-24.663,10.511-36.58,16.801
		c-2.54,1.324-4.361,3.006-5.463,5.049c-1.104,2.04-1.767,4.386-1.986,7.034h-1.324C53.24,143.618,53.186,142.156,53.297,140.778z
		 M128.113,97.162c-5.85-1.878-11.561-3.67-17.131-5.379c-5.574-1.712-11.339-3.616-17.297-5.711v21.353L128.113,97.162z"/>
	<path fill="#FF3C00" d="M52.883,177.522c0.055-2.044,0.083-4.112,0.083-6.208c0-2.979-0.028-5.904-0.083-8.772
		c-0.057-2.871-0.14-5.793-0.248-8.772c0-0.331,0.191-0.525,0.579-0.579c0.386-0.058,0.634,0.082,0.745,0.413
		c0.993,2.758,2.509,4.772,4.552,6.042c2.04,1.268,4.495,1.903,7.365,1.903h68.692c2.537,0,4.304-0.855,5.296-2.565
		c0.994-1.712,1.656-3.725,1.986-6.042c0.109-0.331,0.357-0.471,0.746-0.413c0.385,0.054,0.578,0.248,0.578,0.579
		c-0.222,2.317-0.387,4.635-0.496,6.952c-0.111,2.317-0.166,4.688-0.166,7.117c0,2.317,0.055,4.635,0.166,6.952
		c0.109,2.317,0.331,4.578,0.662,6.786c0.109,0.331-0.057,0.551-0.496,0.662c-0.442,0.108-0.719,0-0.828-0.331
		c-0.553-2.429-1.215-4.386-1.986-5.876c-0.773-1.489-2.594-2.234-5.462-2.234H66.373c-4.195,0-7.2,0.799-9.021,2.4
		c-1.82,1.598-2.896,4.386-3.228,8.358H52.8C52.8,181.686,52.826,179.563,52.883,177.522z"/>
	<path fill="#FF3C00" d="M135.893,266.655c-2.871-0.111-5.52-0.496-7.945-1.158c-0.331-0.111-0.497-0.331-0.497-0.662
		c0-0.223,0.166-0.389,0.497-0.497c3.861-0.885,6.427-2.622,7.696-5.214c1.268-2.594,1.904-5.656,1.904-9.187v-14.566h-71.01
		c-3.201,0-5.904,0.993-8.11,2.979c-2.209,1.986-3.587,4.523-4.138,7.614c-0.111,0.331-0.359,0.469-0.745,0.414
		c-0.388-0.057-0.579-0.248-0.579-0.579c0.22-2.871,0.413-5.685,0.579-8.442c0.165-2.759,0.248-5.573,0.248-8.441
		c0-2.209-0.057-4.36-0.165-6.455c-0.111-2.098-0.277-4.25-0.497-6.456c-0.111-0.331,0.055-0.524,0.497-0.579
		c0.439-0.057,0.716,0.083,0.827,0.414c0.439,1.875,0.91,3.336,1.407,4.386c0.496,1.048,1.13,1.847,1.903,2.4
		c0.771,0.551,1.792,0.882,3.063,0.993c1.267,0.108,2.84,0.166,4.717,0.166h71.837v-19.863c0-2.648-0.885-4.966-2.648-6.952
		c-1.766-1.986-3.807-3.422-6.124-4.304c-0.331-0.11-0.442-0.331-0.331-0.662c0.108-0.331,0.331-0.496,0.662-0.496l2.152-0.331
		c1.764,0,3.447,0.22,5.048,0.662c1.599,0.439,3.171,0.882,4.718,1.324c0.771,0.22,1.516,0.439,2.234,0.662
		c0.717,0.22,1.461,0.439,2.234,0.662c0.551,0.22,0.662,0.551,0.331,0.993c-1.104,1.655-1.795,3.336-2.069,5.048
		c-0.276,1.71-0.414,3.56-0.414,5.546v52.967c0,1.213,0.275,2.758,0.828,4.635c0.109,0.439,0.22,0.828,0.331,1.159
		c0.108,0.331,0.22,0.716,0.331,1.158l-0.662,0.828C141.464,266.821,138.761,266.764,135.893,266.655z"/>
	<path fill="#FF3C00" d="M52.635,367.458c0.331-5.851,0.496-11.644,0.496-17.38c0-2.098-0.028-4.167-0.083-6.207
		c-0.057-2.044-0.14-4.167-0.248-6.373c0-0.331,0.191-0.525,0.579-0.579c0.386-0.058,0.634,0.082,0.745,0.413
		c0.993,3.42,2.317,5.628,3.973,6.621s4.247,1.49,7.779,1.49h34.429v-50.816h-34.76c-6.951,0-10.759,3.585-11.421,10.76
		c0,0.331-0.223,0.496-0.662,0.496c-0.442,0-0.662-0.165-0.662-0.496c0-1.767,0-3.477,0-5.132c0-1.546-0.057-3.201-0.165-4.966
		c0-1.215-0.028-2.622-0.083-4.221c-0.057-1.601-0.083-3.008-0.083-4.221c0-1.324,0-2.705,0-4.138c0-1.436,0.055-2.871,0.166-4.304
		c0-0.442,0.025-0.968,0.082-1.572c0.055-0.608,0.083-1.133,0.083-1.573c0-0.331,0.191-0.524,0.579-0.579
		c0.386-0.057,0.634,0.083,0.745,0.414c0.331,1.764,0.688,3.199,1.076,4.304c0.386,1.102,0.937,1.929,1.655,2.482
		c0.716,0.551,1.627,0.91,2.731,1.076c1.102,0.165,2.537,0.248,4.303,0.248h70.514c2.426,0,4.246-0.967,5.461-2.896
		c1.214-1.932,1.876-4.001,1.986-6.207h1.324c-0.33,4.635-0.496,9.212-0.496,13.738c0,1.875,0.025,3.75,0.083,5.628
		c0.054,1.875,0.083,3.75,0.083,5.628v3.476c0,0.331-0.223,0.497-0.662,0.497c-0.442,0-0.662-0.166-0.662-0.497
		c0-1.986-0.607-3.781-1.821-5.379c-1.216-1.602-2.925-2.4-5.131-2.4h-28.802v50.65h28.14c2.648,0,4.329-0.69,5.048-2.069
		c0.717-1.381,1.351-3.063,1.904-5.049c0.108-0.441,0.22-0.855,0.33-1.241c0.109-0.388,0.221-0.802,0.332-1.241
		c0.108-0.331,0.356-0.471,0.744-0.414c0.386,0.055,0.58,0.248,0.58,0.579c-0.332,5.297-0.497,10.429-0.497,15.395
		c0,2.206,0.026,4.44,0.083,6.703c0.055,2.261,0.137,4.495,0.248,6.704c0,0.331-0.193,0.522-0.579,0.579
		c-0.388,0.055-0.636-0.083-0.745-0.414c-0.441-2.429-1.076-4.36-1.903-5.793c-0.827-1.436-2.622-2.152-5.38-2.152H66.207
		c-3.752,0-6.566,0.828-8.441,2.483c-1.878,1.655-3.145,4.357-3.807,8.11L52.635,367.458z"/>
</g>
</svg>
