<?xml version="1.0" encoding="utf-8"?>
<!-- Generator: Adobe Illustrator 16.0.3, SVG Export Plug-In . SVG Version: 6.00 Build 0)  -->
<!DOCTYPE svg PUBLIC "-//W3C//DTD SVG 1.1//EN" "http://www.w3.org/Graphics/SVG/1.1/DTD/svg11.dtd">
<svg version="1.1" id="Layer_1" xmlns="http://www.w3.org/2000/svg" xmlns:xlink="http://www.w3.org/1999/xlink" x="0px" y="0px"
	 width="184.725px" height="258.545px" viewBox="0 0 184.725 258.545" enable-background="new 0 0 184.725 258.545"
	 xml:space="preserve">
<g enable-background="new    ">
	<path fill="#FFFFFF" d="M128.28,53.795c-0.331-0.111-0.471-0.36-0.414-0.745c0.055-0.388,0.248-0.579,0.58-0.579
		c3.641,0,6.207-0.993,7.696-2.979s2.234-4.746,2.234-8.276c0-1.546-0.083-3.008-0.248-4.386c-0.165-1.381-0.359-2.842-0.579-4.387
		c-0.223-1.104-0.389-2.317-0.496-3.641c-0.111-1.324-0.166-2.54-0.166-3.642h-32.443v22.346c0,0.771,0.332,1.655,0.994,2.648
		s1.324,1.764,1.986,2.317c0.219,0.22,0.273,0.468,0.165,0.745c-0.111,0.274-0.331,0.414-0.662,0.414
		c-3.091-0.223-6.099-0.525-9.021-0.911c-2.926-0.388-5.822-0.856-8.69-1.407c-0.331-0.111-0.471-0.36-0.413-0.745
		c0.054-0.388,0.248-0.579,0.579-0.579c3.642,0.108,6.149-0.802,7.53-2.731c1.379-1.932,2.069-4.663,2.069-8.193V25.159H65.878
		c-1.324,0-2.705,0.274-4.138,0.828c-1.436,0.551-2.705,1.324-3.807,2.317c-1.104,0.993-1.986,2.152-2.648,3.476
		c-0.662,1.324-0.993,2.757-0.993,4.303h-1.324v-1.159c0-1.215,0.054-2.374,0.165-3.476c0.108-1.104,0.22-2.263,0.331-3.476
		c0.108-1.216,0.191-2.375,0.248-3.476c0.055-1.104,0.083-2.209,0.083-3.311c0-1.104-0.057-2.208-0.165-3.311
		c-0.111-1.104-0.223-2.208-0.331-3.311c-0.111-1.324-0.194-2.623-0.249-3.89c-0.057-1.27-0.082-2.511-0.082-3.724V5.958
		c0-0.331,0.191-0.525,0.579-0.58c0.386-0.057,0.634,0.083,0.745,0.414c0.331,1.986,0.744,3.53,1.241,4.635
		c0.496,1.102,1.158,1.903,1.986,2.4c0.827,0.497,1.875,0.771,3.145,0.828c1.268,0.054,2.896,0.083,4.883,0.083h69.188
		c2.537,0,4.109-0.497,4.718-1.49c0.604-0.993,1.075-2.151,1.407-3.476c0.22-0.554,0.468-1.242,0.744-2.069
		c0.274-0.828,0.688-1.684,1.242-2.565c0.219-0.331,0.468-0.442,0.744-0.331c0.274,0.108,0.414,0.331,0.414,0.662
		c-0.331,6.952-0.496,13.958-0.496,21.021v11.752c0,0.551-0.029,1.13-0.083,1.738c-0.058,0.605-0.083,1.241-0.083,1.903
		c-0.111,2.537-0.111,5.157,0,7.862c0.109,2.703,0.717,5.049,1.82,7.035c0.221,0.22,0.221,0.468,0,0.745
		c-0.222,0.274-0.496,0.357-0.827,0.248L128.28,53.795z"/>
	<path fill="#FFFFFF" d="M52.885,89.299c0.055-2.043,0.083-4.112,0.083-6.207c0-2.979-0.028-5.905-0.083-8.773
		c-0.057-2.871-0.14-5.793-0.248-8.772c0-0.331,0.191-0.525,0.579-0.58c0.386-0.057,0.634,0.083,0.745,0.414
		c0.993,2.757,2.509,4.771,4.552,6.042c2.04,1.267,4.495,1.903,7.365,1.903h68.692c2.537,0,4.304-0.856,5.296-2.565
		c0.994-1.712,1.656-3.724,1.986-6.042c0.109-0.331,0.357-0.471,0.746-0.414c0.385,0.055,0.578,0.249,0.578,0.58
		c-0.222,2.317-0.387,4.635-0.496,6.952c-0.111,2.317-0.166,4.689-0.166,7.118c0,2.317,0.055,4.635,0.166,6.952
		c0.109,2.317,0.331,4.578,0.662,6.787c0.109,0.331-0.057,0.551-0.496,0.662c-0.442,0.109-0.719,0-0.828-0.331
		c-0.553-2.428-1.215-4.386-1.986-5.876c-0.773-1.49-2.594-2.234-5.462-2.234H66.375c-4.195,0-7.2,0.799-9.021,2.4
		c-1.82,1.599-2.896,4.387-3.228,8.359h-1.324C52.802,93.463,52.828,91.339,52.885,89.299z"/>
	<path fill="#FFFFFF" d="M51.395,187.785c-0.497-2.044-0.745-4.056-0.745-6.042c0-3.311,0.604-6.29,1.82-8.938
		c1.213-2.648,2.757-5.022,4.635-7.117c1.875-2.098,4.027-4.056,6.455-5.876c2.427-1.821,4.909-3.559,7.449-5.214
		c2.317-1.547,4.606-3.174,6.869-4.883c2.261-1.713,4.304-3.588,6.124-5.628c1.821-2.044,3.282-4.25,4.387-6.621
		c1.102-2.374,1.655-5.049,1.655-8.028c0-0.884,0-1.767,0-2.648c0-0.773-0.111-1.601-0.331-2.482H66.209
		c-3.201,0-5.933,0.965-8.193,2.896c-2.263,1.93-3.559,4.495-3.89,7.697h-1.324c0.22-2.54,0.414-5.049,0.579-7.531
		c0.166-2.483,0.249-4.994,0.249-7.531c0-2.54-0.111-4.994-0.331-7.366c-0.223-2.374-0.497-4.829-0.828-7.366
		c-0.111-0.331,0.026-0.579,0.414-0.744c0.386-0.166,0.688-0.083,0.91,0.248c1.102,2.317,2.757,4.247,4.966,5.793
		c2.206,1.544,4.578,2.317,7.117,2.317h66.044c2.537,0,4.771-0.91,6.704-2.73c1.929-1.821,3.227-4.002,3.889-6.539
		c0.109-0.331,0.357-0.471,0.746-0.413c0.385,0.054,0.578,0.248,0.578,0.579v32.608c0,3.419-0.413,6.786-1.24,10.097
		c-0.828,3.311-2.127,6.233-3.891,8.772c-1.766,2.537-4.084,4.578-6.951,6.125c-2.871,1.544-6.291,2.317-10.264,2.317
		c-5.297,0-10.318-1.464-15.063-4.387c-4.746-2.925-8.829-6.207-12.248-9.849c-1.324,1.213-3.008,2.537-5.048,3.973
		c-2.044,1.433-4.167,2.979-6.373,4.635c-3.311,2.426-6.704,4.991-10.18,7.696c-3.476,2.703-6.621,5.545-9.435,8.524
		c-2.814,2.979-5.022,6.067-6.621,9.27c-1.601,3.199-2.181,6.455-1.738,9.766l-1.324,0.497
		C52.579,191.783,51.891,189.825,51.395,187.785z M123.976,150.542c2.868-0.827,5.462-2.069,7.78-3.725
		c2.316-1.655,4.221-3.698,5.71-6.124c1.489-2.429,2.234-5.242,2.234-8.441c0-1.324-0.083-2.648-0.248-3.973
		s-0.524-2.594-1.076-3.808H97.161c-0.33,1.875-0.553,3.696-0.662,5.463c-0.11,1.764-0.165,3.584-0.165,5.462
		c0,6.179,1.681,10.454,5.049,12.828c3.364,2.372,8.028,3.559,13.987,3.559C118.237,151.783,121.106,151.37,123.976,150.542z"/>
	<path fill="#FFFFFF" d="M61.492,253.58c-2.374-0.331-4.829-0.662-7.366-0.993c-0.331,0-0.496-0.223-0.496-0.662l-0.166-0.166
		c-0.331-0.885-0.496-1.601-0.496-2.151c0-2.54,0.025-5.105,0.082-7.697c0.055-2.594,0.083-5.159,0.083-7.696
		c0-2.209,0.026-4.361,0.083-6.456c0.055-2.098,0.083-4.249,0.083-6.455c0-2.979-0.028-5.987-0.083-9.021
		c-0.057-3.036-0.14-6.041-0.248-9.021h1.324c0,1.655,0.356,3.005,1.075,4.056c0.717,1.047,1.627,1.846,2.731,2.399
		c1.102,0.551,2.344,0.91,3.725,1.076c1.378,0.165,2.785,0.248,4.221,0.248h68.857c2.206,0,3.641-0.524,4.303-1.572
		c0.662-1.05,1.214-2.181,1.656-3.394c0.22-0.662,0.468-1.406,0.744-2.234c0.274-0.827,0.688-1.684,1.242-2.565
		c0.219-0.223,0.468-0.306,0.744-0.248c0.274,0.054,0.414,0.248,0.414,0.579v47.174c0.22,0.44,0.414,0.911,0.58,1.407
		c0.165,0.497,0.356,0.965,0.578,1.407c0.221,0.551,0,0.827-0.662,0.827c-2.87-0.331-5.545-0.745-8.027-1.241
		s-4.994-1.021-7.531-1.572c-0.331-0.111-0.471-0.359-0.414-0.745c0.055-0.388,0.248-0.579,0.58-0.579
		c3.861-0.223,6.398-1.547,7.613-3.973c1.213-2.429,1.82-5.408,1.82-8.938v-13.076H104.61v19.2c0,0.552,0.166,1.268,0.496,2.152
		c0.332,0.882,0.662,1.764,0.994,2.648c0.662,1.213,1.158,2.426,1.489,3.642c0.22,0.551,0,0.827-0.662,0.827
		c-1.324-0.111-2.76-0.248-4.304-0.413c-1.547-0.166-2.979-0.36-4.304-0.58c-1.324-0.222-2.705-0.388-4.138-0.496
		c-1.436-0.111-2.814-0.277-4.138-0.497c-0.331,0-0.554-0.14-0.662-0.413c-0.111-0.277-0.057-0.525,0.165-0.745
		c0.551-0.554,1.103-0.91,1.655-1.076c0.551-0.165,1.159-0.359,1.821-0.579c0.662-0.223,1.324-0.442,1.985-0.662
		c0.662-0.223,1.268-0.607,1.821-1.159c0.551-0.553,0.965-1.572,1.241-3.062c0.274-1.49,0.497-3.091,0.662-4.801
		c0.165-1.712,0.248-3.393,0.248-5.048s0-2.926,0-3.808v-4.966H64.885c-2.428,1.655-4.277,3.999-5.545,7.035
		c-1.27,3.034-1.903,5.984-1.903,8.855c0,3.861,1.02,7.144,3.063,9.849c2.04,2.703,4.938,4.495,8.689,5.38l-0.331,1.324
		C66.318,254.351,63.863,253.911,61.492,253.58z"/>
</g>
</svg>
