<?xml version="1.0" encoding="utf-8"?>
<!-- Generator: Adobe Illustrator 16.0.3, SVG Export Plug-In . SVG Version: 6.00 Build 0)  -->
<!DOCTYPE svg PUBLIC "-//W3C//DTD SVG 1.1//EN" "http://www.w3.org/Graphics/SVG/1.1/DTD/svg11.dtd">
<svg version="1.1" id="Layer_1" xmlns="http://www.w3.org/2000/svg" xmlns:xlink="http://www.w3.org/1999/xlink" x="0px" y="0px"
	 width="184.725px" height="728.129px" viewBox="0 0 184.725 728.129" enable-background="new 0 0 184.725 728.129"
	 xml:space="preserve">
<g enable-background="new    ">
	<path fill="#FFFFFF" d="M69.023,60.664c-0.331-0.057-0.662-0.083-0.993-0.083c-2.429-0.222-4.774-0.471-7.035-0.745
		c-2.263-0.277-4.497-0.967-6.703-2.069c-0.111,0.109-0.331,0.166-0.662,0.166s-0.662-0.331-0.993-0.993
		c0.439-4.415,0.744-8.801,0.91-13.159c0.165-4.36,0.248-8.801,0.248-13.324c0-3.642-0.057-7.283-0.165-10.925
		c-0.111-3.642-0.223-7.283-0.331-10.924c0-0.554-0.028-1.133-0.083-1.738c-0.057-0.608-0.083-1.187-0.083-1.738
		c0-0.331,0.22-0.497,0.662-0.497c0.439,0,0.662,0.166,0.662,0.497c0.108,1.213,0.551,2.317,1.324,3.311
		c0.771,0.993,1.738,1.821,2.896,2.482c1.159,0.662,2.4,1.159,3.725,1.49s2.482,0.497,3.476,0.497h67.368
		c2.648,0,4.743-0.884,6.29-2.648c1.544-1.767,2.371-3.973,2.482-6.621h1.324c-0.111,2.095-0.166,4.138-0.166,6.125
		c0,1.986,0,4.027,0,6.124c0,5.736,0.166,11.587,0.497,17.545c0,0.331-0.194,0.522-0.579,0.58c-0.389,0.054-0.637-0.083-0.745-0.414
		c-0.442-2.317-1.464-4.415-3.062-6.29c-1.602-1.878-3.559-2.814-5.877-2.814H71.837c-4.635,0-8.193,1.461-10.676,4.386
		c-2.483,2.922-3.725,6.538-3.725,10.842c0,4.192,1.185,8.054,3.559,11.587c2.372,3.53,5.488,6.233,9.353,8.11l-0.331,1.324
		C69.685,60.747,69.354,60.718,69.023,60.664z"/>
	<path fill="#FFFFFF" d="M52.885,93.105c0.055-2.043,0.083-4.112,0.083-6.207c0-2.979-0.028-5.905-0.083-8.773
		c-0.057-2.871-0.14-5.793-0.248-8.772c0-0.331,0.191-0.525,0.579-0.58c0.386-0.057,0.634,0.083,0.745,0.414
		c0.993,2.757,2.509,4.771,4.552,6.042c2.04,1.267,4.495,1.903,7.365,1.903h68.692c2.537,0,4.304-0.856,5.296-2.565
		c0.994-1.712,1.656-3.724,1.986-6.042c0.109-0.331,0.357-0.471,0.746-0.414c0.385,0.055,0.578,0.249,0.578,0.58
		c-0.222,2.317-0.387,4.635-0.496,6.952c-0.111,2.317-0.166,4.689-0.166,7.118c0,2.317,0.055,4.635,0.166,6.952
		c0.109,2.317,0.331,4.578,0.662,6.787c0.109,0.331-0.057,0.551-0.496,0.662c-0.442,0.109-0.719,0-0.828-0.331
		c-0.553-2.428-1.215-4.386-1.986-5.876c-0.773-1.49-2.594-2.234-5.462-2.234H66.375c-4.195,0-7.2,0.799-9.021,2.4
		c-1.82,1.599-2.896,4.387-3.228,8.359h-1.324C52.802,97.269,52.828,95.146,52.885,93.105z"/>
	<path fill="#FFFFFF" d="M94.43,190.681c-0.939-1.654-2.511-2.482-4.717-2.482H58.927c-0.111,0-0.277-0.111-0.497-0.331
		c-3.091-4.084-4.994-8.607-5.711-13.573c-0.719-4.966-1.075-9.877-1.075-14.731c0-7.726,1.019-14.814,3.062-21.27
		c2.041-6.455,5.075-12.029,9.104-16.718c4.026-4.691,9.129-8.333,15.311-10.925c6.179-2.594,13.407-3.89,21.684-3.89
		c7.283,0,13.738,1.296,19.365,3.89c5.629,2.592,10.346,6.15,14.152,10.677c3.808,4.523,6.676,9.819,8.607,15.89
		c1.93,6.067,2.896,12.523,2.896,19.366c0,3.861-0.248,7.723-0.744,11.587c-0.496,3.861-1.021,7.668-1.572,11.421
		c-0.223,1.544-0.414,2.979-0.58,4.304c-0.165,1.324-0.359,2.703-0.579,4.139c0,0.439-0.222,0.662-0.662,0.662
		c-2.979,0-5.821-0.223-8.524-0.662c-2.705-0.442-5.49-0.885-8.359-1.324c-0.553-0.111-1.158-0.194-1.82-0.249
		c-0.662-0.057-1.27-0.14-1.82-0.248c-0.332-0.111-0.497-0.331-0.497-0.662s0.165-0.554,0.497-0.662
		c3.529-0.662,6.563-1.82,9.104-3.476c2.537-1.655,4.635-3.725,6.29-6.207c1.655-2.483,2.868-5.243,3.642-8.276
		c0.771-3.036,1.158-6.207,1.158-9.518c0-5.628-0.938-10.87-2.814-15.725c-1.877-4.857-4.497-9.078-7.861-12.663
		c-3.367-3.587-7.395-6.401-12.084-8.441c-4.691-2.043-9.848-3.063-15.477-3.063c-6.181,0-12.028,1.131-17.545,3.394
		c-5.519,2.261-10.319,5.379-14.4,9.352c-4.083,3.973-7.312,8.634-9.683,13.987c-2.374,5.351-3.559,11.116-3.559,17.297
		c0,2.537,0.356,5.214,1.075,8.028c0.717,2.813,1.904,5.157,3.559,7.034h27.478c1.875,0,3.145-0.579,3.807-1.737
		c0.662-1.159,1.213-2.457,1.655-3.891c0.22-0.553,0.439-1.187,0.662-1.903c0.22-0.719,0.551-1.464,0.992-2.234
		c0.221-0.331,0.469-0.442,0.746-0.331c0.273,0.108,0.413,0.331,0.413,0.662c0,9.709-0.165,19.366-0.497,28.967l-1.324,0.165
		C96.057,194.212,95.366,192.336,94.43,190.681z"/>
	<path fill="#FFFFFF" d="M52.636,296.946c0.331-5.851,0.496-11.644,0.496-17.38c0-2.098-0.028-4.167-0.083-6.207
		c-0.057-2.044-0.14-4.167-0.248-6.373c0-0.331,0.191-0.525,0.579-0.579c0.386-0.058,0.634,0.082,0.745,0.413
		c0.993,3.42,2.317,5.628,3.973,6.621s4.247,1.49,7.779,1.49h34.429v-50.816h-34.76c-6.951,0-10.759,3.585-11.421,10.76
		c0,0.331-0.223,0.496-0.662,0.496c-0.442,0-0.662-0.165-0.662-0.496c0-1.767,0-3.477,0-5.132c0-1.546-0.057-3.201-0.165-4.966
		c0-1.215-0.028-2.622-0.083-4.221c-0.057-1.601-0.083-3.008-0.083-4.221c0-1.324,0-2.705,0-4.138c0-1.436,0.055-2.871,0.166-4.304
		c0-0.442,0.025-0.968,0.082-1.572c0.055-0.608,0.083-1.133,0.083-1.573c0-0.331,0.191-0.524,0.579-0.579
		c0.386-0.057,0.634,0.083,0.745,0.414c0.331,1.764,0.688,3.199,1.076,4.304c0.386,1.102,0.937,1.929,1.655,2.482
		c0.716,0.551,1.627,0.91,2.731,1.076c1.102,0.165,2.537,0.248,4.303,0.248h70.514c2.426,0,4.246-0.967,5.461-2.896
		c1.214-1.932,1.876-4.001,1.986-6.207h1.324c-0.33,4.635-0.496,9.212-0.496,13.738c0,1.875,0.025,3.75,0.083,5.628
		c0.054,1.875,0.083,3.75,0.083,5.628v3.476c0,0.331-0.223,0.497-0.662,0.497c-0.442,0-0.662-0.166-0.662-0.497
		c0-1.986-0.607-3.781-1.821-5.379c-1.216-1.602-2.925-2.4-5.131-2.4h-28.802v50.65h28.14c2.648,0,4.329-0.69,5.048-2.069
		c0.717-1.381,1.351-3.063,1.904-5.049c0.108-0.441,0.22-0.855,0.33-1.241c0.109-0.388,0.221-0.802,0.332-1.241
		c0.108-0.331,0.356-0.471,0.744-0.414c0.386,0.055,0.58,0.248,0.58,0.579c-0.332,5.297-0.497,10.429-0.497,15.395
		c0,2.206,0.026,4.44,0.083,6.703c0.055,2.261,0.137,4.495,0.248,6.704c0,0.331-0.193,0.522-0.579,0.579
		c-0.388,0.055-0.636-0.083-0.745-0.414c-0.441-2.429-1.076-4.36-1.903-5.793c-0.827-1.436-2.622-2.152-5.38-2.152H66.209
		c-3.752,0-6.566,0.828-8.441,2.483c-1.878,1.655-3.145,4.357-3.807,8.11L52.636,296.946z"/>
	<path fill="#FFFFFF" d="M135.894,379.872c-2.871-0.111-5.52-0.496-7.945-1.158c-0.331-0.111-0.497-0.331-0.497-0.662
		c0-0.223,0.166-0.389,0.497-0.497c3.861-0.885,6.427-2.622,7.696-5.214c1.268-2.594,1.904-5.656,1.904-9.187v-14.566H66.54
		c-3.201,0-5.904,0.993-8.11,2.979c-2.209,1.986-3.587,4.523-4.138,7.614c-0.111,0.331-0.359,0.469-0.745,0.414
		c-0.388-0.057-0.579-0.248-0.579-0.579c0.22-2.871,0.413-5.685,0.579-8.442c0.165-2.759,0.248-5.573,0.248-8.441
		c0-2.209-0.057-4.36-0.165-6.455c-0.111-2.098-0.277-4.25-0.497-6.456c-0.111-0.331,0.055-0.524,0.497-0.579
		c0.439-0.057,0.716,0.083,0.827,0.414c0.439,1.875,0.91,3.336,1.407,4.386c0.496,1.048,1.13,1.847,1.903,2.4
		c0.771,0.551,1.792,0.882,3.063,0.993c1.267,0.108,2.84,0.166,4.717,0.166h71.837v-19.863c0-2.648-0.885-4.966-2.648-6.952
		c-1.766-1.986-3.807-3.422-6.124-4.304c-0.331-0.11-0.442-0.331-0.331-0.662c0.108-0.331,0.331-0.496,0.662-0.496l2.152-0.331
		c1.764,0,3.447,0.22,5.048,0.662c1.599,0.439,3.171,0.882,4.718,1.324c0.771,0.22,1.516,0.439,2.234,0.662
		c0.717,0.22,1.461,0.439,2.234,0.662c0.551,0.22,0.662,0.551,0.331,0.993c-1.104,1.655-1.795,3.336-2.069,5.048
		c-0.276,1.71-0.414,3.56-0.414,5.546v52.967c0,1.213,0.275,2.758,0.828,4.635c0.109,0.439,0.22,0.828,0.331,1.159
		c0.108,0.331,0.22,0.716,0.331,1.158l-0.662,0.828C141.466,380.038,138.762,379.98,135.894,379.872z"/>
	<path fill="#FFFFFF" d="M141.936,484.067c0.054-0.057,0.025-0.193-0.084-0.413c-0.441-1.547-0.992-3.174-1.654-4.883
		c-0.662-1.713-1.821-2.566-3.477-2.566l-39.891,0.166h-6.786c-6.401,0-12.72-0.111-18.952-0.331
		c-6.236-0.223-12.497-0.608-18.787-1.159c-0.223,0-0.414-0.14-0.58-0.413c-0.165-0.277-0.14-0.525,0.083-0.745
		c4.523-5.297,9.406-10.594,14.649-15.891c5.239-5.297,10.593-10.511,16.056-15.642c5.462-5.131,10.978-10.18,16.552-15.146
		c5.57-4.966,11.008-9.712,16.305-14.235c1.654-1.546,3.227-2.925,4.717-4.138c1.49-1.216,3.063-2.594,4.717-4.138
		c-2.979-0.331-5.85-0.497-8.607-0.497c-4.194,0-8.387,0.055-12.579,0.166c-4.194,0.108-8.388,0.273-12.58,0.496
		c-4.195,0.22-8.387,0.386-12.58,0.497c-4.195,0.108-8.441,0.165-12.745,0.165c-1.878,0-3.394,0.165-4.552,0.496
		c-1.159,0.331-2.069,0.745-2.731,1.242c-0.662,0.496-1.133,1.102-1.407,1.82c-0.276,0.717-0.471,1.461-0.579,2.234
		c-0.223,0.882-0.471,1.765-0.745,2.648c-0.276,0.882-0.855,1.93-1.737,3.146c-0.223,0.22-0.471,0.303-0.745,0.248
		c-0.276-0.057-0.414-0.248-0.414-0.579c0.108-1.104,0.22-2.181,0.331-3.228c0.108-1.051,0.22-2.126,0.331-3.229
		c0.22-1.546,0.386-3.119,0.497-4.717c0.108-1.602,0.165-3.174,0.165-4.718c0-1.986-0.14-4.029-0.414-6.124
		c-0.276-2.098-0.579-4.195-0.91-6.29c-0.111-0.331,0-0.579,0.331-0.745c0.331-0.165,0.605-0.14,0.828,0.083
		c0.771,0.882,1.378,1.681,1.82,2.4c0.439,0.716,0.828,1.406,1.159,2.068c0.662,1.324,1.572,2.509,2.73,3.559
		c1.159,1.048,3.006,1.573,5.545,1.573h77.465l2.648,1.324c0.22,0.108,0.385,0.273,0.496,0.496c0.109,0.22,0.055,0.386-0.165,0.497
		c-12.472,12.026-24.745,23.67-36.829,34.925c-12.083,11.256-24.58,22.677-37.49,34.264h0.496c5.074,0,10.098-0.028,15.063-0.083
		c4.966-0.057,10.04-0.14,15.229-0.248c4.742-0.111,9.791-0.223,15.145-0.331c5.352-0.111,10.4-0.165,15.146-0.165
		c1.875,0,3.393-0.194,4.551-0.58c1.159-0.388,2.041-0.91,2.648-1.572c0.605-0.662,1.02-1.381,1.242-2.151
		c0.22-0.773,0.385-1.547,0.496-2.317c0.109-0.885,0.248-1.684,0.414-2.4c0.166-0.719,0.522-1.353,1.076-1.903
		c0.219-0.223,0.496-0.248,0.827-0.083c0.331,0.166,0.44,0.357,0.331,0.579c-0.331,2.537-0.496,4.909-0.496,7.118
		c0,2.317,0,4.635,0,6.951c0,1.434,0.025,2.897,0.082,4.387c0.055,1.49,0.026,3.006-0.082,4.552c0,0.551-0.029,1.159-0.083,1.821
		c-0.058,0.662-0.083,1.267-0.083,1.82l-1.324,0.331C141.907,484.259,141.879,484.122,141.936,484.067z"/>
	<path fill="#FFFFFF" d="M52.885,516.841c0.055-2.044,0.083-4.112,0.083-6.208c0-2.979-0.028-5.904-0.083-8.772
		c-0.057-2.871-0.14-5.793-0.248-8.772c0-0.331,0.191-0.525,0.579-0.579c0.386-0.058,0.634,0.082,0.745,0.413
		c0.993,2.758,2.509,4.772,4.552,6.042c2.04,1.268,4.495,1.903,7.365,1.903h68.692c2.537,0,4.304-0.855,5.296-2.565
		c0.994-1.712,1.656-3.725,1.986-6.042c0.109-0.331,0.357-0.471,0.746-0.413c0.385,0.054,0.578,0.248,0.578,0.579
		c-0.222,2.317-0.387,4.635-0.496,6.952c-0.111,2.317-0.166,4.688-0.166,7.117c0,2.317,0.055,4.635,0.166,6.952
		c0.109,2.317,0.331,4.578,0.662,6.786c0.109,0.331-0.057,0.551-0.496,0.662c-0.442,0.108-0.719,0-0.828-0.331
		c-0.553-2.429-1.215-4.386-1.986-5.876c-0.773-1.489-2.594-2.234-5.462-2.234H66.375c-4.195,0-7.2,0.799-9.021,2.4
		c-1.82,1.598-2.896,4.386-3.228,8.358h-1.324C52.802,521.004,52.828,518.881,52.885,516.841z"/>
	<path fill="#FFFFFF" d="M141.936,627.243c0.054-0.057,0.025-0.193-0.084-0.413c-0.441-1.547-0.992-3.174-1.654-4.883
		c-0.662-1.713-1.821-2.566-3.477-2.566l-39.891,0.166h-6.786c-6.401,0-12.72-0.111-18.952-0.331
		c-6.236-0.223-12.497-0.608-18.787-1.159c-0.223,0-0.414-0.14-0.58-0.413c-0.165-0.277-0.14-0.525,0.083-0.745
		c4.523-5.297,9.406-10.594,14.649-15.891c5.239-5.297,10.593-10.511,16.056-15.642c5.462-5.131,10.978-10.18,16.552-15.146
		c5.57-4.966,11.008-9.712,16.305-14.235c1.654-1.546,3.227-2.925,4.717-4.138c1.49-1.216,3.063-2.594,4.717-4.138
		c-2.979-0.331-5.85-0.497-8.607-0.497c-4.194,0-8.387,0.055-12.579,0.166c-4.194,0.108-8.388,0.273-12.58,0.496
		c-4.195,0.22-8.387,0.386-12.58,0.497c-4.195,0.108-8.441,0.165-12.745,0.165c-1.878,0-3.394,0.165-4.552,0.496
		c-1.159,0.331-2.069,0.745-2.731,1.242c-0.662,0.496-1.133,1.102-1.407,1.82c-0.276,0.717-0.471,1.461-0.579,2.234
		c-0.223,0.882-0.471,1.765-0.745,2.648c-0.276,0.882-0.855,1.93-1.737,3.146c-0.223,0.22-0.471,0.303-0.745,0.248
		c-0.276-0.057-0.414-0.248-0.414-0.579c0.108-1.104,0.22-2.181,0.331-3.228c0.108-1.051,0.22-2.126,0.331-3.229
		c0.22-1.546,0.386-3.119,0.497-4.717c0.108-1.602,0.165-3.174,0.165-4.718c0-1.986-0.14-4.029-0.414-6.124
		c-0.276-2.098-0.579-4.195-0.91-6.29c-0.111-0.331,0-0.579,0.331-0.745c0.331-0.165,0.605-0.14,0.828,0.083
		c0.771,0.882,1.378,1.681,1.82,2.4c0.439,0.716,0.828,1.406,1.159,2.068c0.662,1.324,1.572,2.509,2.73,3.559
		c1.159,1.048,3.006,1.573,5.545,1.573h77.465l2.648,1.324c0.22,0.108,0.385,0.273,0.496,0.496c0.109,0.22,0.055,0.386-0.165,0.497
		c-12.472,12.026-24.745,23.67-36.829,34.925c-12.083,11.256-24.58,22.677-37.49,34.264h0.496c5.074,0,10.098-0.028,15.063-0.083
		c4.966-0.057,10.04-0.14,15.229-0.248c4.742-0.111,9.791-0.223,15.145-0.331c5.352-0.111,10.4-0.165,15.146-0.165
		c1.875,0,3.393-0.194,4.551-0.58c1.159-0.388,2.041-0.91,2.648-1.572c0.605-0.662,1.02-1.381,1.242-2.151
		c0.22-0.773,0.385-1.547,0.496-2.317c0.109-0.885,0.248-1.684,0.414-2.4c0.166-0.719,0.522-1.353,1.076-1.903
		c0.219-0.223,0.496-0.248,0.827-0.083c0.331,0.166,0.44,0.357,0.331,0.579c-0.331,2.537-0.496,4.909-0.496,7.118
		c0,2.317,0,4.635,0,6.951c0,1.434,0.025,2.897,0.082,4.387c0.055,1.49,0.026,3.006-0.082,4.552c0,0.551-0.029,1.159-0.083,1.821
		c-0.058,0.662-0.083,1.267-0.083,1.82l-1.324,0.331C141.907,627.435,141.879,627.298,141.936,627.243z"/>
	<path fill="#FFFFFF" d="M94.43,718.86c-0.939-1.654-2.511-2.482-4.717-2.482H58.927c-0.111,0-0.277-0.111-0.497-0.331
		c-3.091-4.084-4.994-8.607-5.711-13.573c-0.719-4.966-1.075-9.877-1.075-14.731c0-7.726,1.019-14.814,3.062-21.27
		c2.041-6.455,5.075-12.029,9.104-16.718c4.026-4.691,9.129-8.333,15.311-10.925c6.179-2.594,13.407-3.89,21.684-3.89
		c7.283,0,13.738,1.296,19.365,3.89c5.629,2.592,10.346,6.15,14.152,10.677c3.808,4.523,6.676,9.819,8.607,15.89
		c1.93,6.067,2.896,12.523,2.896,19.366c0,3.861-0.248,7.723-0.744,11.587c-0.496,3.861-1.021,7.668-1.572,11.421
		c-0.223,1.544-0.414,2.979-0.58,4.304c-0.165,1.324-0.359,2.703-0.579,4.139c0,0.439-0.222,0.662-0.662,0.662
		c-2.979,0-5.821-0.223-8.524-0.662c-2.705-0.442-5.49-0.885-8.359-1.324c-0.553-0.111-1.158-0.194-1.82-0.249
		c-0.662-0.057-1.27-0.14-1.82-0.248c-0.332-0.111-0.497-0.331-0.497-0.662s0.165-0.554,0.497-0.662
		c3.529-0.662,6.563-1.82,9.104-3.476c2.537-1.655,4.635-3.725,6.29-6.207c1.655-2.483,2.868-5.243,3.642-8.276
		c0.771-3.036,1.158-6.207,1.158-9.518c0-5.628-0.938-10.87-2.814-15.725c-1.877-4.857-4.497-9.078-7.861-12.663
		c-3.367-3.587-7.395-6.401-12.084-8.441c-4.691-2.043-9.848-3.063-15.477-3.063c-6.181,0-12.028,1.131-17.545,3.394
		c-5.519,2.261-10.319,5.379-14.4,9.352c-4.083,3.973-7.312,8.634-9.683,13.987c-2.374,5.351-3.559,11.116-3.559,17.297
		c0,2.537,0.356,5.214,1.075,8.028c0.717,2.813,1.904,5.157,3.559,7.034h27.478c1.875,0,3.145-0.579,3.807-1.737
		c0.662-1.159,1.213-2.457,1.655-3.891c0.22-0.553,0.439-1.187,0.662-1.903c0.22-0.719,0.551-1.464,0.992-2.234
		c0.221-0.331,0.469-0.442,0.746-0.331c0.273,0.108,0.413,0.331,0.413,0.662c0,9.709-0.165,19.366-0.497,28.967l-1.324,0.165
		C96.057,722.392,95.366,720.516,94.43,718.86z"/>
</g>
</svg>
