<?xml version="1.0" encoding="utf-8"?>
<!-- Generator: Adobe Illustrator 16.0.3, SVG Export Plug-In . SVG Version: 6.00 Build 0)  -->
<!DOCTYPE svg PUBLIC "-//W3C//DTD SVG 1.1//EN" "http://www.w3.org/Graphics/SVG/1.1/DTD/svg11.dtd">
<svg version="1.1" id="Layer_1" xmlns="http://www.w3.org/2000/svg" xmlns:xlink="http://www.w3.org/1999/xlink" x="0px" y="0px"
	 width="184.725px" height="437.475px" viewBox="0 0 184.725 437.475" enable-background="new 0 0 184.725 437.475"
	 xml:space="preserve">
<g enable-background="new    ">
	<path fill="#FF3C00" d="M53.131,122.818c0-4.415,0-8.884,0-13.407c0-4.415,0.108-8.772,0.331-13.077
		c0-0.662,0.274-0.885,0.828-0.662c0.22,0.108,0.439,0.191,0.662,0.248c0.22,0.054,0.439,0.137,0.662,0.249
		c0.993,0.331,1.986,0.662,2.979,0.993c0.993,0.331,1.929,0.497,2.813,0.497c6.29,0,12.497-0.305,18.621-0.91
		c6.125-0.608,12.274-1.298,18.455-2.069c3.751-0.442,7.09-0.856,10.015-1.242c2.923-0.388,6.315-0.69,10.18-0.91
		c-8.056-4.195-16.112-8.222-24.166-12.083c-8.056-3.864-16.221-7.725-24.497-11.586c-2.76-1.324-5.491-2.623-8.193-3.89
		c-2.705-1.27-5.437-2.565-8.193-3.89c-0.223-0.111-0.331-0.277-0.331-0.497c0-0.222,0.108-0.442,0.331-0.662
		c7.061-5.077,14.261-9.463,21.601-13.159c7.337-3.698,14.703-7.2,22.097-10.511c3.861-1.766,7.366-3.339,10.511-4.717
		c3.146-1.381,6.593-3.008,10.345-4.883c-2.759-0.331-5.436-0.662-8.027-0.993c-2.594-0.331-5.16-0.662-7.697-0.993
		c-6.843-0.885-13.629-1.655-20.358-2.317c-6.732-0.662-13.573-0.993-20.524-0.993c-1.986,0-3.34,0.497-4.056,1.49
		c-0.719,0.993-1.353,2.206-1.903,3.642c-0.223,0.439-0.471,1.047-0.745,1.821c-0.276,0.771-0.471,1.267-0.579,1.49
		c-0.223,0.331-0.497,0.439-0.828,0.331c-0.331-0.111-0.496-0.331-0.496-0.662c0-1.547,0.025-3.063,0.082-4.552
		c0.055-1.49,0.138-3.008,0.249-4.552c0.108-1.546,0.191-3.091,0.248-4.635c0.055-1.546,0.083-3.09,0.083-4.635
		c0-1.104,0-2.208,0-3.31c0-0.993-0.111-2.098-0.331-3.311c-0.111-0.331,0.054-0.554,0.496-0.662c0.439-0.111,0.717,0,0.828,0.331
		c0.22,0.882,0.331,1.544,0.331,1.986c0.22,1.213,0.468,2.26,0.744,3.145c0.274,0.882,1.02,1.709,2.235,2.482
		c0.331,0.22,1.764,0.522,4.304,0.911c2.537,0.385,5.765,0.828,9.683,1.324c3.916,0.497,8.359,1.047,13.324,1.655
		c4.966,0.605,10.04,1.185,15.228,1.738c5.186,0.551,10.289,1.102,15.312,1.655c5.021,0.551,9.626,1.047,13.821,1.49
		c3.642,0.44,6.869,0.771,9.684,0.993c2.813,0.22,4.826,0.439,6.041,0.662c0.331,0,0.522,0.137,0.58,0.414
		c0.054,0.274-0.029,0.522-0.249,0.745c-1.436,1.324-4.278,3.199-8.524,5.628c-4.25,2.426-9.187,5.048-14.814,7.862
		s-11.586,5.736-17.877,8.772c-6.289,3.034-12.14,5.819-17.545,8.359c-3.863,1.875-7.174,3.419-9.931,4.634
		c-2.76,1.213-5.077,2.317-6.952,3.311c3.53,1.764,7.365,3.559,11.504,5.379c4.138,1.821,8.247,3.613,12.331,5.38
		c8.938,3.861,17.985,7.945,27.146,12.249c9.158,4.304,17.323,8.881,24.498,13.738c0.219,0.22,0.303,0.44,0.248,0.662
		c-0.057,0.22-0.248,0.331-0.58,0.331c-1.324,0.22-3.173,0.414-5.545,0.58c-2.373,0.165-5.105,0.414-8.193,0.745
		c-4.084,0.331-8.553,0.744-13.407,1.241c-4.856,0.496-9.823,1.019-14.897,1.572c-5.076,0.551-10.014,1.102-14.813,1.655
		c-4.8,0.551-9.187,1.13-13.159,1.738c-3.973,0.604-7.312,1.185-10.014,1.737c-2.706,0.552-4.387,1.103-5.049,1.655
		c-1.767,1.214-2.896,2.372-3.394,3.477c-0.496,1.102-0.855,2.426-1.075,3.973c-0.223,0.771-0.359,1.572-0.414,2.399
		c-0.057,0.828-0.306,1.682-0.745,2.566L53.131,122.818z"/>
	<path fill="#FF3C00" d="M53.297,216.753c0.108-1.382,0.22-2.843,0.331-4.387c0.108-0.885,0.191-1.795,0.248-2.731
		c0.055-0.938,0.083-1.903,0.083-2.896c0-2.54-0.111-5.077-0.331-7.614c-0.223-2.539-0.442-5.076-0.662-7.614
		c0-0.33,0.165-0.553,0.496-0.661c0.331-0.111,0.605,0,0.828,0.331l3.145,6.455c5.186-1.878,10.288-3.836,15.312-5.876
		c5.02-2.043,10.18-4.001,15.476-5.876v-25.656c-1.435-0.554-3.559-1.353-6.372-2.4c-2.814-1.05-5.739-2.069-8.773-3.063
		c-3.036-0.993-5.904-1.877-8.606-2.648c-2.706-0.772-4.663-1.158-5.876-1.158c-1.655,0-2.731,0.717-3.229,2.151
		c-0.496,1.434-0.855,2.814-1.075,4.139h-1.324c0.22-2.098,0.413-4.249,0.579-6.456c0.165-2.208,0.248-4.414,0.248-6.62
		c0-2.209-0.083-4.415-0.248-6.621c-0.166-2.209-0.359-4.415-0.579-6.621c-0.111-0.331,0.054-0.525,0.496-0.579
		c0.439-0.058,0.717,0.082,0.828,0.413c0.771,6.067,3.973,10.317,9.6,12.746h-0.165c8.054,3.199,16.11,6.289,24.166,9.269
		c8.054,2.979,16.165,5.902,24.332,8.773c5.517,1.986,11.007,3.915,16.47,5.793c5.462,1.875,10.95,3.861,16.469,5.959
		c0.332,0.108,0.497,0.331,0.497,0.662s-0.165,0.551-0.497,0.662c-1.546,0.551-3.062,1.13-4.551,1.738
		c-1.49,0.604-3.008,1.185-4.553,1.737c-12.359,4.523-24.773,9.241-37.242,14.152c-12.471,4.909-24.663,10.511-36.58,16.801
		c-2.54,1.324-4.361,3.006-5.463,5.049c-1.104,2.04-1.767,4.386-1.986,7.034h-1.324C53.24,219.593,53.186,218.131,53.297,216.753z
		 M128.113,173.137c-5.85-1.877-11.561-3.67-17.131-5.379c-5.574-1.712-11.339-3.616-17.297-5.711v21.353L128.113,173.137z"/>
	<path fill="#FF3C00" d="M94.429,300.424c-0.939-1.654-2.511-2.482-4.717-2.482H58.925c-0.111,0-0.277-0.111-0.497-0.331
		c-3.091-4.084-4.994-8.607-5.711-13.573c-0.719-4.966-1.075-9.877-1.075-14.731c0-7.726,1.019-14.814,3.062-21.27
		c2.041-6.455,5.075-12.029,9.104-16.718c4.026-4.691,9.129-8.333,15.311-10.925c6.179-2.594,13.407-3.89,21.684-3.89
		c7.283,0,13.738,1.296,19.365,3.89c5.629,2.592,10.346,6.15,14.152,10.677c3.808,4.523,6.676,9.819,8.607,15.89
		c1.93,6.067,2.896,12.523,2.896,19.366c0,3.861-0.248,7.723-0.744,11.587c-0.496,3.861-1.021,7.668-1.572,11.421
		c-0.223,1.544-0.414,2.979-0.58,4.304c-0.165,1.324-0.359,2.703-0.579,4.139c0,0.439-0.222,0.662-0.662,0.662
		c-2.979,0-5.821-0.223-8.524-0.662c-2.705-0.442-5.49-0.885-8.359-1.324c-0.553-0.111-1.158-0.194-1.82-0.249
		c-0.662-0.057-1.27-0.14-1.82-0.248c-0.332-0.111-0.497-0.331-0.497-0.662s0.165-0.554,0.497-0.662
		c3.529-0.662,6.563-1.82,9.104-3.476c2.537-1.655,4.635-3.725,6.29-6.207c1.655-2.483,2.868-5.243,3.642-8.276
		c0.771-3.036,1.158-6.207,1.158-9.518c0-5.628-0.938-10.87-2.814-15.725c-1.877-4.857-4.497-9.078-7.861-12.663
		c-3.367-3.587-7.395-6.401-12.084-8.441c-4.691-2.043-9.848-3.063-15.477-3.063c-6.181,0-12.028,1.131-17.545,3.394
		c-5.519,2.261-10.319,5.379-14.4,9.352c-4.083,3.973-7.312,8.634-9.683,13.987c-2.374,5.351-3.559,11.116-3.559,17.297
		c0,2.537,0.356,5.214,1.075,8.028c0.717,2.813,1.904,5.157,3.559,7.034h27.478c1.875,0,3.145-0.579,3.807-1.737
		c0.662-1.159,1.213-2.457,1.655-3.891c0.22-0.553,0.439-1.187,0.662-1.903c0.22-0.719,0.551-1.464,0.992-2.234
		c0.221-0.331,0.469-0.442,0.746-0.331c0.273,0.108,0.413,0.331,0.413,0.662c0,9.709-0.165,19.366-0.497,28.967l-1.324,0.165
		C96.056,303.955,95.365,302.079,94.429,300.424z"/>
	<path fill="#FF3C00" d="M52.883,338.411c0.055-2.044,0.083-4.112,0.083-6.208c0-2.979-0.028-5.904-0.083-8.772
		c-0.057-2.871-0.14-5.793-0.248-8.772c0-0.331,0.191-0.525,0.579-0.579c0.386-0.058,0.634,0.082,0.745,0.413
		c0.993,2.758,2.509,4.772,4.552,6.042c2.04,1.268,4.495,1.903,7.365,1.903h68.692c2.537,0,4.304-0.855,5.296-2.565
		c0.994-1.712,1.656-3.725,1.986-6.042c0.109-0.331,0.357-0.471,0.746-0.413c0.385,0.054,0.578,0.248,0.578,0.579
		c-0.222,2.317-0.387,4.635-0.496,6.952c-0.111,2.317-0.166,4.688-0.166,7.117c0,2.317,0.055,4.635,0.166,6.952
		c0.109,2.317,0.331,4.578,0.662,6.786c0.109,0.331-0.057,0.551-0.496,0.662c-0.442,0.108-0.719,0-0.828-0.331
		c-0.553-2.429-1.215-4.386-1.986-5.876c-0.773-1.489-2.594-2.234-5.462-2.234H66.373c-4.195,0-7.2,0.799-9.021,2.4
		c-1.82,1.598-2.896,4.386-3.228,8.358H52.8C52.8,342.574,52.826,340.451,52.883,338.411z"/>
	<path fill="#FF3C00" d="M62.732,432.841c-2.648-0.662-5.131-1.601-7.448-2.813c-0.223,0-0.331-0.166-0.331-0.497
		c-0.885-5.297-1.602-10.539-2.152-15.725c-0.554-5.188-0.827-10.428-0.827-15.725c0-6.621,1.102-12.745,3.311-18.373
		c2.206-5.628,5.297-10.485,9.269-14.566c3.973-4.084,8.716-7.283,14.235-9.601c5.517-2.317,11.587-3.476,18.207-3.476
		c7.834,0,14.786,1.185,20.856,3.559c6.067,2.372,11.172,5.736,15.311,10.097c4.139,4.358,7.283,9.601,9.436,15.725
		c2.151,6.125,3.227,12.994,3.227,20.608c0,3.088-0.165,6.096-0.496,9.021c-0.331,2.923-0.719,5.819-1.158,8.69
		c-0.332,2.206-0.637,4.357-0.91,6.455c-0.277,2.095-0.525,4.192-0.746,6.29c0,0.439-0.222,0.662-0.662,0.662
		c-3.863-0.223-7.696-0.554-11.504-0.993c-3.807-0.442-7.531-0.938-11.172-1.489c-0.332-0.111-0.497-0.331-0.497-0.662
		s0.165-0.554,0.497-0.662c3.641-0.554,6.84-1.684,9.6-3.394c2.758-1.712,5.049-3.807,6.869-6.29
		c1.821-2.482,3.199-5.297,4.139-8.441c0.936-3.146,1.406-6.43,1.406-9.849c0-5.739-0.91-10.953-2.73-15.643
		c-1.82-4.691-4.387-8.718-7.697-12.083c-3.311-3.367-7.311-5.959-12-7.779c-4.691-1.821-9.906-2.731-15.643-2.731
		c-6.069,0-11.891,1.076-17.462,3.228c-5.573,2.152-10.511,5.157-14.814,9.021c-4.304,3.861-7.754,8.441-10.345,13.738
		c-2.595,5.297-3.89,11.09-3.89,17.38c0,3.53,0.385,6.593,1.158,9.187c0.771,2.592,1.903,4.883,3.394,6.869
		c1.489,1.986,3.393,3.725,5.71,5.214c2.317,1.49,5.075,2.951,8.276,4.387c0.331,0.22,0.439,0.468,0.331,0.745
		c-0.111,0.274-0.331,0.468-0.662,0.579c-0.662,0.108-1.324,0.191-1.986,0.248c-0.662,0.055-1.381,0.083-2.151,0.083
		C68.029,433.834,65.38,433.503,62.732,432.841z"/>
</g>
</svg>
