<?xml version="1.0" encoding="utf-8"?>
<!-- Generator: Adobe Illustrator 16.0.3, SVG Export Plug-In . SVG Version: 6.00 Build 0)  -->
<!DOCTYPE svg PUBLIC "-//W3C//DTD SVG 1.1//EN" "http://www.w3.org/Graphics/SVG/1.1/DTD/svg11.dtd">
<svg version="1.1" id="Layer_1" xmlns="http://www.w3.org/2000/svg" xmlns:xlink="http://www.w3.org/1999/xlink" x="0px" y="0px"
	 width="184.725px" height="606.301px" viewBox="0 0 184.725 606.301" enable-background="new 0 0 184.725 606.301"
	 xml:space="preserve">
<g enable-background="new    ">
	<path fill="#FFFFFF" d="M111.56,60.665c-3.422-1.27-6.483-3.063-9.187-5.38c-2.705-2.317-4.883-5.077-6.539-8.276
		c-1.654-3.202-2.482-6.678-2.482-10.428c0-2.208,0.274-4.58,0.828-7.117c0.108-0.331,0.356-0.471,0.744-0.414
		c0.386,0.054,0.58,0.249,0.58,0.58v2.813c0,6.29,1.957,11.256,5.876,14.897c3.915,3.642,8.964,5.462,15.146,5.462
		c2.757,0,5.488-0.442,8.193-1.324c2.703-0.885,5.156-2.152,7.365-3.807c2.207-1.655,3.999-3.67,5.38-6.042
		c1.378-2.375,2.069-5.049,2.069-8.028c0-3.09-0.662-5.958-1.986-8.607H64.552c-3.641,0-6.235,0.828-7.779,2.483
		c-1.547,1.655-2.429,4.358-2.648,8.11c0,0.331-0.223,0.497-0.662,0.497c-0.442,0-0.662-0.166-0.662-0.497v-18.87
		c0-1.877,0-3.752,0-5.628c0-1.766,0.055-3.587,0.166-5.462c0-0.331,0.191-0.525,0.579-0.58c0.386-0.057,0.634,0.083,0.745,0.414
		c0.331,1.986,0.771,3.53,1.324,4.635c0.551,1.102,1.267,1.903,2.151,2.4c0.882,0.497,2.013,0.771,3.394,0.828
		c1.378,0.054,3.005,0.083,4.883,0.083h67.864c2.317,0,4.221-0.993,5.71-2.979c1.49-1.986,2.51-4.084,3.063-6.29
		c0.109-0.331,0.357-0.471,0.745-0.414c0.386,0.055,0.579,0.249,0.579,0.58c-0.331,3.419-0.525,6.729-0.579,9.931
		c-0.058,3.199-0.083,6.399-0.083,9.601v14.566c0,3.75-0.331,7.118-0.993,10.097s-1.795,5.517-3.394,7.614
		c-1.601,2.095-3.781,3.696-6.537,4.8c-2.76,1.102-6.236,1.655-10.429,1.655C118.456,62.568,114.979,61.932,111.56,60.665z"/>
	<path fill="#FFFFFF" d="M52.635,163.206c0.331-5.85,0.496-11.643,0.496-17.379c0-2.098-0.028-4.168-0.083-6.207
		c-0.057-2.045-0.14-4.168-0.248-6.373c0-0.332,0.191-0.525,0.579-0.58c0.386-0.057,0.634,0.082,0.745,0.414
		c0.993,3.42,2.317,5.627,3.973,6.621c1.655,0.992,4.247,1.49,7.779,1.49h34.429V90.375h-34.76c-6.951,0-10.759,3.584-11.421,10.76
		c0,0.33-0.223,0.496-0.662,0.496c-0.442,0-0.662-0.166-0.662-0.496c0-1.768,0-3.477,0-5.132c0-1.547-0.057-3.202-0.165-4.966
		c0-1.216-0.028-2.623-0.083-4.221c-0.057-1.601-0.083-3.008-0.083-4.221c0-1.324,0-2.705,0-4.138c0-1.435,0.055-2.871,0.166-4.303
		c0-0.442,0.025-0.967,0.082-1.573c0.055-0.608,0.083-1.133,0.083-1.572c0-0.331,0.191-0.525,0.579-0.58
		c0.386-0.057,0.634,0.083,0.745,0.414c0.331,1.764,0.688,3.199,1.076,4.304c0.386,1.102,0.937,1.929,1.655,2.482
		c0.716,0.551,1.627,0.911,2.731,1.076c1.102,0.166,2.537,0.248,4.303,0.248h70.514c2.426,0,4.246-0.967,5.461-2.896
		c1.214-1.932,1.876-4.001,1.986-6.207h1.324c-0.33,4.635-0.496,9.212-0.496,13.738c0,1.875,0.025,3.75,0.083,5.628
		c0.054,1.875,0.083,3.75,0.083,5.628v3.476c0,0.331-0.223,0.496-0.662,0.496c-0.442,0-0.662-0.166-0.662-0.496
		c0-1.986-0.607-3.781-1.821-5.38c-1.216-1.601-2.925-2.4-5.131-2.4h-28.802v50.651h28.14c2.648,0,4.329-0.691,5.048-2.07
		c0.717-1.381,1.351-3.063,1.904-5.049c0.108-0.441,0.22-0.855,0.33-1.24c0.109-0.389,0.221-0.803,0.332-1.242
		c0.108-0.33,0.356-0.471,0.744-0.414c0.386,0.055,0.58,0.248,0.58,0.58c-0.332,5.297-0.497,10.428-0.497,15.395
		c0,2.205,0.026,4.439,0.083,6.703c0.055,2.26,0.137,4.494,0.248,6.703c0,0.332-0.193,0.523-0.579,0.58
		c-0.388,0.055-0.636-0.084-0.745-0.414c-0.441-2.43-1.076-4.361-1.903-5.793c-0.827-1.436-2.622-2.152-5.38-2.152H66.207
		c-3.752,0-6.566,0.828-8.441,2.482c-1.878,1.656-3.145,4.357-3.807,8.111L52.635,163.206z"/>
	<path fill="#FFFFFF" d="M137.465,251.346c-2.263-2.482-5.022-5.131-8.276-7.945c-3.256-2.813-6.76-5.602-10.511-8.358
		c-3.753-2.76-7.448-5.214-11.09-7.366c-3.642-2.151-7.009-3.918-10.097-5.297c-3.091-1.381-5.574-2.068-7.448-2.068H62.896
		c-1.323,0-2.456,0.385-3.393,1.158c-0.939,0.771-1.767,1.71-2.483,2.814c-0.719,1.102-1.298,2.317-1.737,3.642
		c-0.442,1.324-0.773,2.537-0.993,3.642c-0.111,0.33-0.359,0.468-0.745,0.413c-0.388-0.057-0.579-0.248-0.579-0.579
		c0.108-2.209,0.165-4.469,0.165-6.786c0-2.209,0-4.415,0-6.621c0-2.871,0-5.685,0-8.441c0-2.648-0.111-5.354-0.331-8.111
		c0-0.331,0.166-0.524,0.497-0.579c0.331-0.057,0.604,0.083,0.827,0.414c0.771,1.875,1.93,3.559,3.477,5.048
		c1.544,1.49,3.364,2.235,5.462,2.235h25.159c1.544,0,3.861-0.72,6.951-2.152c3.089-1.436,6.564-3.311,10.429-5.628
		c3.861-2.317,7.834-4.883,11.917-7.696c4.082-2.814,7.863-5.603,11.339-8.359c3.476-2.76,6.399-5.354,8.772-7.779
		c2.372-2.429,3.779-4.36,4.221-5.794c0.109-0.331,0.357-0.471,0.746-0.413c0.385,0.054,0.578,0.248,0.578,0.579
		c-0.222,2.648-0.413,5.157-0.578,7.531c-0.166,2.372-0.249,4.826-0.249,7.366c0,3.088,0.165,6.289,0.497,9.6
		c0,0.331-0.141,0.551-0.414,0.662c-0.277,0.109-0.525,0.055-0.745-0.165c-0.11-0.111-0.11-0.14,0-0.083
		c0.108,0.055,0.108,0.026,0-0.083c-0.554-0.662-1.104-1.298-1.655-1.903c-0.553-0.607-1.158-0.91-1.82-0.91
		c-0.773,0-2.788,0.882-6.042,2.648c-3.256,1.764-6.952,3.861-11.09,6.29c-4.138,2.426-8.305,4.908-12.497,7.448
		c-4.195,2.537-7.561,4.578-10.098,6.124c1.214,0.662,2.98,1.71,5.297,3.146c2.318,1.433,4.801,2.922,7.449,4.469
		c2.317,1.324,4.854,2.814,7.613,4.47c2.758,1.655,5.435,3.199,8.029,4.634c2.591,1.434,4.883,2.62,6.869,3.56
		c1.986,0.936,3.311,1.406,3.973,1.406c0.992,0,1.82-0.305,2.482-0.91c0.662-0.607,1.213-1.353,1.654-2.234
		c0.221-0.331,0.523-0.442,0.911-0.331c0.386,0.108,0.522,0.331,0.413,0.662c-0.33,1.433-0.553,2.951-0.662,4.552
		c-0.11,1.599-0.165,3.171-0.165,4.718c0,2.095,0.055,4.138,0.165,6.124c0.109,1.986,0.275,3.916,0.497,5.793
		c0,0.221,0.026,0.497,0.083,0.828c0.055,0.331,0.082,0.605,0.082,0.827l-1.324,0.166
		C141.188,255.953,139.725,253.83,137.465,251.346z"/>
	<path fill="#FFFFFF" d="M66.373,309.278c-3.202-2.043-5.933-4.635-8.193-7.779c-2.263-3.146-4.029-6.621-5.297-10.428
		c-1.27-3.808-1.903-7.423-1.903-10.842c0-1.655,0.191-3.394,0.579-5.215c0.386-1.82,1.019-3.476,1.903-4.965
		c0.882-1.49,2.013-2.706,3.394-3.642c1.378-0.939,3.116-1.407,5.214-1.407c1.324,0,2.648,0.137,3.973,0.414
		c1.324,0.273,2.592,0.522,3.807,0.744l3.973,0.828c0.331,0,0.497,0.22,0.497,0.662c0,0.439-0.166,0.662-0.497,0.662h-2.482
		c-2.317,0-4.36,0.496-6.125,1.489c-1.766,0.993-3.284,2.261-4.552,3.808c-1.27,1.544-2.208,3.336-2.813,5.379
		c-0.608,2.041-0.91,4.11-0.91,6.207c0,1.986,0.331,4.027,0.993,6.125c0.662,2.095,1.626,3.998,2.896,5.71
		c1.267,1.71,2.813,3.117,4.635,4.222c1.82,1.102,3.833,1.655,6.041,1.655c2.095,0,4.164-0.497,6.207-1.49
		c2.041-0.993,4.11-2.317,6.207-3.973c2.096-1.655,4.193-3.533,6.29-5.628c2.095-2.098,4.192-4.249,6.289-6.455
		c2.207-2.317,4.441-4.635,6.705-6.952c2.26-2.317,4.577-4.36,6.951-6.124c2.371-1.767,4.771-3.202,7.2-4.304
		c2.427-1.104,4.909-1.655,7.448-1.655c3.75,0,6.979,1.047,9.684,3.145c2.703,2.095,4.908,4.689,6.621,7.78
		c1.709,3.088,2.979,6.455,3.807,10.097c0.828,3.642,1.242,7.006,1.242,10.097c0,4.412-0.554,8.441-1.656,12.083
		c-0.222,0.331-0.441,0.497-0.662,0.497c-5.407-0.442-10.98-1.104-16.717-1.986c-0.332-0.111-0.497-0.331-0.497-0.662
		s0.165-0.554,0.497-0.662c3.861-0.885,7.172-2.565,9.932-5.049c2.756-2.482,4.137-5.768,4.137-9.849
		c0-4.194-1.352-7.696-4.055-10.511c-2.705-2.813-6.152-4.221-10.346-4.221c-2.208,0-4.249,0.468-6.124,1.407
		c-1.878,0.937-3.698,2.151-5.462,3.642c-1.767,1.489-3.505,3.228-5.215,5.214c-1.711,1.986-3.449,4.026-5.213,6.124
		c-1.878,2.317-3.836,4.606-5.877,6.869c-2.043,2.261-4.195,4.275-6.455,6.042c-2.263,1.764-4.662,3.199-7.2,4.304
		c-2.539,1.102-5.296,1.655-8.275,1.655C73.102,312.34,69.572,311.319,66.373,309.278z"/>
	<path fill="#FFFFFF" d="M52.883,344.698c0.055-2.044,0.083-4.112,0.083-6.208c0-2.979-0.028-5.904-0.083-8.772
		c-0.057-2.871-0.14-5.793-0.248-8.772c0-0.331,0.191-0.525,0.579-0.579c0.386-0.058,0.634,0.082,0.745,0.413
		c0.993,2.758,2.509,4.772,4.552,6.042c2.04,1.268,4.495,1.903,7.365,1.903h68.692c2.537,0,4.304-0.855,5.296-2.565
		c0.994-1.712,1.656-3.725,1.986-6.042c0.109-0.331,0.357-0.471,0.746-0.413c0.385,0.054,0.578,0.248,0.578,0.579
		c-0.222,2.317-0.387,4.635-0.496,6.952c-0.111,2.317-0.166,4.688-0.166,7.117c0,2.317,0.055,4.635,0.166,6.952
		c0.109,2.317,0.331,4.578,0.662,6.786c0.109,0.331-0.057,0.551-0.496,0.662c-0.442,0.108-0.719,0-0.828-0.331
		c-0.553-2.429-1.215-4.386-1.986-5.876c-0.773-1.489-2.594-2.234-5.462-2.234H66.373c-4.195,0-7.2,0.799-9.021,2.4
		c-1.82,1.598-2.896,4.386-3.228,8.358H52.8C52.8,348.861,52.826,346.738,52.883,344.698z"/>
	<path fill="#FFFFFF" d="M62.731,439.127c-2.648-0.662-5.131-1.601-7.448-2.813c-0.223,0-0.331-0.166-0.331-0.497
		c-0.885-5.297-1.602-10.539-2.152-15.725c-0.554-5.188-0.827-10.428-0.827-15.725c0-6.621,1.102-12.745,3.311-18.373
		c2.206-5.628,5.297-10.485,9.269-14.566c3.973-4.084,8.716-7.283,14.235-9.601c5.517-2.317,11.587-3.476,18.207-3.476
		c7.834,0,14.786,1.185,20.856,3.559c6.067,2.372,11.172,5.736,15.311,10.097c4.139,4.358,7.283,9.601,9.436,15.725
		c2.151,6.125,3.227,12.994,3.227,20.608c0,3.088-0.165,6.096-0.496,9.021c-0.331,2.923-0.719,5.819-1.158,8.69
		c-0.332,2.206-0.637,4.357-0.91,6.455c-0.277,2.095-0.525,4.192-0.746,6.29c0,0.439-0.222,0.662-0.662,0.662
		c-3.863-0.223-7.696-0.554-11.504-0.993c-3.807-0.442-7.531-0.938-11.172-1.489c-0.332-0.111-0.497-0.331-0.497-0.662
		s0.165-0.554,0.497-0.662c3.641-0.554,6.84-1.684,9.6-3.394c2.758-1.712,5.049-3.807,6.869-6.29
		c1.821-2.482,3.199-5.297,4.139-8.441c0.936-3.146,1.406-6.43,1.406-9.849c0-5.739-0.91-10.953-2.73-15.643
		c-1.82-4.691-4.387-8.718-7.697-12.083c-3.311-3.367-7.311-5.959-12-7.779c-4.691-1.821-9.906-2.731-15.643-2.731
		c-6.069,0-11.891,1.076-17.462,3.228c-5.573,2.152-10.511,5.157-14.814,9.021c-4.304,3.861-7.754,8.441-10.345,13.738
		c-2.595,5.297-3.89,11.09-3.89,17.38c0,3.53,0.385,6.593,1.158,9.187c0.771,2.592,1.903,4.883,3.394,6.869
		c1.489,1.986,3.393,3.725,5.71,5.214c2.317,1.49,5.075,2.951,8.276,4.387c0.331,0.22,0.439,0.468,0.331,0.745
		c-0.111,0.274-0.331,0.468-0.662,0.579c-0.662,0.108-1.324,0.191-1.986,0.248c-0.662,0.055-1.381,0.083-2.151,0.083
		C68.028,440.121,65.38,439.79,62.731,439.127z"/>
	<path fill="#FFFFFF" d="M53.297,533.889c0.108-1.382,0.22-2.843,0.331-4.387c0.108-0.885,0.191-1.795,0.248-2.731
		c0.055-0.938,0.083-1.903,0.083-2.896c0-2.54-0.111-5.077-0.331-7.614c-0.223-2.539-0.442-5.076-0.662-7.614
		c0-0.33,0.165-0.553,0.496-0.661c0.331-0.111,0.605,0,0.828,0.331l3.145,6.455c5.186-1.878,10.288-3.836,15.312-5.876
		c5.02-2.043,10.18-4.001,15.476-5.876v-25.656c-1.435-0.554-3.559-1.353-6.372-2.4c-2.814-1.05-5.739-2.069-8.773-3.063
		c-3.036-0.993-5.904-1.877-8.606-2.648c-2.706-0.772-4.663-1.158-5.876-1.158c-1.655,0-2.731,0.717-3.229,2.151
		c-0.496,1.434-0.855,2.814-1.075,4.139h-1.324c0.22-2.098,0.413-4.249,0.579-6.456c0.165-2.208,0.248-4.414,0.248-6.62
		c0-2.209-0.083-4.415-0.248-6.621c-0.166-2.209-0.359-4.415-0.579-6.621c-0.111-0.331,0.054-0.525,0.496-0.579
		c0.439-0.058,0.717,0.082,0.828,0.413c0.771,6.067,3.973,10.317,9.6,12.746h-0.165c8.054,3.199,16.11,6.289,24.166,9.269
		c8.054,2.979,16.165,5.902,24.332,8.773c5.517,1.986,11.007,3.915,16.47,5.793c5.462,1.875,10.95,3.861,16.469,5.959
		c0.332,0.108,0.497,0.331,0.497,0.662s-0.165,0.551-0.497,0.662c-1.546,0.551-3.062,1.13-4.551,1.738
		c-1.49,0.604-3.008,1.185-4.553,1.737c-12.359,4.523-24.773,9.241-37.242,14.152c-12.471,4.909-24.663,10.511-36.58,16.801
		c-2.54,1.324-4.361,3.006-5.463,5.049c-1.104,2.04-1.767,4.386-1.986,7.034h-1.324C53.239,536.729,53.185,535.267,53.297,533.889z
		 M128.112,490.273c-5.85-1.877-11.561-3.67-17.131-5.379c-5.574-1.712-11.339-3.616-17.297-5.711v21.353L128.112,490.273z"/>
	<path fill="#FFFFFF" d="M69.021,602.579c-0.331-0.057-0.662-0.082-0.993-0.082c-2.429-0.223-4.774-0.471-7.035-0.745
		c-2.263-0.277-4.497-0.968-6.703-2.069c-0.111,0.108-0.331,0.166-0.662,0.166s-0.662-0.331-0.993-0.993
		c0.439-4.415,0.744-8.802,0.91-13.159c0.165-4.36,0.248-8.802,0.248-13.325c0-3.642-0.057-7.283-0.165-10.924
		c-0.111-3.642-0.223-7.283-0.331-10.925c0-0.554-0.028-1.133-0.083-1.738c-0.057-0.607-0.083-1.188-0.083-1.738
		c0-0.331,0.22-0.496,0.662-0.496c0.439,0,0.662,0.165,0.662,0.496c0.108,1.213,0.551,2.317,1.324,3.311
		c0.771,0.993,1.738,1.821,2.896,2.483c1.159,0.662,2.4,1.158,3.725,1.489s2.482,0.497,3.476,0.497h67.368
		c2.648,0,4.743-0.885,6.29-2.648c1.544-1.767,2.371-3.973,2.482-6.621h1.324c-0.111,2.095-0.166,4.138-0.166,6.124s0,4.027,0,6.125
		c0,5.736,0.166,11.586,0.497,17.545c0,0.331-0.194,0.522-0.579,0.579c-0.389,0.055-0.637-0.082-0.745-0.413
		c-0.442-2.317-1.464-4.415-3.062-6.29c-1.602-1.878-3.559-2.814-5.877-2.814H71.835c-4.635,0-8.193,1.462-10.676,4.387
		c-2.483,2.923-3.725,6.538-3.725,10.842c0,4.192,1.185,8.054,3.559,11.587c2.372,3.53,5.488,6.232,9.353,8.11l-0.331,1.324
		C69.683,602.662,69.352,602.633,69.021,602.579z"/>
</g>
</svg>
