<?xml version="1.0" encoding="utf-8"?>
<!-- Generator: Adobe Illustrator 16.0.3, SVG Export Plug-In . SVG Version: 6.00 Build 0)  -->
<!DOCTYPE svg PUBLIC "-//W3C//DTD SVG 1.1//EN" "http://www.w3.org/Graphics/SVG/1.1/DTD/svg11.dtd">
<svg version="1.1" id="Layer_1" xmlns="http://www.w3.org/2000/svg" xmlns:xlink="http://www.w3.org/1999/xlink" x="0px" y="0px"
	 width="184.725px" height="467.93px" viewBox="0 0 184.725 467.93" enable-background="new 0 0 184.725 467.93"
	 xml:space="preserve">
<g enable-background="new    ">
	<path fill="#FFFFFF" d="M111.562,60.664c-3.422-1.27-6.483-3.063-9.187-5.38c-2.705-2.317-4.883-5.077-6.539-8.276
		c-1.654-3.202-2.482-6.678-2.482-10.428c0-2.208,0.274-4.58,0.828-7.117c0.108-0.331,0.356-0.471,0.744-0.414
		c0.386,0.054,0.58,0.249,0.58,0.58v2.813c0,6.29,1.957,11.256,5.876,14.897c3.915,3.642,8.964,5.462,15.146,5.462
		c2.757,0,5.488-0.442,8.193-1.324c2.703-0.885,5.156-2.152,7.365-3.807c2.207-1.655,3.999-3.67,5.38-6.042
		c1.378-2.375,2.069-5.049,2.069-8.028c0-3.09-0.662-5.958-1.986-8.607H64.553c-3.641,0-6.235,0.828-7.779,2.483
		c-1.547,1.655-2.429,4.358-2.648,8.11c0,0.331-0.223,0.497-0.662,0.497c-0.442,0-0.662-0.166-0.662-0.497v-18.87
		c0-1.877,0-3.752,0-5.628c0-1.766,0.055-3.587,0.166-5.462c0-0.331,0.191-0.525,0.579-0.58c0.386-0.057,0.634,0.083,0.745,0.414
		c0.331,1.986,0.771,3.53,1.324,4.635c0.551,1.102,1.267,1.903,2.151,2.4c0.882,0.497,2.013,0.771,3.394,0.828
		c1.378,0.054,3.005,0.083,4.883,0.083h67.864c2.317,0,4.221-0.993,5.71-2.979c1.49-1.986,2.51-4.084,3.063-6.29
		c0.109-0.331,0.357-0.471,0.745-0.414c0.386,0.055,0.579,0.249,0.579,0.58c-0.331,3.419-0.525,6.729-0.579,9.931
		c-0.058,3.199-0.083,6.399-0.083,9.601v14.566c0,3.75-0.331,7.118-0.993,10.097s-1.795,5.517-3.394,7.614
		c-1.601,2.095-3.781,3.696-6.537,4.8c-2.76,1.102-6.236,1.655-10.429,1.655C118.458,62.567,114.981,61.931,111.562,60.664z"/>
	<path fill="#FFFFFF" d="M77.713,160.641c-5.462-2.596-10.18-6.043-14.152-10.346c-3.972-4.305-7.063-9.299-9.269-14.98
		c-2.209-5.684-3.311-11.67-3.311-17.959c0-5.188,1.267-10.568,3.807-16.139c2.537-5.574,5.848-10.677,9.932-15.312
		c4.081-4.635,8.716-8.47,13.904-11.504c5.186-3.036,10.428-4.552,15.725-4.552c8.053,0,14.979,0.745,20.772,2.234
		s10.702,3.89,14.731,7.2c4.027,3.311,7.338,7.668,9.932,13.077c2.592,5.405,4.717,12.026,6.373,19.864l0.165,2.15
		c0.551,7.061-0.471,13.629-3.062,19.697c-2.595,6.068-6.236,11.365-10.926,15.891c-4.691,4.523-10.236,8.082-16.635,10.678
		c-6.4,2.59-13.133,3.889-20.193,3.889C89.105,164.529,83.176,163.23,77.713,160.641z M111.893,151.039
		c5.405-1.602,10.262-3.973,14.566-7.117c4.303-3.145,7.779-7.01,10.428-11.586c2.648-4.582,3.973-9.85,3.973-15.809
		c0-5.627-1.021-10.621-3.063-14.98c-2.043-4.36-4.857-8.027-8.441-11.007c-3.588-2.979-7.726-5.271-12.414-6.869
		c-4.691-1.601-9.684-2.4-14.98-2.4c-5.52,0-10.981,0.828-16.387,2.483c-5.407,1.655-10.29,4.11-14.648,7.366
		c-4.36,3.254-7.891,7.201-10.594,11.836c-2.705,4.635-4.055,9.932-4.055,15.891c0,5.627,1.075,10.594,3.228,14.896
		c2.151,4.303,5.02,7.916,8.607,10.842c3.584,2.922,7.751,5.131,12.497,6.621c4.743,1.49,9.766,2.234,15.062,2.234
		C101.077,153.439,106.485,152.637,111.893,151.039z"/>
	<path fill="#FFFFFF" d="M52.885,196.89c0.055-2.044,0.083-4.112,0.083-6.208c0-2.979-0.028-5.904-0.083-8.772
		c-0.057-2.871-0.14-5.793-0.248-8.772c0-0.331,0.191-0.525,0.579-0.579c0.386-0.058,0.634,0.082,0.745,0.413
		c0.993,2.758,2.509,4.772,4.552,6.042c2.04,1.268,4.495,1.903,7.365,1.903h68.692c2.537,0,4.304-0.855,5.296-2.565
		c0.994-1.712,1.656-3.725,1.986-6.042c0.109-0.331,0.357-0.471,0.746-0.413c0.385,0.054,0.578,0.248,0.578,0.579
		c-0.222,2.317-0.387,4.635-0.496,6.952c-0.111,2.317-0.166,4.688-0.166,7.117c0,2.317,0.055,4.635,0.166,6.952
		c0.109,2.317,0.331,4.578,0.662,6.786c0.109,0.331-0.057,0.551-0.496,0.662c-0.442,0.108-0.719,0-0.828-0.331
		c-0.553-2.429-1.215-4.386-1.986-5.876c-0.773-1.489-2.594-2.234-5.462-2.234H66.375c-4.195,0-7.2,0.799-9.021,2.4
		c-1.82,1.598-2.896,4.386-3.228,8.358h-1.324C52.802,201.053,52.828,198.93,52.885,196.89z"/>
	<path fill="#FFFFFF" d="M66.375,254.821c-3.202-2.043-5.933-4.635-8.193-7.779c-2.263-3.146-4.029-6.621-5.297-10.428
		c-1.27-3.808-1.903-7.423-1.903-10.842c0-1.655,0.191-3.394,0.579-5.215c0.386-1.82,1.019-3.476,1.903-4.965
		c0.882-1.49,2.013-2.706,3.394-3.642c1.378-0.939,3.116-1.407,5.214-1.407c1.324,0,2.648,0.137,3.973,0.414
		c1.324,0.273,2.592,0.522,3.807,0.744l3.973,0.828c0.331,0,0.497,0.22,0.497,0.662c0,0.439-0.166,0.662-0.497,0.662h-2.482
		c-2.317,0-4.36,0.496-6.125,1.489c-1.766,0.993-3.284,2.261-4.552,3.808c-1.27,1.544-2.208,3.336-2.813,5.379
		c-0.608,2.041-0.91,4.11-0.91,6.207c0,1.986,0.331,4.027,0.993,6.125c0.662,2.095,1.626,3.998,2.896,5.71
		c1.267,1.71,2.813,3.117,4.635,4.222c1.82,1.102,3.833,1.655,6.041,1.655c2.095,0,4.164-0.497,6.207-1.49
		c2.041-0.993,4.11-2.317,6.207-3.973c2.096-1.655,4.193-3.533,6.29-5.628c2.095-2.098,4.192-4.249,6.289-6.455
		c2.207-2.317,4.441-4.635,6.705-6.952c2.26-2.317,4.577-4.36,6.951-6.124c2.371-1.767,4.771-3.202,7.2-4.304
		c2.427-1.104,4.909-1.655,7.448-1.655c3.75,0,6.979,1.047,9.684,3.145c2.703,2.095,4.908,4.689,6.621,7.78
		c1.709,3.088,2.979,6.455,3.807,10.097c0.828,3.642,1.242,7.006,1.242,10.097c0,4.412-0.554,8.441-1.656,12.083
		c-0.222,0.331-0.441,0.497-0.662,0.497c-5.407-0.442-10.98-1.104-16.717-1.986c-0.332-0.111-0.497-0.331-0.497-0.662
		s0.165-0.554,0.497-0.662c3.861-0.885,7.172-2.565,9.932-5.049c2.756-2.482,4.137-5.768,4.137-9.849
		c0-4.194-1.352-7.696-4.055-10.511c-2.705-2.813-6.152-4.221-10.346-4.221c-2.208,0-4.249,0.468-6.124,1.407
		c-1.878,0.937-3.698,2.151-5.462,3.642c-1.767,1.489-3.505,3.228-5.215,5.214c-1.711,1.986-3.449,4.026-5.213,6.124
		c-1.878,2.317-3.836,4.606-5.877,6.869c-2.043,2.261-4.195,4.275-6.455,6.042c-2.263,1.764-4.662,3.199-7.2,4.304
		c-2.539,1.102-5.296,1.655-8.275,1.655C73.104,257.884,69.574,256.862,66.375,254.821z"/>
	<path fill="#FFFFFF" d="M77.713,355.954c-5.462-2.595-10.18-6.042-14.152-10.346c-3.972-4.304-7.063-9.298-9.269-14.979
		c-2.209-5.685-3.311-11.67-3.311-17.96c0-5.188,1.267-10.567,3.807-16.139c2.537-5.573,5.848-10.676,9.932-15.311
		c4.081-4.635,8.716-8.47,13.904-11.504c5.186-3.036,10.428-4.552,15.725-4.552c8.053,0,14.979,0.745,20.772,2.234
		c5.794,1.49,10.702,3.89,14.731,7.2c4.027,3.311,7.338,7.669,9.932,13.076c2.592,5.406,4.717,12.026,6.373,19.863l0.165,2.151
		c0.551,7.061-0.471,13.628-3.062,19.697c-2.595,6.068-6.236,11.364-10.926,15.891c-4.691,4.523-10.236,8.082-16.635,10.677
		c-6.4,2.591-13.133,3.89-20.193,3.89C89.105,359.844,83.176,358.545,77.713,355.954z M111.893,346.354
		c5.405-1.602,10.262-3.973,14.566-7.118c4.303-3.145,7.779-7.009,10.428-11.586c2.648-4.581,3.973-9.849,3.973-15.808
		c0-5.628-1.021-10.622-3.063-14.98c-2.043-4.36-4.857-8.027-8.441-11.007c-3.588-2.979-7.726-5.271-12.414-6.869
		c-4.691-1.602-9.684-2.4-14.98-2.4c-5.52,0-10.981,0.828-16.387,2.483c-5.407,1.655-10.29,4.109-14.648,7.365
		c-4.36,3.254-7.891,7.2-10.594,11.835c-2.705,4.635-4.055,9.932-4.055,15.891c0,5.628,1.075,10.594,3.228,14.896
		c2.151,4.304,5.02,7.917,8.607,10.842c3.584,2.923,7.751,5.132,12.497,6.621c4.743,1.49,9.766,2.234,15.062,2.234
		C101.077,348.753,106.485,347.951,111.893,346.354z"/>
	<path fill="#FFFFFF" d="M141.936,463.874c0.054-0.057,0.025-0.193-0.084-0.413c-0.441-1.547-0.992-3.174-1.654-4.883
		c-0.662-1.713-1.821-2.566-3.477-2.566l-39.891,0.166h-6.786c-6.401,0-12.72-0.111-18.952-0.331
		c-6.236-0.223-12.497-0.608-18.787-1.159c-0.223,0-0.414-0.14-0.58-0.413c-0.165-0.277-0.14-0.525,0.083-0.745
		c4.523-5.297,9.406-10.594,14.649-15.891c5.239-5.297,10.593-10.511,16.056-15.642c5.462-5.131,10.978-10.18,16.552-15.146
		c5.57-4.966,11.008-9.712,16.305-14.235c1.654-1.546,3.227-2.925,4.717-4.138c1.49-1.216,3.063-2.594,4.717-4.138
		c-2.979-0.331-5.85-0.497-8.607-0.497c-4.194,0-8.387,0.055-12.579,0.166c-4.194,0.108-8.388,0.273-12.58,0.496
		c-4.195,0.22-8.387,0.386-12.58,0.497c-4.195,0.108-8.441,0.165-12.745,0.165c-1.878,0-3.394,0.165-4.552,0.496
		c-1.159,0.331-2.069,0.745-2.731,1.242c-0.662,0.496-1.133,1.102-1.407,1.82c-0.276,0.717-0.471,1.461-0.579,2.234
		c-0.223,0.882-0.471,1.765-0.745,2.648c-0.276,0.882-0.855,1.93-1.737,3.146c-0.223,0.22-0.471,0.303-0.745,0.248
		c-0.276-0.057-0.414-0.248-0.414-0.579c0.108-1.104,0.22-2.181,0.331-3.228c0.108-1.051,0.22-2.126,0.331-3.229
		c0.22-1.546,0.386-3.119,0.497-4.717c0.108-1.602,0.165-3.174,0.165-4.718c0-1.986-0.14-4.029-0.414-6.124
		c-0.276-2.098-0.579-4.195-0.91-6.29c-0.111-0.331,0-0.579,0.331-0.745c0.331-0.165,0.605-0.14,0.828,0.083
		c0.771,0.882,1.378,1.681,1.82,2.4c0.439,0.716,0.828,1.406,1.159,2.068c0.662,1.324,1.572,2.509,2.73,3.559
		c1.159,1.048,3.006,1.573,5.545,1.573h77.465l2.648,1.324c0.22,0.108,0.385,0.273,0.496,0.496c0.109,0.22,0.055,0.386-0.165,0.497
		c-12.472,12.026-24.745,23.67-36.829,34.925c-12.083,11.256-24.58,22.677-37.49,34.264h0.496c5.074,0,10.098-0.028,15.063-0.083
		c4.966-0.057,10.04-0.14,15.229-0.248c4.742-0.111,9.791-0.223,15.145-0.331c5.352-0.111,10.4-0.165,15.146-0.165
		c1.875,0,3.393-0.194,4.551-0.58c1.159-0.388,2.041-0.91,2.648-1.572c0.605-0.662,1.02-1.381,1.242-2.151
		c0.22-0.773,0.385-1.547,0.496-2.317c0.109-0.885,0.248-1.684,0.414-2.4c0.166-0.719,0.522-1.353,1.076-1.903
		c0.219-0.223,0.496-0.248,0.827-0.083c0.331,0.166,0.44,0.357,0.331,0.579c-0.331,2.537-0.496,4.909-0.496,7.118
		c0,2.317,0,4.635,0,6.951c0,1.434,0.025,2.897,0.082,4.387c0.055,1.49,0.026,3.006-0.082,4.552c0,0.551-0.029,1.159-0.083,1.821
		c-0.058,0.662-0.083,1.267-0.083,1.82l-1.324,0.331C141.907,464.065,141.879,463.929,141.936,463.874z"/>
</g>
</svg>
