<?xml version="1.0" encoding="utf-8"?>
<!-- Generator: Adobe Illustrator 16.0.3, SVG Export Plug-In . SVG Version: 6.00 Build 0)  -->
<!DOCTYPE svg PUBLIC "-//W3C//DTD SVG 1.1//EN" "http://www.w3.org/Graphics/SVG/1.1/DTD/svg11.dtd">
<svg version="1.1" id="Layer_1" xmlns="http://www.w3.org/2000/svg" xmlns:xlink="http://www.w3.org/1999/xlink" x="0px" y="0px"
	 width="184.725px" height="322.766px" viewBox="0 0 184.725 322.766" enable-background="new 0 0 184.725 322.766"
	 xml:space="preserve">
<g enable-background="new    ">
	<path fill="#FF3C00" d="M111.561,60.664c-3.422-1.27-6.483-3.063-9.187-5.38c-2.705-2.317-4.883-5.077-6.539-8.276
		c-1.654-3.202-2.482-6.678-2.482-10.428c0-2.208,0.274-4.58,0.828-7.117c0.108-0.331,0.356-0.471,0.744-0.414
		c0.386,0.054,0.58,0.249,0.58,0.58v2.813c0,6.29,1.957,11.256,5.876,14.897c3.915,3.642,8.964,5.462,15.146,5.462
		c2.757,0,5.488-0.442,8.193-1.324c2.703-0.885,5.156-2.152,7.365-3.807c2.207-1.655,3.999-3.67,5.38-6.042
		c1.378-2.375,2.069-5.049,2.069-8.028c0-3.09-0.662-5.958-1.986-8.607H64.552c-3.641,0-6.235,0.828-7.779,2.483
		c-1.547,1.655-2.429,4.358-2.648,8.11c0,0.331-0.223,0.497-0.662,0.497c-0.442,0-0.662-0.166-0.662-0.497v-18.87
		c0-1.877,0-3.752,0-5.628c0-1.766,0.055-3.587,0.166-5.462c0-0.331,0.191-0.525,0.579-0.58c0.386-0.057,0.634,0.083,0.745,0.414
		c0.331,1.986,0.771,3.53,1.324,4.635c0.551,1.102,1.267,1.903,2.151,2.4c0.882,0.497,2.013,0.771,3.394,0.828
		c1.378,0.054,3.005,0.083,4.883,0.083h67.864c2.317,0,4.221-0.993,5.71-2.979c1.49-1.986,2.51-4.084,3.063-6.29
		c0.109-0.331,0.357-0.471,0.745-0.414c0.386,0.055,0.579,0.249,0.579,0.58c-0.331,3.419-0.525,6.729-0.579,9.931
		c-0.058,3.199-0.083,6.399-0.083,9.601v14.566c0,3.75-0.331,7.118-0.993,10.097s-1.795,5.517-3.394,7.614
		c-1.601,2.095-3.781,3.696-6.537,4.8c-2.76,1.102-6.236,1.655-10.429,1.655C118.456,62.567,114.98,61.931,111.561,60.664z"/>
	<path fill="#FF3C00" d="M77.711,160.641c-5.462-2.596-10.18-6.043-14.152-10.346c-3.972-4.305-7.063-9.299-9.269-14.98
		c-2.209-5.684-3.311-11.67-3.311-17.959c0-5.188,1.267-10.568,3.807-16.139c2.537-5.574,5.848-10.677,9.932-15.312
		c4.081-4.635,8.716-8.47,13.904-11.504c5.186-3.036,10.428-4.552,15.725-4.552c8.053,0,14.979,0.745,20.772,2.234
		s10.702,3.89,14.731,7.2c4.027,3.311,7.338,7.668,9.932,13.077c2.592,5.405,4.717,12.026,6.373,19.864l0.165,2.15
		c0.551,7.061-0.471,13.629-3.062,19.697c-2.595,6.068-6.236,11.365-10.926,15.891c-4.691,4.523-10.236,8.082-16.635,10.678
		c-6.4,2.59-13.133,3.889-20.193,3.889C89.104,164.529,83.174,163.23,77.711,160.641z M111.892,151.039
		c5.405-1.602,10.262-3.973,14.566-7.117c4.303-3.145,7.779-7.01,10.428-11.586c2.648-4.582,3.973-9.85,3.973-15.809
		c0-5.627-1.021-10.621-3.063-14.98c-2.043-4.36-4.857-8.027-8.441-11.007c-3.588-2.979-7.726-5.271-12.414-6.869
		c-4.691-1.601-9.684-2.4-14.98-2.4c-5.52,0-10.981,0.828-16.387,2.483c-5.407,1.655-10.29,4.11-14.648,7.366
		c-4.36,3.254-7.891,7.201-10.594,11.836c-2.705,4.635-4.055,9.932-4.055,15.891c0,5.627,1.075,10.594,3.228,14.896
		c2.151,4.303,5.02,7.916,8.607,10.842c3.584,2.922,7.751,5.131,12.497,6.621c4.743,1.49,9.766,2.234,15.062,2.234
		C101.075,153.439,106.484,152.637,111.892,151.039z"/>
	<path fill="#FF3C00" d="M52.883,196.89c0.055-2.044,0.083-4.112,0.083-6.208c0-2.979-0.028-5.904-0.083-8.772
		c-0.057-2.871-0.14-5.793-0.248-8.772c0-0.331,0.191-0.525,0.579-0.579c0.386-0.058,0.634,0.082,0.745,0.413
		c0.993,2.758,2.509,4.772,4.552,6.042c2.04,1.268,4.495,1.903,7.365,1.903h68.692c2.537,0,4.304-0.855,5.296-2.565
		c0.994-1.712,1.656-3.725,1.986-6.042c0.109-0.331,0.357-0.471,0.746-0.413c0.385,0.054,0.578,0.248,0.578,0.579
		c-0.222,2.317-0.387,4.635-0.496,6.952c-0.111,2.317-0.166,4.688-0.166,7.117c0,2.317,0.055,4.635,0.166,6.952
		c0.109,2.317,0.331,4.578,0.662,6.786c0.109,0.331-0.057,0.551-0.496,0.662c-0.442,0.108-0.719,0-0.828-0.331
		c-0.553-2.429-1.215-4.386-1.986-5.876c-0.773-1.489-2.594-2.234-5.462-2.234H66.373c-4.195,0-7.2,0.799-9.021,2.4
		c-1.82,1.598-2.896,4.386-3.228,8.358H52.8C52.8,201.053,52.826,198.93,52.883,196.89z"/>
	<path fill="#FF3C00" d="M66.373,254.821c-3.202-2.043-5.933-4.635-8.193-7.779c-2.263-3.146-4.029-6.621-5.297-10.428
		c-1.27-3.808-1.903-7.423-1.903-10.842c0-1.655,0.191-3.394,0.579-5.215c0.386-1.82,1.019-3.476,1.903-4.965
		c0.882-1.49,2.013-2.706,3.394-3.642c1.378-0.939,3.116-1.407,5.214-1.407c1.324,0,2.648,0.137,3.973,0.414
		c1.324,0.273,2.592,0.522,3.807,0.744l3.973,0.828c0.331,0,0.497,0.22,0.497,0.662c0,0.439-0.166,0.662-0.497,0.662h-2.482
		c-2.317,0-4.36,0.496-6.125,1.489c-1.766,0.993-3.284,2.261-4.552,3.808c-1.27,1.544-2.208,3.336-2.813,5.379
		c-0.608,2.041-0.91,4.11-0.91,6.207c0,1.986,0.331,4.027,0.993,6.125c0.662,2.095,1.626,3.998,2.896,5.71
		c1.267,1.71,2.813,3.117,4.635,4.222c1.82,1.102,3.833,1.655,6.041,1.655c2.095,0,4.164-0.497,6.207-1.49
		c2.041-0.993,4.11-2.317,6.207-3.973c2.096-1.655,4.193-3.533,6.29-5.628c2.095-2.098,4.192-4.249,6.289-6.455
		c2.207-2.317,4.441-4.635,6.705-6.952c2.26-2.317,4.577-4.36,6.951-6.124c2.371-1.767,4.771-3.202,7.2-4.304
		c2.427-1.104,4.909-1.655,7.448-1.655c3.75,0,6.979,1.047,9.684,3.145c2.703,2.095,4.908,4.689,6.621,7.78
		c1.709,3.088,2.979,6.455,3.807,10.097c0.828,3.642,1.242,7.006,1.242,10.097c0,4.412-0.554,8.441-1.656,12.083
		c-0.222,0.331-0.441,0.497-0.662,0.497c-5.407-0.442-10.98-1.104-16.717-1.986c-0.332-0.111-0.497-0.331-0.497-0.662
		s0.165-0.554,0.497-0.662c3.861-0.885,7.172-2.565,9.932-5.049c2.756-2.482,4.137-5.768,4.137-9.849
		c0-4.194-1.352-7.696-4.055-10.511c-2.705-2.813-6.152-4.221-10.346-4.221c-2.208,0-4.249,0.468-6.124,1.407
		c-1.878,0.937-3.698,2.151-5.462,3.642c-1.767,1.489-3.505,3.228-5.215,5.214c-1.711,1.986-3.449,4.026-5.213,6.124
		c-1.878,2.317-3.836,4.606-5.877,6.869c-2.043,2.261-4.195,4.275-6.455,6.042c-2.263,1.764-4.662,3.199-7.2,4.304
		c-2.539,1.102-5.296,1.655-8.275,1.655C73.103,257.884,69.573,256.862,66.373,254.821z"/>
	<path fill="#FF3C00" d="M61.49,317.801c-2.374-0.331-4.829-0.662-7.366-0.993c-0.331,0-0.496-0.223-0.496-0.662l-0.166-0.166
		c-0.331-0.885-0.496-1.601-0.496-2.151c0-2.54,0.025-5.105,0.082-7.697c0.055-2.594,0.083-5.159,0.083-7.696
		c0-2.209,0.026-4.361,0.083-6.456c0.055-2.098,0.083-4.249,0.083-6.455c0-2.979-0.028-5.987-0.083-9.021
		c-0.057-3.036-0.14-6.041-0.248-9.021h1.324c0,1.655,0.356,3.005,1.075,4.056c0.717,1.047,1.627,1.846,2.731,2.399
		c1.102,0.551,2.344,0.91,3.725,1.076c1.378,0.165,2.785,0.248,4.221,0.248H134.9c2.206,0,3.641-0.524,4.303-1.572
		c0.662-1.05,1.214-2.181,1.656-3.394c0.22-0.662,0.468-1.406,0.744-2.234c0.274-0.827,0.688-1.684,1.242-2.565
		c0.219-0.223,0.468-0.306,0.744-0.248c0.274,0.054,0.414,0.248,0.414,0.579V313c0.22,0.44,0.414,0.911,0.58,1.407
		c0.165,0.497,0.356,0.965,0.578,1.407c0.221,0.551,0,0.827-0.662,0.827c-2.87-0.331-5.545-0.745-8.027-1.241
		s-4.994-1.021-7.531-1.572c-0.331-0.111-0.471-0.359-0.414-0.745c0.055-0.388,0.248-0.579,0.58-0.579
		c3.861-0.223,6.398-1.547,7.613-3.973c1.213-2.429,1.82-5.408,1.82-8.938v-13.076h-33.932v19.2c0,0.552,0.166,1.268,0.496,2.152
		c0.332,0.882,0.662,1.764,0.994,2.648c0.662,1.213,1.158,2.426,1.489,3.642c0.22,0.551,0,0.827-0.662,0.827
		c-1.324-0.111-2.76-0.248-4.304-0.413c-1.547-0.166-2.979-0.36-4.304-0.58c-1.324-0.222-2.705-0.388-4.138-0.496
		c-1.436-0.111-2.814-0.277-4.138-0.497c-0.331,0-0.554-0.14-0.662-0.413c-0.111-0.277-0.057-0.525,0.165-0.745
		c0.551-0.554,1.103-0.91,1.655-1.076c0.551-0.165,1.159-0.359,1.821-0.579c0.662-0.223,1.324-0.442,1.985-0.662
		c0.662-0.223,1.268-0.607,1.821-1.159c0.551-0.553,0.965-1.572,1.241-3.062c0.274-1.49,0.497-3.091,0.662-4.801
		c0.165-1.712,0.248-3.393,0.248-5.048s0-2.926,0-3.808v-4.966H64.883c-2.428,1.655-4.277,3.999-5.545,7.035
		c-1.27,3.034-1.903,5.984-1.903,8.855c0,3.861,1.02,7.144,3.063,9.849c2.04,2.703,4.938,4.495,8.689,5.38l-0.331,1.324
		C66.317,318.571,63.862,318.132,61.49,317.801z"/>
</g>
</svg>
