<?xml version="1.0" encoding="utf-8"?>
<!-- Generator: Adobe Illustrator 16.0.3, SVG Export Plug-In . SVG Version: 6.00 Build 0)  -->
<!DOCTYPE svg PUBLIC "-//W3C//DTD SVG 1.1//EN" "http://www.w3.org/Graphics/SVG/1.1/DTD/svg11.dtd">
<svg version="1.1" id="Layer_1" xmlns="http://www.w3.org/2000/svg" xmlns:xlink="http://www.w3.org/1999/xlink" x="0px" y="0px"
	 width="184.725px" height="372.585px" viewBox="0 0 184.725 372.585" enable-background="new 0 0 184.725 372.585"
	 xml:space="preserve">
<g enable-background="new    ">
	<path fill="#FF3C00" d="M66.373,47.918c-3.202-2.043-5.933-4.635-8.193-7.779c-2.263-3.145-4.029-6.621-5.297-10.428
		c-1.27-3.807-1.903-7.423-1.903-10.842c0-1.655,0.191-3.393,0.579-5.214c0.386-1.821,1.019-3.476,1.903-4.966
		c0.882-1.49,2.013-2.705,3.394-3.642c1.378-0.938,3.116-1.407,5.214-1.407c1.324,0,2.648,0.137,3.973,0.414
		c1.324,0.274,2.592,0.522,3.807,0.745l3.973,0.828c0.331,0,0.497,0.22,0.497,0.662c0,0.439-0.166,0.662-0.497,0.662h-2.482
		c-2.317,0-4.36,0.497-6.125,1.49c-1.766,0.993-3.284,2.26-4.552,3.807c-1.27,1.544-2.208,3.336-2.813,5.38
		c-0.608,2.041-0.91,4.109-0.91,6.207c0,1.986,0.331,4.027,0.993,6.125c0.662,2.095,1.626,3.998,2.896,5.71
		c1.267,1.709,2.813,3.116,4.635,4.221c1.82,1.102,3.833,1.655,6.041,1.655c2.095,0,4.164-0.497,6.207-1.49
		c2.041-0.993,4.11-2.317,6.207-3.973c2.096-1.655,4.193-3.533,6.29-5.627c2.095-2.098,4.192-4.25,6.289-6.456
		c2.207-2.317,4.441-4.635,6.705-6.952c2.26-2.317,4.577-4.36,6.951-6.125c2.371-1.766,4.771-3.202,7.2-4.303
		c2.427-1.104,4.909-1.655,7.448-1.655c3.75,0,6.979,1.047,9.684,3.145c2.703,2.095,4.908,4.689,6.621,7.779
		c1.709,3.088,2.979,6.456,3.807,10.097c0.828,3.642,1.242,7.006,1.242,10.097c0,4.413-0.554,8.442-1.656,12.083
		c-0.222,0.331-0.441,0.497-0.662,0.497c-5.407-0.442-10.98-1.104-16.717-1.986c-0.332-0.111-0.497-0.331-0.497-0.662
		s0.165-0.554,0.497-0.662c3.861-0.885,7.172-2.565,9.932-5.048c2.756-2.483,4.137-5.768,4.137-9.849
		c0-4.195-1.352-7.697-4.055-10.511c-2.705-2.814-6.152-4.221-10.346-4.221c-2.208,0-4.249,0.468-6.124,1.407
		c-1.878,0.936-3.698,2.152-5.462,3.642c-1.767,1.489-3.505,3.228-5.215,5.214c-1.711,1.986-3.449,4.027-5.213,6.125
		c-1.878,2.317-3.836,4.606-5.877,6.869c-2.043,2.26-4.195,4.275-6.455,6.042c-2.263,1.764-4.662,3.199-7.2,4.304
		c-2.539,1.102-5.296,1.655-8.275,1.655C73.103,50.981,69.573,49.959,66.373,47.918z"/>
	<path fill="#FF3C00" d="M69.022,115.285c-0.331-0.057-0.662-0.082-0.993-0.082c-2.429-0.223-4.774-0.471-7.035-0.746
		c-2.263-0.277-4.497-0.967-6.703-2.068c-0.111,0.107-0.331,0.166-0.662,0.166s-0.662-0.332-0.993-0.994
		c0.439-4.414,0.744-8.801,0.91-13.16c0.165-4.36,0.248-8.801,0.248-13.324c0-3.642-0.057-7.283-0.165-10.925
		c-0.111-3.642-0.223-7.283-0.331-10.924c0-0.554-0.028-1.133-0.083-1.738c-0.057-0.608-0.083-1.187-0.083-1.738
		c0-0.331,0.22-0.497,0.662-0.497c0.439,0,0.662,0.166,0.662,0.497c0.108,1.213,0.551,2.317,1.324,3.311
		c0.771,0.993,1.738,1.821,2.896,2.482c1.159,0.662,2.4,1.159,3.725,1.49s2.482,0.497,3.476,0.497h67.368
		c2.648,0,4.743-0.884,6.29-2.648c1.544-1.767,2.371-3.973,2.482-6.621h1.324c-0.111,2.095-0.166,4.138-0.166,6.125
		c0,1.986,0,4.027,0,6.124c0,5.736,0.166,11.587,0.497,17.545c0,0.331-0.194,0.522-0.579,0.58c-0.389,0.054-0.637-0.083-0.745-0.414
		c-0.442-2.317-1.464-4.415-3.062-6.29c-1.602-1.878-3.559-2.814-5.877-2.814H71.835c-4.635,0-8.193,1.461-10.676,4.386
		c-2.483,2.922-3.725,6.538-3.725,10.842c0,4.192,1.185,8.055,3.559,11.588c2.372,3.529,5.488,6.232,9.353,8.109l-0.331,1.324
		C69.684,115.367,69.353,115.34,69.022,115.285z"/>
	<path fill="#FF3C00" d="M53.297,209.136c0.108-1.383,0.22-2.844,0.331-4.387c0.108-0.885,0.191-1.795,0.248-2.732
		c0.055-0.938,0.083-1.902,0.083-2.896c0-2.539-0.111-5.076-0.331-7.613c-0.223-2.539-0.442-5.077-0.662-7.615
		c0-0.33,0.165-0.553,0.496-0.661c0.331-0.111,0.605,0,0.828,0.331l3.145,6.455c5.186-1.877,10.288-3.835,15.312-5.875
		c5.02-2.043,10.18-4.001,15.476-5.876v-25.656c-1.435-0.554-3.559-1.353-6.372-2.4c-2.814-1.05-5.739-2.069-8.773-3.063
		c-3.036-0.993-5.904-1.877-8.606-2.648c-2.706-0.772-4.663-1.158-5.876-1.158c-1.655,0-2.731,0.717-3.229,2.151
		c-0.496,1.434-0.855,2.814-1.075,4.139h-1.324c0.22-2.098,0.413-4.249,0.579-6.456c0.165-2.208,0.248-4.414,0.248-6.62
		c0-2.209-0.083-4.415-0.248-6.621c-0.166-2.209-0.359-4.415-0.579-6.621c-0.111-0.331,0.054-0.525,0.496-0.579
		c0.439-0.058,0.717,0.082,0.828,0.413c0.771,6.067,3.973,10.317,9.6,12.746h-0.165c8.054,3.199,16.11,6.289,24.166,9.269
		c8.054,2.979,16.165,5.902,24.332,8.773c5.517,1.986,11.007,3.915,16.47,5.793c5.462,1.875,10.95,3.861,16.469,5.959
		c0.332,0.108,0.497,0.331,0.497,0.662s-0.165,0.551-0.497,0.662c-1.546,0.551-3.062,1.13-4.551,1.738
		c-1.49,0.604-3.008,1.185-4.553,1.737c-12.359,4.523-24.773,9.241-37.242,14.152c-12.471,4.909-24.663,10.51-36.58,16.801
		c-2.54,1.324-4.361,3.006-5.463,5.049c-1.104,2.039-1.767,4.385-1.986,7.033h-1.324C53.24,211.976,53.186,210.513,53.297,209.136z
		 M128.113,165.52c-5.85-1.877-11.561-3.67-17.131-5.379c-5.574-1.712-11.339-3.616-17.297-5.711v21.353L128.113,165.52z"/>
	<path fill="#FF3C00" d="M66.373,265.08c-3.202-2.043-5.933-4.635-8.193-7.779c-2.263-3.145-4.029-6.621-5.297-10.428
		c-1.27-3.807-1.903-7.422-1.903-10.842c0-1.654,0.191-3.393,0.579-5.215c0.386-1.82,1.019-3.475,1.903-4.965
		c0.882-1.49,2.013-2.705,3.394-3.641c1.378-0.939,3.116-1.408,5.214-1.408c1.324,0,2.648,0.137,3.973,0.414
		c1.324,0.273,2.592,0.523,3.807,0.744l3.973,0.828c0.331,0,0.497,0.221,0.497,0.662c0,0.439-0.166,0.662-0.497,0.662h-2.482
		c-2.317,0-4.36,0.496-6.125,1.49c-1.766,0.992-3.284,2.26-4.552,3.807c-1.27,1.545-2.208,3.336-2.813,5.379
		c-0.608,2.041-0.91,4.111-0.91,6.207c0,1.986,0.331,4.027,0.993,6.125c0.662,2.096,1.626,3.998,2.896,5.711
		c1.267,1.709,2.813,3.117,4.635,4.221c1.82,1.102,3.833,1.656,6.041,1.656c2.095,0,4.164-0.498,6.207-1.49
		c2.041-0.994,4.11-2.318,6.207-3.973c2.096-1.656,4.193-3.533,6.29-5.629c2.095-2.098,4.192-4.248,6.289-6.455
		c2.207-2.316,4.441-4.635,6.705-6.951c2.26-2.318,4.577-4.361,6.951-6.125c2.371-1.766,4.771-3.201,7.2-4.303
		c2.427-1.105,4.909-1.656,7.448-1.656c3.75,0,6.979,1.047,9.684,3.145c2.703,2.096,4.908,4.689,6.621,7.781
		c1.709,3.088,2.979,6.455,3.807,10.096c0.828,3.643,1.242,7.006,1.242,10.098c0,4.412-0.554,8.441-1.656,12.082
		c-0.222,0.332-0.441,0.498-0.662,0.498c-5.407-0.443-10.98-1.105-16.717-1.986c-0.332-0.111-0.497-0.332-0.497-0.662
		c0-0.332,0.165-0.555,0.497-0.662c3.861-0.885,7.172-2.566,9.932-5.049c2.756-2.482,4.137-5.768,4.137-9.85
		c0-4.193-1.352-7.695-4.055-10.51c-2.705-2.814-6.152-4.221-10.346-4.221c-2.208,0-4.249,0.467-6.124,1.406
		c-1.878,0.938-3.698,2.152-5.462,3.643c-1.767,1.488-3.505,3.227-5.215,5.213c-1.711,1.986-3.449,4.027-5.213,6.125
		c-1.878,2.316-3.836,4.605-5.877,6.869c-2.043,2.26-4.195,4.275-6.455,6.041c-2.263,1.764-4.662,3.199-7.2,4.305
		c-2.539,1.102-5.296,1.654-8.275,1.654C73.103,268.142,69.573,267.121,66.373,265.08z"/>
	<path fill="#FF3C00" d="M52.635,368.779c0.331-5.85,0.496-11.643,0.496-17.379c0-2.098-0.028-4.168-0.083-6.207
		c-0.057-2.045-0.14-4.168-0.248-6.373c0-0.332,0.191-0.525,0.579-0.58c0.386-0.057,0.634,0.082,0.745,0.414
		c0.993,3.42,2.317,5.627,3.973,6.621c1.655,0.992,4.247,1.49,7.779,1.49h34.429v-50.816h-34.76c-6.951,0-10.759,3.584-11.421,10.76
		c0,0.33-0.223,0.496-0.662,0.496c-0.442,0-0.662-0.166-0.662-0.496c0-1.768,0-3.477,0-5.133c0-1.545-0.057-3.201-0.165-4.965
		c0-1.215-0.028-2.623-0.083-4.221c-0.057-1.602-0.083-3.008-0.083-4.221c0-1.324,0-2.705,0-4.139c0-1.436,0.055-2.871,0.166-4.303
		c0-0.443,0.025-0.969,0.082-1.572c0.055-0.609,0.083-1.133,0.083-1.574c0-0.33,0.191-0.523,0.579-0.578
		c0.386-0.057,0.634,0.082,0.745,0.414c0.331,1.764,0.688,3.199,1.076,4.303c0.386,1.102,0.937,1.93,1.655,2.482
		c0.716,0.551,1.627,0.91,2.731,1.076c1.102,0.166,2.537,0.248,4.303,0.248h70.514c2.426,0,4.246-0.967,5.461-2.896
		c1.214-1.932,1.876-4,1.986-6.207h1.324c-0.33,4.635-0.496,9.213-0.496,13.738c0,1.875,0.025,3.75,0.083,5.629
		c0.054,1.875,0.083,3.75,0.083,5.627v3.477c0,0.33-0.223,0.496-0.662,0.496c-0.442,0-0.662-0.166-0.662-0.496
		c0-1.986-0.607-3.781-1.821-5.379c-1.216-1.602-2.925-2.4-5.131-2.4h-28.802v50.65h28.14c2.648,0,4.329-0.691,5.048-2.07
		c0.717-1.381,1.351-3.063,1.904-5.049c0.108-0.441,0.22-0.855,0.33-1.24c0.109-0.389,0.221-0.803,0.332-1.242
		c0.108-0.33,0.356-0.471,0.744-0.414c0.386,0.055,0.58,0.248,0.58,0.58c-0.332,5.297-0.497,10.428-0.497,15.395
		c0,2.205,0.026,4.439,0.083,6.703c0.055,2.26,0.137,4.494,0.248,6.703c0,0.332-0.193,0.523-0.579,0.58
		c-0.388,0.055-0.636-0.084-0.745-0.414c-0.441-2.43-1.076-4.361-1.903-5.793c-0.827-1.436-2.622-2.152-5.38-2.152H66.207
		c-3.752,0-6.566,0.828-8.441,2.482c-1.878,1.656-3.145,4.357-3.807,8.111L52.635,368.779z"/>
</g>
</svg>
