<?xml version="1.0" encoding="utf-8"?>
<!-- Generator: Adobe Illustrator 16.0.3, SVG Export Plug-In . SVG Version: 6.00 Build 0)  -->
<!DOCTYPE svg PUBLIC "-//W3C//DTD SVG 1.1//EN" "http://www.w3.org/Graphics/SVG/1.1/DTD/svg11.dtd">
<svg version="1.1" id="Layer_1" xmlns="http://www.w3.org/2000/svg" xmlns:xlink="http://www.w3.org/1999/xlink" x="0px" y="0px"
	 width="184.725px" height="615.074px" viewBox="0 0 184.725 615.074" enable-background="new 0 0 184.725 615.074"
	 xml:space="preserve">
<g enable-background="new    ">
	<path fill="#FFFFFF" d="M66.373,47.918c-3.202-2.043-5.933-4.635-8.193-7.779c-2.263-3.145-4.029-6.621-5.297-10.428
		c-1.27-3.807-1.903-7.423-1.903-10.842c0-1.655,0.191-3.393,0.579-5.214c0.386-1.821,1.019-3.476,1.903-4.966
		c0.882-1.49,2.013-2.705,3.394-3.642c1.378-0.938,3.116-1.407,5.214-1.407c1.324,0,2.648,0.137,3.973,0.414
		c1.324,0.274,2.592,0.522,3.807,0.745l3.973,0.828c0.331,0,0.497,0.22,0.497,0.662c0,0.439-0.166,0.662-0.497,0.662h-2.482
		c-2.317,0-4.36,0.497-6.125,1.49c-1.766,0.993-3.284,2.26-4.552,3.807c-1.27,1.544-2.208,3.336-2.813,5.38
		c-0.608,2.041-0.91,4.109-0.91,6.207c0,1.986,0.331,4.027,0.993,6.125c0.662,2.095,1.626,3.998,2.896,5.71
		c1.267,1.709,2.813,3.116,4.635,4.221c1.82,1.102,3.833,1.655,6.041,1.655c2.095,0,4.164-0.497,6.207-1.49
		c2.041-0.993,4.11-2.317,6.207-3.973c2.096-1.655,4.193-3.533,6.29-5.627c2.095-2.098,4.192-4.25,6.289-6.456
		c2.207-2.317,4.441-4.635,6.705-6.952c2.26-2.317,4.577-4.36,6.951-6.125c2.371-1.766,4.771-3.202,7.2-4.303
		c2.427-1.104,4.909-1.655,7.448-1.655c3.75,0,6.979,1.047,9.684,3.145c2.703,2.095,4.908,4.689,6.621,7.779
		c1.709,3.088,2.979,6.456,3.807,10.097c0.828,3.642,1.242,7.006,1.242,10.097c0,4.413-0.554,8.442-1.656,12.083
		c-0.222,0.331-0.441,0.497-0.662,0.497c-5.407-0.442-10.98-1.104-16.717-1.986c-0.332-0.111-0.497-0.331-0.497-0.662
		s0.165-0.554,0.497-0.662c3.861-0.885,7.172-2.565,9.932-5.048c2.756-2.483,4.137-5.768,4.137-9.849
		c0-4.195-1.352-7.697-4.055-10.511c-2.705-2.814-6.152-4.221-10.346-4.221c-2.208,0-4.249,0.468-6.124,1.407
		c-1.878,0.936-3.698,2.152-5.462,3.642c-1.767,1.489-3.505,3.228-5.215,5.214c-1.711,1.986-3.449,4.027-5.213,6.125
		c-1.878,2.317-3.836,4.606-5.877,6.869c-2.043,2.26-4.195,4.275-6.455,6.042c-2.263,1.764-4.662,3.199-7.2,4.304
		c-2.539,1.102-5.296,1.655-8.275,1.655C73.102,50.981,69.572,49.959,66.373,47.918z"/>
	<path fill="#FFFFFF" d="M135.892,133.74c-2.871-0.111-5.52-0.496-7.945-1.158c-0.331-0.111-0.497-0.33-0.497-0.662
		c0-0.223,0.166-0.389,0.497-0.496c3.861-0.885,6.427-2.623,7.696-5.215c1.268-2.594,1.904-5.656,1.904-9.186v-14.566h-71.01
		c-3.201,0-5.904,0.992-8.11,2.979c-2.209,1.986-3.587,4.523-4.138,7.615c-0.111,0.33-0.359,0.469-0.745,0.414
		c-0.388-0.057-0.579-0.248-0.579-0.58c0.22-2.871,0.413-5.684,0.579-8.441c0.165-2.76,0.248-5.574,0.248-8.442
		c0-2.208-0.057-4.36-0.165-6.456c-0.111-2.097-0.277-4.249-0.497-6.455c-0.111-0.331,0.055-0.525,0.497-0.58
		c0.439-0.057,0.716,0.083,0.827,0.414c0.439,1.875,0.91,3.336,1.407,4.386c0.496,1.047,1.13,1.847,1.903,2.4
		c0.771,0.551,1.792,0.882,3.063,0.993c1.267,0.109,2.84,0.166,4.717,0.166h71.837V71.007c0-2.648-0.885-4.966-2.648-6.952
		c-1.766-1.986-3.807-3.422-6.124-4.304c-0.331-0.111-0.442-0.331-0.331-0.662c0.108-0.331,0.331-0.497,0.662-0.497l2.152-0.331
		c1.764,0,3.447,0.22,5.048,0.662c1.599,0.439,3.171,0.882,4.718,1.324c0.771,0.22,1.516,0.439,2.234,0.662
		c0.717,0.22,1.461,0.439,2.234,0.662c0.551,0.22,0.662,0.551,0.331,0.993c-1.104,1.655-1.795,3.336-2.069,5.048
		c-0.276,1.709-0.414,3.559-0.414,5.545v52.968c0,1.213,0.275,2.758,0.828,4.635c0.109,0.439,0.22,0.828,0.331,1.158
		c0.108,0.332,0.22,0.717,0.331,1.158l-0.662,0.828C141.464,133.906,138.76,133.85,135.892,133.74z"/>
	<path fill="#FFFFFF" d="M53.297,218.241c0.108-1.382,0.22-2.843,0.331-4.387c0.108-0.885,0.191-1.795,0.248-2.731
		c0.055-0.938,0.083-1.903,0.083-2.896c0-2.54-0.111-5.077-0.331-7.614c-0.223-2.539-0.442-5.076-0.662-7.614
		c0-0.33,0.165-0.553,0.496-0.661c0.331-0.111,0.605,0,0.828,0.331l3.145,6.455c5.186-1.878,10.288-3.836,15.312-5.876
		c5.02-2.043,10.18-4.001,15.476-5.876v-25.656c-1.435-0.554-3.559-1.353-6.372-2.4c-2.814-1.05-5.739-2.069-8.773-3.063
		c-3.036-0.993-5.904-1.877-8.606-2.648c-2.706-0.772-4.663-1.158-5.876-1.158c-1.655,0-2.731,0.717-3.229,2.151
		c-0.496,1.434-0.855,2.814-1.075,4.139h-1.324c0.22-2.098,0.413-4.249,0.579-6.456c0.165-2.208,0.248-4.414,0.248-6.62
		c0-2.209-0.083-4.415-0.248-6.621c-0.166-2.209-0.359-4.415-0.579-6.621c-0.111-0.331,0.054-0.525,0.496-0.579
		c0.439-0.058,0.717,0.082,0.828,0.413c0.771,6.067,3.973,10.317,9.6,12.746h-0.165c8.054,3.199,16.11,6.289,24.166,9.269
		c8.054,2.979,16.165,5.902,24.332,8.773c5.517,1.986,11.007,3.915,16.47,5.793c5.462,1.875,10.95,3.861,16.469,5.959
		c0.332,0.108,0.497,0.331,0.497,0.662s-0.165,0.551-0.497,0.662c-1.546,0.551-3.062,1.13-4.551,1.738
		c-1.49,0.604-3.008,1.185-4.553,1.737c-12.359,4.523-24.773,9.241-37.242,14.152c-12.471,4.909-24.663,10.511-36.58,16.801
		c-2.54,1.324-4.361,3.006-5.463,5.049c-1.104,2.04-1.767,4.386-1.986,7.034h-1.324C53.239,221.081,53.185,219.619,53.297,218.241z
		 M128.112,174.625c-5.85-1.877-11.561-3.67-17.131-5.379c-5.574-1.712-11.339-3.616-17.297-5.711v21.353L128.112,174.625z"/>
	<path fill="#FFFFFF" d="M68.193,289.91c-3.311-1.601-6.124-3.724-8.441-6.372s-4.112-5.711-5.38-9.187
		c-1.27-3.477-1.903-7.146-1.903-11.008c0-2.648,0-5.297,0-7.945c0-2.539,0.055-5.131,0.166-7.779
		c0.108-2.648,0.165-5.297,0.165-7.945c0-2.54,0-5.131,0-7.779c0-0.331,0.191-0.525,0.579-0.579
		c0.386-0.058,0.634,0.082,0.745,0.413c0.662,1.875,1.268,3.365,1.821,4.47c0.551,1.102,1.241,1.903,2.068,2.399
		c0.828,0.497,1.875,0.8,3.146,0.911c1.267,0.108,2.84,0.165,4.717,0.165h69.023c1.433,0,2.537-0.14,3.311-0.414
		c0.771-0.276,1.324-0.607,1.654-0.993c0.332-0.388,0.552-0.855,0.662-1.406c0.109-0.554,0.221-1.159,0.332-1.821
		c0.108-0.884,0.273-1.795,0.496-2.73c0.221-0.939,0.771-1.684,1.655-2.235c0.22-0.222,0.468-0.248,0.745-0.082
		c0.273,0.165,0.357,0.413,0.248,0.744c-0.331,1.213-0.553,2.4-0.662,3.56c-0.111,1.158-0.166,2.343-0.166,3.559
		c0,1.655,0.055,3.336,0.166,5.048c0.109,1.71,0.274,3.448,0.496,5.214c0.221,1.655,0.386,3.311,0.497,4.966
		c0.108,1.655,0.165,3.311,0.165,4.966c0,2.868-0.413,5.794-1.24,8.773c-0.828,2.979-2.044,5.71-3.643,8.193
		c-1.601,2.482-3.615,4.523-6.041,6.124c-2.429,1.599-5.297,2.4-8.607,2.4c-4.084,0-7.862-1.133-11.338-3.394
		c-3.477-2.263-6.539-4.829-9.188-7.697c-1.877,5.737-4.965,10.482-9.27,14.235c-4.303,3.75-9.6,5.628-15.889,5.628
		C75.2,292.311,71.504,291.509,68.193,289.91z M87.063,278.903c3.199-1.655,5.793-3.89,7.779-6.704
		c1.986-2.813,3.447-6.016,4.387-9.601c0.936-3.587,1.461-7.365,1.572-11.338H66.207c-1.435,0-2.73,0.439-3.89,1.324
		c-1.158,0.882-2.151,1.986-2.979,3.311c-0.827,1.324-1.464,2.73-1.903,4.221c-0.442,1.489-0.662,2.896-0.662,4.221
		c0,2.537,0.522,4.854,1.572,6.952c1.048,2.095,2.455,3.89,4.221,5.38c1.765,1.489,3.779,2.648,6.042,3.476
		c2.261,0.827,4.606,1.241,7.035,1.241C80.054,281.386,83.861,280.559,87.063,278.903z M129.519,272.116
		c2.041-0.662,3.861-1.629,5.462-2.896c1.6-1.27,2.869-2.842,3.808-4.717c0.937-1.878,1.407-4.03,1.407-6.456
		c0-1.104-0.111-2.208-0.332-3.311c-0.222-1.104-0.496-2.208-0.827-3.311h-33.104v0.497c0,3.199,0.22,6.096,0.662,8.689
		c0.439,2.592,1.296,4.826,2.565,6.704c1.268,1.875,3.005,3.311,5.214,4.304c2.207,0.993,5.131,1.489,8.773,1.489
		C125.352,273.109,127.476,272.778,129.519,272.116z"/>
	<path fill="#FFFFFF" d="M52.883,324.669c0.055-2.044,0.083-4.112,0.083-6.208c0-2.979-0.028-5.904-0.083-8.772
		c-0.057-2.871-0.14-5.793-0.248-8.772c0-0.331,0.191-0.525,0.579-0.579c0.386-0.058,0.634,0.082,0.745,0.413
		c0.993,2.758,2.509,4.772,4.552,6.042c2.04,1.268,4.495,1.903,7.365,1.903h68.692c2.537,0,4.304-0.855,5.296-2.565
		c0.994-1.712,1.656-3.725,1.986-6.042c0.109-0.331,0.357-0.471,0.746-0.413c0.385,0.054,0.578,0.248,0.578,0.579
		c-0.222,2.317-0.387,4.635-0.496,6.952c-0.111,2.317-0.166,4.688-0.166,7.117c0,2.317,0.055,4.635,0.166,6.952
		c0.109,2.317,0.331,4.578,0.662,6.786c0.109,0.331-0.057,0.551-0.496,0.662c-0.442,0.108-0.719,0-0.828-0.331
		c-0.553-2.429-1.215-4.386-1.986-5.876c-0.773-1.489-2.594-2.234-5.462-2.234H66.373c-4.195,0-7.2,0.799-9.021,2.4
		c-1.82,1.598-2.896,4.386-3.228,8.358H52.8C52.8,328.832,52.826,326.709,52.883,324.669z"/>
	<path fill="#FFFFFF" d="M69.021,395.346c-0.331-0.057-0.662-0.082-0.993-0.082c-2.429-0.223-4.774-0.471-7.035-0.745
		c-2.263-0.277-4.497-0.968-6.703-2.069c-0.111,0.108-0.331,0.166-0.662,0.166s-0.662-0.331-0.993-0.993
		c0.439-4.415,0.744-8.802,0.91-13.159c0.165-4.36,0.248-8.802,0.248-13.325c0-3.642-0.057-7.283-0.165-10.924
		c-0.111-3.642-0.223-7.283-0.331-10.925c0-0.554-0.028-1.133-0.083-1.738c-0.057-0.607-0.083-1.188-0.083-1.738
		c0-0.331,0.22-0.496,0.662-0.496c0.439,0,0.662,0.165,0.662,0.496c0.108,1.213,0.551,2.317,1.324,3.311
		c0.771,0.993,1.738,1.821,2.896,2.483c1.159,0.662,2.4,1.158,3.725,1.489s2.482,0.497,3.476,0.497h67.368
		c2.648,0,4.743-0.885,6.29-2.648c1.544-1.767,2.371-3.973,2.482-6.621h1.324c-0.111,2.095-0.166,4.138-0.166,6.124s0,4.027,0,6.125
		c0,5.736,0.166,11.586,0.497,17.545c0,0.331-0.194,0.522-0.579,0.579c-0.389,0.055-0.637-0.082-0.745-0.413
		c-0.442-2.317-1.464-4.415-3.062-6.29c-1.602-1.878-3.559-2.814-5.877-2.814H71.835c-4.635,0-8.193,1.462-10.676,4.387
		c-2.483,2.923-3.725,6.538-3.725,10.842c0,4.192,1.185,8.054,3.559,11.587c2.372,3.53,5.488,6.232,9.353,8.11l-0.331,1.324
		C69.683,395.429,69.352,395.4,69.021,395.346z"/>
	<path fill="#FFFFFF" d="M52.883,427.788c0.055-2.044,0.083-4.112,0.083-6.208c0-2.979-0.028-5.904-0.083-8.772
		c-0.057-2.871-0.14-5.793-0.248-8.772c0-0.331,0.191-0.525,0.579-0.579c0.386-0.058,0.634,0.082,0.745,0.413
		c0.993,2.758,2.509,4.772,4.552,6.042c2.04,1.268,4.495,1.903,7.365,1.903h68.692c2.537,0,4.304-0.855,5.296-2.565
		c0.994-1.712,1.656-3.725,1.986-6.042c0.109-0.331,0.357-0.471,0.746-0.413c0.385,0.054,0.578,0.248,0.578,0.579
		c-0.222,2.317-0.387,4.635-0.496,6.952c-0.111,2.317-0.166,4.688-0.166,7.117c0,2.317,0.055,4.635,0.166,6.952
		c0.109,2.317,0.331,4.578,0.662,6.786c0.109,0.331-0.057,0.551-0.496,0.662c-0.442,0.108-0.719,0-0.828-0.331
		c-0.553-2.429-1.215-4.386-1.986-5.876c-0.773-1.489-2.594-2.234-5.462-2.234H66.373c-4.195,0-7.2,0.799-9.021,2.4
		c-1.82,1.598-2.896,4.386-3.228,8.358H52.8C52.8,431.951,52.826,429.828,52.883,427.788z"/>
	<path fill="#FFFFFF" d="M135.892,516.921c-2.871-0.111-5.52-0.496-7.945-1.158c-0.331-0.111-0.497-0.331-0.497-0.662
		c0-0.223,0.166-0.389,0.497-0.497c3.861-0.885,6.427-2.622,7.696-5.214c1.268-2.594,1.904-5.656,1.904-9.187v-14.566h-71.01
		c-3.201,0-5.904,0.993-8.11,2.979c-2.209,1.986-3.587,4.523-4.138,7.614c-0.111,0.331-0.359,0.469-0.745,0.414
		c-0.388-0.057-0.579-0.248-0.579-0.579c0.22-2.871,0.413-5.685,0.579-8.442c0.165-2.759,0.248-5.573,0.248-8.441
		c0-2.209-0.057-4.36-0.165-6.455c-0.111-2.098-0.277-4.25-0.497-6.456c-0.111-0.331,0.055-0.524,0.497-0.579
		c0.439-0.057,0.716,0.083,0.827,0.414c0.439,1.875,0.91,3.336,1.407,4.386c0.496,1.048,1.13,1.847,1.903,2.4
		c0.771,0.551,1.792,0.882,3.063,0.993c1.267,0.108,2.84,0.166,4.717,0.166h71.837v-19.863c0-2.648-0.885-4.966-2.648-6.952
		c-1.766-1.986-3.807-3.422-6.124-4.304c-0.331-0.11-0.442-0.331-0.331-0.662c0.108-0.331,0.331-0.496,0.662-0.496l2.152-0.331
		c1.764,0,3.447,0.22,5.048,0.662c1.599,0.439,3.171,0.882,4.718,1.324c0.771,0.22,1.516,0.439,2.234,0.662
		c0.717,0.22,1.461,0.439,2.234,0.662c0.551,0.22,0.662,0.551,0.331,0.993c-1.104,1.655-1.795,3.336-2.069,5.048
		c-0.276,1.71-0.414,3.56-0.414,5.546v52.967c0,1.213,0.275,2.758,0.828,4.635c0.109,0.439,0.22,0.828,0.331,1.159
		c0.108,0.331,0.22,0.716,0.331,1.158l-0.662,0.828C141.464,517.087,138.76,517.029,135.892,516.921z"/>
	<path fill="#FFFFFF" d="M137.465,605.061c-2.263-2.482-5.022-5.131-8.276-7.945c-3.256-2.813-6.76-5.602-10.511-8.358
		c-3.753-2.76-7.448-5.214-11.09-7.366c-3.642-2.151-7.009-3.918-10.097-5.297c-3.091-1.381-5.574-2.068-7.448-2.068H62.896
		c-1.323,0-2.456,0.385-3.393,1.158c-0.939,0.771-1.767,1.71-2.483,2.814c-0.719,1.102-1.298,2.317-1.737,3.642
		c-0.442,1.324-0.773,2.537-0.993,3.642c-0.111,0.33-0.359,0.468-0.745,0.413c-0.388-0.057-0.579-0.248-0.579-0.579
		c0.108-2.209,0.165-4.469,0.165-6.786c0-2.209,0-4.415,0-6.621c0-2.871,0-5.685,0-8.441c0-2.648-0.111-5.354-0.331-8.111
		c0-0.331,0.166-0.524,0.497-0.579c0.331-0.057,0.604,0.083,0.827,0.414c0.771,1.875,1.93,3.559,3.477,5.048
		c1.544,1.49,3.364,2.235,5.462,2.235h25.159c1.544,0,3.861-0.72,6.951-2.152c3.089-1.436,6.564-3.311,10.429-5.628
		c3.861-2.317,7.834-4.883,11.917-7.696c4.082-2.814,7.863-5.603,11.339-8.359c3.476-2.76,6.399-5.354,8.772-7.779
		c2.372-2.429,3.779-4.36,4.221-5.794c0.109-0.331,0.357-0.471,0.746-0.413c0.385,0.054,0.578,0.248,0.578,0.579
		c-0.222,2.648-0.413,5.157-0.578,7.531c-0.166,2.372-0.249,4.826-0.249,7.366c0,3.088,0.165,6.289,0.497,9.6
		c0,0.331-0.141,0.551-0.414,0.662c-0.277,0.109-0.525,0.055-0.745-0.165c-0.11-0.111-0.11-0.14,0-0.083
		c0.108,0.055,0.108,0.026,0-0.083c-0.554-0.662-1.104-1.298-1.655-1.903c-0.553-0.607-1.158-0.91-1.82-0.91
		c-0.773,0-2.788,0.882-6.042,2.648c-3.256,1.764-6.952,3.861-11.09,6.29c-4.138,2.426-8.305,4.908-12.497,7.448
		c-4.195,2.537-7.561,4.578-10.098,6.124c1.214,0.662,2.98,1.71,5.297,3.146c2.318,1.433,4.801,2.922,7.449,4.469
		c2.317,1.324,4.854,2.814,7.613,4.47c2.758,1.655,5.435,3.199,8.029,4.634c2.591,1.434,4.883,2.62,6.869,3.56
		c1.986,0.936,3.311,1.406,3.973,1.406c0.992,0,1.82-0.305,2.482-0.91c0.662-0.607,1.213-1.353,1.654-2.234
		c0.221-0.331,0.523-0.442,0.911-0.331c0.386,0.108,0.522,0.331,0.413,0.662c-0.33,1.433-0.553,2.951-0.662,4.552
		c-0.11,1.599-0.165,3.171-0.165,4.718c0,2.095,0.055,4.138,0.165,6.124c0.109,1.986,0.275,3.916,0.497,5.793
		c0,0.221,0.026,0.497,0.083,0.828c0.055,0.331,0.082,0.605,0.082,0.827l-1.324,0.166
		C141.188,609.667,139.725,607.544,137.465,605.061z"/>
</g>
</svg>
