<?xml version="1.0" encoding="utf-8"?>
<!-- Generator: Adobe Illustrator 16.0.3, SVG Export Plug-In . SVG Version: 6.00 Build 0)  -->
<!DOCTYPE svg PUBLIC "-//W3C//DTD SVG 1.1//EN" "http://www.w3.org/Graphics/SVG/1.1/DTD/svg11.dtd">
<svg version="1.1" id="Layer_1" xmlns="http://www.w3.org/2000/svg" xmlns:xlink="http://www.w3.org/1999/xlink" x="0px" y="0px"
	 width="184.725px" height="681.783px" viewBox="0 0 184.725 681.783" enable-background="new 0 0 184.725 681.783"
	 xml:space="preserve">
<g enable-background="new    ">
	<path fill="#FFFFFF" d="M66.373,47.918c-3.202-2.043-5.933-4.635-8.193-7.779c-2.263-3.145-4.029-6.621-5.297-10.428
		c-1.27-3.807-1.903-7.423-1.903-10.842c0-1.655,0.191-3.393,0.579-5.214c0.386-1.821,1.019-3.476,1.903-4.966
		c0.882-1.49,2.013-2.705,3.394-3.642c1.378-0.938,3.116-1.407,5.214-1.407c1.324,0,2.648,0.137,3.973,0.414
		c1.324,0.274,2.592,0.522,3.807,0.745l3.973,0.828c0.331,0,0.497,0.22,0.497,0.662c0,0.439-0.166,0.662-0.497,0.662h-2.482
		c-2.317,0-4.36,0.497-6.125,1.49c-1.766,0.993-3.284,2.26-4.552,3.807c-1.27,1.544-2.208,3.336-2.813,5.38
		c-0.608,2.041-0.91,4.109-0.91,6.207c0,1.986,0.331,4.027,0.993,6.125c0.662,2.095,1.626,3.998,2.896,5.71
		c1.267,1.709,2.813,3.116,4.635,4.221c1.82,1.102,3.833,1.655,6.041,1.655c2.095,0,4.164-0.497,6.207-1.49
		c2.041-0.993,4.11-2.317,6.207-3.973c2.096-1.655,4.193-3.533,6.29-5.627c2.095-2.098,4.192-4.25,6.289-6.456
		c2.207-2.317,4.441-4.635,6.705-6.952c2.26-2.317,4.577-4.36,6.951-6.125c2.371-1.766,4.771-3.202,7.2-4.303
		c2.427-1.104,4.909-1.655,7.448-1.655c3.75,0,6.979,1.047,9.684,3.145c2.703,2.095,4.908,4.689,6.621,7.779
		c1.709,3.088,2.979,6.456,3.807,10.097c0.828,3.642,1.242,7.006,1.242,10.097c0,4.413-0.554,8.442-1.656,12.083
		c-0.222,0.331-0.441,0.497-0.662,0.497c-5.407-0.442-10.98-1.104-16.717-1.986c-0.332-0.111-0.497-0.331-0.497-0.662
		s0.165-0.554,0.497-0.662c3.861-0.885,7.172-2.565,9.932-5.048c2.756-2.483,4.137-5.768,4.137-9.849
		c0-4.195-1.352-7.697-4.055-10.511c-2.705-2.814-6.152-4.221-10.346-4.221c-2.208,0-4.249,0.468-6.124,1.407
		c-1.878,0.936-3.698,2.152-5.462,3.642c-1.767,1.489-3.505,3.228-5.215,5.214c-1.711,1.986-3.449,4.027-5.213,6.125
		c-1.878,2.317-3.836,4.606-5.877,6.869c-2.043,2.26-4.195,4.275-6.455,6.042c-2.263,1.764-4.662,3.199-7.2,4.304
		c-2.539,1.102-5.296,1.655-8.275,1.655C73.102,50.981,69.572,49.959,66.373,47.918z"/>
	<path fill="#FFFFFF" d="M135.892,133.74c-2.871-0.111-5.52-0.496-7.945-1.158c-0.331-0.111-0.497-0.33-0.497-0.662
		c0-0.223,0.166-0.389,0.497-0.496c3.861-0.885,6.427-2.623,7.696-5.215c1.268-2.594,1.904-5.656,1.904-9.186v-14.566h-71.01
		c-3.201,0-5.904,0.992-8.11,2.979c-2.209,1.986-3.587,4.523-4.138,7.615c-0.111,0.33-0.359,0.469-0.745,0.414
		c-0.388-0.057-0.579-0.248-0.579-0.58c0.22-2.871,0.413-5.684,0.579-8.441c0.165-2.76,0.248-5.574,0.248-8.442
		c0-2.208-0.057-4.36-0.165-6.456c-0.111-2.097-0.277-4.249-0.497-6.455c-0.111-0.331,0.055-0.525,0.497-0.58
		c0.439-0.057,0.716,0.083,0.827,0.414c0.439,1.875,0.91,3.336,1.407,4.386c0.496,1.047,1.13,1.847,1.903,2.4
		c0.771,0.551,1.792,0.882,3.063,0.993c1.267,0.109,2.84,0.166,4.717,0.166h71.837V71.007c0-2.648-0.885-4.966-2.648-6.952
		c-1.766-1.986-3.807-3.422-6.124-4.304c-0.331-0.111-0.442-0.331-0.331-0.662c0.108-0.331,0.331-0.497,0.662-0.497l2.152-0.331
		c1.764,0,3.447,0.22,5.048,0.662c1.599,0.439,3.171,0.882,4.718,1.324c0.771,0.22,1.516,0.439,2.234,0.662
		c0.717,0.22,1.461,0.439,2.234,0.662c0.551,0.22,0.662,0.551,0.331,0.993c-1.104,1.655-1.795,3.336-2.069,5.048
		c-0.276,1.709-0.414,3.559-0.414,5.545v52.968c0,1.213,0.275,2.758,0.828,4.635c0.109,0.439,0.22,0.828,0.331,1.158
		c0.108,0.332,0.22,0.717,0.331,1.158l-0.662,0.828C141.464,133.906,138.76,133.85,135.892,133.74z"/>
	<path fill="#FFFFFF" d="M51.393,226.02c-0.497-2.044-0.745-4.056-0.745-6.042c0-3.311,0.604-6.29,1.82-8.938
		c1.213-2.648,2.757-5.022,4.635-7.117c1.875-2.098,4.027-4.056,6.455-5.876c2.427-1.821,4.909-3.559,7.449-5.214
		c2.317-1.547,4.606-3.174,6.869-4.883c2.261-1.713,4.304-3.588,6.124-5.628c1.821-2.044,3.282-4.25,4.387-6.621
		c1.102-2.374,1.655-5.049,1.655-8.028c0-0.884,0-1.767,0-2.648c0-0.773-0.111-1.601-0.331-2.482H66.207
		c-3.201,0-5.933,0.965-8.193,2.896c-2.263,1.93-3.559,4.495-3.89,7.697H52.8c0.22-2.54,0.414-5.049,0.579-7.531
		c0.166-2.483,0.249-4.994,0.249-7.531c0-2.54-0.111-4.994-0.331-7.366c-0.223-2.374-0.497-4.829-0.828-7.366
		c-0.111-0.331,0.026-0.579,0.414-0.744c0.386-0.166,0.688-0.083,0.91,0.248c1.102,2.317,2.757,4.247,4.966,5.793
		c2.206,1.544,4.578,2.317,7.117,2.317h66.044c2.537,0,4.771-0.91,6.704-2.73c1.929-1.821,3.227-4.002,3.889-6.539
		c0.109-0.331,0.357-0.471,0.746-0.413c0.385,0.054,0.578,0.248,0.578,0.579v32.608c0,3.419-0.413,6.786-1.24,10.097
		c-0.828,3.311-2.127,6.233-3.891,8.772c-1.766,2.537-4.084,4.578-6.951,6.125c-2.871,1.544-6.291,2.317-10.264,2.317
		c-5.297,0-10.318-1.464-15.063-4.387c-4.746-2.925-8.829-6.207-12.248-9.849c-1.324,1.213-3.008,2.537-5.048,3.973
		c-2.044,1.433-4.167,2.979-6.373,4.635c-3.311,2.426-6.704,4.991-10.18,7.696c-3.476,2.703-6.621,5.545-9.435,8.524
		c-2.814,2.979-5.022,6.067-6.621,9.27c-1.601,3.199-2.181,6.455-1.738,9.766l-1.324,0.497
		C52.577,230.018,51.889,228.06,51.393,226.02z M123.974,188.776c2.868-0.827,5.462-2.069,7.78-3.725
		c2.316-1.655,4.221-3.698,5.71-6.124c1.489-2.429,2.234-5.242,2.234-8.441c0-1.324-0.083-2.648-0.248-3.973
		s-0.524-2.594-1.076-3.808H97.159c-0.33,1.875-0.553,3.696-0.662,5.463c-0.11,1.764-0.165,3.584-0.165,5.462
		c0,6.179,1.681,10.454,5.049,12.828c3.364,2.372,8.028,3.559,13.987,3.559C118.235,190.018,121.104,189.604,123.974,188.776z"/>
	<path fill="#FFFFFF" d="M61.49,291.814c-2.374-0.331-4.829-0.662-7.366-0.993c-0.331,0-0.496-0.223-0.496-0.662l-0.166-0.166
		c-0.331-0.885-0.496-1.601-0.496-2.151c0-2.54,0.025-5.105,0.082-7.697c0.055-2.594,0.083-5.159,0.083-7.696
		c0-2.209,0.026-4.361,0.083-6.456c0.055-2.098,0.083-4.249,0.083-6.455c0-2.979-0.028-5.987-0.083-9.021
		c-0.057-3.036-0.14-6.041-0.248-9.021h1.324c0,1.655,0.356,3.005,1.075,4.056c0.717,1.047,1.627,1.846,2.731,2.399
		c1.102,0.551,2.344,0.91,3.725,1.076c1.378,0.165,2.785,0.248,4.221,0.248h68.857c2.206,0,3.641-0.524,4.303-1.572
		c0.662-1.05,1.214-2.181,1.656-3.394c0.22-0.662,0.468-1.406,0.744-2.234c0.274-0.827,0.688-1.684,1.242-2.565
		c0.219-0.223,0.468-0.306,0.744-0.248c0.274,0.054,0.414,0.248,0.414,0.579v47.174c0.22,0.44,0.414,0.911,0.58,1.407
		c0.165,0.497,0.356,0.965,0.578,1.407c0.221,0.551,0,0.827-0.662,0.827c-2.87-0.331-5.545-0.745-8.027-1.241
		s-4.994-1.021-7.531-1.572c-0.331-0.111-0.471-0.359-0.414-0.745c0.055-0.388,0.248-0.579,0.58-0.579
		c3.861-0.223,6.398-1.547,7.613-3.973c1.213-2.429,1.82-5.408,1.82-8.938V260.53h-33.932v19.2c0,0.552,0.166,1.268,0.496,2.152
		c0.332,0.882,0.662,1.764,0.994,2.648c0.662,1.213,1.158,2.426,1.489,3.642c0.22,0.551,0,0.827-0.662,0.827
		c-1.324-0.111-2.76-0.248-4.304-0.413c-1.547-0.166-2.979-0.36-4.304-0.58c-1.324-0.222-2.705-0.388-4.138-0.496
		c-1.436-0.111-2.814-0.277-4.138-0.497c-0.331,0-0.554-0.14-0.662-0.413c-0.111-0.277-0.057-0.525,0.165-0.745
		c0.551-0.554,1.103-0.91,1.655-1.076c0.551-0.165,1.159-0.359,1.821-0.579c0.662-0.223,1.324-0.442,1.985-0.662
		c0.662-0.223,1.268-0.607,1.821-1.159c0.551-0.553,0.965-1.572,1.241-3.062c0.274-1.49,0.497-3.091,0.662-4.801
		c0.165-1.712,0.248-3.393,0.248-5.048s0-2.926,0-3.808v-4.966H64.883c-2.428,1.655-4.277,3.999-5.545,7.035
		c-1.27,3.034-1.903,5.984-1.903,8.855c0,3.861,1.02,7.144,3.063,9.849c2.04,2.703,4.938,4.495,8.689,5.38l-0.331,1.324
		C66.316,292.585,63.861,292.146,61.49,291.814z"/>
	<path fill="#FFFFFF" d="M141.934,397.168c0.054-0.057,0.025-0.193-0.084-0.413c-0.441-1.547-0.992-3.174-1.654-4.883
		c-0.662-1.713-1.821-2.566-3.477-2.566l-39.891,0.166h-6.786c-6.401,0-12.72-0.111-18.952-0.331
		c-6.236-0.223-12.497-0.608-18.787-1.159c-0.223,0-0.414-0.14-0.58-0.413c-0.165-0.277-0.14-0.525,0.083-0.745
		c4.523-5.297,9.406-10.594,14.649-15.891c5.239-5.297,10.593-10.511,16.056-15.642c5.462-5.131,10.978-10.18,16.552-15.146
		c5.57-4.966,11.008-9.712,16.305-14.235c1.654-1.546,3.227-2.925,4.717-4.138c1.49-1.216,3.063-2.594,4.717-4.138
		c-2.979-0.331-5.85-0.497-8.607-0.497c-4.194,0-8.387,0.055-12.579,0.166c-4.194,0.108-8.388,0.273-12.58,0.496
		c-4.195,0.22-8.387,0.386-12.58,0.497c-4.195,0.108-8.441,0.165-12.745,0.165c-1.878,0-3.394,0.165-4.552,0.496
		c-1.159,0.331-2.069,0.745-2.731,1.242c-0.662,0.496-1.133,1.102-1.407,1.82c-0.276,0.717-0.471,1.461-0.579,2.234
		c-0.223,0.882-0.471,1.765-0.745,2.648c-0.276,0.882-0.855,1.93-1.737,3.146c-0.223,0.22-0.471,0.303-0.745,0.248
		c-0.276-0.057-0.414-0.248-0.414-0.579c0.108-1.104,0.22-2.181,0.331-3.228c0.108-1.051,0.22-2.126,0.331-3.229
		c0.22-1.546,0.386-3.119,0.497-4.717c0.108-1.602,0.165-3.174,0.165-4.718c0-1.986-0.14-4.029-0.414-6.124
		c-0.276-2.098-0.579-4.195-0.91-6.29c-0.111-0.331,0-0.579,0.331-0.745c0.331-0.165,0.605-0.14,0.828,0.083
		c0.771,0.882,1.378,1.681,1.82,2.4c0.439,0.716,0.828,1.406,1.159,2.068c0.662,1.324,1.572,2.509,2.73,3.559
		c1.159,1.048,3.006,1.573,5.545,1.573h77.465l2.648,1.324c0.22,0.108,0.385,0.273,0.496,0.496c0.109,0.22,0.055,0.386-0.165,0.497
		c-12.472,12.026-24.745,23.67-36.829,34.925c-12.083,11.256-24.58,22.677-37.49,34.264h0.496c5.074,0,10.098-0.028,15.063-0.083
		c4.966-0.057,10.04-0.14,15.229-0.248c4.742-0.111,9.791-0.223,15.145-0.331c5.352-0.111,10.4-0.165,15.146-0.165
		c1.875,0,3.393-0.194,4.551-0.58c1.159-0.388,2.041-0.91,2.648-1.572c0.605-0.662,1.02-1.381,1.242-2.151
		c0.22-0.773,0.385-1.547,0.496-2.317c0.109-0.885,0.248-1.684,0.414-2.4c0.166-0.719,0.522-1.353,1.076-1.903
		c0.219-0.223,0.496-0.248,0.827-0.083c0.331,0.166,0.44,0.357,0.331,0.579c-0.331,2.537-0.496,4.909-0.496,7.118
		c0,2.317,0,4.635,0,6.951c0,1.434,0.025,2.897,0.082,4.387c0.055,1.49,0.026,3.006-0.082,4.552c0,0.551-0.029,1.159-0.083,1.821
		c-0.058,0.662-0.083,1.267-0.083,1.82l-1.324,0.331C141.905,397.359,141.877,397.223,141.934,397.168z"/>
	<path fill="#FFFFFF" d="M94.428,488.785c-0.939-1.654-2.511-2.482-4.717-2.482H58.925c-0.111,0-0.277-0.111-0.497-0.331
		c-3.091-4.084-4.994-8.607-5.711-13.573c-0.719-4.966-1.075-9.877-1.075-14.731c0-7.726,1.019-14.814,3.062-21.27
		c2.041-6.455,5.075-12.029,9.104-16.718c4.026-4.691,9.129-8.333,15.311-10.925c6.179-2.594,13.407-3.89,21.684-3.89
		c7.283,0,13.738,1.296,19.365,3.89c5.629,2.592,10.346,6.15,14.152,10.677c3.808,4.523,6.676,9.819,8.607,15.89
		c1.93,6.067,2.896,12.523,2.896,19.366c0,3.861-0.248,7.723-0.744,11.587c-0.496,3.861-1.021,7.668-1.572,11.421
		c-0.223,1.544-0.414,2.979-0.58,4.304c-0.165,1.324-0.359,2.703-0.579,4.139c0,0.439-0.222,0.662-0.662,0.662
		c-2.979,0-5.821-0.223-8.524-0.662c-2.705-0.442-5.49-0.885-8.359-1.324c-0.553-0.111-1.158-0.194-1.82-0.249
		c-0.662-0.057-1.27-0.14-1.82-0.248c-0.332-0.111-0.497-0.331-0.497-0.662s0.165-0.554,0.497-0.662
		c3.529-0.662,6.563-1.82,9.104-3.476c2.537-1.655,4.635-3.725,6.29-6.207c1.655-2.483,2.868-5.243,3.642-8.276
		c0.771-3.036,1.158-6.207,1.158-9.518c0-5.628-0.938-10.87-2.814-15.725c-1.877-4.857-4.497-9.078-7.861-12.663
		c-3.367-3.587-7.395-6.401-12.084-8.441c-4.691-2.043-9.848-3.063-15.477-3.063c-6.181,0-12.028,1.131-17.545,3.394
		c-5.519,2.261-10.319,5.379-14.4,9.352c-4.083,3.973-7.312,8.634-9.683,13.987c-2.374,5.351-3.559,11.116-3.559,17.297
		c0,2.537,0.356,5.214,1.075,8.028c0.717,2.813,1.904,5.157,3.559,7.034h27.478c1.875,0,3.145-0.579,3.807-1.737
		c0.662-1.159,1.213-2.457,1.655-3.891c0.22-0.553,0.439-1.187,0.662-1.903c0.22-0.719,0.551-1.464,0.992-2.234
		c0.221-0.331,0.469-0.442,0.746-0.331c0.273,0.108,0.413,0.331,0.413,0.662c0,9.709-0.165,19.366-0.497,28.967l-1.324,0.165
		C96.055,492.316,95.364,490.44,94.428,488.785z"/>
	<path fill="#FFFFFF" d="M135.892,577.174c-2.871-0.111-5.52-0.496-7.945-1.158c-0.331-0.111-0.497-0.331-0.497-0.662
		c0-0.223,0.166-0.389,0.497-0.497c3.861-0.885,6.427-2.622,7.696-5.214c1.268-2.594,1.904-5.656,1.904-9.187V545.89h-71.01
		c-3.201,0-5.904,0.993-8.11,2.979c-2.209,1.986-3.587,4.523-4.138,7.614c-0.111,0.331-0.359,0.469-0.745,0.414
		c-0.388-0.057-0.579-0.248-0.579-0.579c0.22-2.871,0.413-5.685,0.579-8.442c0.165-2.759,0.248-5.573,0.248-8.441
		c0-2.209-0.057-4.36-0.165-6.455c-0.111-2.098-0.277-4.25-0.497-6.456c-0.111-0.331,0.055-0.524,0.497-0.579
		c0.439-0.057,0.716,0.083,0.827,0.414c0.439,1.875,0.91,3.336,1.407,4.386c0.496,1.048,1.13,1.847,1.903,2.4
		c0.771,0.551,1.792,0.882,3.063,0.993c1.267,0.108,2.84,0.166,4.717,0.166h71.837V514.44c0-2.648-0.885-4.966-2.648-6.952
		c-1.766-1.986-3.807-3.422-6.124-4.304c-0.331-0.11-0.442-0.331-0.331-0.662c0.108-0.331,0.331-0.496,0.662-0.496l2.152-0.331
		c1.764,0,3.447,0.22,5.048,0.662c1.599,0.439,3.171,0.882,4.718,1.324c0.771,0.22,1.516,0.439,2.234,0.662
		c0.717,0.22,1.461,0.439,2.234,0.662c0.551,0.22,0.662,0.551,0.331,0.993c-1.104,1.655-1.795,3.336-2.069,5.048
		c-0.276,1.71-0.414,3.56-0.414,5.546v52.967c0,1.213,0.275,2.758,0.828,4.635c0.109,0.439,0.22,0.828,0.331,1.159
		c0.108,0.331,0.22,0.716,0.331,1.158l-0.662,0.828C141.464,577.34,138.76,577.282,135.892,577.174z"/>
	<path fill="#FFFFFF" d="M52.635,677.977c0.331-5.851,0.496-11.644,0.496-17.38c0-2.098-0.028-4.167-0.083-6.207
		c-0.057-2.044-0.14-4.167-0.248-6.373c0-0.331,0.191-0.525,0.579-0.579c0.386-0.058,0.634,0.082,0.745,0.413
		c0.993,3.42,2.317,5.628,3.973,6.621s4.247,1.49,7.779,1.49h34.429v-50.816h-34.76c-6.951,0-10.759,3.585-11.421,10.76
		c0,0.331-0.223,0.496-0.662,0.496c-0.442,0-0.662-0.165-0.662-0.496c0-1.767,0-3.477,0-5.132c0-1.546-0.057-3.201-0.165-4.966
		c0-1.215-0.028-2.622-0.083-4.221c-0.057-1.601-0.083-3.008-0.083-4.221c0-1.324,0-2.705,0-4.138c0-1.436,0.055-2.871,0.166-4.304
		c0-0.442,0.025-0.968,0.082-1.572c0.055-0.608,0.083-1.133,0.083-1.573c0-0.331,0.191-0.524,0.579-0.579
		c0.386-0.057,0.634,0.083,0.745,0.414c0.331,1.764,0.688,3.199,1.076,4.304c0.386,1.102,0.937,1.929,1.655,2.482
		c0.716,0.551,1.627,0.91,2.731,1.076c1.102,0.165,2.537,0.248,4.303,0.248h70.514c2.426,0,4.246-0.967,5.461-2.896
		c1.214-1.932,1.876-4.001,1.986-6.207h1.324c-0.33,4.635-0.496,9.212-0.496,13.738c0,1.875,0.025,3.75,0.083,5.628
		c0.054,1.875,0.083,3.75,0.083,5.628v3.476c0,0.331-0.223,0.497-0.662,0.497c-0.442,0-0.662-0.166-0.662-0.497
		c0-1.986-0.607-3.781-1.821-5.379c-1.216-1.602-2.925-2.4-5.131-2.4h-28.802v50.65h28.14c2.648,0,4.329-0.69,5.048-2.069
		c0.717-1.381,1.351-3.063,1.904-5.049c0.108-0.441,0.22-0.855,0.33-1.241c0.109-0.388,0.221-0.802,0.332-1.241
		c0.108-0.331,0.356-0.471,0.744-0.414c0.386,0.055,0.58,0.248,0.58,0.579c-0.332,5.297-0.497,10.429-0.497,15.395
		c0,2.206,0.026,4.44,0.083,6.703c0.055,2.261,0.137,4.495,0.248,6.704c0,0.331-0.193,0.522-0.579,0.579
		c-0.388,0.055-0.636-0.083-0.745-0.414c-0.441-2.429-1.076-4.36-1.903-5.793c-0.827-1.436-2.622-2.152-5.38-2.152H66.207
		c-3.752,0-6.566,0.828-8.441,2.483c-1.878,1.655-3.145,4.357-3.807,8.11L52.635,677.977z"/>
</g>
</svg>
