<?xml version="1.0" encoding="utf-8"?>
<!-- Generator: Adobe Illustrator 16.0.3, SVG Export Plug-In . SVG Version: 6.00 Build 0)  -->
<!DOCTYPE svg PUBLIC "-//W3C//DTD SVG 1.1//EN" "http://www.w3.org/Graphics/SVG/1.1/DTD/svg11.dtd">
<svg version="1.1" id="Layer_1" xmlns="http://www.w3.org/2000/svg" xmlns:xlink="http://www.w3.org/1999/xlink" x="0px" y="0px"
	 width="184.725px" height="431.843px" viewBox="0 0 184.725 431.843" enable-background="new 0 0 184.725 431.843"
	 xml:space="preserve">
<g enable-background="new    ">
	<path fill="#FFFFFF" d="M66.375,47.918c-3.202-2.043-5.933-4.635-8.193-7.779c-2.263-3.145-4.029-6.621-5.297-10.428
		c-1.27-3.807-1.903-7.423-1.903-10.842c0-1.655,0.191-3.393,0.579-5.214c0.386-1.821,1.019-3.476,1.903-4.966
		c0.882-1.49,2.013-2.705,3.394-3.642c1.378-0.938,3.116-1.407,5.214-1.407c1.324,0,2.648,0.137,3.973,0.414
		c1.324,0.274,2.592,0.522,3.807,0.745l3.973,0.828c0.331,0,0.497,0.22,0.497,0.662c0,0.439-0.166,0.662-0.497,0.662h-2.482
		c-2.317,0-4.36,0.497-6.125,1.49c-1.766,0.993-3.284,2.26-4.552,3.807c-1.27,1.544-2.208,3.336-2.813,5.38
		c-0.608,2.041-0.91,4.109-0.91,6.207c0,1.986,0.331,4.027,0.993,6.125c0.662,2.095,1.626,3.998,2.896,5.71
		c1.267,1.709,2.813,3.116,4.635,4.221c1.82,1.102,3.833,1.655,6.041,1.655c2.095,0,4.164-0.497,6.207-1.49
		c2.041-0.993,4.11-2.317,6.207-3.973c2.096-1.655,4.193-3.533,6.29-5.627c2.095-2.098,4.192-4.25,6.289-6.456
		c2.207-2.317,4.441-4.635,6.705-6.952c2.26-2.317,4.577-4.36,6.951-6.125c2.371-1.766,4.771-3.202,7.2-4.303
		c2.427-1.104,4.909-1.655,7.448-1.655c3.75,0,6.979,1.047,9.684,3.145c2.703,2.095,4.908,4.689,6.621,7.779
		c1.709,3.088,2.979,6.456,3.807,10.097c0.828,3.642,1.242,7.006,1.242,10.097c0,4.413-0.554,8.442-1.656,12.083
		c-0.222,0.331-0.441,0.497-0.662,0.497c-5.407-0.442-10.98-1.104-16.717-1.986c-0.332-0.111-0.497-0.331-0.497-0.662
		s0.165-0.554,0.497-0.662c3.861-0.885,7.172-2.565,9.932-5.048c2.756-2.483,4.137-5.768,4.137-9.849
		c0-4.195-1.352-7.697-4.055-10.511c-2.705-2.814-6.152-4.221-10.346-4.221c-2.208,0-4.249,0.468-6.124,1.407
		c-1.878,0.936-3.698,2.152-5.462,3.642c-1.767,1.489-3.505,3.228-5.215,5.214c-1.711,1.986-3.449,4.027-5.213,6.125
		c-1.878,2.317-3.836,4.606-5.877,6.869c-2.043,2.26-4.195,4.275-6.455,6.042c-2.263,1.764-4.662,3.199-7.2,4.304
		c-2.539,1.102-5.296,1.655-8.275,1.655C73.104,50.981,69.574,49.959,66.375,47.918z"/>
	<path fill="#FFFFFF" d="M135.894,133.74c-2.871-0.111-5.52-0.496-7.945-1.158c-0.331-0.111-0.497-0.33-0.497-0.662
		c0-0.223,0.166-0.389,0.497-0.496c3.861-0.885,6.427-2.623,7.696-5.215c1.268-2.594,1.904-5.656,1.904-9.186v-14.566H66.54
		c-3.201,0-5.904,0.992-8.11,2.979c-2.209,1.986-3.587,4.523-4.138,7.615c-0.111,0.33-0.359,0.469-0.745,0.414
		c-0.388-0.057-0.579-0.248-0.579-0.58c0.22-2.871,0.413-5.684,0.579-8.441c0.165-2.76,0.248-5.574,0.248-8.442
		c0-2.208-0.057-4.36-0.165-6.456c-0.111-2.097-0.277-4.249-0.497-6.455c-0.111-0.331,0.055-0.525,0.497-0.58
		c0.439-0.057,0.716,0.083,0.827,0.414c0.439,1.875,0.91,3.336,1.407,4.386c0.496,1.047,1.13,1.847,1.903,2.4
		c0.771,0.551,1.792,0.882,3.063,0.993c1.267,0.109,2.84,0.166,4.717,0.166h71.837V71.007c0-2.648-0.885-4.966-2.648-6.952
		c-1.766-1.986-3.807-3.422-6.124-4.304c-0.331-0.111-0.442-0.331-0.331-0.662c0.108-0.331,0.331-0.497,0.662-0.497l2.152-0.331
		c1.764,0,3.447,0.22,5.048,0.662c1.599,0.439,3.171,0.882,4.718,1.324c0.771,0.22,1.516,0.439,2.234,0.662
		c0.717,0.22,1.461,0.439,2.234,0.662c0.551,0.22,0.662,0.551,0.331,0.993c-1.104,1.655-1.795,3.336-2.069,5.048
		c-0.276,1.709-0.414,3.559-0.414,5.545v52.968c0,1.213,0.275,2.758,0.828,4.635c0.109,0.439,0.22,0.828,0.331,1.158
		c0.108,0.332,0.22,0.717,0.331,1.158l-0.662,0.828C141.466,133.906,138.762,133.85,135.894,133.74z"/>
	<path fill="#FFFFFF" d="M51.395,226.019c-0.497-2.043-0.745-4.055-0.745-6.041c0-3.311,0.604-6.291,1.82-8.939
		c1.213-2.648,2.757-5.022,4.635-7.117c1.875-2.098,4.027-4.056,6.455-5.876c2.427-1.821,4.909-3.559,7.449-5.214
		c2.317-1.547,4.606-3.174,6.869-4.883c2.261-1.713,4.304-3.588,6.124-5.628c1.821-2.044,3.282-4.25,4.387-6.621
		c1.102-2.374,1.655-5.049,1.655-8.028c0-0.884,0-1.767,0-2.648c0-0.773-0.111-1.601-0.331-2.482H66.209
		c-3.201,0-5.933,0.965-8.193,2.896c-2.263,1.93-3.559,4.495-3.89,7.697h-1.324c0.22-2.54,0.414-5.049,0.579-7.531
		c0.166-2.483,0.249-4.994,0.249-7.531c0-2.54-0.111-4.994-0.331-7.366c-0.223-2.374-0.497-4.829-0.828-7.366
		c-0.111-0.331,0.026-0.579,0.414-0.744c0.386-0.166,0.688-0.083,0.91,0.248c1.102,2.317,2.757,4.247,4.966,5.793
		c2.206,1.544,4.578,2.317,7.117,2.317h66.044c2.537,0,4.771-0.91,6.704-2.73c1.929-1.821,3.227-4.002,3.889-6.539
		c0.109-0.331,0.357-0.471,0.746-0.413c0.385,0.054,0.578,0.248,0.578,0.579v32.608c0,3.419-0.413,6.786-1.24,10.097
		c-0.828,3.311-2.127,6.233-3.891,8.772c-1.766,2.537-4.084,4.578-6.951,6.125c-2.871,1.544-6.291,2.317-10.264,2.317
		c-5.297,0-10.318-1.464-15.063-4.387c-4.746-2.925-8.829-6.207-12.248-9.849c-1.324,1.213-3.008,2.537-5.048,3.973
		c-2.044,1.433-4.167,2.979-6.373,4.635c-3.311,2.426-6.704,4.991-10.18,7.696c-3.476,2.703-6.621,5.545-9.435,8.524
		c-2.814,2.979-5.022,6.068-6.621,9.269c-1.601,3.199-2.181,6.455-1.738,9.766l-1.324,0.498
		C52.579,230.017,51.891,228.06,51.395,226.019z M123.976,188.776c2.868-0.827,5.462-2.069,7.78-3.725
		c2.316-1.655,4.221-3.698,5.71-6.124c1.489-2.429,2.234-5.242,2.234-8.441c0-1.324-0.083-2.648-0.248-3.973
		s-0.524-2.594-1.076-3.808H97.161c-0.33,1.875-0.553,3.696-0.662,5.463c-0.11,1.764-0.165,3.584-0.165,5.462
		c0,6.179,1.681,10.454,5.049,12.828c3.364,2.372,8.028,3.559,13.987,3.559C118.237,190.018,121.106,189.604,123.976,188.776z"/>
	<path fill="#FFFFFF" d="M52.885,264.255c0.055-2.045,0.083-4.113,0.083-6.209c0-2.979-0.028-5.904-0.083-8.771
		c-0.057-2.871-0.14-5.793-0.248-8.773c0-0.33,0.191-0.525,0.579-0.578c0.386-0.059,0.634,0.082,0.745,0.412
		c0.993,2.758,2.509,4.773,4.552,6.043c2.04,1.268,4.495,1.902,7.365,1.902h68.692c2.537,0,4.304-0.855,5.296-2.564
		c0.994-1.713,1.656-3.725,1.986-6.043c0.109-0.33,0.357-0.471,0.746-0.412c0.385,0.053,0.578,0.248,0.578,0.578
		c-0.222,2.318-0.387,4.635-0.496,6.953c-0.111,2.316-0.166,4.688-0.166,7.117c0,2.316,0.055,4.635,0.166,6.951
		c0.109,2.318,0.331,4.578,0.662,6.787c0.109,0.33-0.057,0.551-0.496,0.662c-0.442,0.107-0.719,0-0.828-0.332
		c-0.553-2.428-1.215-4.385-1.986-5.875c-0.773-1.49-2.594-2.234-5.462-2.234H66.375c-4.195,0-7.2,0.799-9.021,2.4
		c-1.82,1.598-2.896,4.385-3.228,8.357h-1.324C52.802,268.417,52.828,266.294,52.885,264.255z"/>
	<path fill="#FFFFFF" d="M51.229,361.996c-0.607-1.768-0.91-3.588-0.91-5.463c0-3.641,1.047-7.422,3.145-11.338
		c2.095-3.918,4.801-7.779,8.111-11.588c3.31-3.807,6.978-7.531,11.007-11.172c4.027-3.643,7.917-7.117,11.669-10.428
		c2.869-2.541,5.406-4.775,7.614-6.703c2.206-1.934,4.192-3.836,5.958-5.711c-5.407-0.111-10.675-0.195-15.807-0.248
		c-5.131-0.059-10.401-0.084-15.808-0.084c-1.877,0-3.421,0.109-4.634,0.332c-1.216,0.219-2.181,0.551-2.897,0.992
		c-0.719,0.439-1.241,0.965-1.572,1.572c-0.331,0.605-0.662,1.297-0.993,2.07c-0.223,0.77-0.496,1.654-0.827,2.648
		c-0.331,0.992-0.773,1.928-1.324,2.813c-0.223,0.332-0.525,0.439-0.911,0.332c-0.388-0.111-0.524-0.332-0.413-0.662
		c0.108-0.662,0.165-1.324,0.165-1.986c0-0.555,0.055-1.158,0.166-1.82c0.331-3.865,0.496-7.672,0.496-11.422
		c0-2.428-0.083-4.801-0.248-7.117c-0.166-2.318-0.359-4.746-0.579-7.283c0-0.332,0.191-0.525,0.579-0.58
		c0.386-0.057,0.634,0.084,0.745,0.414c0.331,1.986,0.799,3.531,1.406,4.635c0.605,1.102,1.379,1.904,2.317,2.4
		c0.937,0.496,2.069,0.799,3.394,0.91c1.324,0.109,2.923,0.166,4.8,0.166h67.699c2.206,0,3.998-0.994,5.379-2.98
		c1.379-1.986,2.289-4.084,2.731-6.289c0.108-0.332,0.356-0.471,0.745-0.414c0.385,0.055,0.579,0.248,0.579,0.58
		c-0.11,1.213-0.194,2.4-0.248,3.559c-0.058,1.158-0.083,2.342-0.083,3.559c0,1.324,0.025,2.674,0.083,4.055
		c0.054,1.379,0.138,2.84,0.248,4.387c0.108,1.875,0.191,3.779,0.249,5.711c0.054,1.93,0.025,3.832-0.084,5.711
		c0,0.219-0.027,0.496-0.082,0.826c-0.057,0.332-0.083,0.605-0.083,0.828c0,0.332-0.222,0.496-0.662,0.496
		c-0.442,0-0.662-0.164-0.662-0.496c-0.11-2.209-0.968-4.084-2.565-5.627c-1.602-1.547-3.504-2.318-5.711-2.318
		c-5.52,0.109-10.621,0.191-15.311,0.248c-4.691,0.055-9.74,0.139-15.146,0.248c1.544,1.213,3.199,2.758,4.966,4.635
		c1.764,1.875,3.584,3.809,5.463,5.795c2.205,2.426,4.523,4.883,6.951,7.365c2.426,2.482,4.801,4.717,7.117,6.703
		c2.318,1.986,4.496,3.613,6.539,4.883c2.04,1.268,3.889,1.904,5.545,1.904c1.102,0,2.206-0.277,3.311-0.828
		c0.662-0.441,0.992-0.277,0.992,0.496c-0.222,2.207-0.33,4.359-0.33,6.457c0,2.094,0,4.246,0,6.455
		c0,1.764-0.029,3.529-0.083,5.297c-0.058,1.764-0.14,3.584-0.249,5.461c0,0.332-0.193,0.523-0.578,0.58
		c-0.389,0.055-0.637-0.082-0.746-0.414c-0.33-2.648-1.406-5.463-3.227-8.441c-1.821-2.98-4.056-6.016-6.704-9.104
		c-2.648-3.092-5.491-6.125-8.524-9.104c-3.037-2.98-5.877-5.686-8.524-8.111c-2.209-1.877-4.333-3.781-6.373-5.711
		c-2.043-1.932-3.78-3.67-5.214-5.213c-1.547,1.543-3.339,3.227-5.379,5.047c-2.044,1.822-4.221,3.779-6.539,5.877
		c-3.864,3.529-7.945,7.309-12.249,11.338c-4.304,4.027-8.276,8.111-11.918,12.25c-3.642,4.137-6.62,8.193-8.938,12.166
		s-3.477,7.668-3.477,11.09l-1.158,0.33C52.636,365.414,51.835,363.759,51.229,361.996z"/>
	<path fill="#FFFFFF" d="M61.492,426.878c-2.374-0.332-4.829-0.662-7.366-0.994c-0.331,0-0.496-0.223-0.496-0.662l-0.166-0.166
		c-0.331-0.885-0.496-1.6-0.496-2.15c0-2.541,0.025-5.105,0.082-7.697c0.055-2.594,0.083-5.16,0.083-7.697
		c0-2.209,0.026-4.361,0.083-6.455c0.055-2.098,0.083-4.25,0.083-6.455c0-2.98-0.028-5.988-0.083-9.021
		c-0.057-3.037-0.14-6.041-0.248-9.021h1.324c0,1.656,0.356,3.006,1.075,4.057c0.717,1.047,1.627,1.846,2.731,2.398
		c1.102,0.551,2.344,0.91,3.725,1.076c1.378,0.166,2.785,0.248,4.221,0.248h68.857c2.206,0,3.641-0.523,4.303-1.572
		s1.214-2.18,1.656-3.393c0.22-0.662,0.468-1.406,0.744-2.234c0.274-0.828,0.688-1.684,1.242-2.566
		c0.219-0.223,0.468-0.305,0.744-0.248c0.274,0.055,0.414,0.248,0.414,0.58v47.174c0.22,0.439,0.414,0.91,0.58,1.406
		c0.165,0.498,0.356,0.965,0.578,1.408c0.221,0.551,0,0.826-0.662,0.826c-2.87-0.33-5.545-0.744-8.027-1.24
		s-4.994-1.021-7.531-1.572c-0.331-0.111-0.471-0.359-0.414-0.746c0.055-0.387,0.248-0.578,0.58-0.578
		c3.861-0.223,6.398-1.547,7.613-3.973c1.213-2.43,1.82-5.408,1.82-8.939v-13.076H104.61v19.201c0,0.551,0.166,1.268,0.496,2.152
		c0.332,0.881,0.662,1.764,0.994,2.648c0.662,1.213,1.158,2.426,1.489,3.641c0.22,0.551,0,0.828-0.662,0.828
		c-1.324-0.111-2.76-0.248-4.304-0.414c-1.547-0.166-2.979-0.359-4.304-0.58s-2.705-0.387-4.138-0.496
		c-1.436-0.111-2.814-0.277-4.138-0.496c-0.331,0-0.554-0.141-0.662-0.414c-0.111-0.277-0.057-0.525,0.165-0.744
		c0.551-0.555,1.103-0.91,1.655-1.076c0.551-0.166,1.159-0.359,1.821-0.58c0.662-0.223,1.324-0.441,1.985-0.662
		c0.662-0.223,1.268-0.607,1.821-1.158c0.551-0.553,0.965-1.572,1.241-3.063c0.274-1.49,0.497-3.09,0.662-4.801
		s0.248-3.393,0.248-5.047c0-1.656,0-2.926,0-3.809v-4.965H64.885c-2.428,1.654-4.277,3.998-5.545,7.035
		c-1.27,3.033-1.903,5.984-1.903,8.855c0,3.861,1.02,7.143,3.063,9.848c2.04,2.703,4.938,4.496,8.689,5.381l-0.331,1.324
		C66.318,427.648,63.863,427.208,61.492,426.878z"/>
</g>
</svg>
