<?xml version="1.0" encoding="utf-8"?>
<!-- Generator: Adobe Illustrator 16.0.3, SVG Export Plug-In . SVG Version: 6.00 Build 0)  -->
<!DOCTYPE svg PUBLIC "-//W3C//DTD SVG 1.1//EN" "http://www.w3.org/Graphics/SVG/1.1/DTD/svg11.dtd">
<svg version="1.1" id="Layer_1" xmlns="http://www.w3.org/2000/svg" xmlns:xlink="http://www.w3.org/1999/xlink" x="0px" y="0px"
	 width="184.725px" height="499.543px" viewBox="0 0 184.725 499.543" enable-background="new 0 0 184.725 499.543"
	 xml:space="preserve">
<g enable-background="new    ">
	<path fill="#FFFFFF" d="M135.894,79.12c-2.871-0.111-5.52-0.497-7.945-1.159c-0.331-0.111-0.497-0.331-0.497-0.662
		c0-0.222,0.166-0.388,0.497-0.497c3.861-0.884,6.427-2.622,7.696-5.214c1.268-2.594,1.904-5.656,1.904-9.187V47.836H66.54
		c-3.201,0-5.904,0.993-8.11,2.979c-2.209,1.986-3.587,4.523-4.138,7.614c-0.111,0.331-0.359,0.468-0.745,0.414
		c-0.388-0.057-0.579-0.249-0.579-0.58c0.22-2.871,0.413-5.685,0.579-8.441c0.165-2.76,0.248-5.574,0.248-8.442
		c0-2.208-0.057-4.36-0.165-6.456c-0.111-2.097-0.277-4.249-0.497-6.455c-0.111-0.331,0.055-0.525,0.497-0.58
		c0.439-0.057,0.716,0.083,0.827,0.414c0.439,1.875,0.91,3.336,1.407,4.386c0.496,1.047,1.13,1.847,1.903,2.4
		c0.771,0.551,1.792,0.882,3.063,0.993c1.267,0.109,2.84,0.166,4.717,0.166h71.837V16.386c0-2.648-0.885-4.966-2.648-6.952
		c-1.766-1.986-3.807-3.422-6.124-4.304c-0.331-0.111-0.442-0.331-0.331-0.662c0.108-0.331,0.331-0.497,0.662-0.497l2.152-0.331
		c1.764,0,3.447,0.22,5.048,0.662c1.599,0.439,3.171,0.882,4.718,1.324c0.771,0.22,1.516,0.439,2.234,0.662
		c0.717,0.22,1.461,0.439,2.234,0.662c0.551,0.22,0.662,0.551,0.331,0.993c-1.104,1.655-1.795,3.336-2.069,5.048
		c-0.276,1.709-0.414,3.559-0.414,5.545v52.968c0,1.213,0.275,2.757,0.828,4.634c0.109,0.44,0.22,0.828,0.331,1.159
		c0.108,0.331,0.22,0.717,0.331,1.159l-0.662,0.828C141.466,79.285,138.762,79.229,135.894,79.12z"/>
	<path fill="#FFFFFF" d="M52.636,179.923c0.331-5.851,0.496-11.644,0.496-17.38c0-2.098-0.028-4.167-0.083-6.207
		c-0.057-2.044-0.14-4.167-0.248-6.373c0-0.331,0.191-0.525,0.579-0.579c0.386-0.058,0.634,0.082,0.745,0.413
		c0.993,3.42,2.317,5.628,3.973,6.621s4.247,1.49,7.779,1.49h34.429v-50.816h-34.76c-6.951,0-10.759,3.585-11.421,10.76
		c0,0.331-0.223,0.496-0.662,0.496c-0.442,0-0.662-0.165-0.662-0.496c0-1.767,0-3.477,0-5.132c0-1.546-0.057-3.201-0.165-4.966
		c0-1.215-0.028-2.622-0.083-4.221c-0.057-1.601-0.083-3.008-0.083-4.221c0-1.324,0-2.705,0-4.138c0-1.435,0.055-2.871,0.166-4.303
		c0-0.442,0.025-0.967,0.082-1.573c0.055-0.608,0.083-1.133,0.083-1.572c0-0.331,0.191-0.525,0.579-0.58
		c0.386-0.057,0.634,0.083,0.745,0.414c0.331,1.764,0.688,3.199,1.076,4.304c0.386,1.102,0.937,1.929,1.655,2.482
		c0.716,0.551,1.627,0.911,2.731,1.076c1.102,0.166,2.537,0.248,4.303,0.248h70.514c2.426,0,4.246-0.967,5.461-2.896
		c1.214-1.932,1.876-4.001,1.986-6.207h1.324c-0.33,4.635-0.496,9.212-0.496,13.739c0,1.875,0.025,3.75,0.083,5.628
		c0.054,1.875,0.083,3.75,0.083,5.628v3.476c0,0.331-0.223,0.497-0.662,0.497c-0.442,0-0.662-0.166-0.662-0.497
		c0-1.986-0.607-3.781-1.821-5.379c-1.216-1.602-2.925-2.4-5.131-2.4h-28.802v50.65h28.14c2.648,0,4.329-0.69,5.048-2.069
		c0.717-1.381,1.351-3.063,1.904-5.049c0.108-0.441,0.22-0.855,0.33-1.241c0.109-0.388,0.221-0.802,0.332-1.241
		c0.108-0.331,0.356-0.471,0.744-0.414c0.386,0.055,0.58,0.248,0.58,0.579c-0.332,5.297-0.497,10.429-0.497,15.395
		c0,2.206,0.026,4.44,0.083,6.703c0.055,2.261,0.137,4.495,0.248,6.704c0,0.331-0.193,0.522-0.579,0.579
		c-0.388,0.055-0.636-0.083-0.745-0.414c-0.441-2.429-1.076-4.36-1.903-5.793c-0.827-1.436-2.622-2.152-5.38-2.152H66.209
		c-3.752,0-6.566,0.828-8.441,2.483c-1.878,1.655-3.145,4.357-3.807,8.11L52.636,179.923z"/>
	<path fill="#FFFFFF" d="M51.395,272.202c-0.497-2.045-0.745-4.057-0.745-6.043c0-3.311,0.604-6.289,1.82-8.938
		c1.213-2.648,2.757-5.023,4.635-7.118c1.875-2.098,4.027-4.056,6.455-5.876c2.427-1.821,4.909-3.559,7.449-5.214
		c2.317-1.547,4.606-3.174,6.869-4.883c2.261-1.713,4.304-3.588,6.124-5.628c1.821-2.044,3.282-4.25,4.387-6.621
		c1.102-2.374,1.655-5.049,1.655-8.028c0-0.884,0-1.767,0-2.648c0-0.773-0.111-1.601-0.331-2.482H66.209
		c-3.201,0-5.933,0.965-8.193,2.896c-2.263,1.93-3.559,4.495-3.89,7.697h-1.324c0.22-2.54,0.414-5.049,0.579-7.531
		c0.166-2.483,0.249-4.994,0.249-7.531c0-2.54-0.111-4.994-0.331-7.366c-0.223-2.374-0.497-4.829-0.828-7.366
		c-0.111-0.331,0.026-0.579,0.414-0.744c0.386-0.166,0.688-0.083,0.91,0.248c1.102,2.317,2.757,4.247,4.966,5.793
		c2.206,1.544,4.578,2.317,7.117,2.317h66.044c2.537,0,4.771-0.91,6.704-2.73c1.929-1.821,3.227-4.002,3.889-6.539
		c0.109-0.331,0.357-0.471,0.746-0.413c0.385,0.054,0.578,0.248,0.578,0.579v32.608c0,3.419-0.413,6.786-1.24,10.097
		c-0.828,3.311-2.127,6.233-3.891,8.772c-1.766,2.537-4.084,4.578-6.951,6.125c-2.871,1.544-6.291,2.317-10.264,2.317
		c-5.297,0-10.318-1.464-15.063-4.387c-4.746-2.925-8.829-6.207-12.248-9.849c-1.324,1.213-3.008,2.537-5.048,3.973
		c-2.044,1.433-4.167,2.979-6.373,4.635c-3.311,2.426-6.704,4.991-10.18,7.696c-3.476,2.703-6.621,5.544-9.435,8.525
		c-2.814,2.979-5.022,6.066-6.621,9.27c-1.601,3.199-2.181,6.455-1.738,9.766l-1.324,0.496
		C52.579,276.2,51.891,274.241,51.395,272.202z M123.976,234.958c2.868-0.827,5.462-2.069,7.78-3.725
		c2.316-1.655,4.221-3.698,5.71-6.124c1.489-2.429,2.234-5.242,2.234-8.441c0-1.324-0.083-2.648-0.248-3.973
		s-0.524-2.594-1.076-3.808H97.161c-0.33,1.875-0.553,3.696-0.662,5.463c-0.11,1.764-0.165,3.584-0.165,5.462
		c0,6.179,1.681,10.454,5.049,12.828c3.364,2.372,8.028,3.559,13.987,3.559C118.237,236.199,121.106,235.786,123.976,234.958z"/>
	<path fill="#FFFFFF" d="M138.294,352.397c-1.82-1.545-3.889-2.316-6.207-2.316H87.727c-5.077,0-9.877-0.828-14.4-2.482
		c-4.526-1.656-8.471-3.973-11.835-6.953c-3.367-2.979-6.016-6.594-7.945-10.842c-1.932-4.248-2.896-9.02-2.896-14.316
		c0-3.865,0.634-7.643,1.903-11.34c1.268-3.697,3.063-7.145,5.38-10.344c2.317-3.203,5.02-6.043,8.11-8.525
		c3.088-2.482,6.455-4.332,10.097-5.545c0.771-0.33,1.958-0.58,3.559-0.744c1.599-0.166,3.42-0.277,5.463-0.332
		c2.04-0.057,4.274-0.111,6.703-0.166c2.426-0.057,4.854-0.082,7.282-0.082c2.869,0,5.683,0.025,8.442,0.082
		c2.757,0.055,5.297,0.084,7.614,0.084h16.718c3.199,0,5.462-0.855,6.786-2.566s2.372-4.055,3.145-7.035
		c0.109-0.33,0.357-0.471,0.746-0.412c0.385,0.053,0.578,0.248,0.578,0.578c-0.33,6.291-0.496,12.523-0.496,18.705
		c0,1.764,0,3.475,0,5.131c0,1.654,0.055,3.365,0.166,5.131c0,0.332-0.166,0.551-0.497,0.662c-0.331,0.109-0.607,0-0.827-0.33
		c-0.885-1.768-2.181-3.559-3.891-5.381c-1.711-1.82-3.559-2.73-5.545-2.73l-50.649-0.332c-3.753,0-7.146,0.635-10.18,1.904
		c-3.036,1.268-5.628,3.063-7.779,5.379c-2.152,2.318-3.836,5.049-5.049,8.193c-1.216,3.146-1.82,6.539-1.82,10.18
		c0,3.75,0.604,7.227,1.82,10.43c1.213,3.199,2.923,5.957,5.131,8.275c2.207,2.316,4.854,4.109,7.945,5.379
		c3.088,1.268,6.564,1.904,10.429,1.904l49.987-0.332c3.199,0,5.545-0.826,7.034-2.482c1.49-1.654,2.51-4.029,3.063-7.117
		c0.109-0.332,0.357-0.471,0.745-0.414c0.386,0.055,0.579,0.248,0.579,0.58c-0.331,3.088-0.496,6.123-0.496,9.104
		c0,0.881,0.025,1.793,0.082,2.73c0.055,0.938,0.083,1.848,0.083,2.732c0,1.875,0.026,3.807,0.083,5.793
		c0.055,1.986,0.025,3.973-0.083,5.959l-1.324,0.164C141.245,355.928,140.115,353.942,138.294,352.397z"/>
	<path fill="#FFFFFF" d="M66.375,409.917c-3.202-2.043-5.933-4.635-8.193-7.779c-2.263-3.146-4.029-6.621-5.297-10.428
		c-1.27-3.809-1.903-7.424-1.903-10.842c0-1.656,0.191-3.395,0.579-5.215c0.386-1.82,1.019-3.477,1.903-4.965
		c0.882-1.49,2.013-2.707,3.394-3.643c1.378-0.939,3.116-1.406,5.214-1.406c1.324,0,2.648,0.137,3.973,0.414
		c1.324,0.273,2.592,0.521,3.807,0.744l3.973,0.828c0.331,0,0.497,0.219,0.497,0.662c0,0.439-0.166,0.662-0.497,0.662h-2.482
		c-2.317,0-4.36,0.496-6.125,1.488c-1.766,0.994-3.284,2.262-4.552,3.809c-1.27,1.543-2.208,3.336-2.813,5.379
		c-0.608,2.041-0.91,4.109-0.91,6.207c0,1.986,0.331,4.027,0.993,6.125c0.662,2.094,1.626,3.998,2.896,5.709
		c1.267,1.711,2.813,3.117,4.635,4.223c1.82,1.102,3.833,1.654,6.041,1.654c2.095,0,4.164-0.496,6.207-1.49
		c2.041-0.992,4.11-2.316,6.207-3.973c2.096-1.654,4.193-3.533,6.29-5.627c2.095-2.098,4.192-4.25,6.289-6.455
		c2.207-2.318,4.441-4.635,6.705-6.953c2.26-2.316,4.577-4.359,6.951-6.123c2.371-1.768,4.771-3.203,7.2-4.305
		c2.427-1.104,4.909-1.654,7.448-1.654c3.75,0,6.979,1.047,9.684,3.145c2.703,2.094,4.908,4.689,6.621,7.779
		c1.709,3.088,2.979,6.455,3.807,10.098c0.828,3.641,1.242,7.006,1.242,10.096c0,4.412-0.554,8.441-1.656,12.084
		c-0.222,0.33-0.441,0.496-0.662,0.496c-5.407-0.441-10.98-1.104-16.717-1.986c-0.332-0.111-0.497-0.33-0.497-0.662
		c0-0.33,0.165-0.553,0.497-0.662c3.861-0.885,7.172-2.564,9.932-5.049c2.756-2.482,4.137-5.768,4.137-9.848
		c0-4.195-1.352-7.697-4.055-10.512c-2.705-2.813-6.152-4.221-10.346-4.221c-2.208,0-4.249,0.469-6.124,1.408
		c-1.878,0.936-3.698,2.15-5.462,3.641c-1.767,1.49-3.505,3.229-5.215,5.215c-1.711,1.986-3.449,4.025-5.213,6.123
		c-1.878,2.318-3.836,4.607-5.877,6.869c-2.043,2.262-4.195,4.275-6.455,6.043c-2.263,1.764-4.662,3.199-7.2,4.303
		c-2.539,1.102-5.296,1.656-8.275,1.656C73.104,412.979,69.574,411.958,66.375,409.917z"/>
	<path fill="#FFFFFF" d="M135.894,495.737c-2.871-0.111-5.52-0.496-7.945-1.158c-0.331-0.111-0.497-0.33-0.497-0.662
		c0-0.223,0.166-0.389,0.497-0.496c3.861-0.885,6.427-2.623,7.696-5.215c1.268-2.594,1.904-5.656,1.904-9.186v-14.566H66.54
		c-3.201,0-5.904,0.992-8.11,2.979c-2.209,1.986-3.587,4.523-4.138,7.615c-0.111,0.33-0.359,0.469-0.745,0.414
		c-0.388-0.057-0.579-0.248-0.579-0.58c0.22-2.871,0.413-5.684,0.579-8.441c0.165-2.76,0.248-5.574,0.248-8.441
		c0-2.209-0.057-4.361-0.165-6.455c-0.111-2.098-0.277-4.25-0.497-6.457c-0.111-0.33,0.055-0.523,0.497-0.578
		c0.439-0.057,0.716,0.082,0.827,0.414c0.439,1.875,0.91,3.336,1.407,4.385c0.496,1.049,1.13,1.848,1.903,2.4
		c0.771,0.551,1.792,0.883,3.063,0.994c1.267,0.107,2.84,0.166,4.717,0.166h71.837v-19.863c0-2.648-0.885-4.967-2.648-6.953
		c-1.766-1.986-3.807-3.422-6.124-4.303c-0.331-0.111-0.442-0.332-0.331-0.662c0.108-0.332,0.331-0.496,0.662-0.496l2.152-0.332
		c1.764,0,3.447,0.221,5.048,0.662c1.599,0.439,3.171,0.883,4.718,1.324c0.771,0.221,1.516,0.439,2.234,0.662
		c0.717,0.221,1.461,0.439,2.234,0.662c0.551,0.221,0.662,0.551,0.331,0.994c-1.104,1.654-1.795,3.336-2.069,5.047
		c-0.276,1.711-0.414,3.561-0.414,5.547v52.967c0,1.213,0.275,2.758,0.828,4.635c0.109,0.439,0.22,0.828,0.331,1.158
		c0.108,0.332,0.22,0.717,0.331,1.158l-0.662,0.828C141.466,495.903,138.762,495.846,135.894,495.737z"/>
</g>
</svg>
