<?xml version="1.0" encoding="utf-8"?>
<!-- Generator: Adobe Illustrator 16.0.3, SVG Export Plug-In . SVG Version: 6.00 Build 0)  -->
<!DOCTYPE svg PUBLIC "-//W3C//DTD SVG 1.1//EN" "http://www.w3.org/Graphics/SVG/1.1/DTD/svg11.dtd">
<svg version="1.1" id="Layer_1" xmlns="http://www.w3.org/2000/svg" xmlns:xlink="http://www.w3.org/1999/xlink" x="0px" y="0px"
	 width="184.725px" height="511.296px" viewBox="0 0 184.725 511.296" enable-background="new 0 0 184.725 511.296"
	 xml:space="preserve">
<g enable-background="new    ">
	<path fill="#FFFFFF" d="M140.198,122.984c-0.994-1.436-1.932-2.595-2.814-3.477c-0.992-0.773-3.063-1.737-6.207-2.896
		c-3.145-1.158-6.897-2.4-11.256-3.725c-4.359-1.324-9.16-2.705-14.4-4.138c-5.242-1.436-10.511-2.871-15.807-4.304
		c-4.084-1.104-8.057-2.18-11.918-3.228c-3.864-1.05-7.477-2.07-10.842-3.063c-3.367-0.993-6.372-1.903-9.021-2.731
		s-4.801-1.572-6.456-2.234c-0.223-0.111-0.359-0.305-0.413-0.58c-0.058-0.277,0.025-0.525,0.248-0.745
		c7.392-3.864,15.117-7.257,23.173-10.18c8.054-2.925,16.222-5.768,24.497-8.524c4.192-1.436,8.083-2.731,11.669-3.89
		s7.421-2.511,11.504-4.055c-5.407-2.317-10.869-4.526-16.387-6.621c-5.519-2.097-11.035-4.195-16.552-6.29
		c-6.181-2.317-12.525-4.718-19.035-7.201c-6.512-2.482-12.802-5.048-18.869-7.697c-0.331-0.222-0.471-0.471-0.414-0.745
		c0.055-0.277,0.248-0.471,0.579-0.58c4.523-1.435,9.737-2.814,15.643-4.138c5.901-1.324,12-2.594,18.29-3.807
		c9.269-1.878,18.233-3.89,26.897-6.042c8.661-2.151,15.642-4.552,20.938-7.2c2.426-1.215,4.081-2.4,4.966-3.559
		c0.882-1.159,1.82-2.623,2.813-4.386c0.22-0.442,0.468-0.911,0.745-1.407c0.273-0.497,0.579-1.021,0.91-1.572
		c0.221-0.331,0.496-0.414,0.828-0.249c0.33,0.166,0.439,0.414,0.33,0.745c-0.111,0.551-0.165,1.047-0.165,1.49
		c0,0.439-0.057,0.936-0.165,1.49c-0.223,2.317-0.471,4.552-0.745,6.704c-0.276,2.152-0.414,4.386-0.414,6.704
		c0,4.304,0.331,8.773,0.993,13.407c0.109,0.331-0.057,0.551-0.496,0.662c-0.442,0.109-0.719,0-0.828-0.331
		c-0.441-1.215-0.993-2.428-1.655-3.641c-0.662-1.216-1.435-2.263-2.317-3.145c-8.057,0.882-15.918,2.095-23.587,3.642
		c-7.671,1.544-15.422,3.088-23.256,4.634c-3.532,0.771-6.649,1.407-9.352,1.904c-2.705,0.497-5.768,1.076-9.187,1.738
		c12.026,4.412,23.777,8.827,35.256,13.242c11.476,4.412,23.116,8.992,34.926,13.738c0.219,0.108,0.356,0.303,0.414,0.579
		c0.054,0.274-0.029,0.522-0.249,0.745c-7.614,3.642-15.616,6.978-24.001,10.014c-8.387,3.034-16.829,5.985-25.324,8.855
		c-3.753,1.213-7.395,2.4-10.925,3.559c-3.533,1.159-7.175,2.4-10.925,3.725c4.635,1.433,9.82,3.005,15.56,4.717
		c5.735,1.71,11.529,3.283,17.38,4.718c5.848,1.433,11.558,2.619,17.131,3.559c5.571,0.936,10.619,1.406,15.146,1.406
		c0.662,0,1.267-0.276,1.82-0.827c0.551-0.554,1.047-1.216,1.489-1.986c0.44-0.773,0.771-1.572,0.993-2.4
		c0.221-0.827,0.386-1.518,0.496-2.068c0.109-0.331,0.357-0.471,0.746-0.414c0.385,0.055,0.578,0.248,0.578,0.579
		c-0.222,2.868-0.387,5.711-0.496,8.524c-0.111,2.814-0.166,5.654-0.166,8.524c0,1.433,0,2.814,0,4.139
		c0,1.433,0.055,2.922,0.166,4.469h-1.324C141.577,125.797,141.19,124.417,140.198,122.984z"/>
	<path fill="#FFFFFF" d="M61.492,187.041c-2.374-0.331-4.829-0.662-7.366-0.993c-0.331,0-0.496-0.223-0.496-0.662l-0.166-0.166
		c-0.331-0.885-0.496-1.601-0.496-2.151c0-2.54,0.025-5.105,0.082-7.697c0.055-2.594,0.083-5.159,0.083-7.696
		c0-2.209,0.026-4.361,0.083-6.456c0.055-2.098,0.083-4.249,0.083-6.455c0-2.979-0.028-5.987-0.083-9.021
		c-0.057-3.036-0.14-6.041-0.248-9.021h1.324c0,1.655,0.356,3.005,1.075,4.056c0.717,1.047,1.627,1.846,2.731,2.399
		c1.102,0.551,2.344,0.91,3.725,1.076c1.378,0.165,2.785,0.248,4.221,0.248h68.857c2.206,0,3.641-0.524,4.303-1.572
		c0.662-1.05,1.214-2.181,1.656-3.394c0.22-0.662,0.468-1.406,0.744-2.234c0.274-0.827,0.688-1.684,1.242-2.565
		c0.219-0.223,0.468-0.306,0.744-0.248c0.274,0.054,0.414,0.248,0.414,0.579v47.174c0.22,0.44,0.414,0.911,0.58,1.407
		c0.165,0.497,0.356,0.965,0.578,1.407c0.221,0.551,0,0.827-0.662,0.827c-2.87-0.331-5.545-0.745-8.027-1.241
		s-4.994-1.021-7.531-1.572c-0.331-0.111-0.471-0.359-0.414-0.745c0.055-0.388,0.248-0.579,0.58-0.579
		c3.861-0.223,6.398-1.547,7.613-3.973c1.213-2.429,1.82-5.408,1.82-8.938v-13.076H104.61v19.2c0,0.552,0.166,1.268,0.496,2.152
		c0.332,0.882,0.662,1.764,0.994,2.648c0.662,1.213,1.158,2.426,1.489,3.642c0.22,0.551,0,0.827-0.662,0.827
		c-1.324-0.111-2.76-0.248-4.304-0.413c-1.547-0.166-2.979-0.36-4.304-0.58c-1.324-0.222-2.705-0.388-4.138-0.496
		c-1.436-0.111-2.814-0.277-4.138-0.497c-0.331,0-0.554-0.14-0.662-0.413c-0.111-0.277-0.057-0.525,0.165-0.745
		c0.551-0.554,1.103-0.91,1.655-1.076c0.551-0.165,1.159-0.359,1.821-0.579c0.662-0.223,1.324-0.442,1.985-0.662
		c0.662-0.223,1.268-0.607,1.821-1.159c0.551-0.553,0.965-1.572,1.241-3.062c0.274-1.49,0.497-3.091,0.662-4.801
		c0.165-1.712,0.248-3.393,0.248-5.048s0-2.926,0-3.808v-4.966H64.885c-2.428,1.655-4.277,3.999-5.545,7.035
		c-1.27,3.034-1.903,5.984-1.903,8.855c0,3.861,1.02,7.144,3.063,9.849c2.04,2.703,4.938,4.495,8.689,5.38l-0.331,1.324
		C66.318,187.811,63.863,187.372,61.492,187.041z"/>
	<path fill="#FFFFFF" d="M52.885,220.724c0.055-2.044,0.083-4.112,0.083-6.208c0-2.979-0.028-5.904-0.083-8.772
		c-0.057-2.871-0.14-5.793-0.248-8.772c0-0.331,0.191-0.525,0.579-0.579c0.386-0.058,0.634,0.082,0.745,0.413
		c0.993,2.758,2.509,4.772,4.552,6.042c2.04,1.268,4.495,1.903,7.365,1.903h68.692c2.537,0,4.304-0.855,5.296-2.565
		c0.994-1.712,1.656-3.725,1.986-6.042c0.109-0.331,0.357-0.471,0.746-0.413c0.385,0.054,0.578,0.248,0.578,0.579
		c-0.222,2.317-0.387,4.635-0.496,6.952c-0.111,2.317-0.166,4.688-0.166,7.117c0,2.317,0.055,4.635,0.166,6.952
		c0.109,2.317,0.331,4.578,0.662,6.786c0.109,0.331-0.057,0.551-0.496,0.662c-0.442,0.108-0.719,0-0.828-0.331
		c-0.553-2.429-1.215-4.386-1.986-5.876c-0.773-1.489-2.594-2.234-5.462-2.234H66.375c-4.195,0-7.2,0.799-9.021,2.4
		c-1.82,1.598-2.896,4.386-3.228,8.358h-1.324C52.802,224.887,52.828,222.764,52.885,220.724z"/>
	<path fill="#FFFFFF" d="M94.43,318.298c-0.939-1.654-2.511-2.482-4.717-2.482H58.927c-0.111,0-0.277-0.111-0.497-0.331
		c-3.091-4.084-4.994-8.607-5.711-13.573c-0.719-4.966-1.075-9.877-1.075-14.731c0-7.726,1.019-14.814,3.062-21.27
		c2.041-6.455,5.075-12.029,9.104-16.718c4.026-4.691,9.129-8.333,15.311-10.925c6.179-2.594,13.407-3.89,21.684-3.89
		c7.283,0,13.738,1.296,19.365,3.89c5.629,2.592,10.346,6.15,14.152,10.677c3.808,4.523,6.676,9.819,8.607,15.89
		c1.93,6.067,2.896,12.523,2.896,19.366c0,3.861-0.248,7.723-0.744,11.587c-0.496,3.861-1.021,7.668-1.572,11.421
		c-0.223,1.544-0.414,2.979-0.58,4.304c-0.165,1.324-0.359,2.703-0.579,4.139c0,0.439-0.222,0.662-0.662,0.662
		c-2.979,0-5.821-0.223-8.524-0.662c-2.705-0.442-5.49-0.885-8.359-1.324c-0.553-0.111-1.158-0.194-1.82-0.249
		c-0.662-0.057-1.27-0.14-1.82-0.248c-0.332-0.111-0.497-0.331-0.497-0.662s0.165-0.554,0.497-0.662
		c3.529-0.662,6.563-1.82,9.104-3.476c2.537-1.655,4.635-3.725,6.29-6.207c1.655-2.483,2.868-5.243,3.642-8.276
		c0.771-3.036,1.158-6.207,1.158-9.518c0-5.628-0.938-10.87-2.814-15.725c-1.877-4.857-4.497-9.078-7.861-12.663
		c-3.367-3.587-7.395-6.401-12.084-8.441c-4.691-2.043-9.848-3.063-15.477-3.063c-6.181,0-12.028,1.131-17.545,3.394
		c-5.519,2.261-10.319,5.379-14.4,9.352c-4.083,3.973-7.312,8.634-9.683,13.987c-2.374,5.351-3.559,11.116-3.559,17.297
		c0,2.537,0.356,5.214,1.075,8.028c0.717,2.813,1.904,5.157,3.559,7.034h27.478c1.875,0,3.145-0.579,3.807-1.737
		c0.662-1.159,1.213-2.457,1.655-3.891c0.22-0.553,0.439-1.187,0.662-1.903c0.22-0.719,0.551-1.464,0.992-2.234
		c0.221-0.331,0.469-0.442,0.746-0.331c0.273,0.108,0.413,0.331,0.413,0.662c0,9.709-0.165,19.366-0.497,28.967l-1.324,0.165
		C96.057,321.83,95.366,319.954,94.43,318.298z"/>
	<path fill="#FFFFFF" d="M52.636,424.563c0.331-5.851,0.496-11.644,0.496-17.38c0-2.098-0.028-4.167-0.083-6.207
		c-0.057-2.044-0.14-4.167-0.248-6.373c0-0.331,0.191-0.525,0.579-0.579c0.386-0.058,0.634,0.082,0.745,0.413
		c0.993,3.42,2.317,5.628,3.973,6.621s4.247,1.49,7.779,1.49h34.429v-50.816h-34.76c-6.951,0-10.759,3.585-11.421,10.76
		c0,0.331-0.223,0.496-0.662,0.496c-0.442,0-0.662-0.165-0.662-0.496c0-1.767,0-3.477,0-5.132c0-1.546-0.057-3.201-0.165-4.966
		c0-1.215-0.028-2.622-0.083-4.221c-0.057-1.601-0.083-3.008-0.083-4.221c0-1.324,0-2.705,0-4.138c0-1.436,0.055-2.871,0.166-4.304
		c0-0.442,0.025-0.968,0.082-1.572c0.055-0.608,0.083-1.133,0.083-1.573c0-0.331,0.191-0.524,0.579-0.579
		c0.386-0.057,0.634,0.083,0.745,0.414c0.331,1.764,0.688,3.199,1.076,4.304c0.386,1.102,0.937,1.929,1.655,2.482
		c0.716,0.551,1.627,0.91,2.731,1.076c1.102,0.165,2.537,0.248,4.303,0.248h70.514c2.426,0,4.246-0.967,5.461-2.896
		c1.214-1.932,1.876-4.001,1.986-6.207h1.324c-0.33,4.635-0.496,9.212-0.496,13.738c0,1.875,0.025,3.75,0.083,5.628
		c0.054,1.875,0.083,3.75,0.083,5.628v3.476c0,0.331-0.223,0.497-0.662,0.497c-0.442,0-0.662-0.166-0.662-0.497
		c0-1.986-0.607-3.781-1.821-5.379c-1.216-1.602-2.925-2.4-5.131-2.4h-28.802v50.65h28.14c2.648,0,4.329-0.69,5.048-2.069
		c0.717-1.381,1.351-3.063,1.904-5.049c0.108-0.441,0.22-0.855,0.33-1.241c0.109-0.388,0.221-0.802,0.332-1.241
		c0.108-0.331,0.356-0.471,0.744-0.414c0.386,0.055,0.58,0.248,0.58,0.579c-0.332,5.297-0.497,10.429-0.497,15.395
		c0,2.206,0.026,4.44,0.083,6.703c0.055,2.261,0.137,4.495,0.248,6.704c0,0.331-0.193,0.522-0.579,0.579
		c-0.388,0.055-0.636-0.083-0.745-0.414c-0.441-2.429-1.076-4.36-1.903-5.793c-0.827-1.436-2.622-2.152-5.38-2.152H66.209
		c-3.752,0-6.566,0.828-8.441,2.483c-1.878,1.655-3.145,4.357-3.807,8.11L52.636,424.563z"/>
	<path fill="#FFFFFF" d="M135.894,507.489c-2.871-0.111-5.52-0.496-7.945-1.158c-0.331-0.111-0.497-0.331-0.497-0.662
		c0-0.223,0.166-0.389,0.497-0.497c3.861-0.885,6.427-2.622,7.696-5.214c1.268-2.594,1.904-5.656,1.904-9.187v-14.566H66.54
		c-3.201,0-5.904,0.993-8.11,2.979c-2.209,1.986-3.587,4.523-4.138,7.614c-0.111,0.331-0.359,0.469-0.745,0.414
		c-0.388-0.057-0.579-0.248-0.579-0.579c0.22-2.871,0.413-5.685,0.579-8.442c0.165-2.759,0.248-5.573,0.248-8.441
		c0-2.209-0.057-4.36-0.165-6.455c-0.111-2.098-0.277-4.25-0.497-6.456c-0.111-0.331,0.055-0.524,0.497-0.579
		c0.439-0.057,0.716,0.083,0.827,0.414c0.439,1.875,0.91,3.336,1.407,4.386c0.496,1.048,1.13,1.847,1.903,2.4
		c0.771,0.551,1.792,0.882,3.063,0.993c1.267,0.108,2.84,0.166,4.717,0.166h71.837v-19.863c0-2.648-0.885-4.966-2.648-6.952
		c-1.766-1.986-3.807-3.422-6.124-4.304c-0.331-0.11-0.442-0.331-0.331-0.662c0.108-0.331,0.331-0.496,0.662-0.496l2.152-0.331
		c1.764,0,3.447,0.22,5.048,0.662c1.599,0.439,3.171,0.882,4.718,1.324c0.771,0.22,1.516,0.439,2.234,0.662
		c0.717,0.22,1.461,0.439,2.234,0.662c0.551,0.22,0.662,0.551,0.331,0.993c-1.104,1.655-1.795,3.336-2.069,5.048
		c-0.276,1.71-0.414,3.56-0.414,5.546v52.967c0,1.213,0.275,2.758,0.828,4.635c0.109,0.439,0.22,0.828,0.331,1.159
		c0.108,0.331,0.22,0.716,0.331,1.158l-0.662,0.828C141.466,507.655,138.762,507.597,135.894,507.489z"/>
</g>
</svg>
