<?xml version="1.0" encoding="utf-8"?>
<!-- Generator: Adobe Illustrator 16.0.3, SVG Export Plug-In . SVG Version: 6.00 Build 0)  -->
<!DOCTYPE svg PUBLIC "-//W3C//DTD SVG 1.1//EN" "http://www.w3.org/Graphics/SVG/1.1/DTD/svg11.dtd">
<svg version="1.1" id="Layer_1" xmlns="http://www.w3.org/2000/svg" xmlns:xlink="http://www.w3.org/1999/xlink" x="0px" y="0px"
	 width="22.32px" height="28.08px" viewBox="0 0 22.32 28.08" enable-background="new 0 0 22.32 28.08" xml:space="preserve">
<g enable-background="new    ">
	<path fill="#FF3C00" d="M8.24,7.689c-0.4-0.193-0.74-0.45-1.021-0.77C6.939,6.6,6.722,6.229,6.57,5.81
		c-0.154-0.42-0.23-0.863-0.23-1.33c0-0.32,0-0.64,0-0.96c0-0.307,0.007-0.62,0.021-0.94c0.013-0.32,0.02-0.64,0.02-0.96
		c0-0.307,0-0.62,0-0.94c0-0.04,0.023-0.063,0.07-0.07c0.046-0.007,0.076,0.01,0.09,0.05C6.62,0.886,6.693,1.066,6.76,1.2
		c0.066,0.133,0.15,0.23,0.25,0.29c0.101,0.06,0.227,0.096,0.38,0.11c0.153,0.013,0.344,0.02,0.57,0.02h8.34
		c0.173,0,0.307-0.017,0.4-0.05c0.093-0.033,0.16-0.073,0.2-0.12c0.039-0.047,0.066-0.104,0.079-0.17
		c0.014-0.067,0.027-0.14,0.04-0.22c0.014-0.107,0.033-0.217,0.061-0.33c0.026-0.113,0.093-0.204,0.2-0.27
		c0.026-0.027,0.057-0.03,0.09-0.01s0.043,0.05,0.03,0.09c-0.04,0.146-0.067,0.29-0.08,0.43c-0.014,0.14-0.021,0.283-0.021,0.43
		c0,0.2,0.007,0.403,0.021,0.61c0.013,0.207,0.033,0.417,0.06,0.63c0.026,0.2,0.047,0.4,0.06,0.6c0.014,0.2,0.021,0.4,0.021,0.6
		c0,0.347-0.05,0.7-0.15,1.06c-0.1,0.36-0.246,0.69-0.439,0.99c-0.193,0.3-0.438,0.546-0.73,0.74s-0.64,0.29-1.04,0.29
		c-0.493,0-0.949-0.137-1.37-0.41c-0.42-0.273-0.79-0.583-1.109-0.93c-0.228,0.693-0.601,1.267-1.12,1.72
		c-0.521,0.453-1.16,0.68-1.92,0.68C9.087,7.979,8.639,7.883,8.24,7.689z M10.519,6.359c0.387-0.2,0.7-0.47,0.94-0.81
		c0.24-0.34,0.417-0.727,0.53-1.16c0.113-0.434,0.176-0.89,0.189-1.37H8c-0.174,0-0.33,0.053-0.47,0.16
		c-0.141,0.106-0.261,0.24-0.36,0.4s-0.177,0.33-0.23,0.51C6.886,4.27,6.86,4.439,6.86,4.6c0,0.307,0.063,0.586,0.189,0.84
		s0.297,0.47,0.51,0.65c0.214,0.18,0.457,0.32,0.73,0.42c0.273,0.1,0.557,0.15,0.85,0.15C9.673,6.66,10.133,6.56,10.519,6.359z
		 M15.65,5.54c0.246-0.08,0.466-0.197,0.659-0.35s0.347-0.343,0.46-0.57c0.113-0.227,0.17-0.487,0.17-0.78
		c0-0.133-0.013-0.267-0.039-0.4c-0.027-0.133-0.061-0.267-0.101-0.4h-4V3.1c0,0.386,0.026,0.736,0.08,1.05
		c0.053,0.313,0.156,0.583,0.31,0.81c0.153,0.227,0.363,0.4,0.631,0.52c0.267,0.12,0.619,0.18,1.06,0.18
		C15.146,5.66,15.403,5.62,15.65,5.54z"/>
	<path fill="#FF3C00" d="M8.34,15.749c-0.04-0.006-0.08-0.01-0.12-0.01c-0.293-0.027-0.577-0.057-0.85-0.09
		c-0.273-0.033-0.544-0.117-0.811-0.25c-0.013,0.014-0.04,0.02-0.08,0.02S6.4,15.38,6.36,15.3c0.053-0.533,0.09-1.064,0.109-1.59
		C6.49,13.183,6.5,12.646,6.5,12.1c0-0.44-0.007-0.88-0.021-1.32c-0.013-0.44-0.026-0.88-0.04-1.32c0-0.067-0.003-0.137-0.01-0.21
		C6.423,9.176,6.42,9.106,6.42,9.04c0-0.04,0.026-0.06,0.08-0.06c0.053,0,0.08,0.02,0.08,0.06c0.013,0.146,0.066,0.28,0.16,0.4
		c0.093,0.12,0.21,0.22,0.35,0.3c0.14,0.08,0.29,0.14,0.45,0.18s0.3,0.06,0.42,0.06h8.14c0.32,0,0.573-0.107,0.761-0.32
		c0.187-0.214,0.286-0.48,0.3-0.8h0.16C17.306,9.113,17.3,9.359,17.3,9.6c0,0.24,0,0.486,0,0.74c0,0.693,0.021,1.4,0.061,2.12
		c0,0.04-0.023,0.063-0.07,0.07s-0.077-0.01-0.09-0.05c-0.054-0.28-0.177-0.534-0.37-0.76s-0.43-0.34-0.71-0.34h-7.44
		c-0.56,0-0.99,0.177-1.29,0.53c-0.3,0.353-0.45,0.79-0.45,1.31c0,0.507,0.144,0.973,0.431,1.401
		c0.286,0.426,0.663,0.752,1.13,0.979l-0.04,0.159C8.42,15.759,8.38,15.756,8.34,15.749z"/>
	<path fill="#FF3C00" d="M9.45,27.179c-0.728-0.307-1.327-0.732-1.8-1.279c-0.474-0.547-0.827-1.207-1.061-1.98
		s-0.35-1.627-0.35-2.56c0-0.347,0.013-0.704,0.04-1.07c0.026-0.366,0.053-0.724,0.08-1.069c0.026-0.387,0.053-0.777,0.079-1.17
		c0.027-0.395,0.033-0.784,0.021-1.17c0-0.041,0.023-0.064,0.07-0.07c0.046-0.008,0.076,0.01,0.09,0.05
		c0.093,0.44,0.246,0.71,0.46,0.81c0.213,0.1,0.533,0.15,0.96,0.15h8.26c0.307,0,0.503-0.08,0.59-0.24s0.144-0.32,0.17-0.48
		c0.014-0.093,0.033-0.18,0.061-0.26c0.026-0.08,0.073-0.14,0.14-0.18c0.08-0.053,0.12-0.033,0.12,0.061
		c0,0.173-0.003,0.34-0.01,0.5s-0.017,0.326-0.03,0.5c-0.014,0.199-0.026,0.42-0.04,0.66c-0.014,0.239-0.02,0.466-0.02,0.68
		c0,0.266,0.006,0.533,0.02,0.8s0.033,0.533,0.061,0.8c0.026,0.253,0.043,0.517,0.05,0.79c0.006,0.272,0.01,0.536,0.01,0.79
		c0,0.773-0.14,1.49-0.42,2.15s-0.663,1.229-1.15,1.709c-0.486,0.48-1.06,0.857-1.72,1.131s-1.363,0.41-2.11,0.41
		C11.033,27.64,10.177,27.485,9.45,27.179z M13.66,25.869c0.653-0.273,1.21-0.649,1.67-1.13s0.813-1.057,1.06-1.73
		c0.247-0.673,0.37-1.41,0.37-2.209c0-0.268-0.014-0.534-0.04-0.801s-0.087-0.527-0.18-0.779h-7.94c-0.387,0-0.693,0.043-0.92,0.129
		c-0.227,0.087-0.399,0.217-0.52,0.391c-0.12,0.173-0.197,0.391-0.23,0.65s-0.05,0.569-0.05,0.93c0,0.732,0.097,1.402,0.29,2.01
		c0.193,0.606,0.48,1.13,0.86,1.57c0.38,0.439,0.856,0.779,1.43,1.02s1.24,0.36,2,0.36C12.273,26.279,13.007,26.143,13.66,25.869z"
		/>
</g>
</svg>
