<?xml version="1.0" encoding="utf-8"?>
<!-- Generator: Adobe Illustrator 16.0.3, SVG Export Plug-In . SVG Version: 6.00 Build 0)  -->
<!DOCTYPE svg PUBLIC "-//W3C//DTD SVG 1.1//EN" "http://www.w3.org/Graphics/SVG/1.1/DTD/svg11.dtd">
<svg version="1.1" id="Layer_1" xmlns="http://www.w3.org/2000/svg" xmlns:xlink="http://www.w3.org/1999/xlink" x="0px" y="0px"
	 width="184.725px" height="250.766px" viewBox="0 0 184.725 250.766" enable-background="new 0 0 184.725 250.766"
	 xml:space="preserve">
<g enable-background="new    ">
	<path fill="#FFFFFF" d="M78.208,90.872c-6.016-2.54-10.981-6.07-14.897-10.594c-3.918-4.526-6.843-9.988-8.772-16.387
		c-1.932-6.401-2.896-13.464-2.896-21.187c0-2.871,0.108-5.822,0.331-8.855c0.22-3.036,0.439-5.987,0.662-8.855
		c0.22-3.202,0.439-6.43,0.662-9.683c0.22-3.256,0.273-6.484,0.165-9.683c0-0.331,0.191-0.525,0.579-0.58
		c0.386-0.057,0.634,0.083,0.745,0.414c0.771,3.642,2.041,5.876,3.808,6.704c1.764,0.828,4.412,1.241,7.944,1.241h68.361
		c2.537,0,4.164-0.662,4.883-1.986c0.717-1.324,1.185-2.648,1.406-3.972c0.109-0.773,0.275-1.49,0.497-2.152
		c0.22-0.662,0.605-1.159,1.159-1.49c0.662-0.442,0.992-0.277,0.992,0.497c0,1.433-0.027,2.814-0.082,4.138
		c-0.057,1.324-0.14,2.703-0.248,4.138c-0.111,1.655-0.223,3.476-0.332,5.462c-0.111,1.986-0.165,3.861-0.165,5.628
		c0,2.206,0.054,4.412,0.165,6.621c0.109,2.206,0.275,4.412,0.497,6.621c0.22,2.095,0.356,4.275,0.414,6.538
		c0.054,2.261,0.083,4.441,0.083,6.539c0,6.398-1.159,12.332-3.477,17.793c-2.317,5.462-5.49,10.18-9.518,14.152
		c-4.029,3.973-8.772,7.089-14.234,9.352c-5.463,2.261-11.285,3.394-17.463,3.394C91.309,94.679,84.22,93.409,78.208,90.872z
		 M113.05,80.031c5.406-2.263,10.015-5.379,13.822-9.352c3.807-3.973,6.729-8.747,8.771-14.318
		c2.041-5.574,3.063-11.669,3.063-18.291c0-2.208-0.111-4.415-0.331-6.621c-0.222-2.209-0.719-4.361-1.489-6.456H71.173
		c-3.201,0-5.738,0.357-7.614,1.076c-1.877,0.716-3.31,1.792-4.303,3.228c-0.993,1.433-1.63,3.228-1.904,5.379
		c-0.276,2.152-0.413,4.717-0.413,7.697c0,6.067,0.799,11.612,2.399,16.635c1.599,5.02,3.973,9.352,7.118,12.994
		c3.145,3.642,7.089,6.455,11.835,8.441c4.743,1.986,10.262,2.979,16.552,2.979C101.572,83.424,107.641,82.291,113.05,80.031z"/>
	<path fill="#FFFFFF" d="M61.49,154.598c-2.374-0.33-4.829-0.662-7.366-0.992c-0.331,0-0.496-0.223-0.496-0.662l-0.166-0.166
		c-0.331-0.885-0.496-1.602-0.496-2.152c0-2.539,0.025-5.105,0.082-7.697c0.055-2.594,0.083-5.158,0.083-7.695
		c0-2.209,0.026-4.361,0.083-6.457c0.055-2.098,0.083-4.248,0.083-6.455c0-2.979-0.028-5.986-0.083-9.021
		c-0.057-3.035-0.14-6.041-0.248-9.02h1.324c0,1.654,0.356,3.004,1.075,4.055c0.717,1.047,1.627,1.846,2.731,2.4
		c1.102,0.551,2.344,0.91,3.725,1.076c1.378,0.164,2.785,0.248,4.221,0.248h68.857c2.206,0,3.641-0.525,4.303-1.572
		c0.662-1.051,1.214-2.182,1.656-3.395c0.22-0.662,0.468-1.406,0.744-2.234c0.274-0.826,0.688-1.684,1.242-2.564
		c0.219-0.223,0.468-0.307,0.744-0.248c0.274,0.053,0.414,0.248,0.414,0.578v47.174c0.22,0.441,0.414,0.912,0.58,1.408
		c0.165,0.496,0.356,0.965,0.578,1.406c0.221,0.551,0,0.828-0.662,0.828c-2.87-0.332-5.545-0.746-8.027-1.242
		s-4.994-1.021-7.531-1.572c-0.331-0.111-0.471-0.359-0.414-0.744c0.055-0.389,0.248-0.58,0.58-0.58
		c3.861-0.223,6.398-1.547,7.613-3.973c1.213-2.428,1.82-5.408,1.82-8.938v-13.076h-33.932v19.199c0,0.553,0.166,1.268,0.496,2.152
		c0.332,0.883,0.662,1.764,0.994,2.648c0.662,1.213,1.158,2.426,1.489,3.643c0.22,0.551,0,0.826-0.662,0.826
		c-1.324-0.111-2.76-0.248-4.304-0.412c-1.547-0.166-2.979-0.361-4.304-0.58c-1.324-0.223-2.705-0.389-4.138-0.496
		c-1.436-0.111-2.814-0.277-4.138-0.498c-0.331,0-0.554-0.139-0.662-0.412c-0.111-0.277-0.057-0.525,0.165-0.746
		c0.551-0.553,1.103-0.91,1.655-1.076c0.551-0.164,1.159-0.359,1.821-0.578c0.662-0.223,1.324-0.443,1.985-0.662
		c0.662-0.223,1.268-0.607,1.821-1.16c0.551-0.553,0.965-1.572,1.241-3.061c0.274-1.49,0.497-3.092,0.662-4.801
		c0.165-1.713,0.248-3.393,0.248-5.049c0-1.654,0-2.926,0-3.807v-4.967H64.883c-2.428,1.656-4.277,4-5.545,7.035
		c-1.27,3.035-1.903,5.984-1.903,8.855c0,3.861,1.02,7.145,3.063,9.85c2.04,2.703,4.938,4.494,8.689,5.379l-0.331,1.324
		C66.316,155.369,63.861,154.93,61.49,154.598z"/>
	<path fill="#FFFFFF" d="M52.966,246.959c0.22-2.209,0.385-4.443,0.496-6.704c0.108-2.263,0.166-4.552,0.166-6.869
		c0-2.208-0.058-4.304-0.166-6.29c-0.111-1.986-0.276-3.972-0.496-5.958c0-0.331,0.137-0.554,0.413-0.662
		c0.274-0.111,0.522-0.058,0.745,0.165l3.146,2.814c1.102-0.331,2.896-1.159,5.379-2.483c2.483-1.324,5.24-2.871,8.276-4.635
		c3.034-1.767,6.124-3.615,9.27-5.545c3.145-1.932,5.931-3.615,8.358-5.049c1.213-0.772,2.069-1.298,2.565-1.572
		c0.497-0.276,1.019-0.579,1.573-0.91c-1.216-0.662-2.565-1.489-4.055-2.482c-1.489-0.993-3.119-2.044-4.883-3.146
		c-2.317-1.436-4.774-2.925-7.366-4.469c-2.594-1.547-5.104-2.979-7.531-4.304c-2.428-1.324-4.745-2.457-6.951-3.394
		c-2.209-0.938-4.03-1.464-5.463-1.572c-1.216,1.102-1.932,2.592-2.151,4.469h-1.324c0.22-2.208,0.385-4.304,0.496-6.29
		c0.108-1.985,0.166-4.083,0.166-6.289c0-2.209-0.058-4.304-0.166-6.29c-0.111-1.986-0.276-4.084-0.496-6.29h1.324
		c0.108,2.648,1.241,5.24,3.393,7.779c2.152,2.537,4.801,4.992,7.945,7.366c3.146,2.371,6.593,4.688,10.346,6.952
		c3.75,2.26,7.392,4.386,10.924,6.372c2.317,1.324,4.552,2.648,6.703,3.973c2.152,1.324,3.999,2.426,5.545,3.311
		c1.875-0.993,3.668-1.932,5.381-2.813c1.709-0.885,3.336-1.713,4.883-2.483c3.311-1.655,6.758-3.476,10.345-5.462
		c3.585-1.986,6.952-4.139,10.097-6.456c3.145-2.316,5.819-4.8,8.027-7.448c2.207-2.648,3.586-5.462,4.139-8.441
		c0.109-0.331,0.357-0.471,0.745-0.414c0.386,0.055,0.579,0.248,0.579,0.579c-0.223,1.986-0.388,3.999-0.496,6.042
		c-0.111,2.041-0.166,4.109-0.166,6.207c0,1.544,0.055,3.063,0.166,4.552c0.108,1.49,0.273,3.006,0.496,4.552
		c0.109,1.213,0.22,2.483,0.331,3.808c0.108,1.324,0.165,2.591,0.165,3.807c0,0.331-0.193,0.522-0.578,0.579
		c-0.389,0.055-0.637-0.082-0.746-0.413c-0.33-1.216-0.91-2.317-1.737-3.311s-1.903-1.49-3.228-1.49
		c-0.662,0-1.684,0.303-3.063,0.911c-1.381,0.604-2.871,1.35-4.469,2.234c-1.602,0.882-3.256,1.847-4.966,2.896
		c-1.712,1.047-3.284,2.012-4.718,2.896c-2.098,1.324-4.221,2.648-6.373,3.973c-2.151,1.324-4,2.372-5.545,3.145
		c1.324,0.771,2.951,1.821,4.883,3.146c1.93,1.324,3.999,2.757,6.207,4.304c1.656,1.213,3.337,2.426,5.049,3.642
		c1.71,1.213,3.311,2.317,4.801,3.311c1.489,0.993,2.867,1.82,4.138,2.482c1.268,0.662,2.343,0.993,3.228,0.993
		c1.213,0,2.289-0.719,3.229-2.151c0.936-1.436,1.627-2.706,2.068-3.808c0.109-0.331,0.357-0.471,0.745-0.414
		c0.386,0.055,0.579,0.249,0.579,0.58c-0.223,2.317-0.414,4.577-0.579,6.786c-0.165,2.206-0.249,4.469-0.249,6.786
		c0,3.75,0.166,7.449,0.497,11.091h-1.324c-0.222-2.317-1.216-4.609-2.979-6.87c-1.766-2.263-4.029-4.469-6.786-6.62
		c-2.76-2.152-5.768-4.25-9.021-6.29c-3.257-2.043-6.373-4.001-9.353-5.876c-2.209-1.324-4.249-2.566-6.124-3.725
		c-1.879-1.158-3.533-2.234-4.967-3.228c-2.316,1.655-4.828,3.228-7.531,4.717c-2.705,1.49-5.436,3.006-8.192,4.553
		c-3.422,1.875-6.897,3.833-10.428,5.876c-3.533,2.04-6.787,4.192-9.767,6.455c-2.979,2.261-5.573,4.635-7.779,7.117
		c-2.209,2.483-3.698,5.104-4.469,7.862L52.966,246.959z"/>
</g>
</svg>
