<?xml version="1.0" encoding="utf-8"?>
<!-- Generator: Adobe Illustrator 16.0.3, SVG Export Plug-In . SVG Version: 6.00 Build 0)  -->
<!DOCTYPE svg PUBLIC "-//W3C//DTD SVG 1.1//EN" "http://www.w3.org/Graphics/SVG/1.1/DTD/svg11.dtd">
<svg version="1.1" id="Layer_1" xmlns="http://www.w3.org/2000/svg" xmlns:xlink="http://www.w3.org/1999/xlink" x="0px" y="0px"
	 width="22.32px" height="35.459px" viewBox="0 0 22.32 35.459" enable-background="new 0 0 22.32 35.459" xml:space="preserve">
<g enable-background="new    ">
	<path fill="#FFFFFF" d="M9.45,10.979c-0.728-0.307-1.327-0.733-1.8-1.28C7.177,9.153,6.823,8.493,6.59,7.72
		C6.356,6.946,6.24,6.093,6.24,5.16c0-0.347,0.013-0.704,0.04-1.07c0.026-0.367,0.053-0.723,0.08-1.07
		c0.026-0.387,0.053-0.777,0.079-1.17C6.467,1.456,6.472,1.066,6.46,0.68c0-0.04,0.023-0.063,0.07-0.07
		c0.046-0.007,0.076,0.01,0.09,0.05C6.713,1.1,6.866,1.37,7.08,1.47c0.213,0.1,0.533,0.15,0.96,0.15h8.26
		c0.307,0,0.503-0.08,0.59-0.24c0.087-0.16,0.144-0.32,0.17-0.48c0.014-0.093,0.033-0.18,0.061-0.26
		c0.026-0.08,0.073-0.14,0.14-0.18c0.08-0.053,0.12-0.033,0.12,0.06c0,0.173-0.003,0.34-0.01,0.5s-0.017,0.327-0.03,0.5
		c-0.014,0.2-0.026,0.42-0.04,0.66c-0.014,0.24-0.02,0.466-0.02,0.68c0,0.267,0.006,0.533,0.02,0.8
		c0.014,0.267,0.033,0.533,0.061,0.8c0.026,0.253,0.043,0.517,0.05,0.79c0.006,0.273,0.01,0.537,0.01,0.79
		c0,0.773-0.14,1.49-0.42,2.15s-0.663,1.23-1.15,1.71c-0.486,0.48-1.06,0.856-1.72,1.13s-1.363,0.41-2.11,0.41
		C11.033,11.439,10.177,11.286,9.45,10.979z M13.66,9.669c0.653-0.273,1.21-0.65,1.67-1.13s0.813-1.057,1.06-1.73
		c0.247-0.673,0.37-1.41,0.37-2.21c0-0.267-0.014-0.534-0.04-0.8s-0.087-0.527-0.18-0.78h-7.94c-0.387,0-0.693,0.043-0.92,0.13
		C7.453,3.236,7.28,3.366,7.16,3.54c-0.12,0.173-0.197,0.39-0.23,0.65c-0.033,0.26-0.05,0.57-0.05,0.93
		c0,0.733,0.097,1.403,0.29,2.01c0.193,0.606,0.48,1.13,0.86,1.57c0.38,0.44,0.856,0.78,1.43,1.02c0.573,0.24,1.24,0.36,2,0.36
		C12.273,10.08,13.007,9.943,13.66,9.669z"/>
	<path fill="#FFFFFF" d="M16.71,22.46c-0.22-0.188-0.47-0.281-0.75-0.281h-5.36c-0.613,0-1.193-0.1-1.739-0.299
		c-0.547-0.201-1.023-0.48-1.431-0.84c-0.406-0.361-0.727-0.797-0.96-1.311S6.12,18.64,6.12,18c0-0.467,0.076-0.923,0.229-1.37
		s0.37-0.863,0.65-1.25s0.606-0.73,0.979-1.03c0.374-0.3,0.78-0.523,1.221-0.67c0.093-0.04,0.236-0.07,0.43-0.09
		s0.413-0.033,0.66-0.04c0.246-0.007,0.517-0.013,0.81-0.02s0.587-0.01,0.88-0.01c0.347,0,0.687,0.003,1.021,0.01
		c0.333,0.007,0.64,0.01,0.92,0.01h2.02c0.387,0,0.66-0.104,0.82-0.31c0.16-0.207,0.287-0.49,0.38-0.85
		c0.014-0.04,0.043-0.057,0.09-0.05c0.047,0.006,0.07,0.03,0.07,0.07c-0.04,0.76-0.06,1.513-0.06,2.26c0,0.213,0,0.42,0,0.62
		c0,0.2,0.006,0.407,0.02,0.62c0,0.04-0.02,0.066-0.06,0.08c-0.04,0.013-0.073,0-0.101-0.04c-0.106-0.213-0.263-0.43-0.47-0.65
		c-0.207-0.22-0.43-0.33-0.67-0.33l-6.12-0.04c-0.453,0-0.863,0.077-1.229,0.23c-0.367,0.153-0.681,0.37-0.94,0.65
		c-0.26,0.28-0.464,0.61-0.61,0.99c-0.146,0.38-0.22,0.79-0.22,1.23c0,0.453,0.073,0.873,0.22,1.26s0.354,0.72,0.62,1
		s0.587,0.497,0.96,0.649c0.373,0.154,0.793,0.23,1.261,0.23l6.039-0.039c0.387,0,0.671-0.101,0.851-0.301
		c0.18-0.199,0.303-0.486,0.37-0.859c0.013-0.041,0.043-0.058,0.09-0.051s0.07,0.03,0.07,0.07c-0.04,0.373-0.061,0.74-0.061,1.1
		c0,0.107,0.003,0.217,0.01,0.33s0.011,0.223,0.011,0.33c0,0.227,0.003,0.46,0.01,0.7c0.007,0.239,0.003,0.479-0.01,0.72l-0.16,0.02
		C17.066,22.886,16.929,22.646,16.71,22.46z"/>
	<path fill="#FFFFFF" d="M6.21,34.31c-0.06-0.247-0.09-0.49-0.09-0.73c0-0.4,0.073-0.76,0.22-1.08S6.673,31.892,6.9,31.64
		c0.227-0.254,0.486-0.49,0.779-0.711c0.293-0.22,0.594-0.43,0.9-0.629c0.28-0.188,0.557-0.385,0.83-0.591
		c0.272-0.206,0.52-0.433,0.74-0.68c0.22-0.247,0.396-0.514,0.529-0.8c0.134-0.287,0.2-0.61,0.2-0.971c0-0.106,0-0.213,0-0.32
		c0-0.093-0.014-0.193-0.04-0.299H8c-0.387,0-0.717,0.116-0.99,0.35c-0.273,0.232-0.43,0.543-0.47,0.93H6.38
		c0.026-0.307,0.05-0.609,0.07-0.91c0.02-0.3,0.029-0.604,0.029-0.91s-0.013-0.604-0.04-0.89c-0.026-0.286-0.06-0.583-0.1-0.89
		c-0.014-0.04,0.003-0.07,0.05-0.09c0.047-0.021,0.083-0.01,0.11,0.029c0.133,0.28,0.333,0.514,0.6,0.7s0.554,0.28,0.86,0.28h7.979
		c0.307,0,0.577-0.11,0.811-0.33c0.233-0.221,0.39-0.483,0.47-0.79c0.014-0.04,0.043-0.057,0.09-0.05
		c0.047,0.006,0.07,0.029,0.07,0.07v3.939c0,0.413-0.05,0.82-0.15,1.221c-0.1,0.399-0.257,0.752-0.47,1.06
		c-0.213,0.306-0.493,0.553-0.84,0.739c-0.347,0.188-0.76,0.28-1.24,0.28c-0.64,0-1.247-0.177-1.819-0.53
		c-0.574-0.354-1.067-0.75-1.48-1.189c-0.16,0.146-0.363,0.307-0.61,0.48c-0.246,0.173-0.503,0.359-0.77,0.56
		c-0.4,0.293-0.811,0.603-1.23,0.93s-0.8,0.671-1.14,1.03s-0.606,0.732-0.8,1.12c-0.193,0.386-0.264,0.78-0.21,1.18l-0.16,0.06
		C6.353,34.792,6.269,34.556,6.21,34.31z M14.979,29.81c0.347-0.101,0.66-0.25,0.94-0.45s0.51-0.447,0.69-0.74
		c0.18-0.294,0.27-0.634,0.27-1.021c0-0.16-0.01-0.319-0.03-0.479c-0.02-0.16-0.063-0.313-0.13-0.46H11.74
		c-0.04,0.227-0.067,0.446-0.08,0.66c-0.014,0.213-0.021,0.434-0.021,0.66c0,0.746,0.203,1.263,0.61,1.55
		c0.406,0.286,0.97,0.43,1.689,0.43C14.286,29.959,14.633,29.909,14.979,29.81z"/>
</g>
</svg>
