<?xml version="1.0" encoding="utf-8"?>
<!-- Generator: Adobe Illustrator 16.0.3, SVG Export Plug-In . SVG Version: 6.00 Build 0)  -->
<!DOCTYPE svg PUBLIC "-//W3C//DTD SVG 1.1//EN" "http://www.w3.org/Graphics/SVG/1.1/DTD/svg11.dtd">
<svg version="1.1" id="Layer_1" xmlns="http://www.w3.org/2000/svg" xmlns:xlink="http://www.w3.org/1999/xlink" x="0px" y="0px"
	 width="22.32px" height="23.84px" viewBox="0 0 22.32 23.84" enable-background="new 0 0 22.32 23.84" xml:space="preserve">
<g enable-background="new    ">
	<path fill="#FF3C00" d="M15.5,6.5c-0.04-0.014-0.057-0.043-0.05-0.09c0.006-0.047,0.029-0.07,0.069-0.07
		c0.44,0,0.75-0.12,0.931-0.36c0.18-0.24,0.27-0.573,0.27-1c0-0.187-0.01-0.363-0.03-0.53c-0.02-0.167-0.043-0.344-0.069-0.53
		c-0.027-0.133-0.047-0.28-0.061-0.44c-0.013-0.16-0.02-0.307-0.02-0.44h-3.92v2.7c0,0.093,0.04,0.2,0.12,0.32
		s0.16,0.213,0.239,0.28C13.007,6.366,13.012,6.396,13,6.43c-0.014,0.033-0.04,0.05-0.08,0.05c-0.373-0.027-0.737-0.063-1.09-0.11
		c-0.354-0.047-0.703-0.104-1.05-0.17c-0.04-0.014-0.058-0.043-0.051-0.09s0.03-0.07,0.07-0.07c0.44,0.013,0.743-0.097,0.91-0.33
		s0.25-0.563,0.25-0.99V3.04h-4c-0.16,0-0.327,0.033-0.5,0.1C7.286,3.206,7.133,3.299,7,3.419c-0.134,0.12-0.24,0.26-0.32,0.42
		c-0.08,0.16-0.12,0.333-0.12,0.52H6.4V4.22c0-0.147,0.006-0.287,0.02-0.42c0.013-0.133,0.026-0.273,0.04-0.42
		c0.013-0.147,0.023-0.287,0.03-0.42C6.496,2.826,6.5,2.693,6.5,2.56s-0.007-0.267-0.021-0.4c-0.013-0.134-0.026-0.267-0.04-0.4
		C6.427,1.6,6.416,1.443,6.41,1.29C6.403,1.136,6.4,0.986,6.4,0.839V0.72c0-0.04,0.022-0.063,0.069-0.07s0.077,0.01,0.09,0.05
		c0.04,0.24,0.091,0.426,0.15,0.56s0.14,0.23,0.24,0.29c0.1,0.06,0.227,0.093,0.38,0.1s0.35,0.01,0.59,0.01h8.36
		c0.307,0,0.496-0.06,0.569-0.18s0.13-0.26,0.17-0.42c0.027-0.067,0.057-0.15,0.091-0.25c0.032-0.1,0.083-0.204,0.149-0.31
		c0.026-0.04,0.057-0.053,0.09-0.04S17.4,0.5,17.4,0.54c-0.04,0.84-0.061,1.687-0.061,2.54V4.5c0,0.066-0.003,0.137-0.01,0.21
		s-0.01,0.15-0.01,0.23c-0.014,0.307-0.014,0.623,0,0.95c0.013,0.327,0.086,0.61,0.22,0.85c0.026,0.026,0.026,0.056,0,0.09
		c-0.027,0.033-0.061,0.043-0.101,0.03L15.5,6.5z"/>
	<path fill="#FF3C00" d="M6.389,10.79C6.396,10.542,6.4,10.292,6.4,10.04c0-0.36-0.004-0.714-0.011-1.06
		c-0.007-0.347-0.017-0.7-0.029-1.06c0-0.04,0.022-0.063,0.069-0.07s0.077,0.01,0.09,0.05c0.12,0.333,0.304,0.577,0.551,0.73
		c0.246,0.153,0.543,0.23,0.89,0.23h8.3c0.307,0,0.521-0.104,0.641-0.31c0.119-0.207,0.199-0.45,0.239-0.73
		c0.014-0.04,0.043-0.057,0.09-0.05c0.047,0.006,0.07,0.03,0.07,0.07c-0.026,0.28-0.047,0.56-0.06,0.84
		c-0.014,0.28-0.021,0.567-0.021,0.86c0,0.28,0.007,0.56,0.021,0.84c0.013,0.28,0.04,0.553,0.08,0.82
		c0.013,0.04-0.007,0.067-0.061,0.08s-0.087,0-0.1-0.04c-0.067-0.293-0.147-0.53-0.24-0.71c-0.094-0.18-0.313-0.27-0.66-0.27h-8.24
		c-0.507,0-0.869,0.097-1.09,0.29c-0.22,0.193-0.35,0.53-0.39,1.01H6.38C6.38,11.292,6.383,11.036,6.389,10.79z"/>
	<path fill="#FF3C00" d="M6.21,22.689c-0.06-0.246-0.09-0.49-0.09-0.73c0-0.399,0.073-0.76,0.22-1.08
		C6.486,20.56,6.673,20.272,6.9,20.02c0.227-0.254,0.486-0.49,0.779-0.71s0.594-0.431,0.9-0.63c0.28-0.188,0.557-0.384,0.83-0.59
		c0.272-0.207,0.52-0.434,0.74-0.68c0.22-0.248,0.396-0.514,0.529-0.801c0.134-0.287,0.2-0.609,0.2-0.97c0-0.106,0-0.214,0-0.32
		c0-0.093-0.014-0.193-0.04-0.3H8c-0.387,0-0.717,0.117-0.99,0.35c-0.273,0.233-0.43,0.543-0.47,0.93H6.38
		c0.026-0.307,0.05-0.609,0.07-0.909c0.02-0.3,0.029-0.604,0.029-0.91s-0.013-0.604-0.04-0.89c-0.026-0.287-0.06-0.584-0.1-0.891
		c-0.014-0.039,0.003-0.07,0.05-0.09s0.083-0.01,0.11,0.03c0.133,0.28,0.333,0.513,0.6,0.7c0.267,0.186,0.554,0.279,0.86,0.279
		h7.979c0.307,0,0.577-0.109,0.811-0.33c0.233-0.22,0.39-0.482,0.47-0.789c0.014-0.041,0.043-0.057,0.09-0.051
		c0.047,0.007,0.07,0.03,0.07,0.07v3.939c0,0.414-0.05,0.82-0.15,1.221c-0.1,0.4-0.257,0.753-0.47,1.061
		c-0.213,0.306-0.493,0.553-0.84,0.739s-0.76,0.28-1.24,0.28c-0.64,0-1.247-0.178-1.819-0.53c-0.574-0.354-1.067-0.75-1.48-1.19
		c-0.16,0.146-0.363,0.307-0.61,0.48c-0.246,0.174-0.503,0.359-0.77,0.561c-0.4,0.293-0.811,0.603-1.23,0.93
		c-0.42,0.326-0.8,0.67-1.14,1.029c-0.34,0.36-0.606,0.733-0.8,1.121c-0.193,0.386-0.264,0.779-0.21,1.18l-0.16,0.06
		C6.353,23.173,6.269,22.936,6.21,22.689z M14.979,18.189c0.347-0.1,0.66-0.25,0.94-0.449c0.28-0.201,0.51-0.447,0.69-0.74
		c0.18-0.294,0.27-0.634,0.27-1.021c0-0.16-0.01-0.319-0.03-0.479c-0.02-0.16-0.063-0.314-0.13-0.461H11.74
		c-0.04,0.227-0.067,0.447-0.08,0.66c-0.014,0.213-0.021,0.434-0.021,0.66c0,0.746,0.203,1.264,0.61,1.551
		c0.406,0.286,0.97,0.43,1.689,0.43C14.286,18.34,14.633,18.289,14.979,18.189z"/>
</g>
</svg>
