<?xml version="1.0" encoding="utf-8"?>
<!-- Generator: Adobe Illustrator 16.0.3, SVG Export Plug-In . SVG Version: 6.00 Build 0)  -->
<!DOCTYPE svg PUBLIC "-//W3C//DTD SVG 1.1//EN" "http://www.w3.org/Graphics/SVG/1.1/DTD/svg11.dtd">
<svg version="1.1" id="Layer_1" xmlns="http://www.w3.org/2000/svg" xmlns:xlink="http://www.w3.org/1999/xlink" x="0px" y="0px"
	 width="184.725px" height="226.104px" viewBox="0 0 184.725 226.104" enable-background="new 0 0 184.725 226.104"
	 xml:space="preserve">
<g enable-background="new    ">
	<path fill="#FF3C00" d="M52.883,28.718c0.055-2.043,0.083-4.112,0.083-6.207c0-2.979-0.028-5.905-0.083-8.773
		c-0.057-2.871-0.14-5.793-0.248-8.772c0-0.331,0.191-0.525,0.579-0.58c0.386-0.057,0.634,0.083,0.745,0.414
		c0.993,2.757,2.509,4.771,4.552,6.042c2.04,1.267,4.495,1.903,7.365,1.903h68.692c2.537,0,4.304-0.856,5.296-2.565
		c0.994-1.712,1.656-3.724,1.986-6.042c0.109-0.331,0.357-0.471,0.746-0.414c0.385,0.055,0.578,0.249,0.578,0.58
		c-0.222,2.317-0.387,4.635-0.496,6.952c-0.111,2.317-0.166,4.689-0.166,7.118c0,2.317,0.055,4.635,0.166,6.952
		c0.109,2.317,0.331,4.578,0.662,6.787c0.109,0.331-0.057,0.551-0.496,0.662c-0.442,0.109-0.719,0-0.828-0.331
		c-0.553-2.428-1.215-4.386-1.986-5.876c-0.773-1.49-2.594-2.234-5.462-2.234H66.373c-4.195,0-7.2,0.799-9.021,2.4
		c-1.82,1.599-2.896,4.387-3.228,8.359H52.8C52.8,32.882,52.826,30.758,52.883,28.718z"/>
	<path fill="#FF3C00" d="M141.934,139.121c0.054-0.057,0.025-0.193-0.084-0.413c-0.441-1.547-0.992-3.174-1.654-4.883
		c-0.662-1.713-1.821-2.566-3.477-2.566l-39.891,0.166h-6.786c-6.401,0-12.72-0.111-18.952-0.331
		c-6.236-0.223-12.497-0.608-18.787-1.159c-0.223,0-0.414-0.14-0.58-0.413c-0.165-0.277-0.14-0.525,0.083-0.745
		c4.523-5.297,9.406-10.594,14.649-15.891c5.239-5.297,10.593-10.511,16.056-15.642c5.462-5.131,10.978-10.18,16.552-15.146
		c5.57-4.966,11.008-9.711,16.305-14.235c1.654-1.547,3.227-2.925,4.717-4.138c1.49-1.216,3.063-2.594,4.717-4.138
		c-2.979-0.331-5.85-0.497-8.607-0.497c-4.194,0-8.387,0.054-12.579,0.166c-4.194,0.109-8.388,0.274-12.58,0.497
		c-4.195,0.22-8.387,0.385-12.58,0.497c-4.195,0.108-8.441,0.166-12.745,0.166c-1.878,0-3.394,0.166-4.552,0.497
		c-1.159,0.331-2.069,0.745-2.731,1.241s-1.133,1.102-1.407,1.821c-0.276,0.717-0.471,1.461-0.579,2.235
		c-0.223,0.882-0.471,1.764-0.745,2.648c-0.276,0.882-0.855,1.929-1.737,3.145c-0.223,0.22-0.471,0.303-0.745,0.249
		c-0.276-0.057-0.414-0.249-0.414-0.58c0.108-1.104,0.22-2.18,0.331-3.228c0.108-1.05,0.22-2.126,0.331-3.228
		c0.22-1.547,0.386-3.119,0.497-4.718c0.108-1.601,0.165-3.173,0.165-4.717c0-1.986-0.14-4.029-0.414-6.125
		c-0.276-2.097-0.579-4.195-0.91-6.29c-0.111-0.331,0-0.58,0.331-0.745s0.605-0.14,0.828,0.083c0.771,0.882,1.378,1.681,1.82,2.4
		c0.439,0.716,0.828,1.407,1.159,2.069c0.662,1.324,1.572,2.508,2.73,3.559c1.159,1.047,3.006,1.572,5.545,1.572h77.465l2.648,1.324
		c0.22,0.109,0.385,0.274,0.496,0.497c0.109,0.22,0.055,0.386-0.165,0.497c-12.472,12.026-24.745,23.67-36.829,34.926
		c-12.083,11.256-24.58,22.677-37.49,34.264h0.496c5.074,0,10.098-0.028,15.063-0.083c4.966-0.057,10.04-0.14,15.229-0.248
		c4.742-0.111,9.791-0.223,15.145-0.331c5.352-0.111,10.4-0.165,15.146-0.165c1.875,0,3.393-0.194,4.551-0.58
		c1.159-0.388,2.041-0.91,2.648-1.572c0.605-0.662,1.02-1.381,1.242-2.151c0.22-0.773,0.385-1.547,0.496-2.317
		c0.109-0.885,0.248-1.684,0.414-2.4c0.166-0.719,0.522-1.353,1.076-1.903c0.219-0.223,0.496-0.248,0.827-0.083
		c0.331,0.166,0.44,0.357,0.331,0.579c-0.331,2.537-0.496,4.909-0.496,7.118c0,2.317,0,4.635,0,6.951
		c0,1.434,0.025,2.897,0.082,4.387c0.055,1.49,0.026,3.006-0.082,4.552c0,0.551-0.029,1.159-0.083,1.821
		c-0.058,0.662-0.083,1.267-0.083,1.82l-1.324,0.331C141.905,139.312,141.877,139.176,141.934,139.121z"/>
	<path fill="#FF3C00" d="M135.892,222.297c-2.871-0.111-5.52-0.496-7.945-1.158c-0.331-0.111-0.497-0.331-0.497-0.662
		c0-0.223,0.166-0.389,0.497-0.497c3.861-0.885,6.427-2.622,7.696-5.214c1.268-2.594,1.904-5.656,1.904-9.187v-14.566h-71.01
		c-3.201,0-5.904,0.993-8.11,2.979c-2.209,1.986-3.587,4.523-4.138,7.614c-0.111,0.331-0.359,0.469-0.745,0.414
		c-0.388-0.057-0.579-0.248-0.579-0.579c0.22-2.871,0.413-5.685,0.579-8.442c0.165-2.759,0.248-5.573,0.248-8.441
		c0-2.209-0.057-4.36-0.165-6.455c-0.111-2.098-0.277-4.25-0.497-6.456c-0.111-0.331,0.055-0.524,0.497-0.579
		c0.439-0.057,0.716,0.083,0.827,0.414c0.439,1.875,0.91,3.336,1.407,4.386c0.496,1.048,1.13,1.847,1.903,2.4
		c0.771,0.551,1.792,0.882,3.063,0.993c1.267,0.108,2.84,0.166,4.717,0.166h71.837v-19.863c0-2.648-0.885-4.966-2.648-6.952
		c-1.766-1.986-3.807-3.422-6.124-4.304c-0.331-0.11-0.442-0.331-0.331-0.662c0.108-0.331,0.331-0.496,0.662-0.496l2.152-0.331
		c1.764,0,3.447,0.22,5.048,0.662c1.599,0.439,3.171,0.882,4.718,1.324c0.771,0.22,1.516,0.439,2.234,0.662
		c0.717,0.22,1.461,0.439,2.234,0.662c0.551,0.22,0.662,0.551,0.331,0.993c-1.104,1.655-1.795,3.336-2.069,5.048
		c-0.276,1.71-0.414,3.56-0.414,5.546v52.967c0,1.213,0.275,2.758,0.828,4.635c0.109,0.439,0.22,0.828,0.331,1.159
		c0.108,0.331,0.22,0.716,0.331,1.158l-0.662,0.828C141.464,222.463,138.76,222.405,135.892,222.297z"/>
</g>
</svg>
