<?xml version="1.0" encoding="utf-8"?>
<!-- Generator: Adobe Illustrator 16.0.3, SVG Export Plug-In . SVG Version: 6.00 Build 0)  -->
<!DOCTYPE svg PUBLIC "-//W3C//DTD SVG 1.1//EN" "http://www.w3.org/Graphics/SVG/1.1/DTD/svg11.dtd">
<svg version="1.1" id="Layer_1" xmlns="http://www.w3.org/2000/svg" xmlns:xlink="http://www.w3.org/1999/xlink" x="0px" y="0px"
	 width="22.32px" height="29.5px" viewBox="0 0 22.32 29.5" enable-background="new 0 0 22.32 29.5" xml:space="preserve">
<g enable-background="new    ">
	<path fill="#FFFFFF" d="M8.34,7.33c-0.04-0.007-0.08-0.01-0.12-0.01c-0.293-0.027-0.577-0.057-0.85-0.09
		c-0.273-0.033-0.544-0.117-0.811-0.25C6.547,6.993,6.519,7,6.479,7S6.4,6.959,6.36,6.879c0.053-0.533,0.09-1.063,0.109-1.59
		C6.49,4.763,6.5,4.226,6.5,3.68c0-0.44-0.007-0.88-0.021-1.32c-0.013-0.44-0.026-0.88-0.04-1.32c0-0.067-0.003-0.137-0.01-0.21
		C6.423,0.756,6.42,0.686,6.42,0.62c0-0.04,0.026-0.06,0.08-0.06c0.053,0,0.08,0.02,0.08,0.06c0.013,0.146,0.066,0.28,0.16,0.4
		c0.093,0.12,0.21,0.22,0.35,0.3c0.14,0.08,0.29,0.14,0.45,0.18s0.3,0.06,0.42,0.06h8.14c0.32,0,0.573-0.107,0.761-0.32
		c0.187-0.214,0.286-0.48,0.3-0.8h0.16c-0.014,0.253-0.021,0.5-0.021,0.74c0,0.24,0,0.486,0,0.74c0,0.693,0.021,1.4,0.061,2.12
		c0,0.04-0.023,0.063-0.07,0.07S17.213,4.1,17.2,4.06c-0.054-0.28-0.177-0.534-0.37-0.76s-0.43-0.34-0.71-0.34h-7.44
		c-0.56,0-0.99,0.177-1.29,0.53c-0.3,0.353-0.45,0.79-0.45,1.31c0,0.507,0.144,0.973,0.431,1.4C7.656,6.626,8.033,6.953,8.5,7.18
		l-0.04,0.16C8.42,7.339,8.38,7.336,8.34,7.33z"/>
	<path fill="#FFFFFF" d="M11.41,18.359c-0.113-0.2-0.304-0.301-0.57-0.301H7.12c-0.014,0-0.033-0.013-0.061-0.039
		c-0.373-0.494-0.604-1.04-0.689-1.641c-0.087-0.6-0.13-1.193-0.13-1.78c0-0.933,0.123-1.79,0.37-2.57
		c0.246-0.78,0.612-1.454,1.1-2.02c0.486-0.567,1.104-1.007,1.85-1.32c0.747-0.313,1.62-0.47,2.62-0.47c0.88,0,1.66,0.157,2.34,0.47
		c0.681,0.313,1.25,0.743,1.71,1.29c0.46,0.546,0.807,1.187,1.04,1.92c0.233,0.733,0.351,1.513,0.351,2.34
		c0,0.467-0.03,0.933-0.09,1.399c-0.061,0.467-0.124,0.928-0.19,1.381c-0.026,0.187-0.05,0.359-0.07,0.52
		c-0.02,0.16-0.043,0.326-0.069,0.5c0,0.053-0.027,0.08-0.08,0.08c-0.36,0-0.704-0.027-1.03-0.08
		c-0.327-0.053-0.663-0.106-1.01-0.16c-0.067-0.014-0.141-0.023-0.22-0.029c-0.08-0.008-0.154-0.018-0.221-0.03
		c-0.04-0.014-0.06-0.04-0.06-0.08s0.02-0.067,0.06-0.08c0.427-0.08,0.793-0.22,1.101-0.42c0.307-0.2,0.56-0.45,0.76-0.75
		s0.347-0.634,0.439-1c0.094-0.367,0.141-0.75,0.141-1.15c0-0.68-0.113-1.313-0.34-1.9c-0.228-0.587-0.544-1.097-0.95-1.53
		c-0.407-0.433-0.894-0.773-1.46-1.02c-0.567-0.247-1.19-0.37-1.87-0.37c-0.747,0-1.453,0.136-2.12,0.41s-1.247,0.65-1.74,1.13
		s-0.883,1.043-1.17,1.69C7.142,13.396,7,14.092,7,14.839c0,0.307,0.043,0.629,0.13,0.969c0.087,0.341,0.23,0.624,0.43,0.851h3.32
		c0.227,0,0.38-0.069,0.46-0.21s0.146-0.297,0.2-0.47c0.026-0.067,0.053-0.144,0.08-0.229c0.026-0.088,0.066-0.178,0.12-0.271
		c0.026-0.04,0.057-0.054,0.09-0.04s0.05,0.04,0.05,0.08c0,1.173-0.02,2.34-0.06,3.5l-0.16,0.02
		C11.606,18.785,11.523,18.559,11.41,18.359z"/>
	<path fill="#FFFFFF" d="M16.42,29.039c-0.347-0.014-0.667-0.061-0.96-0.141c-0.04-0.013-0.06-0.039-0.06-0.08
		c0-0.026,0.02-0.047,0.06-0.06c0.467-0.106,0.776-0.317,0.93-0.63c0.153-0.313,0.23-0.684,0.23-1.109v-1.761H8.04
		c-0.387,0-0.714,0.12-0.98,0.36s-0.433,0.547-0.5,0.92c-0.013,0.04-0.043,0.057-0.09,0.05S6.4,26.559,6.4,26.52
		c0.026-0.348,0.05-0.688,0.069-1.021c0.021-0.333,0.03-0.673,0.03-1.021c0-0.267-0.007-0.526-0.021-0.779
		c-0.013-0.254-0.033-0.514-0.06-0.78c-0.014-0.04,0.007-0.063,0.06-0.069c0.054-0.008,0.087,0.01,0.101,0.049
		c0.053,0.227,0.109,0.404,0.17,0.531c0.06,0.126,0.137,0.223,0.229,0.289c0.094,0.066,0.217,0.107,0.37,0.12
		s0.344,0.021,0.57,0.021h8.68v-2.4c0-0.32-0.106-0.6-0.319-0.84c-0.214-0.24-0.46-0.414-0.74-0.52
		c-0.04-0.014-0.054-0.041-0.04-0.08c0.013-0.041,0.04-0.061,0.08-0.061l0.26-0.04c0.213,0,0.417,0.026,0.61,0.08
		c0.192,0.054,0.383,0.106,0.569,0.16c0.094,0.026,0.184,0.053,0.271,0.079c0.087,0.027,0.177,0.054,0.27,0.08
		c0.067,0.027,0.08,0.067,0.04,0.121c-0.133,0.199-0.217,0.402-0.25,0.609s-0.05,0.43-0.05,0.67v6.4
		c0,0.146,0.033,0.333,0.101,0.561c0.013,0.053,0.026,0.1,0.039,0.139c0.014,0.041,0.027,0.088,0.04,0.141l-0.079,0.1
		C17.093,29.059,16.766,29.053,16.42,29.039z"/>
</g>
</svg>
