<?xml version="1.0" encoding="utf-8"?>
<!-- Generator: Adobe Illustrator 16.0.3, SVG Export Plug-In . SVG Version: 6.00 Build 0)  -->
<!DOCTYPE svg PUBLIC "-//W3C//DTD SVG 1.1//EN" "http://www.w3.org/Graphics/SVG/1.1/DTD/svg11.dtd">
<svg version="1.1" id="Layer_1" xmlns="http://www.w3.org/2000/svg" xmlns:xlink="http://www.w3.org/1999/xlink" x="0px" y="0px"
	 width="22.32px" height="37.42px" viewBox="0 0 22.32 37.42" enable-background="new 0 0 22.32 37.42" xml:space="preserve">
<g enable-background="new    ">
	<path fill="#FF3C00" d="M6.42,14.839c0-0.533,0-1.073,0-1.62c0-0.534,0.013-1.06,0.04-1.58c0-0.08,0.033-0.107,0.1-0.08
		c0.027,0.013,0.054,0.023,0.08,0.03s0.054,0.017,0.08,0.03c0.12,0.04,0.24,0.08,0.36,0.12c0.12,0.04,0.233,0.06,0.34,0.06
		c0.76,0,1.51-0.037,2.25-0.11s1.483-0.157,2.23-0.25c0.453-0.053,0.856-0.104,1.21-0.15c0.353-0.047,0.763-0.083,1.229-0.11
		c-0.974-0.507-1.947-0.994-2.92-1.46c-0.974-0.467-1.96-0.934-2.96-1.4c-0.333-0.16-0.663-0.317-0.99-0.47
		c-0.327-0.153-0.656-0.31-0.99-0.47c-0.026-0.013-0.04-0.033-0.04-0.06s0.014-0.053,0.04-0.08c0.854-0.614,1.724-1.144,2.61-1.59
		s1.776-0.87,2.67-1.27c0.467-0.213,0.891-0.403,1.271-0.57c0.38-0.167,0.796-0.363,1.25-0.59c-0.334-0.04-0.657-0.08-0.971-0.12
		s-0.623-0.08-0.93-0.12c-0.827-0.107-1.646-0.2-2.46-0.28c-0.813-0.08-1.64-0.12-2.48-0.12c-0.239,0-0.403,0.06-0.489,0.18
		c-0.087,0.12-0.164,0.267-0.23,0.44c-0.026,0.053-0.057,0.126-0.09,0.22S6.573,3.573,6.559,3.6C6.533,3.64,6.5,3.653,6.46,3.64
		C6.42,3.626,6.4,3.6,6.4,3.56c0-0.187,0.003-0.37,0.01-0.55c0.006-0.18,0.017-0.363,0.029-0.55c0.014-0.187,0.023-0.374,0.03-0.56
		c0.007-0.187,0.01-0.374,0.01-0.56c0-0.133,0-0.267,0-0.4c0-0.12-0.013-0.253-0.04-0.4C6.427,0.5,6.446,0.473,6.5,0.459
		c0.053-0.013,0.087,0,0.1,0.04c0.027,0.106,0.04,0.187,0.04,0.24c0.026,0.146,0.057,0.273,0.09,0.38
		C6.762,1.226,6.853,1.326,7,1.419c0.04,0.027,0.213,0.063,0.52,0.11s0.697,0.1,1.17,0.16C9.163,1.75,9.7,1.816,10.3,1.89
		c0.601,0.073,1.213,0.143,1.84,0.21c0.627,0.066,1.243,0.133,1.851,0.2c0.606,0.067,1.163,0.127,1.67,0.18
		c0.439,0.053,0.83,0.093,1.17,0.12c0.34,0.026,0.583,0.053,0.729,0.08c0.04,0,0.063,0.017,0.07,0.05s-0.003,0.063-0.03,0.09
		c-0.173,0.16-0.517,0.387-1.029,0.68c-0.514,0.293-1.11,0.61-1.79,0.95c-0.681,0.34-1.4,0.693-2.16,1.06s-1.467,0.703-2.12,1.01
		c-0.467,0.227-0.867,0.413-1.2,0.56c-0.333,0.146-0.613,0.28-0.84,0.4c0.427,0.213,0.89,0.43,1.39,0.65
		c0.5,0.22,0.997,0.437,1.49,0.65c1.08,0.467,2.173,0.96,3.28,1.48c1.106,0.52,2.093,1.073,2.96,1.66
		c0.026,0.027,0.036,0.053,0.03,0.08c-0.007,0.026-0.03,0.04-0.07,0.04c-0.16,0.026-0.384,0.05-0.67,0.07
		c-0.287,0.02-0.617,0.05-0.99,0.09c-0.493,0.04-1.033,0.09-1.62,0.15s-1.187,0.123-1.8,0.19c-0.613,0.066-1.21,0.133-1.79,0.2
		c-0.58,0.066-1.11,0.136-1.59,0.21c-0.48,0.073-0.884,0.143-1.21,0.21c-0.327,0.066-0.53,0.133-0.61,0.2
		c-0.213,0.146-0.35,0.287-0.41,0.42c-0.06,0.133-0.104,0.293-0.13,0.48c-0.026,0.093-0.043,0.19-0.05,0.29
		c-0.007,0.1-0.037,0.203-0.09,0.31L6.42,14.839z"/>
	<path fill="#FF3C00" d="M6.439,26.189c0.014-0.167,0.027-0.344,0.04-0.53c0.014-0.107,0.023-0.217,0.03-0.33s0.01-0.23,0.01-0.35
		c0-0.307-0.013-0.613-0.04-0.92c-0.026-0.307-0.053-0.613-0.079-0.92c0-0.041,0.02-0.067,0.06-0.08c0.04-0.014,0.073,0,0.1,0.039
		l0.38,0.781c0.627-0.228,1.243-0.464,1.851-0.711c0.606-0.246,1.229-0.482,1.87-0.709v-3.101c-0.174-0.067-0.431-0.164-0.771-0.29
		c-0.34-0.127-0.693-0.25-1.06-0.37c-0.367-0.12-0.714-0.227-1.04-0.32c-0.327-0.094-0.563-0.14-0.71-0.14
		c-0.2,0-0.33,0.086-0.391,0.26c-0.06,0.173-0.103,0.34-0.13,0.5H6.4c0.026-0.253,0.05-0.514,0.069-0.78
		c0.021-0.267,0.03-0.533,0.03-0.8c0-0.267-0.01-0.534-0.03-0.8c-0.02-0.267-0.043-0.533-0.069-0.8
		c-0.014-0.04,0.006-0.063,0.06-0.07c0.053-0.007,0.087,0.01,0.1,0.05c0.094,0.733,0.48,1.247,1.16,1.54H7.7
		c0.973,0.387,1.946,0.76,2.92,1.12c0.973,0.36,1.953,0.713,2.939,1.06c0.667,0.239,1.33,0.474,1.99,0.7s1.323,0.467,1.99,0.72
		c0.04,0.013,0.06,0.04,0.06,0.08s-0.02,0.066-0.06,0.079c-0.187,0.067-0.37,0.137-0.55,0.211c-0.181,0.072-0.363,0.143-0.551,0.21
		c-1.493,0.546-2.993,1.116-4.5,1.71c-1.507,0.593-2.979,1.27-4.42,2.029c-0.307,0.16-0.526,0.363-0.659,0.61
		c-0.134,0.247-0.214,0.53-0.24,0.851H6.46C6.432,26.532,6.427,26.356,6.439,26.189z M15.479,20.919
		c-0.706-0.227-1.396-0.443-2.069-0.649c-0.674-0.207-1.37-0.437-2.09-0.69v2.58L15.479,20.919z"/>
	<path fill="#FF3C00" d="M11.41,36.3c-0.113-0.201-0.304-0.301-0.57-0.301H7.12c-0.014,0-0.033-0.014-0.061-0.039
		c-0.373-0.494-0.604-1.041-0.689-1.641c-0.087-0.6-0.13-1.193-0.13-1.78c0-0.933,0.123-1.79,0.37-2.569
		c0.246-0.78,0.612-1.454,1.1-2.021c0.486-0.567,1.104-1.007,1.85-1.319c0.747-0.314,1.62-0.471,2.62-0.471
		c0.88,0,1.66,0.156,2.34,0.471c0.681,0.313,1.25,0.742,1.71,1.289s0.807,1.188,1.04,1.92c0.233,0.733,0.351,1.514,0.351,2.34
		c0,0.467-0.03,0.934-0.09,1.4c-0.061,0.467-0.124,0.927-0.19,1.381c-0.026,0.186-0.05,0.359-0.07,0.52
		c-0.02,0.16-0.043,0.326-0.069,0.5c0,0.053-0.027,0.08-0.08,0.08c-0.36,0-0.704-0.027-1.03-0.08
		c-0.327-0.054-0.663-0.107-1.01-0.16c-0.067-0.014-0.141-0.023-0.22-0.03c-0.08-0.007-0.154-0.017-0.221-0.03
		c-0.04-0.014-0.06-0.039-0.06-0.08c0-0.039,0.02-0.066,0.06-0.08c0.427-0.08,0.793-0.219,1.101-0.42
		c0.307-0.199,0.56-0.449,0.76-0.75c0.2-0.299,0.347-0.633,0.439-1c0.094-0.366,0.141-0.75,0.141-1.149
		c0-0.681-0.113-1.313-0.34-1.899c-0.228-0.588-0.544-1.098-0.95-1.531c-0.407-0.433-0.894-0.773-1.46-1.02
		c-0.567-0.246-1.19-0.369-1.87-0.369c-0.747,0-1.453,0.136-2.12,0.409s-1.247,0.649-1.74,1.13s-0.883,1.043-1.17,1.69
		C7.142,31.336,7,32.032,7,32.779c0,0.307,0.043,0.63,0.13,0.97s0.23,0.623,0.43,0.85h3.32c0.227,0,0.38-0.069,0.46-0.209
		c0.08-0.141,0.146-0.297,0.2-0.471c0.026-0.066,0.053-0.143,0.08-0.229c0.026-0.087,0.066-0.177,0.12-0.271
		c0.026-0.039,0.057-0.053,0.09-0.039c0.033,0.013,0.05,0.039,0.05,0.08c0,1.172-0.02,2.34-0.06,3.5l-0.16,0.02
		C11.606,36.726,11.523,36.499,11.41,36.3z"/>
</g>
</svg>
