<?xml version="1.0" encoding="utf-8"?>
<!-- Generator: Adobe Illustrator 16.0.3, SVG Export Plug-In . SVG Version: 6.00 Build 0)  -->
<!DOCTYPE svg PUBLIC "-//W3C//DTD SVG 1.1//EN" "http://www.w3.org/Graphics/SVG/1.1/DTD/svg11.dtd">
<svg version="1.1" id="Layer_1" xmlns="http://www.w3.org/2000/svg" xmlns:xlink="http://www.w3.org/1999/xlink" x="0px" y="0px"
	 width="22.32px" height="36.781px" viewBox="0 0 22.32 36.781" enable-background="new 0 0 22.32 36.781" xml:space="preserve">
<g enable-background="new    ">
	<path fill="#FF3C00" d="M17.15,12.129c0.006-0.007,0.003-0.023-0.011-0.05c-0.053-0.187-0.12-0.383-0.2-0.59
		c-0.079-0.207-0.22-0.31-0.42-0.31L11.7,11.2h-0.82c-0.773,0-1.537-0.014-2.29-0.04c-0.753-0.027-1.51-0.074-2.27-0.14
		c-0.027,0-0.051-0.017-0.07-0.05c-0.021-0.034-0.017-0.063,0.01-0.09c0.547-0.64,1.137-1.28,1.771-1.92
		c0.633-0.64,1.279-1.27,1.939-1.89c0.66-0.62,1.327-1.23,2-1.83c0.673-0.6,1.33-1.174,1.97-1.72c0.2-0.187,0.391-0.354,0.57-0.5
		c0.18-0.147,0.37-0.313,0.57-0.5c-0.36-0.04-0.707-0.06-1.04-0.06c-0.507,0-1.014,0.007-1.521,0.02S11.507,2.513,11,2.54
		C10.493,2.566,9.986,2.586,9.479,2.6c-0.507,0.013-1.02,0.02-1.54,0.02c-0.227,0-0.409,0.02-0.55,0.06
		c-0.14,0.04-0.25,0.09-0.33,0.15s-0.137,0.133-0.17,0.22S6.833,3.226,6.82,3.319C6.793,3.426,6.762,3.533,6.729,3.64
		c-0.033,0.106-0.103,0.233-0.21,0.38c-0.026,0.026-0.057,0.037-0.09,0.03s-0.05-0.03-0.05-0.07c0.013-0.133,0.026-0.263,0.04-0.39
		C6.432,3.462,6.446,3.333,6.46,3.2c0.026-0.187,0.047-0.377,0.06-0.57C6.533,2.436,6.54,2.246,6.54,2.06
		c0-0.24-0.017-0.487-0.05-0.74C6.456,1.066,6.42,0.813,6.38,0.56c-0.014-0.04,0-0.07,0.04-0.09s0.073-0.017,0.1,0.01
		C6.613,0.586,6.686,0.683,6.74,0.77c0.053,0.086,0.1,0.17,0.14,0.25c0.08,0.16,0.19,0.303,0.33,0.43
		c0.14,0.126,0.363,0.19,0.67,0.19h9.36l0.319,0.16c0.027,0.013,0.047,0.033,0.061,0.06c0.013,0.027,0.007,0.047-0.021,0.06
		c-1.507,1.453-2.989,2.86-4.449,4.22c-1.461,1.36-2.971,2.74-4.53,4.14h0.06c0.613,0,1.221-0.003,1.82-0.01
		c0.6-0.007,1.213-0.017,1.84-0.03c0.573-0.014,1.184-0.027,1.83-0.04c0.646-0.014,1.257-0.02,1.83-0.02
		c0.227,0,0.41-0.023,0.55-0.07s0.247-0.11,0.32-0.19s0.123-0.167,0.149-0.26c0.027-0.094,0.047-0.187,0.061-0.28
		c0.013-0.107,0.03-0.203,0.05-0.29c0.021-0.087,0.063-0.163,0.13-0.23c0.026-0.027,0.061-0.03,0.101-0.01s0.053,0.043,0.04,0.07
		c-0.04,0.307-0.061,0.593-0.061,0.86c0,0.28,0,0.56,0,0.84c0,0.173,0.003,0.35,0.01,0.53c0.007,0.18,0.004,0.363-0.01,0.55
		c0,0.066-0.003,0.14-0.01,0.22s-0.01,0.153-0.01,0.22l-0.16,0.04C17.146,12.153,17.142,12.136,17.15,12.129z"/>
	<path fill="#FF3C00" d="M9.389,24.029c-0.66-0.313-1.229-0.729-1.71-1.25c-0.479-0.52-0.854-1.123-1.12-1.81S6.16,19.56,6.16,18.8
		c0-0.627,0.153-1.277,0.46-1.95s0.706-1.29,1.2-1.85c0.493-0.56,1.053-1.023,1.68-1.39c0.627-0.367,1.26-0.55,1.9-0.55
		c0.973,0,1.81,0.09,2.51,0.27s1.293,0.47,1.779,0.87c0.487,0.4,0.887,0.926,1.2,1.58c0.313,0.653,0.57,1.453,0.771,2.4l0.02,0.26
		c0.066,0.854-0.057,1.646-0.37,2.381c-0.313,0.732-0.753,1.373-1.319,1.92c-0.567,0.546-1.237,0.977-2.011,1.289
		c-0.773,0.313-1.587,0.471-2.439,0.471C10.766,24.5,10.05,24.343,9.389,24.029z M13.519,22.869c0.653-0.193,1.24-0.479,1.761-0.859
		c0.52-0.381,0.939-0.848,1.26-1.4s0.479-1.189,0.479-1.91c0-0.68-0.123-1.284-0.369-1.81c-0.247-0.527-0.587-0.97-1.021-1.33
		s-0.934-0.637-1.5-0.83s-1.17-0.29-1.81-0.29c-0.667,0-1.327,0.1-1.98,0.3c-0.653,0.2-1.243,0.497-1.77,0.89
		c-0.527,0.394-0.954,0.87-1.28,1.43c-0.327,0.56-0.49,1.2-0.49,1.92c0,0.681,0.13,1.28,0.39,1.8
		c0.261,0.521,0.607,0.957,1.04,1.311c0.434,0.354,0.937,0.619,1.511,0.8c0.573,0.181,1.18,0.271,1.819,0.271
		C12.213,23.16,12.866,23.063,13.519,22.869z"/>
	<path fill="#FF3C00" d="M6.21,35.629c-0.06-0.246-0.09-0.489-0.09-0.729c0-0.399,0.073-0.76,0.22-1.08
		c0.146-0.319,0.333-0.606,0.561-0.86c0.227-0.253,0.486-0.49,0.779-0.709c0.293-0.221,0.594-0.431,0.9-0.631
		c0.28-0.187,0.557-0.383,0.83-0.59c0.272-0.207,0.52-0.434,0.74-0.68c0.22-0.247,0.396-0.514,0.529-0.801
		c0.134-0.286,0.2-0.609,0.2-0.969c0-0.107,0-0.214,0-0.32c0-0.094-0.014-0.193-0.04-0.301H8c-0.387,0-0.717,0.117-0.99,0.351
		s-0.43,0.543-0.47,0.93H6.38c0.026-0.307,0.05-0.61,0.07-0.909c0.02-0.301,0.029-0.604,0.029-0.91s-0.013-0.604-0.04-0.891
		c-0.026-0.287-0.06-0.584-0.1-0.89c-0.014-0.04,0.003-0.07,0.05-0.091c0.047-0.02,0.083-0.01,0.11,0.031
		c0.133,0.279,0.333,0.513,0.6,0.699s0.554,0.28,0.86,0.28h7.979c0.307,0,0.577-0.11,0.811-0.33s0.39-0.483,0.47-0.79
		c0.014-0.04,0.043-0.057,0.09-0.05s0.07,0.03,0.07,0.069v3.94c0,0.413-0.05,0.819-0.15,1.22c-0.1,0.4-0.257,0.754-0.47,1.061
		s-0.493,0.553-0.84,0.74c-0.347,0.186-0.76,0.279-1.24,0.279c-0.64,0-1.247-0.177-1.819-0.529c-0.574-0.354-1.067-0.75-1.48-1.19
		c-0.16,0.146-0.363,0.307-0.61,0.479c-0.246,0.174-0.503,0.36-0.77,0.561c-0.4,0.293-0.811,0.604-1.23,0.93s-0.8,0.67-1.14,1.03
		s-0.606,0.733-0.8,1.12s-0.264,0.779-0.21,1.18L6.46,36.34C6.353,36.113,6.269,35.876,6.21,35.629z M14.979,31.129
		c0.347-0.1,0.66-0.25,0.94-0.449c0.28-0.2,0.51-0.447,0.69-0.74c0.18-0.293,0.27-0.633,0.27-1.02c0-0.16-0.01-0.32-0.03-0.48
		c-0.02-0.16-0.063-0.313-0.13-0.46H11.74c-0.04,0.227-0.067,0.446-0.08,0.66c-0.014,0.213-0.021,0.433-0.021,0.659
		c0,0.747,0.203,1.264,0.61,1.551c0.406,0.287,0.97,0.43,1.689,0.43C14.286,31.279,14.633,31.229,14.979,31.129z"/>
</g>
</svg>
