<?xml version="1.0" encoding="utf-8"?>
<!-- Generator: Adobe Illustrator 16.0.3, SVG Export Plug-In . SVG Version: 6.00 Build 0)  -->
<!DOCTYPE svg PUBLIC "-//W3C//DTD SVG 1.1//EN" "http://www.w3.org/Graphics/SVG/1.1/DTD/svg11.dtd">
<svg version="1.1" id="Layer_1" xmlns="http://www.w3.org/2000/svg" xmlns:xlink="http://www.w3.org/1999/xlink" x="0px" y="0px"
	 width="184.725px" height="261.359px" viewBox="0 0 184.725 261.359" enable-background="new 0 0 184.725 261.359"
	 xml:space="preserve">
<g enable-background="new    ">
	<path fill="#FF3C00" d="M111.56,60.664c-3.422-1.27-6.483-3.063-9.187-5.38c-2.705-2.317-4.883-5.077-6.539-8.276
		c-1.654-3.202-2.482-6.678-2.482-10.428c0-2.208,0.274-4.58,0.828-7.117c0.108-0.331,0.356-0.471,0.744-0.414
		c0.386,0.054,0.58,0.249,0.58,0.58v2.813c0,6.29,1.957,11.256,5.876,14.897c3.915,3.642,8.964,5.462,15.146,5.462
		c2.757,0,5.488-0.442,8.193-1.324c2.703-0.885,5.156-2.152,7.365-3.807c2.207-1.655,3.999-3.67,5.38-6.042
		c1.378-2.375,2.069-5.049,2.069-8.028c0-3.09-0.662-5.958-1.986-8.607H64.552c-3.641,0-6.235,0.828-7.779,2.483
		c-1.547,1.655-2.429,4.358-2.648,8.11c0,0.331-0.223,0.497-0.662,0.497c-0.442,0-0.662-0.166-0.662-0.497v-18.87
		c0-1.877,0-3.752,0-5.628c0-1.766,0.055-3.587,0.166-5.462c0-0.331,0.191-0.525,0.579-0.58c0.386-0.057,0.634,0.083,0.745,0.414
		c0.331,1.986,0.771,3.53,1.324,4.635c0.551,1.102,1.267,1.903,2.151,2.4c0.882,0.497,2.013,0.771,3.394,0.828
		c1.378,0.054,3.005,0.083,4.883,0.083h67.864c2.317,0,4.221-0.993,5.71-2.979c1.49-1.986,2.51-4.084,3.063-6.29
		c0.109-0.331,0.357-0.471,0.745-0.414c0.386,0.055,0.579,0.249,0.579,0.58c-0.331,3.419-0.525,6.729-0.579,9.931
		c-0.058,3.199-0.083,6.399-0.083,9.601v14.566c0,3.75-0.331,7.118-0.993,10.097s-1.795,5.517-3.394,7.614
		c-1.601,2.095-3.781,3.696-6.537,4.8c-2.76,1.102-6.236,1.655-10.429,1.655C118.456,62.567,114.979,61.931,111.56,60.664z"/>
	<path fill="#FF3C00" d="M52.635,163.205c0.331-5.85,0.496-11.643,0.496-17.379c0-2.098-0.028-4.168-0.083-6.207
		c-0.057-2.045-0.14-4.168-0.248-6.373c0-0.332,0.191-0.525,0.579-0.58c0.386-0.057,0.634,0.082,0.745,0.414
		c0.993,3.42,2.317,5.627,3.973,6.621c1.655,0.992,4.247,1.49,7.779,1.49h34.429V90.374h-34.76c-6.951,0-10.759,3.584-11.421,10.76
		c0,0.33-0.223,0.496-0.662,0.496c-0.442,0-0.662-0.166-0.662-0.496c0-1.768,0-3.477,0-5.132c0-1.547-0.057-3.202-0.165-4.966
		c0-1.216-0.028-2.623-0.083-4.221c-0.057-1.601-0.083-3.008-0.083-4.221c0-1.324,0-2.705,0-4.138c0-1.435,0.055-2.871,0.166-4.303
		c0-0.442,0.025-0.967,0.082-1.573c0.055-0.608,0.083-1.133,0.083-1.572c0-0.331,0.191-0.525,0.579-0.58
		c0.386-0.057,0.634,0.083,0.745,0.414c0.331,1.764,0.688,3.199,1.076,4.304c0.386,1.102,0.937,1.929,1.655,2.482
		c0.716,0.551,1.627,0.911,2.731,1.076c1.102,0.166,2.537,0.248,4.303,0.248h70.514c2.426,0,4.246-0.967,5.461-2.896
		c1.214-1.932,1.876-4.001,1.986-6.207h1.324c-0.33,4.635-0.496,9.212-0.496,13.738c0,1.875,0.025,3.75,0.083,5.628
		c0.054,1.875,0.083,3.75,0.083,5.628v3.476c0,0.331-0.223,0.496-0.662,0.496c-0.442,0-0.662-0.166-0.662-0.496
		c0-1.986-0.607-3.781-1.821-5.38c-1.216-1.601-2.925-2.4-5.131-2.4h-28.802v50.651h28.14c2.648,0,4.329-0.691,5.048-2.07
		c0.717-1.381,1.351-3.063,1.904-5.049c0.108-0.441,0.22-0.855,0.33-1.24c0.109-0.389,0.221-0.803,0.332-1.242
		c0.108-0.33,0.356-0.471,0.744-0.414c0.386,0.055,0.58,0.248,0.58,0.58c-0.332,5.297-0.497,10.428-0.497,15.395
		c0,2.205,0.026,4.439,0.083,6.703c0.055,2.26,0.137,4.494,0.248,6.703c0,0.332-0.193,0.523-0.579,0.58
		c-0.388,0.055-0.636-0.084-0.745-0.414c-0.441-2.43-1.076-4.361-1.903-5.793c-0.827-1.436-2.622-2.152-5.38-2.152H66.207
		c-3.752,0-6.566,0.828-8.441,2.482c-1.878,1.656-3.145,4.357-3.807,8.111L52.635,163.205z"/>
	<path fill="#FF3C00" d="M137.465,251.345c-2.263-2.482-5.022-5.131-8.276-7.945c-3.256-2.813-6.76-5.602-10.511-8.358
		c-3.753-2.76-7.448-5.214-11.09-7.366c-3.642-2.151-7.009-3.918-10.097-5.297c-3.091-1.381-5.574-2.068-7.448-2.068H62.896
		c-1.323,0-2.456,0.385-3.393,1.158c-0.939,0.771-1.767,1.71-2.483,2.814c-0.719,1.102-1.298,2.317-1.737,3.642
		c-0.442,1.324-0.773,2.537-0.993,3.642c-0.111,0.33-0.359,0.468-0.745,0.413c-0.388-0.057-0.579-0.248-0.579-0.579
		c0.108-2.209,0.165-4.469,0.165-6.786c0-2.209,0-4.415,0-6.621c0-2.871,0-5.685,0-8.441c0-2.648-0.111-5.354-0.331-8.111
		c0-0.331,0.166-0.524,0.497-0.579c0.331-0.057,0.604,0.083,0.827,0.414c0.771,1.875,1.93,3.559,3.477,5.048
		c1.544,1.49,3.364,2.235,5.462,2.235h25.159c1.544,0,3.861-0.72,6.951-2.152c3.089-1.436,6.564-3.311,10.429-5.628
		c3.861-2.317,7.834-4.883,11.917-7.696c4.082-2.814,7.863-5.603,11.339-8.359c3.476-2.76,6.399-5.354,8.772-7.779
		c2.372-2.429,3.779-4.36,4.221-5.794c0.109-0.331,0.357-0.471,0.746-0.413c0.385,0.054,0.578,0.248,0.578,0.579
		c-0.222,2.648-0.413,5.157-0.578,7.531c-0.166,2.372-0.249,4.826-0.249,7.366c0,3.088,0.165,6.289,0.497,9.6
		c0,0.331-0.141,0.551-0.414,0.662c-0.277,0.109-0.525,0.055-0.745-0.165c-0.11-0.111-0.11-0.14,0-0.083
		c0.108,0.055,0.108,0.026,0-0.083c-0.554-0.662-1.104-1.298-1.655-1.903c-0.553-0.607-1.158-0.91-1.82-0.91
		c-0.773,0-2.788,0.882-6.042,2.648c-3.256,1.764-6.952,3.861-11.09,6.29c-4.138,2.426-8.305,4.908-12.497,7.448
		c-4.195,2.537-7.561,4.578-10.098,6.124c1.214,0.662,2.98,1.71,5.297,3.146c2.318,1.433,4.801,2.922,7.449,4.469
		c2.317,1.324,4.854,2.814,7.613,4.47c2.758,1.655,5.435,3.199,8.029,4.634c2.591,1.434,4.883,2.62,6.869,3.56
		c1.986,0.936,3.311,1.406,3.973,1.406c0.992,0,1.82-0.305,2.482-0.91c0.662-0.607,1.213-1.353,1.654-2.234
		c0.221-0.331,0.523-0.442,0.911-0.331c0.386,0.108,0.522,0.331,0.413,0.662c-0.33,1.433-0.553,2.951-0.662,4.552
		c-0.11,1.599-0.165,3.171-0.165,4.718c0,2.095,0.055,4.138,0.165,6.124c0.109,1.986,0.275,3.916,0.497,5.793
		c0,0.221,0.026,0.497,0.083,0.828c0.055,0.331,0.082,0.605,0.082,0.827l-1.324,0.166
		C141.188,255.952,139.725,253.829,137.465,251.345z"/>
</g>
</svg>
