<?xml version="1.0" encoding="utf-8"?>
<!-- Generator: Adobe Illustrator 16.0.3, SVG Export Plug-In . SVG Version: 6.00 Build 0)  -->
<!DOCTYPE svg PUBLIC "-//W3C//DTD SVG 1.1//EN" "http://www.w3.org/Graphics/SVG/1.1/DTD/svg11.dtd">
<svg version="1.1" id="Layer_1" xmlns="http://www.w3.org/2000/svg" xmlns:xlink="http://www.w3.org/1999/xlink" x="0px" y="0px"
	 width="22.32px" height="27.219px" viewBox="0 0 22.32 27.219" enable-background="new 0 0 22.32 27.219" xml:space="preserve">
<g enable-background="new    ">
	<path fill="#FFFFFF" d="M13.479,7.33c-0.413-0.153-0.783-0.37-1.109-0.65c-0.327-0.28-0.59-0.614-0.79-1
		c-0.2-0.387-0.3-0.807-0.3-1.26c0-0.267,0.033-0.553,0.1-0.86c0.013-0.04,0.043-0.057,0.09-0.05s0.07,0.03,0.07,0.07v0.34
		c0,0.76,0.236,1.36,0.71,1.8c0.473,0.44,1.083,0.66,1.83,0.66c0.333,0,0.663-0.053,0.99-0.16c0.326-0.107,0.623-0.26,0.89-0.46
		c0.267-0.2,0.483-0.443,0.65-0.73c0.166-0.287,0.25-0.61,0.25-0.97c0-0.374-0.08-0.72-0.24-1.04H7.8c-0.439,0-0.753,0.1-0.939,0.3
		c-0.188,0.2-0.294,0.527-0.32,0.98c0,0.04-0.027,0.06-0.08,0.06c-0.054,0-0.08-0.02-0.08-0.06V2.02c0-0.227,0-0.454,0-0.68
		c0-0.213,0.007-0.433,0.021-0.66c0-0.04,0.022-0.063,0.069-0.07s0.077,0.01,0.09,0.05c0.04,0.24,0.094,0.426,0.16,0.56
		c0.066,0.133,0.153,0.23,0.26,0.29c0.107,0.06,0.243,0.093,0.41,0.1s0.363,0.01,0.59,0.01h8.2c0.28,0,0.51-0.12,0.69-0.36
		c0.18-0.24,0.303-0.493,0.37-0.76c0.013-0.04,0.043-0.057,0.09-0.05c0.047,0.006,0.07,0.03,0.07,0.07
		c-0.04,0.413-0.063,0.813-0.07,1.2c-0.007,0.386-0.01,0.773-0.01,1.16v1.76c0,0.453-0.04,0.86-0.12,1.22
		c-0.08,0.36-0.217,0.667-0.41,0.92S16.333,7.226,16,7.359c-0.334,0.133-0.754,0.2-1.26,0.2C14.313,7.56,13.892,7.482,13.479,7.33z"
		/>
	<path fill="#FFFFFF" d="M8.019,13.79c-0.387-0.247-0.717-0.56-0.989-0.94c-0.273-0.38-0.487-0.8-0.641-1.26
		s-0.229-0.896-0.229-1.31c0-0.2,0.022-0.41,0.069-0.63c0.047-0.22,0.124-0.42,0.23-0.6c0.106-0.18,0.243-0.327,0.41-0.44
		c0.166-0.113,0.376-0.17,0.63-0.17c0.16,0,0.32,0.017,0.479,0.05c0.16,0.033,0.313,0.063,0.46,0.09l0.48,0.1
		c0.04,0,0.06,0.026,0.06,0.08s-0.02,0.08-0.06,0.08h-0.3c-0.28,0-0.527,0.06-0.74,0.18c-0.214,0.12-0.396,0.273-0.55,0.46
		c-0.153,0.187-0.267,0.403-0.34,0.65c-0.074,0.247-0.11,0.497-0.11,0.75c0,0.24,0.04,0.487,0.12,0.74
		c0.08,0.253,0.196,0.483,0.35,0.69c0.153,0.207,0.34,0.376,0.561,0.51c0.22,0.133,0.463,0.2,0.729,0.2
		c0.253,0,0.503-0.06,0.75-0.18c0.247-0.12,0.497-0.28,0.75-0.48c0.253-0.2,0.507-0.427,0.761-0.68
		c0.253-0.253,0.506-0.514,0.76-0.78c0.267-0.28,0.536-0.56,0.81-0.84c0.273-0.28,0.554-0.527,0.84-0.74
		c0.287-0.213,0.577-0.387,0.87-0.52s0.594-0.2,0.9-0.2c0.453,0,0.843,0.126,1.17,0.38c0.326,0.253,0.593,0.566,0.8,0.94
		c0.207,0.373,0.36,0.78,0.46,1.22c0.101,0.44,0.15,0.846,0.15,1.22c0,0.533-0.067,1.02-0.2,1.46c-0.027,0.04-0.054,0.06-0.08,0.06
		c-0.653-0.053-1.327-0.133-2.02-0.24c-0.04-0.014-0.061-0.04-0.061-0.08s0.021-0.067,0.061-0.08c0.466-0.107,0.866-0.31,1.199-0.61
		c0.333-0.3,0.5-0.697,0.5-1.19c0-0.507-0.163-0.93-0.489-1.27c-0.327-0.34-0.744-0.51-1.25-0.51c-0.268,0-0.514,0.057-0.74,0.17
		s-0.447,0.26-0.66,0.44c-0.214,0.18-0.424,0.39-0.63,0.63c-0.207,0.24-0.417,0.486-0.63,0.74c-0.228,0.28-0.464,0.557-0.71,0.83
		c-0.247,0.273-0.507,0.517-0.78,0.73s-0.563,0.387-0.87,0.52s-0.64,0.201-1,0.201C8.833,14.16,8.406,14.036,8.019,13.79z"/>
	<path fill="#FFFFFF" d="M17.15,26.729c0.006-0.006,0.003-0.023-0.011-0.049c-0.053-0.188-0.12-0.384-0.2-0.59
		c-0.079-0.207-0.22-0.311-0.42-0.311l-4.819,0.02h-0.82c-0.773,0-1.537-0.014-2.29-0.039c-0.753-0.027-1.51-0.074-2.27-0.141
		c-0.027,0-0.051-0.018-0.07-0.05c-0.021-0.034-0.017-0.063,0.01-0.091c0.547-0.639,1.137-1.279,1.771-1.92
		c0.633-0.64,1.279-1.27,1.939-1.89s1.327-1.229,2-1.829c0.673-0.601,1.33-1.174,1.97-1.721c0.2-0.188,0.391-0.354,0.57-0.5
		s0.37-0.313,0.57-0.5c-0.36-0.04-0.707-0.061-1.04-0.061c-0.507,0-1.014,0.008-1.521,0.021s-1.013,0.033-1.52,0.06
		c-0.507,0.027-1.014,0.047-1.521,0.061s-1.02,0.02-1.54,0.02c-0.227,0-0.409,0.021-0.55,0.061c-0.14,0.04-0.25,0.09-0.33,0.15
		c-0.08,0.06-0.137,0.133-0.17,0.219c-0.033,0.088-0.057,0.178-0.069,0.271c-0.027,0.106-0.058,0.214-0.091,0.32
		s-0.103,0.233-0.21,0.38c-0.026,0.026-0.057,0.037-0.09,0.029c-0.033-0.006-0.05-0.029-0.05-0.069
		c0.013-0.134,0.026-0.263,0.04-0.39c0.013-0.127,0.026-0.258,0.04-0.391c0.026-0.187,0.047-0.377,0.06-0.57
		c0.014-0.193,0.021-0.383,0.021-0.569c0-0.24-0.017-0.487-0.05-0.74c-0.034-0.253-0.07-0.507-0.11-0.76
		c-0.014-0.04,0-0.069,0.04-0.09s0.073-0.017,0.1,0.01c0.094,0.106,0.167,0.203,0.221,0.29c0.053,0.086,0.1,0.17,0.14,0.25
		c0.08,0.16,0.19,0.303,0.33,0.43s0.363,0.19,0.67,0.19h9.36l0.319,0.159c0.027,0.014,0.047,0.033,0.061,0.061
		c0.013,0.027,0.007,0.047-0.021,0.061c-1.507,1.453-2.989,2.859-4.449,4.22c-1.461,1.36-2.971,2.739-4.53,4.14h0.06
		c0.613,0,1.221-0.004,1.82-0.01c0.6-0.007,1.213-0.018,1.84-0.029c0.573-0.014,1.184-0.027,1.83-0.041s1.257-0.02,1.83-0.02
		c0.227,0,0.41-0.023,0.55-0.07s0.247-0.109,0.32-0.189s0.123-0.168,0.149-0.26c0.027-0.094,0.047-0.188,0.061-0.281
		c0.013-0.106,0.03-0.203,0.05-0.289c0.021-0.088,0.063-0.164,0.13-0.23c0.026-0.027,0.061-0.029,0.101-0.01s0.053,0.043,0.04,0.07
		c-0.04,0.307-0.061,0.593-0.061,0.859c0,0.28,0,0.561,0,0.84c0,0.174,0.003,0.351,0.01,0.53c0.007,0.181,0.004,0.363-0.01,0.55
		c0,0.066-0.003,0.141-0.01,0.221s-0.01,0.152-0.01,0.22l-0.16,0.04C17.146,26.752,17.142,26.736,17.15,26.729z"/>
</g>
</svg>
