<?xml version="1.0" encoding="utf-8"?>
<!-- Generator: Adobe Illustrator 16.0.3, SVG Export Plug-In . SVG Version: 6.00 Build 0)  -->
<!DOCTYPE svg PUBLIC "-//W3C//DTD SVG 1.1//EN" "http://www.w3.org/Graphics/SVG/1.1/DTD/svg11.dtd">
<svg version="1.1" id="Layer_1" xmlns="http://www.w3.org/2000/svg" xmlns:xlink="http://www.w3.org/1999/xlink" x="0px" y="0px"
	 width="22.32px" height="25px" viewBox="0 0 22.32 25" enable-background="new 0 0 22.32 25" xml:space="preserve">
<g enable-background="new    ">
	<path fill="#FF3C00" d="M13.479,7.33c-0.413-0.153-0.783-0.37-1.109-0.65c-0.327-0.28-0.59-0.614-0.79-1
		c-0.2-0.387-0.3-0.807-0.3-1.26c0-0.267,0.033-0.553,0.1-0.86c0.013-0.04,0.043-0.057,0.09-0.05s0.07,0.03,0.07,0.07v0.34
		c0,0.76,0.236,1.36,0.71,1.8c0.473,0.44,1.083,0.66,1.83,0.66c0.333,0,0.663-0.053,0.99-0.16c0.326-0.107,0.623-0.26,0.89-0.46
		c0.267-0.2,0.483-0.443,0.65-0.73c0.166-0.287,0.25-0.61,0.25-0.97c0-0.374-0.08-0.72-0.24-1.04H7.8c-0.439,0-0.753,0.1-0.939,0.3
		c-0.188,0.2-0.294,0.527-0.32,0.98c0,0.04-0.027,0.06-0.08,0.06c-0.054,0-0.08-0.02-0.08-0.06V2.02c0-0.227,0-0.454,0-0.68
		c0-0.213,0.007-0.433,0.021-0.66c0-0.04,0.022-0.063,0.069-0.07s0.077,0.01,0.09,0.05c0.04,0.24,0.094,0.426,0.16,0.56
		c0.066,0.133,0.153,0.23,0.26,0.29c0.107,0.06,0.243,0.093,0.41,0.1s0.363,0.01,0.59,0.01h8.2c0.28,0,0.51-0.12,0.69-0.36
		c0.18-0.24,0.303-0.493,0.37-0.76c0.013-0.04,0.043-0.057,0.09-0.05c0.047,0.006,0.07,0.03,0.07,0.07
		c-0.04,0.413-0.063,0.813-0.07,1.2c-0.007,0.386-0.01,0.773-0.01,1.16v1.76c0,0.453-0.04,0.86-0.12,1.22
		c-0.08,0.36-0.217,0.667-0.41,0.92S16.333,7.226,16,7.359c-0.334,0.133-0.754,0.2-1.26,0.2C14.313,7.56,13.892,7.482,13.479,7.33z"
		/>
	<path fill="#FF3C00" d="M9.389,19.41c-0.66-0.314-1.229-0.73-1.71-1.25C7.2,17.64,6.826,17.036,6.559,16.35
		c-0.267-0.688-0.399-1.41-0.399-2.17c0-0.627,0.153-1.277,0.46-1.95s0.706-1.29,1.2-1.85c0.493-0.56,1.053-1.023,1.68-1.39
		c0.627-0.367,1.26-0.55,1.9-0.55c0.973,0,1.81,0.09,2.51,0.27s1.293,0.47,1.779,0.87c0.487,0.4,0.887,0.926,1.2,1.58
		c0.313,0.653,0.57,1.453,0.771,2.4l0.02,0.26c0.066,0.854-0.057,1.647-0.37,2.38c-0.313,0.733-0.753,1.373-1.319,1.92
		c-0.567,0.547-1.237,0.977-2.011,1.291c-0.773,0.313-1.587,0.469-2.439,0.469C10.766,19.879,10.05,19.723,9.389,19.41z
		 M13.519,18.25c0.653-0.193,1.24-0.48,1.761-0.86c0.52-0.38,0.939-0.847,1.26-1.399c0.32-0.555,0.479-1.191,0.479-1.91
		c0-0.681-0.123-1.284-0.369-1.811c-0.247-0.527-0.587-0.97-1.021-1.33s-0.934-0.637-1.5-0.83s-1.17-0.29-1.81-0.29
		c-0.667,0-1.327,0.1-1.98,0.3c-0.653,0.2-1.243,0.497-1.77,0.89c-0.527,0.394-0.954,0.87-1.28,1.43C6.963,13,6.8,13.64,6.8,14.359
		c0,0.68,0.13,1.28,0.39,1.801c0.261,0.52,0.607,0.956,1.04,1.31c0.434,0.353,0.937,0.62,1.511,0.8c0.573,0.18,1.18,0.27,1.819,0.27
		C12.213,18.539,12.866,18.443,13.519,18.25z"/>
	<path fill="#FF3C00" d="M6.389,23.789c0.007-0.246,0.011-0.496,0.011-0.75c0-0.359-0.004-0.713-0.011-1.06s-0.017-0.7-0.029-1.06
		c0-0.041,0.022-0.064,0.069-0.07c0.047-0.008,0.077,0.01,0.09,0.05c0.12,0.333,0.304,0.577,0.551,0.729
		c0.246,0.153,0.543,0.23,0.89,0.23h8.3c0.307,0,0.521-0.104,0.641-0.311c0.119-0.207,0.199-0.449,0.239-0.729
		c0.014-0.04,0.043-0.057,0.09-0.05c0.047,0.006,0.07,0.029,0.07,0.07c-0.026,0.279-0.047,0.56-0.06,0.84
		c-0.014,0.279-0.021,0.566-0.021,0.859c0,0.28,0.007,0.561,0.021,0.84c0.013,0.28,0.04,0.554,0.08,0.82
		c0.013,0.04-0.007,0.066-0.061,0.08s-0.087,0-0.1-0.04c-0.067-0.294-0.147-0.53-0.24-0.71c-0.094-0.18-0.313-0.27-0.66-0.27h-8.24
		c-0.507,0-0.869,0.096-1.09,0.289c-0.22,0.193-0.35,0.53-0.39,1.011H6.38C6.38,24.293,6.383,24.036,6.389,23.789z"/>
</g>
</svg>
