<?xml version="1.0" encoding="utf-8"?>
<!-- Generator: Adobe Illustrator 16.0.3, SVG Export Plug-In . SVG Version: 6.00 Build 0)  -->
<!DOCTYPE svg PUBLIC "-//W3C//DTD SVG 1.1//EN" "http://www.w3.org/Graphics/SVG/1.1/DTD/svg11.dtd">
<svg version="1.1" id="Layer_1" xmlns="http://www.w3.org/2000/svg" xmlns:xlink="http://www.w3.org/1999/xlink" x="0px" y="0px"
	 width="22.32px" height="20.979px" viewBox="0 0 22.32 20.979" enable-background="new 0 0 22.32 20.979" xml:space="preserve">
<g enable-background="new    ">
	<path fill="#FF3C00" d="M8.019,5.79C7.633,5.543,7.302,5.23,7.03,4.85c-0.273-0.38-0.487-0.8-0.641-1.26S6.16,2.693,6.16,2.28
		c0-0.2,0.022-0.41,0.069-0.63c0.047-0.22,0.124-0.42,0.23-0.6c0.106-0.18,0.243-0.327,0.41-0.44C7.036,0.496,7.246,0.44,7.5,0.44
		c0.16,0,0.32,0.017,0.479,0.05c0.16,0.033,0.313,0.063,0.46,0.09l0.48,0.1c0.04,0,0.06,0.026,0.06,0.08S8.96,0.84,8.92,0.84h-0.3
		c-0.28,0-0.527,0.06-0.74,0.18C7.666,1.14,7.483,1.293,7.33,1.48C7.177,1.666,7.063,1.883,6.99,2.13
		C6.916,2.376,6.88,2.626,6.88,2.88c0,0.24,0.04,0.487,0.12,0.74c0.08,0.253,0.196,0.483,0.35,0.69
		c0.153,0.207,0.34,0.376,0.561,0.51c0.22,0.133,0.463,0.2,0.729,0.2c0.253,0,0.503-0.06,0.75-0.18c0.247-0.12,0.497-0.28,0.75-0.48
		c0.253-0.2,0.507-0.427,0.761-0.68c0.253-0.253,0.506-0.514,0.76-0.78c0.267-0.28,0.536-0.56,0.81-0.84
		c0.273-0.28,0.554-0.527,0.84-0.74c0.287-0.213,0.577-0.387,0.87-0.52s0.594-0.2,0.9-0.2c0.453,0,0.843,0.126,1.17,0.38
		c0.326,0.253,0.593,0.566,0.8,0.94c0.207,0.373,0.36,0.78,0.46,1.22c0.101,0.44,0.15,0.846,0.15,1.22c0,0.533-0.067,1.02-0.2,1.46
		c-0.027,0.04-0.054,0.06-0.08,0.06c-0.653-0.053-1.327-0.133-2.02-0.24C15.32,5.626,15.3,5.6,15.3,5.56s0.021-0.067,0.061-0.08
		c0.466-0.107,0.866-0.31,1.199-0.61c0.333-0.3,0.5-0.697,0.5-1.19c0-0.507-0.163-0.93-0.489-1.27c-0.327-0.34-0.744-0.51-1.25-0.51
		c-0.268,0-0.514,0.057-0.74,0.17s-0.447,0.26-0.66,0.44c-0.214,0.18-0.424,0.39-0.63,0.63c-0.207,0.24-0.417,0.486-0.63,0.74
		c-0.228,0.28-0.464,0.557-0.71,0.83c-0.247,0.273-0.507,0.517-0.78,0.73s-0.563,0.387-0.87,0.52s-0.64,0.2-1,0.2
		C8.833,6.16,8.406,6.036,8.019,5.79z"/>
	<path fill="#FF3C00" d="M8.34,13.929c-0.04-0.006-0.08-0.01-0.12-0.01c-0.293-0.027-0.577-0.057-0.85-0.09
		c-0.273-0.033-0.544-0.117-0.811-0.25c-0.013,0.014-0.04,0.02-0.08,0.02S6.4,13.56,6.36,13.48c0.053-0.533,0.09-1.064,0.109-1.59
		c0.021-0.527,0.03-1.064,0.03-1.61c0-0.44-0.007-0.88-0.021-1.32c-0.013-0.44-0.026-0.88-0.04-1.32c0-0.067-0.003-0.137-0.01-0.21
		c-0.007-0.074-0.01-0.144-0.01-0.21c0-0.04,0.026-0.06,0.08-0.06c0.053,0,0.08,0.02,0.08,0.06c0.013,0.146,0.066,0.28,0.16,0.4
		c0.093,0.12,0.21,0.22,0.35,0.3c0.14,0.08,0.29,0.14,0.45,0.18s0.3,0.06,0.42,0.06h8.14c0.32,0,0.573-0.107,0.761-0.32
		c0.187-0.214,0.286-0.48,0.3-0.8h0.16c-0.014,0.253-0.021,0.5-0.021,0.74c0,0.24,0,0.486,0,0.74c0,0.693,0.021,1.4,0.061,2.12
		c0,0.04-0.023,0.063-0.07,0.07s-0.077-0.01-0.09-0.05c-0.054-0.28-0.177-0.534-0.37-0.76s-0.43-0.34-0.71-0.34h-7.44
		c-0.56,0-0.99,0.177-1.29,0.53c-0.3,0.353-0.45,0.79-0.45,1.31c0,0.506,0.144,0.973,0.431,1.4c0.286,0.426,0.663,0.752,1.13,0.979
		l-0.04,0.159C8.42,13.939,8.38,13.936,8.34,13.929z"/>
	<path fill="#FF3C00" d="M8.019,20.169c-0.387-0.247-0.717-0.561-0.989-0.939c-0.273-0.381-0.487-0.801-0.641-1.261
		s-0.229-0.896-0.229-1.31c0-0.2,0.022-0.41,0.069-0.631c0.047-0.219,0.124-0.42,0.23-0.6s0.243-0.326,0.41-0.439
		c0.166-0.113,0.376-0.17,0.63-0.17c0.16,0,0.32,0.016,0.479,0.05c0.16,0.032,0.313,0.063,0.46,0.09l0.48,0.101
		c0.04,0,0.06,0.025,0.06,0.079s-0.02,0.08-0.06,0.08h-0.3c-0.28,0-0.527,0.06-0.74,0.181c-0.214,0.119-0.396,0.272-0.55,0.459
		c-0.153,0.188-0.267,0.404-0.34,0.65c-0.074,0.246-0.11,0.496-0.11,0.75c0,0.24,0.04,0.486,0.12,0.74
		c0.08,0.253,0.196,0.482,0.35,0.689s0.34,0.377,0.561,0.51C8.13,19.332,8.373,19.4,8.639,19.4c0.253,0,0.503-0.061,0.75-0.181
		s0.497-0.28,0.75-0.479c0.253-0.2,0.507-0.428,0.761-0.68c0.253-0.254,0.506-0.514,0.76-0.781c0.267-0.279,0.536-0.56,0.81-0.84
		c0.273-0.279,0.554-0.526,0.84-0.74c0.287-0.213,0.577-0.387,0.87-0.52s0.594-0.199,0.9-0.199c0.453,0,0.843,0.126,1.17,0.379
		c0.326,0.254,0.593,0.566,0.8,0.94c0.207,0.373,0.36,0.78,0.46,1.22c0.101,0.44,0.15,0.847,0.15,1.221
		c0,0.533-0.067,1.02-0.2,1.459c-0.027,0.041-0.054,0.061-0.08,0.061c-0.653-0.053-1.327-0.133-2.02-0.24
		c-0.04-0.014-0.061-0.039-0.061-0.08c0-0.039,0.021-0.066,0.061-0.08c0.466-0.106,0.866-0.31,1.199-0.609
		c0.333-0.301,0.5-0.697,0.5-1.189c0-0.508-0.163-0.931-0.489-1.271c-0.327-0.341-0.744-0.511-1.25-0.511
		c-0.268,0-0.514,0.057-0.74,0.17s-0.447,0.261-0.66,0.44c-0.214,0.181-0.424,0.39-0.63,0.63c-0.207,0.24-0.417,0.486-0.63,0.74
		c-0.228,0.28-0.464,0.557-0.71,0.83c-0.247,0.273-0.507,0.517-0.78,0.73c-0.273,0.213-0.563,0.387-0.87,0.52s-0.64,0.2-1,0.2
		C8.833,20.539,8.406,20.415,8.019,20.169z"/>
</g>
</svg>
