<?xml version="1.0" encoding="utf-8"?>
<!-- Generator: Adobe Illustrator 16.0.3, SVG Export Plug-In . SVG Version: 6.00 Build 0)  -->
<!DOCTYPE svg PUBLIC "-//W3C//DTD SVG 1.1//EN" "http://www.w3.org/Graphics/SVG/1.1/DTD/svg11.dtd">
<svg version="1.1" id="Layer_1" xmlns="http://www.w3.org/2000/svg" xmlns:xlink="http://www.w3.org/1999/xlink" x="0px" y="0px"
	 width="184.725px" height="207.23px" viewBox="0 0 184.725 207.23" enable-background="new 0 0 184.725 207.23"
	 xml:space="preserve">
<g enable-background="new    ">
	<path fill="#FFFFFF" d="M66.373,47.919c-3.202-2.043-5.933-4.635-8.193-7.779c-2.263-3.145-4.029-6.621-5.297-10.428
		c-1.27-3.807-1.903-7.423-1.903-10.842c0-1.655,0.191-3.393,0.579-5.214c0.386-1.821,1.019-3.476,1.903-4.966
		c0.882-1.49,2.013-2.705,3.394-3.642c1.378-0.938,3.116-1.407,5.214-1.407c1.324,0,2.648,0.137,3.973,0.414
		c1.324,0.274,2.592,0.522,3.807,0.745l3.973,0.828c0.331,0,0.497,0.22,0.497,0.662c0,0.439-0.166,0.662-0.497,0.662h-2.482
		c-2.317,0-4.36,0.497-6.125,1.49c-1.766,0.993-3.284,2.26-4.552,3.807c-1.27,1.544-2.208,3.336-2.813,5.38
		c-0.608,2.041-0.91,4.109-0.91,6.207c0,1.986,0.331,4.027,0.993,6.125c0.662,2.095,1.626,3.998,2.896,5.71
		c1.267,1.709,2.813,3.116,4.635,4.221c1.82,1.102,3.833,1.655,6.041,1.655c2.095,0,4.164-0.497,6.207-1.49
		c2.041-0.993,4.11-2.317,6.207-3.973c2.096-1.655,4.193-3.533,6.29-5.627c2.095-2.098,4.192-4.25,6.289-6.456
		c2.207-2.317,4.441-4.635,6.705-6.952c2.26-2.317,4.577-4.36,6.951-6.125c2.371-1.766,4.771-3.202,7.2-4.303
		c2.427-1.104,4.909-1.655,7.448-1.655c3.75,0,6.979,1.047,9.684,3.145c2.703,2.095,4.908,4.689,6.621,7.779
		c1.709,3.088,2.979,6.456,3.807,10.097c0.828,3.642,1.242,7.006,1.242,10.097c0,4.413-0.554,8.442-1.656,12.083
		c-0.222,0.331-0.441,0.497-0.662,0.497c-5.407-0.442-10.98-1.104-16.717-1.986c-0.332-0.111-0.497-0.331-0.497-0.662
		s0.165-0.554,0.497-0.662c3.861-0.885,7.172-2.565,9.932-5.048c2.756-2.483,4.137-5.768,4.137-9.849
		c0-4.195-1.352-7.697-4.055-10.511c-2.705-2.814-6.152-4.221-10.346-4.221c-2.208,0-4.249,0.468-6.124,1.407
		c-1.878,0.936-3.698,2.152-5.462,3.642c-1.767,1.489-3.505,3.228-5.215,5.214c-1.711,1.986-3.449,4.027-5.213,6.125
		c-1.878,2.317-3.836,4.606-5.877,6.869c-2.043,2.26-4.195,4.275-6.455,6.042c-2.263,1.764-4.662,3.199-7.2,4.304
		c-2.539,1.102-5.296,1.655-8.275,1.655C73.102,50.981,69.572,49.959,66.373,47.919z"/>
	<path fill="#FFFFFF" d="M135.892,133.74c-2.871-0.111-5.52-0.496-7.945-1.158c-0.331-0.111-0.497-0.33-0.497-0.662
		c0-0.223,0.166-0.389,0.497-0.496c3.861-0.885,6.427-2.623,7.696-5.215c1.268-2.594,1.904-5.656,1.904-9.186v-14.566h-71.01
		c-3.201,0-5.904,0.992-8.11,2.979c-2.209,1.986-3.587,4.523-4.138,7.615c-0.111,0.33-0.359,0.469-0.745,0.414
		c-0.388-0.057-0.579-0.248-0.579-0.58c0.22-2.871,0.413-5.684,0.579-8.441c0.165-2.76,0.248-5.574,0.248-8.442
		c0-2.208-0.057-4.36-0.165-6.456c-0.111-2.097-0.277-4.249-0.497-6.455c-0.111-0.331,0.055-0.525,0.497-0.58
		c0.439-0.057,0.716,0.083,0.827,0.414c0.439,1.875,0.91,3.336,1.407,4.386c0.496,1.047,1.13,1.847,1.903,2.4
		c0.771,0.551,1.792,0.882,3.063,0.993c1.267,0.109,2.84,0.166,4.717,0.166h71.837V71.007c0-2.648-0.885-4.966-2.648-6.952
		c-1.766-1.986-3.807-3.422-6.124-4.304c-0.331-0.111-0.442-0.331-0.331-0.662c0.108-0.331,0.331-0.497,0.662-0.497l2.152-0.331
		c1.764,0,3.447,0.22,5.048,0.662c1.599,0.439,3.171,0.882,4.718,1.324c0.771,0.22,1.516,0.439,2.234,0.662
		c0.717,0.22,1.461,0.439,2.234,0.662c0.551,0.22,0.662,0.551,0.331,0.993c-1.104,1.655-1.795,3.336-2.069,5.048
		c-0.276,1.709-0.414,3.559-0.414,5.545v52.968c0,1.213,0.275,2.758,0.828,4.635c0.109,0.439,0.22,0.828,0.331,1.158
		c0.108,0.332,0.22,0.717,0.331,1.158l-0.662,0.828C141.464,133.906,138.76,133.85,135.892,133.74z"/>
	<path fill="#FFFFFF" d="M68.193,201.191c-3.311-1.601-6.124-3.724-8.441-6.372s-4.112-5.711-5.38-9.187
		c-1.27-3.477-1.903-7.146-1.903-11.008c0-2.648,0-5.297,0-7.945c0-2.539,0.055-5.131,0.166-7.779
		c0.108-2.648,0.165-5.297,0.165-7.945c0-2.54,0-5.131,0-7.779c0-0.331,0.191-0.525,0.579-0.579
		c0.386-0.058,0.634,0.082,0.745,0.413c0.662,1.875,1.268,3.365,1.821,4.47c0.551,1.102,1.241,1.903,2.068,2.399
		c0.828,0.497,1.875,0.8,3.146,0.911c1.267,0.108,2.84,0.165,4.717,0.165h69.023c1.433,0,2.537-0.14,3.311-0.414
		c0.771-0.276,1.324-0.607,1.654-0.993c0.332-0.388,0.552-0.855,0.662-1.406c0.109-0.554,0.221-1.159,0.332-1.821
		c0.108-0.884,0.273-1.795,0.496-2.73c0.221-0.939,0.771-1.684,1.655-2.235c0.22-0.222,0.468-0.248,0.745-0.082
		c0.273,0.165,0.357,0.413,0.248,0.744c-0.331,1.213-0.553,2.4-0.662,3.56c-0.111,1.158-0.166,2.343-0.166,3.559
		c0,1.655,0.055,3.336,0.166,5.048c0.109,1.71,0.274,3.448,0.496,5.214c0.221,1.655,0.386,3.311,0.497,4.966
		c0.108,1.655,0.165,3.311,0.165,4.966c0,2.868-0.413,5.794-1.24,8.773c-0.828,2.979-2.044,5.71-3.643,8.193
		c-1.601,2.482-3.615,4.523-6.041,6.124c-2.429,1.599-5.297,2.4-8.607,2.4c-4.084,0-7.862-1.133-11.338-3.394
		c-3.477-2.263-6.539-4.829-9.188-7.697c-1.877,5.737-4.965,10.482-9.27,14.235c-4.303,3.75-9.6,5.628-15.889,5.628
		C75.2,203.591,71.504,202.789,68.193,201.191z M87.063,190.184c3.199-1.655,5.793-3.89,7.779-6.704
		c1.986-2.813,3.447-6.016,4.387-9.601c0.936-3.587,1.461-7.365,1.572-11.338H66.207c-1.435,0-2.73,0.439-3.89,1.324
		c-1.158,0.882-2.151,1.986-2.979,3.311c-0.827,1.324-1.464,2.73-1.903,4.221c-0.442,1.489-0.662,2.896-0.662,4.221
		c0,2.537,0.522,4.854,1.572,6.952c1.048,2.095,2.455,3.89,4.221,5.38c1.765,1.489,3.779,2.648,6.042,3.476
		c2.261,0.827,4.606,1.241,7.035,1.241C80.054,192.666,83.861,191.839,87.063,190.184z M129.519,183.397
		c2.041-0.662,3.861-1.629,5.462-2.896c1.6-1.27,2.869-2.842,3.808-4.717c0.937-1.878,1.407-4.03,1.407-6.456
		c0-1.104-0.111-2.208-0.332-3.311c-0.222-1.104-0.496-2.208-0.827-3.311h-33.104v0.497c0,3.199,0.22,6.096,0.662,8.689
		c0.439,2.592,1.296,4.826,2.565,6.704c1.268,1.875,3.005,3.311,5.214,4.304c2.207,0.993,5.131,1.489,8.773,1.489
		C125.352,184.39,127.476,184.059,129.519,183.397z"/>
</g>
</svg>
