<?xml version="1.0" encoding="utf-8"?>
<!-- Generator: Adobe Illustrator 16.0.3, SVG Export Plug-In . SVG Version: 6.00 Build 0)  -->
<!DOCTYPE svg PUBLIC "-//W3C//DTD SVG 1.1//EN" "http://www.w3.org/Graphics/SVG/1.1/DTD/svg11.dtd">
<svg version="1.1" id="Layer_1" xmlns="http://www.w3.org/2000/svg" xmlns:xlink="http://www.w3.org/1999/xlink" x="0px" y="0px"
	 width="22.32px" height="28.459px" viewBox="0 0 22.32 28.459" enable-background="new 0 0 22.32 28.459" xml:space="preserve">
<g enable-background="new    ">
	<path fill="#FFFFFF" d="M8.019,5.79C7.633,5.542,7.302,5.229,7.03,4.85c-0.273-0.38-0.487-0.8-0.641-1.26S6.16,2.693,6.16,2.279
		c0-0.2,0.022-0.41,0.069-0.63c0.047-0.22,0.124-0.42,0.23-0.6c0.106-0.18,0.243-0.327,0.41-0.44c0.166-0.113,0.376-0.17,0.63-0.17
		c0.16,0,0.32,0.017,0.479,0.05c0.16,0.033,0.313,0.063,0.46,0.09l0.48,0.1c0.04,0,0.06,0.026,0.06,0.08s-0.02,0.08-0.06,0.08h-0.3
		c-0.28,0-0.527,0.06-0.74,0.18c-0.214,0.12-0.396,0.273-0.55,0.46c-0.153,0.187-0.267,0.403-0.34,0.65
		c-0.074,0.247-0.11,0.497-0.11,0.75c0,0.24,0.04,0.487,0.12,0.74c0.08,0.253,0.196,0.483,0.35,0.69
		c0.153,0.207,0.34,0.376,0.561,0.51c0.22,0.133,0.463,0.2,0.729,0.2c0.253,0,0.503-0.06,0.75-0.18c0.247-0.12,0.497-0.28,0.75-0.48
		c0.253-0.2,0.507-0.427,0.761-0.68c0.253-0.253,0.506-0.514,0.76-0.78c0.267-0.28,0.536-0.56,0.81-0.84
		c0.273-0.28,0.554-0.527,0.84-0.74c0.287-0.213,0.577-0.387,0.87-0.52s0.594-0.2,0.9-0.2c0.453,0,0.843,0.126,1.17,0.38
		c0.326,0.253,0.593,0.566,0.8,0.94c0.207,0.373,0.36,0.78,0.46,1.22c0.101,0.44,0.15,0.846,0.15,1.22c0,0.533-0.067,1.02-0.2,1.46
		c-0.027,0.04-0.054,0.06-0.08,0.06c-0.653-0.053-1.327-0.133-2.02-0.24C15.32,5.626,15.3,5.6,15.3,5.56s0.021-0.067,0.061-0.08
		c0.466-0.107,0.866-0.31,1.199-0.61c0.333-0.3,0.5-0.697,0.5-1.19c0-0.507-0.163-0.93-0.489-1.27c-0.327-0.34-0.744-0.51-1.25-0.51
		c-0.268,0-0.514,0.057-0.74,0.17s-0.447,0.26-0.66,0.44c-0.214,0.18-0.424,0.39-0.63,0.63c-0.207,0.24-0.417,0.486-0.63,0.74
		c-0.228,0.28-0.464,0.557-0.71,0.83c-0.247,0.273-0.507,0.517-0.78,0.73s-0.563,0.387-0.87,0.52s-0.64,0.2-1,0.2
		C8.833,6.16,8.406,6.036,8.019,5.79z"/>
	<path fill="#FFFFFF" d="M16.42,16.159c-0.347-0.014-0.667-0.061-0.96-0.141c-0.04-0.013-0.06-0.039-0.06-0.08
		c0-0.026,0.02-0.047,0.06-0.06c0.467-0.106,0.776-0.317,0.93-0.63c0.153-0.313,0.23-0.683,0.23-1.11v-1.76H8.04
		c-0.387,0-0.714,0.12-0.98,0.36c-0.267,0.24-0.433,0.546-0.5,0.92c-0.013,0.04-0.043,0.057-0.09,0.05S6.4,13.679,6.4,13.639
		c0.026-0.347,0.05-0.687,0.069-1.02c0.021-0.333,0.03-0.673,0.03-1.02c0-0.267-0.007-0.527-0.021-0.78
		c-0.013-0.253-0.033-0.514-0.06-0.78c-0.014-0.04,0.007-0.063,0.06-0.07c0.054-0.007,0.087,0.01,0.101,0.05
		c0.053,0.227,0.109,0.403,0.17,0.53c0.06,0.126,0.137,0.223,0.229,0.29c0.094,0.066,0.217,0.106,0.37,0.12s0.344,0.02,0.57,0.02
		h8.68v-2.4c0-0.32-0.106-0.6-0.319-0.84c-0.214-0.24-0.46-0.414-0.74-0.52c-0.04-0.014-0.054-0.04-0.04-0.08
		c0.013-0.04,0.04-0.06,0.08-0.06l0.26-0.04c0.213,0,0.417,0.027,0.61,0.08c0.192,0.053,0.383,0.106,0.569,0.16
		c0.094,0.026,0.184,0.053,0.271,0.08s0.177,0.053,0.27,0.08c0.067,0.027,0.08,0.067,0.04,0.12c-0.133,0.2-0.217,0.403-0.25,0.61
		s-0.05,0.43-0.05,0.67v6.4c0,0.146,0.033,0.333,0.101,0.561c0.013,0.053,0.026,0.1,0.039,0.139c0.014,0.041,0.027,0.088,0.04,0.141
		l-0.079,0.1C17.093,16.179,16.766,16.173,16.42,16.159z"/>
	<path fill="#FFFFFF" d="M6.21,27.31c-0.06-0.247-0.09-0.49-0.09-0.73c0-0.4,0.073-0.76,0.22-1.08S6.673,24.892,6.9,24.64
		c0.227-0.254,0.486-0.49,0.779-0.711c0.293-0.22,0.594-0.43,0.9-0.629c0.28-0.188,0.557-0.385,0.83-0.591
		c0.272-0.206,0.52-0.433,0.74-0.68c0.22-0.247,0.396-0.514,0.529-0.8c0.134-0.287,0.2-0.61,0.2-0.971c0-0.106,0-0.213,0-0.32
		c0-0.093-0.014-0.193-0.04-0.299H8c-0.387,0-0.717,0.116-0.99,0.35c-0.273,0.232-0.43,0.543-0.47,0.93H6.38
		c0.026-0.307,0.05-0.609,0.07-0.91c0.02-0.3,0.029-0.604,0.029-0.91s-0.013-0.604-0.04-0.89c-0.026-0.286-0.06-0.583-0.1-0.89
		c-0.014-0.04,0.003-0.07,0.05-0.09c0.047-0.021,0.083-0.01,0.11,0.029c0.133,0.28,0.333,0.514,0.6,0.7s0.554,0.28,0.86,0.28h7.979
		c0.307,0,0.577-0.11,0.811-0.33c0.233-0.221,0.39-0.483,0.47-0.79c0.014-0.04,0.043-0.057,0.09-0.05
		c0.047,0.006,0.07,0.029,0.07,0.07v3.939c0,0.413-0.05,0.82-0.15,1.221c-0.1,0.399-0.257,0.752-0.47,1.06
		c-0.213,0.306-0.493,0.553-0.84,0.739c-0.347,0.188-0.76,0.28-1.24,0.28c-0.64,0-1.247-0.177-1.819-0.53
		c-0.574-0.354-1.067-0.75-1.48-1.189c-0.16,0.146-0.363,0.307-0.61,0.48c-0.246,0.173-0.503,0.359-0.77,0.56
		c-0.4,0.293-0.811,0.603-1.23,0.93s-0.8,0.671-1.14,1.03s-0.606,0.732-0.8,1.12c-0.193,0.386-0.264,0.78-0.21,1.18l-0.16,0.06
		C6.353,27.792,6.269,27.556,6.21,27.31z M14.979,22.81c0.347-0.101,0.66-0.25,0.94-0.45s0.51-0.447,0.69-0.74
		c0.18-0.294,0.27-0.634,0.27-1.021c0-0.16-0.01-0.319-0.03-0.479c-0.02-0.16-0.063-0.313-0.13-0.46H11.74
		c-0.04,0.227-0.067,0.446-0.08,0.66c-0.014,0.213-0.021,0.434-0.021,0.66c0,0.746,0.203,1.263,0.61,1.55
		c0.406,0.286,0.97,0.43,1.689,0.43C14.286,22.959,14.633,22.909,14.979,22.81z"/>
</g>
</svg>
