<?xml version="1.0" encoding="utf-8"?>
<!-- Generator: Adobe Illustrator 16.0.3, SVG Export Plug-In . SVG Version: 6.00 Build 0)  -->
<!DOCTYPE svg PUBLIC "-//W3C//DTD SVG 1.1//EN" "http://www.w3.org/Graphics/SVG/1.1/DTD/svg11.dtd">
<svg version="1.1" id="Layer_1" xmlns="http://www.w3.org/2000/svg" xmlns:xlink="http://www.w3.org/1999/xlink" x="0px" y="0px"
	 width="22.32px" height="34.04px" viewBox="0 0 22.32 34.04" enable-background="new 0 0 22.32 34.04" xml:space="preserve">
<g enable-background="new    ">
	<path fill="#FFFFFF" d="M16.42,9.56c-0.347-0.014-0.667-0.06-0.96-0.14c-0.04-0.013-0.06-0.04-0.06-0.08
		c0-0.027,0.02-0.047,0.06-0.06c0.467-0.106,0.776-0.317,0.93-0.63c0.153-0.313,0.23-0.683,0.23-1.11v-1.76H8.04
		c-0.387,0-0.714,0.12-0.98,0.36c-0.267,0.24-0.433,0.546-0.5,0.92c-0.013,0.04-0.043,0.057-0.09,0.05S6.4,7.08,6.4,7.04
		c0.026-0.347,0.05-0.687,0.069-1.02C6.49,5.686,6.5,5.346,6.5,5c0-0.267-0.007-0.527-0.021-0.78
		c-0.013-0.253-0.033-0.514-0.06-0.78c-0.014-0.04,0.007-0.063,0.06-0.07c0.054-0.007,0.087,0.01,0.101,0.05
		c0.053,0.227,0.109,0.403,0.17,0.53c0.06,0.126,0.137,0.223,0.229,0.29c0.094,0.066,0.217,0.106,0.37,0.12s0.344,0.02,0.57,0.02
		h8.68v-2.4c0-0.32-0.106-0.6-0.319-0.84c-0.214-0.24-0.46-0.414-0.74-0.52c-0.04-0.014-0.054-0.04-0.04-0.08
		c0.013-0.04,0.04-0.06,0.08-0.06l0.26-0.04c0.213,0,0.417,0.027,0.61,0.08c0.192,0.053,0.383,0.106,0.569,0.16
		c0.094,0.026,0.184,0.053,0.271,0.08s0.177,0.053,0.27,0.08c0.067,0.027,0.08,0.067,0.04,0.12c-0.133,0.2-0.217,0.403-0.25,0.61
		S17.3,2,17.3,2.24v6.4c0,0.146,0.033,0.333,0.101,0.56c0.013,0.053,0.026,0.1,0.039,0.14c0.014,0.04,0.027,0.087,0.04,0.14
		L17.4,9.58C17.093,9.58,16.766,9.573,16.42,9.56z"/>
	<path fill="#FFFFFF" d="M6.36,21.74c0.04-0.707,0.06-1.407,0.06-2.101c0-0.253-0.004-0.503-0.01-0.75
		c-0.007-0.246-0.018-0.503-0.03-0.77c0-0.04,0.023-0.063,0.07-0.07c0.046-0.007,0.076,0.01,0.09,0.051
		c0.12,0.412,0.28,0.68,0.479,0.799c0.2,0.121,0.514,0.181,0.94,0.181h4.16v-6.14h-4.2c-0.84,0-1.3,0.433-1.38,1.3
		c0,0.04-0.027,0.06-0.08,0.06c-0.054,0-0.08-0.02-0.08-0.06c0-0.214,0-0.42,0-0.62c0-0.187-0.007-0.387-0.02-0.6
		c0-0.147-0.004-0.317-0.011-0.51C6.343,12.316,6.34,12.146,6.34,12c0-0.16,0-0.327,0-0.5s0.007-0.347,0.021-0.52
		c0-0.053,0.003-0.117,0.01-0.19s0.01-0.137,0.01-0.19c0-0.04,0.023-0.063,0.07-0.07c0.046-0.007,0.076,0.01,0.09,0.05
		c0.04,0.213,0.083,0.387,0.13,0.52c0.047,0.133,0.113,0.233,0.2,0.3c0.086,0.067,0.196,0.11,0.33,0.13
		c0.133,0.02,0.307,0.03,0.52,0.03h8.521c0.293,0,0.513-0.117,0.66-0.35c0.146-0.233,0.227-0.483,0.239-0.75h0.16
		c-0.04,0.56-0.06,1.113-0.06,1.66c0,0.227,0.003,0.453,0.01,0.68s0.01,0.453,0.01,0.68v0.42c0,0.04-0.026,0.06-0.08,0.06
		c-0.053,0-0.08-0.02-0.08-0.06c0-0.24-0.073-0.457-0.22-0.65s-0.354-0.29-0.62-0.29H12.78v6.12h3.399c0.32,0,0.523-0.083,0.61-0.25
		s0.163-0.37,0.229-0.61c0.014-0.053,0.027-0.104,0.04-0.15c0.014-0.047,0.027-0.096,0.04-0.149c0.014-0.04,0.043-0.057,0.09-0.05
		c0.047,0.006,0.07,0.029,0.07,0.07c-0.04,0.64-0.06,1.26-0.06,1.859c0,0.267,0.003,0.537,0.01,0.811s0.017,0.543,0.03,0.81
		c0,0.04-0.023,0.063-0.07,0.07s-0.077-0.011-0.09-0.05c-0.054-0.294-0.13-0.527-0.23-0.7c-0.1-0.174-0.316-0.261-0.649-0.261H8
		c-0.453,0-0.794,0.101-1.021,0.301c-0.227,0.199-0.38,0.526-0.46,0.98L6.36,21.74z"/>
	<path fill="#FFFFFF" d="M6.21,32.889c-0.06-0.246-0.09-0.49-0.09-0.73c0-0.399,0.073-0.76,0.22-1.08
		c0.146-0.319,0.333-0.606,0.561-0.859c0.227-0.254,0.486-0.49,0.779-0.71s0.594-0.431,0.9-0.63c0.28-0.188,0.557-0.384,0.83-0.59
		c0.272-0.207,0.52-0.434,0.74-0.68c0.22-0.248,0.396-0.514,0.529-0.801c0.134-0.287,0.2-0.609,0.2-0.97c0-0.106,0-0.214,0-0.32
		c0-0.093-0.014-0.193-0.04-0.3H8c-0.387,0-0.717,0.117-0.99,0.35c-0.273,0.233-0.43,0.543-0.47,0.93H6.38
		c0.026-0.307,0.05-0.609,0.07-0.909c0.02-0.3,0.029-0.604,0.029-0.91s-0.013-0.604-0.04-0.89c-0.026-0.287-0.06-0.584-0.1-0.891
		c-0.014-0.039,0.003-0.07,0.05-0.09s0.083-0.01,0.11,0.03c0.133,0.28,0.333,0.513,0.6,0.7c0.267,0.186,0.554,0.279,0.86,0.279
		h7.979c0.307,0,0.577-0.109,0.811-0.33c0.233-0.22,0.39-0.482,0.47-0.789c0.014-0.041,0.043-0.057,0.09-0.051
		c0.047,0.007,0.07,0.03,0.07,0.07v3.939c0,0.414-0.05,0.82-0.15,1.221c-0.1,0.4-0.257,0.753-0.47,1.061
		c-0.213,0.306-0.493,0.553-0.84,0.739s-0.76,0.28-1.24,0.28c-0.64,0-1.247-0.178-1.819-0.53c-0.574-0.354-1.067-0.75-1.48-1.19
		c-0.16,0.146-0.363,0.307-0.61,0.48c-0.246,0.174-0.503,0.359-0.77,0.561c-0.4,0.293-0.811,0.603-1.23,0.93
		c-0.42,0.326-0.8,0.67-1.14,1.029c-0.34,0.36-0.606,0.733-0.8,1.121c-0.193,0.386-0.264,0.779-0.21,1.18l-0.16,0.06
		C6.353,33.373,6.269,33.135,6.21,32.889z M14.979,28.389c0.347-0.1,0.66-0.25,0.94-0.449c0.28-0.201,0.51-0.447,0.69-0.74
		c0.18-0.294,0.27-0.634,0.27-1.021c0-0.16-0.01-0.319-0.03-0.479c-0.02-0.16-0.063-0.314-0.13-0.461H11.74
		c-0.04,0.227-0.067,0.447-0.08,0.66c-0.014,0.213-0.021,0.434-0.021,0.66c0,0.746,0.203,1.264,0.61,1.551
		c0.406,0.286,0.97,0.43,1.689,0.43C14.286,28.54,14.633,28.489,14.979,28.389z"/>
</g>
</svg>
