<?xml version="1.0" encoding="utf-8"?>
<!-- Generator: Adobe Illustrator 16.0.3, SVG Export Plug-In . SVG Version: 6.00 Build 0)  -->
<!DOCTYPE svg PUBLIC "-//W3C//DTD SVG 1.1//EN" "http://www.w3.org/Graphics/SVG/1.1/DTD/svg11.dtd">
<svg version="1.1" id="Layer_1" xmlns="http://www.w3.org/2000/svg" xmlns:xlink="http://www.w3.org/1999/xlink" x="0px" y="0px"
	 width="22.32px" height="36.82px" viewBox="0 0 22.32 36.82" enable-background="new 0 0 22.32 36.82" xml:space="preserve">
<g enable-background="new    ">
	<path fill="#FFFFFF" d="M16.939,14.859c-0.119-0.173-0.233-0.313-0.34-0.42c-0.12-0.093-0.37-0.21-0.75-0.35
		c-0.38-0.14-0.833-0.29-1.359-0.45c-0.527-0.16-1.107-0.327-1.74-0.5c-0.634-0.173-1.271-0.347-1.91-0.52
		c-0.493-0.134-0.974-0.264-1.439-0.39c-0.468-0.127-0.904-0.25-1.311-0.37c-0.407-0.12-0.77-0.23-1.09-0.33
		c-0.32-0.1-0.58-0.19-0.78-0.27c-0.026-0.013-0.043-0.037-0.05-0.07s0.003-0.063,0.03-0.09c0.893-0.467,1.826-0.877,2.8-1.23
		c0.973-0.354,1.96-0.697,2.96-1.03c0.507-0.173,0.977-0.33,1.41-0.47c0.433-0.14,0.896-0.304,1.39-0.49
		c-0.653-0.28-1.313-0.547-1.979-0.8c-0.667-0.253-1.334-0.507-2-0.76c-0.747-0.28-1.514-0.57-2.301-0.87
		c-0.786-0.3-1.547-0.61-2.279-0.93c-0.04-0.027-0.058-0.057-0.05-0.09c0.006-0.034,0.029-0.057,0.069-0.07
		c0.547-0.173,1.177-0.34,1.891-0.5c0.713-0.16,1.449-0.313,2.21-0.46c1.119-0.227,2.203-0.47,3.25-0.73
		c1.046-0.26,1.89-0.55,2.529-0.87c0.293-0.146,0.493-0.29,0.601-0.43c0.106-0.14,0.22-0.317,0.34-0.53
		c0.026-0.053,0.057-0.11,0.09-0.17s0.07-0.124,0.11-0.19c0.026-0.04,0.06-0.05,0.1-0.03s0.053,0.05,0.04,0.09
		c-0.014,0.066-0.02,0.126-0.02,0.18c0,0.053-0.007,0.113-0.021,0.18c-0.026,0.28-0.057,0.55-0.09,0.81
		c-0.033,0.26-0.05,0.53-0.05,0.81c0,0.52,0.04,1.06,0.12,1.62c0.013,0.04-0.007,0.066-0.061,0.08c-0.054,0.013-0.087,0-0.1-0.04
		c-0.054-0.147-0.12-0.293-0.2-0.44c-0.08-0.147-0.174-0.273-0.28-0.38c-0.974,0.107-1.923,0.253-2.85,0.44s-1.863,0.374-2.811,0.56
		c-0.427,0.093-0.803,0.17-1.13,0.23c-0.326,0.06-0.696,0.13-1.109,0.21c1.453,0.533,2.873,1.067,4.26,1.6s2.793,1.086,4.22,1.66
		c0.026,0.013,0.043,0.037,0.05,0.07s-0.003,0.063-0.029,0.09c-0.92,0.44-1.888,0.843-2.9,1.21c-1.014,0.366-2.033,0.723-3.06,1.07
		c-0.454,0.146-0.894,0.29-1.32,0.43c-0.427,0.14-0.867,0.29-1.32,0.45c0.561,0.173,1.187,0.363,1.88,0.57
		c0.693,0.207,1.394,0.396,2.101,0.57c0.706,0.173,1.396,0.316,2.069,0.43c0.674,0.113,1.283,0.17,1.83,0.17
		c0.08,0,0.153-0.034,0.221-0.1c0.066-0.067,0.126-0.147,0.18-0.24c0.053-0.093,0.093-0.19,0.12-0.29
		c0.026-0.1,0.047-0.184,0.06-0.25c0.014-0.04,0.043-0.057,0.09-0.05s0.07,0.03,0.07,0.07c-0.026,0.347-0.047,0.69-0.06,1.03
		c-0.014,0.34-0.021,0.683-0.021,1.03c0,0.173,0,0.34,0,0.5c0,0.173,0.007,0.354,0.021,0.54h-0.16
		C17.106,15.199,17.059,15.032,16.939,14.859z"/>
	<path fill="#FFFFFF" d="M11.41,25.679c-0.113-0.2-0.304-0.301-0.57-0.301H7.12c-0.014,0-0.033-0.013-0.061-0.039
		c-0.373-0.494-0.604-1.04-0.689-1.641c-0.087-0.6-0.13-1.193-0.13-1.779c0-0.934,0.123-1.791,0.37-2.57
		c0.246-0.78,0.612-1.454,1.1-2.02c0.486-0.567,1.104-1.007,1.85-1.32c0.747-0.313,1.62-0.47,2.62-0.47c0.88,0,1.66,0.157,2.34,0.47
		c0.681,0.313,1.25,0.743,1.71,1.29c0.46,0.546,0.807,1.187,1.04,1.92s0.351,1.513,0.351,2.34c0,0.467-0.03,0.933-0.09,1.399
		c-0.061,0.467-0.124,0.928-0.19,1.381c-0.026,0.187-0.05,0.359-0.07,0.52c-0.02,0.16-0.043,0.326-0.069,0.5
		c0,0.053-0.027,0.08-0.08,0.08c-0.36,0-0.704-0.027-1.03-0.08c-0.327-0.053-0.663-0.106-1.01-0.16
		c-0.067-0.014-0.141-0.023-0.22-0.029c-0.08-0.008-0.154-0.018-0.221-0.03c-0.04-0.014-0.06-0.04-0.06-0.08s0.02-0.067,0.06-0.08
		c0.427-0.08,0.793-0.22,1.101-0.42c0.307-0.2,0.56-0.45,0.76-0.75s0.347-0.634,0.439-1c0.094-0.366,0.141-0.75,0.141-1.149
		c0-0.681-0.113-1.314-0.34-1.9c-0.228-0.587-0.544-1.097-0.95-1.53c-0.407-0.433-0.894-0.773-1.46-1.02
		c-0.567-0.247-1.19-0.37-1.87-0.37c-0.747,0-1.453,0.136-2.12,0.41s-1.247,0.65-1.74,1.13s-0.883,1.043-1.17,1.691
		C7.142,20.717,7,21.412,7,22.16c0,0.307,0.043,0.629,0.13,0.969c0.087,0.341,0.23,0.624,0.43,0.851h3.32
		c0.227,0,0.38-0.069,0.46-0.21s0.146-0.297,0.2-0.47c0.026-0.067,0.053-0.144,0.08-0.229c0.026-0.088,0.066-0.178,0.12-0.271
		c0.026-0.04,0.057-0.054,0.09-0.04s0.05,0.04,0.05,0.08c0,1.173-0.02,2.34-0.06,3.5l-0.16,0.02
		C11.606,26.105,11.523,25.879,11.41,25.679z"/>
	<path fill="#FFFFFF" d="M16.42,36.359c-0.347-0.014-0.667-0.061-0.96-0.141c-0.04-0.013-0.06-0.039-0.06-0.08
		c0-0.026,0.02-0.047,0.06-0.06c0.467-0.106,0.776-0.317,0.93-0.63c0.153-0.313,0.23-0.684,0.23-1.109v-1.761H8.04
		c-0.387,0-0.714,0.12-0.98,0.36s-0.433,0.547-0.5,0.92c-0.013,0.04-0.043,0.057-0.09,0.05S6.4,33.879,6.4,33.84
		c0.026-0.348,0.05-0.688,0.069-1.021c0.021-0.333,0.03-0.673,0.03-1.021c0-0.267-0.007-0.526-0.021-0.779
		c-0.013-0.254-0.033-0.514-0.06-0.78c-0.014-0.04,0.007-0.063,0.06-0.069c0.054-0.008,0.087,0.01,0.101,0.049
		c0.053,0.227,0.109,0.404,0.17,0.531c0.06,0.126,0.137,0.223,0.229,0.289c0.094,0.066,0.217,0.107,0.37,0.12
		s0.344,0.021,0.57,0.021h8.68v-2.4c0-0.32-0.106-0.6-0.319-0.84c-0.214-0.24-0.46-0.414-0.74-0.52
		c-0.04-0.014-0.054-0.041-0.04-0.08c0.013-0.041,0.04-0.061,0.08-0.061l0.26-0.04c0.213,0,0.417,0.026,0.61,0.08
		c0.192,0.054,0.383,0.106,0.569,0.16c0.094,0.026,0.184,0.053,0.271,0.079c0.087,0.027,0.177,0.054,0.27,0.08
		c0.067,0.027,0.08,0.067,0.04,0.121c-0.133,0.199-0.217,0.402-0.25,0.609s-0.05,0.43-0.05,0.67v6.4
		c0,0.146,0.033,0.333,0.101,0.561c0.013,0.053,0.026,0.1,0.039,0.139c0.014,0.041,0.027,0.088,0.04,0.141l-0.079,0.1
		C17.093,36.379,16.766,36.373,16.42,36.359z"/>
</g>
</svg>
